<svg id="Layer_1" data-name="Layer 1" xmlns="http://www.w3.org/2000/svg" width="469.0897" height="463.224" viewBox="0 0 469.0897 463.224"><defs><style>.cls-1{fill:#084a30;}.cls-1,.cls-2,.cls-3,.cls-4,.cls-5,.cls-6,.cls-7,.cls-8,.cls-9{opacity:0.98;isolation:isolate;}.cls-2{fill:#07492f;}.cls-3{fill:#1a4d3c;}.cls-4{fill:#e8f8f5;}.cls-5{fill:#3c6d63;}.cls-6{fill:#4a7065;}.cls-7{fill:#e6f2f0;}.cls-8{fill:#e1f7ef;}.cls-9{fill:#dbf7f2;}</style></defs><path class="cls-1" d="M203.3,30.2c13,27.1,11.4,55.9,9.4,84.5-1.1,15.5-10,27-26,32-2,.6-4,1-5.9,1.7-9,3.5-21.3,5-25.8,11.5-3.5,5,3.9,16.4,4.6,25.1,3.1,35.3,5.5,70.3-2.1,105.9-10.4,48.4-14.5,97.7-6.5,147.4,2.2,13.5,11.4,13.3,20.4,15.7,3.5.9,8,1.3,8.5,5.3.6,4.9-4.7,4.3-7.7,5.5-13.6,5.4-31-7.6-40.2,1.1-12.8,12-24.9,4.7-37.1,5.9-7.9.8-16.2-2.2-24.3-2.6-18.9-.8-22.4-4.6-18.4-23.7,8.5-41.1,17.8-82,25.9-123.2,4.7-24,7.5-48.4,11.8-72.5,1.3-7.4-2.8-10.9-7.4-15C48.7,205.1,48,204.7,68.4,166.3,76.5,151.2,85.3,136,98.7,124c7-6.3,2.1-14.6-1.3-20.3C93.9,98.1,90,92,83.6,88S72.1,78.8,81,71.7c5.2-4.2-1.1-6.9-2.4-9.9C74,51.3,62.9,43.4,82.3,32.5c10.7-6,18.4-18.7,32.8-21.9,11.6-2.6,19.8.2,25.6,10.8,4.5,8.2,7.7,17.6,16.4,23.2,1.2.8,4.8,1.6,1.4,3.3-12.4,5.9-2.8,13.3-2.9,20.6-.2,14.3.4,29.8-10.9,41.7-2.3,4.7-7.6,8.7-2.7,14.7s10.9,4.4,16.9,2.9c21.2-5.5,32.7-24.9,30-50.7-1.3-12,.2-24.5-6.6-35.5-.2-.3,1.8-1.8,2.7-2.7C188.8,31.5,192,22.7,203.3,30.2Z" transform="translate(-50.725 -9.6922)"/><path class="cls-2" d="M373.9,48.1c4.5,15.8,3.4,32.7,9.8,48.1,6,13.3,18.2,20,30.5,26.6l6.1.5c10.7-2.4,10.7-2.6,3.1-11.5-7.7-4.2-9.9-9.9-9.3-18.9.9-13.2,0-26.2,2.9-39.7,3-13.8,12.8-23.1,17.8-35.4,1.9-4.7,8.3-3.8,12.4-1.9C460.6,22,472,33,488.6,30.6c.4,6.7,18.2,5.6,7.2,18.8-4.8,5.8-11.2,16.5-4.1,27.2,2.6,4-.2,9.8-4.6,13.2-21.4,16.9-22.4,22.6-4.2,41.2,16.3,16.7,25.6,37,34.8,57.6,5.3,12-2,18.5-10.7,24.7-5.2,1.3-7.4-3.8-6.3-5.6,4-6.7-3.4-7.5-4.9-11.1-2.6-2.7-1.1-12-9.4-5.5-6.8,3.2-10.3,7.2-4.6,14.4,9.7,12.4.9,25.2.3,37.7-.2,3.6,3.4,1,3.2,3.1,5.5,17.8,7.6,35.6,5,54.5s5.2,37.3,8.8,55.8c5.7,29.3,12.8,58.4,19.4,87.6,4.1,18.2-1.1,25.1-19.7,24.2-8-.4-14.9,3.1-22.6,3.6-26.6,1.7-51.6-9.4-78.1-8.9-2.3.1-5.5-.3-5.5-3.7,0-2.8,2.3-4.3,4.7-5.3,1.4-.6,2.9-1.7,4.3-1.7,20.2.7,20.6-13.9,22.7-27.4,5.1-32.2-2.7-63.7-5-95.5-2.2-30.3-9.1-60.5-9.5-90.8-.4-27.1,2.4-54.7,10.4-81.2,2.3-7.7,1.4-11.3-7.7-10.7-29.1,1.8-42.2-14.9-49.8-39.4-7-22.5-12.5-44.9-9.5-68.5C366.8,26.5,367.3,44,373.9,48.1Z" transform="translate(-50.725 -9.6922)"/><path class="cls-3" d="M485.2,246.5c-5.2-.3-8.3,3.2-5-7.2,4.7-14.6,5.2-33.4-10.3-47.7,6.6,3.9,10.8,1.5,14.8-2.4,1.2,8.6,6.9,7.7,13,5.9a68.4191,68.4191,0,0,0,7.2,4.7c4.2,2.1,4.3,2,.5,5.2-2,1.7-2,1.7,1.6,8.2-2,5.4-7,8.5-11.4,11.1C486.6,229.9,483.6,237,485.2,246.5Z" transform="translate(-50.725 -9.6922)"/><path class="cls-4" d="M188.7,77.1c7.7,28.7-7.8,50.3-37.3,56.5-14.3,3-15.2-8.4-18.1-13.8-4.4-7.9,6.7-7,11.3-9.7,1.7,16.8,4.2,18.3,19.4,11.3C183.2,112.5,186.6,95.1,188.7,77.1Z" transform="translate(-50.725 -9.6922)"/><path class="cls-5" d="M373.9,48.1c-7.8-1.3-9.7-15.7-21.1-8.9-3.1-9.8,6-13.3,11.3-13.8,8.1-.7,7.4,7.4,6.8,13.2C370.4,42.3,372.3,45.1,373.9,48.1Z" transform="translate(-50.725 -9.6922)"/><path class="cls-6" d="M203.3,30.2c-8.8-2.4-13.2,3.9-18.4,8.7a58.4544,58.4544,0,0,0,.4-5.9c-.3-4.9-5.2-12.2,3-13.4C194.4,18.6,202.8,20.6,203.3,30.2Z" transform="translate(-50.725 -9.6922)"/><path class="cls-7" d="M414.2,122.8c-14.9-3.8-26.9-10.6-30.5-26.6C390.9,108.2,406.9,110.8,414.2,122.8Z" transform="translate(-50.725 -9.6922)"/><path class="cls-7" d="M423.4,111.7c4.7,2,13.1,2.2,11.5,8.4-1.3,5.3-8.5,7.2-14.6,3.1C427.3,121,423.9,116,423.4,111.7Z" transform="translate(-50.725 -9.6922)"/><path class="cls-8" d="M92.3,215.6c-22.7-16.4-23-17.7-6.8-31.4C88.6,194.5,91.9,204.5,92.3,215.6Z" transform="translate(-50.725 -9.6922)"/><path class="cls-9" d="M497.7,195.2l-13.8,12.1c-4.1-6.7,1.6-12.3.7-18.1,2.1-2.9,1.2-9.9,5.8-8.3A11.546,11.546,0,0,1,497.7,195.2Z" transform="translate(-50.725 -9.6922)"/></svg>