<svg id="svg38" xmlns="http://www.w3.org/2000/svg" width="502.5877" height="451.2924" viewBox="0 0 502.5877 451.2924"><defs><style>.cls-1{fill:#191516;}.cls-2{fill:#1a1a1a;}.cls-3{fill:#014881;}.cls-4{fill:#8ac6e8;}</style></defs><g id="_191516ff" data-name=" 191516ff"><path id="path5" class="cls-1" d="M244.2416-35.1139C252.57-64.5592,291.7333-72.79,305.238-44.7358,316.83-25.608,305.013.2436,317.0547,19.3714c3.4887,2.2026,7.09,4.2893,9.4533,8.3467,23.2957,34.7779,34.3246,79.6414,36.1252,124.1571,6.8649-20.403,10.3537-42.8927,20.7073-61.4409A48.2357,48.2357,0,0,1,422.0541,94.26c3.0385,5.68,6.19,11.3608,9.1157,17.1571,2.2508.3478,6.8649,1.0434,9.1157,1.5071.9,12.4041-6.64,21.7941-11.9292,31.1842,2.0257,6.84,4.164,13.5634,6.19,20.403,3.3761,1.9708,9.7909,3.3619,6.9774,9.8538a95.1856,95.1856,0,0,1-5.5144,10.0855c.7878,8.4627,2.8135,16.8094,10.5787,18.896-2.7009,17.2731-20.82,19.36-25.7715,34.7779-3.8264,9.6219-6.7524,19.9394-11.9292,28.6338-4.2765,6.4919-11.4791,7.0716-17.5562,9.506-3.8264-11.5926-7.8778-23.3012-8.44-35.9372l-.3376-3.8255c-8.7781-13.3316-18.6816-26.3153-30.6108-35.3576-18.7941-7.5352-38.7135-2.2026-57.8453-1.9707-5.6269-5.9123,2.4759-11.8245,4.9518-16.9253,3.1511-5.68,9.6784-10.0855,9.1157-17.7367-6.4148-10.6652-18.2314-7.9989-27.5722-10.3174,1.0128-8.6945,2.0257-17.2731,2.926-25.9675-5.1768,7.5352-9.5658,15.8819-15.53,22.6056-14.5176-1.7389-28.6976-6.26-43.3277-7.1874,1.0128-17.8527-3.4888-36.4009,1.35-53.6739-10.3536-14.0271-18.3439-30.1409-25.659-46.7184l-2.8135-.2318h0c1.6881,0,1.1254.2318,2.8135.2318h0s-.45-7.9989,6.3022-15.5341c10.2411,8.3467,15.643,22.026,25.7716,30.8364a170.4864,170.4864,0,0,1,4.2765-18.2c5.852,12.1723,3.6012,27.59,8.8906,40.2264.2251,4.5212.5627,9.0423.7878,13.4475-.1126,12.7519.1125,25.5038.7877,38.14,12.8295-31.3,20.2572-67.0055,40.0641-93.2048-5.2893-13.7953-16.8809-7.4193-25.8841-4.2893-2.2508-5.68-3.4887-11.94-5.5144-17.6208a101.5935,101.5935,0,0,1-8.8906-6.26c4.9517-.3478-4.9517,0,0,0,3.0385-15.65-6.7524-30.2568-2.701-45.9069m10.9164,21.91c-4.164,2.7823-4.2765,5.4486-.1126,7.883,4.2765-2.6663,4.2765-5.3326.1126-7.883Z" transform="translate(56 62)"/><path id="path9" class="cls-1" d="M166.927,50.6715c3.2636-3.71,6.8649-4.2892,10.5787-1.8548C180.3192,56.5838,162.763,59.25,166.927,50.6715Z" transform="translate(56 62)"/></g><g id="_014881ff" data-name=" 014881ff"><path id="path12" class="cls-2" d="M255.158-13.2039c4.1639,2.55,4.1639,5.1008-.1126,7.883C250.994-7.7553,250.994-10.4216,255.158-13.2039Z" transform="translate(56 62)"/><path id="path14" d="M236.9266,21.3422c.6752-5.2167,2.926-6.26,6.8649-2.8982C243.2288,23.6607,240.8654,24.7041,236.9266,21.3422Z" transform="translate(56 62)"/><path id="path16" class="cls-3" d="M-39.2455,173.5535c9.4534-8.9264,20.37-15.0705,32.6365-13.9112-12.83,10.0856-28.1349,22.2579-30.3857,42.4291,1.5756,11.5926,8.1029,20.7508,11.9292,31.416,5.5145,12.8678,1.5756,27.7064,1.1254,41.3857,16.7684-8.3467,31.286-25.04,49.9676-26.779,13.1671-.2319,16.5433,19.8234,16.9934,32.5753-1.5755,19.5915-4.389,40.1105,3.3762,58.4269-24.6461.6956-49.2923.2318-73.9384,1.0433-1.3505,16.1138-2.701,32.1116-3.8264,48.2254-3.7138.2319-7.3151.3478-10.9163.4637-.2251-16.4616,0-32.9231-.2251-49.2687-12.6044-6.0282-6.5273-24.5764-10.5787-36.6327-6.19-17.8527-.6752-37.3283-.1125-55.8765C-50.2743,222.2425-54.1006,193.7247-39.2455,173.5535Z" transform="translate(56 62)"/><path id="path18" class="cls-3" d="M54.7251,160.2219c39.2763-.6955,78.5526-.4637,117.8288-.1159-15.7555,10.6652-32.974,20.1712-51.43,19.7075C98.1653,179.002,76.1076,169.7279,54.7251,160.2219Z" transform="translate(56 62)"/><path id="path20" class="cls-3" d="M346.8777,268.6131c14.0674-4.4052,25.7715-15.9979,36.0126-28.286.6753,12.6359,4.7267,24.3445,8.44,35.9371,5.9646-2.3185,13.28-2.8981,17.5562-9.5059,5.1768-8.6945,7.99-19.1279,11.9292-28.6338,4.2764,32.1116,6.0771,65.6143.5627,97.61-3.4888,2.55-9.9035,4.2893-8.328,11.2449-.2251,14.0271.2251,28.0542-.1125,42.1972-3.4887,0-6.9775,0-10.4662.1159-1.3505-16.4615-2.926-32.8071-4.5016-49.2687-91.2695-.8115-182.5391,1.1593-273.6961-1.0433,16.3182-13.4475,32.0738-27.9383,48.1669-41.7335,6.7524-5.2167,14.5176-12.2882,22.8456-8.9263,20.9323,7.9989,42.8775,14.7226,64.9353,11.013,16.3182-2.8982,28.585-18.3164,44.228-23.9968C317.955,268.4971,332.81,270.9316,346.8777,268.6131Z" transform="translate(56 62)"/></g><g id="_8ac6e8ff" data-name=" 8ac6e8ff"><path id="path23" d="M210.5923,11.72q5.5707-4.8689,11.479-1.0433C225.4475,19.4874,206.2033,20.9944,210.5923,11.72Z" transform="translate(56 62)"/><path id="path25" d="M160.0621,15.1981c3.3761-3.0141,6.8649-3.13,10.3536-.3478C170.7533,20.5307,159.4994,20.9944,160.0621,15.1981Z" transform="translate(56 62)"/><path id="path27" d="M211.2675,23.7766c2.8135-3.13,9.791-4.5211,11.1414,1.0434C221.2836,31.1959,207.5539,31.7756,211.2675,23.7766Z" transform="translate(56 62)"/><path id="path29" d="M240.64,26.327c3.9388-3.4778,6.3022-2.7822,7.2025,2.3185C244.0165,32.2393,241.5407,31.4278,240.64,26.327Z" transform="translate(56 62)"/><path id="path31" d="M218.92,34.5578c2.9261-4.6371,5.4019-4.5211,7.4276.1159C223.4218,39.3108,220.9459,39.1948,218.92,34.5578Z" transform="translate(56 62)"/><path id="path33" d="M160.6248,36.5285c-.1126-5.4485,11.1414-5.7963,10.9163-.2318C167.8273,39.1948,164.2261,39.3108,160.6248,36.5285Z" transform="translate(56 62)"/><path id="path35" class="cls-4" d="M267.7624,150.716c5.9646-6.6078,10.3536-15.07,15.53-22.6057-.7877,8.6945-1.9131,17.2731-2.926,25.9675,9.3408,2.3186,21.1574-.3477,27.5722,10.3175.5627,7.7671-5.9646,12.0563-9.1157,17.7367-2.4759,5.1008-10.5787,11.013-4.9518,16.9253,19.2443-.2319,39.1638-5.5645,57.8454,1.9707,12.0417,9.1582,21.8326,22.026,30.6107,35.3575l.3376,3.8256c-10.1285,12.4041-21.9452,23.9968-36.0126,28.286-14.18,2.3186-28.9227-.2318-42.4274,6.7238-15.643,5.68-27.7973,21.0986-44.2281,23.9967-22.0577,3.5937-44.0029-3.0141-64.9353-11.013-8.44-3.3618-16.0931,3.71-22.8455,8.9263-16.0931,13.7953-31.9612,28.2861-48.1669,41.7335-14.18,10.6652-30.1606,22.142-47.4917,18.896-11.1414-1.7389-25.2088-4.4052-30.2731-18.6641-7.8778-18.3164-4.9518-38.8354-3.3762-58.4269-.45-12.7519-3.8264-32.8072-16.9935-32.5753C7.2334,249.833-7.2842,266.41-24.0526,274.8731c.45-13.6793,4.389-28.5179-1.1254-41.3857-3.7138-10.5493-10.2411-19.8234-11.9292-31.4161,2.2508-20.1712,17.5561-32.3434,30.3856-42.429,19.1318-11.94,41.64-6.9556,61.2216.4637,21.495,9.39,43.5528,18.78,66.3983,19.5916,18.4565.4637,35.5625-9.0423,51.43-19.7075,15.8681-10.7812,33.1992-21.4464,51.8808-16.6934C239.0648,144.456,253.2448,148.9771,267.7624,150.716Z" transform="translate(56 62)"/></g></svg>