<svg id="Layer_1" data-name="Layer 1" xmlns="http://www.w3.org/2000/svg" width="336.1003" height="371.6498" viewBox="0 0 336.1003 371.6498"><defs><style>.cls-1{fill:#fff;}.cls-2{fill:#181516;}</style></defs><g id="_ffffffff" data-name="#ffffffff"><path class="cls-1" d="M177.5153,89.8133C204.9726,85.43,230.8967,67.1547,239.6688,40.29c37.2279,22.0224,79.2341,37.5051,122.9876,38.0354a159.3639,159.3639,0,0,0-20.54,16.5432c-18.8636,8.0949-39.0108,12.4428-56.3054,23.9665-.8915-19.5832-25.7814-28.8093-41.4-19.159-8.2729,3.9944-10.4481,13.6446-12.3023,21.6688C211.4982,116.4663,189.2471,108.5481,177.5153,89.8133Z" transform="translate(-29.6734 38.2123)"/><path class="cls-1" d="M292.7292,59.5546c14.5132-3.7116,29.5256-7.9181,40.7938-18.3107.7132,10.64,1.9613,21.2447,2.96,31.8847-15.6543-.9191-30.2387-6.893-45.43-10.0037Z" transform="translate(-29.6734 38.2123)"/></g><g id="_181516ff" data-name="#181516ff"><path class="cls-2" d="M127.6641-9.7291C144.1029-30.0547,171.3463-40.27,197.27-37.8667c29.062,2.58,55.8419,22.9767,65.0775,50.5488,5.0993,12.5488,4.2434,26.1935,3.7086,39.4139,5.67,2.0856,11.0186,5.1256,16.9023,6.5042A104.9793,104.9793,0,0,0,335.3416,37.25c1.64,12.3721,2.71,24.78,3.2807,37.2577,9.0573.6363,18.186.813,27.1007-.99.7132,6.1861-6.276,8.8373-9.8062,12.7256-18.4,19.8661-48.0325,19.6893-69.3209,35.3135-2.46,40.3684-.3923,80.9488-1.0341,121.3879-.4636,11.5591,2.71,26.6177-8.1659,34.6065-11.09,9.65-31.7364,8.7665-39.8667-4.2772a473.1626,473.1626,0,0,0-33.2341-41.1107c-4.6713,33.334-11.09,66.3851-15.5116,99.7191-53.0248,1.3786-106.0853-.0354-159.11,1.5553,1.9256-23.719,6.383-47.1553,9.7349-70.6976,5.0992-27.4661,8.2372-55.4624,16.724-82.1861,6.0977-18.5228,17.8295-36.48,35.6233-45.706,47.4263-18.24,107.0124-9.4028,141.4232,29.6576-.1783-13.0437-.3566-26.1227.321-39.1665-9.3783-3.8883-19.47-5.7972-28.67-10.18-11.3752-5.9386-24.6047-2.9693-36.6217-6.5042-26.0667-6.787-48.8884-27.9256-54.63-54.4372-6.24-21.9517-.1426-46.307,14.0853-63.9461m49.8512,99.5424c11.7318,18.7348,33.9829,26.653,54.5938,31.5311,1.8542-8.0242,4.0294-17.6744,12.3023-21.6688,15.6186-9.65,40.5085-.4242,41.4,19.159,17.2946-11.5237,37.4418-15.8716,56.3054-23.9665a159.3639,159.3639,0,0,1,20.54-16.5432c-43.7535-.53-85.76-16.013-122.9876-38.0354-8.7721,26.8652-34.6962,45.1405-62.1535,49.5238M292.7292,59.5546l-1.676,3.57c15.1908,3.1107,29.7752,9.0846,45.43,10.0037-.9984-10.64-2.2465-21.2447-2.96-31.8847C322.2548,51.6365,307.2424,55.843,292.7292,59.5546Z" transform="translate(-29.6734 38.2123)"/></g></svg>