<svg id="Layer_1" data-name="Layer 1" xmlns="http://www.w3.org/2000/svg" width="426" height="453.4392" viewBox="0 0 426 453.4392"><path d="M-152.4836-221.5307c-5.1637,3.3731-6.9709,6.3245-6.9709,11.595,0,5.6921,2.5818,8.8544,16.0072,18.9737,14.9746,11.3842,16.2655,12.0167,25.8182,10.7517,7.2291-1.0541,13.4255-.2108,21.1709,2.53,10.5855,3.7947,12.6509,6.1137,18.0727,20.2386,1.291,2.9514,3.0982,3.5839,8.2619,2.53a41.9134,41.9134,0,0,1,31.7563,7.1678c7.2291,5.4813,8.0037,7.1679,8.0037,18.7629v12.86h13.4254c14.9746,0,33.0473,6.1137,40.2764,13.4924,2.84,3.1622,8.2618,5.27,15.4909,5.9029,23.4945,2.7406,39.2436,17.92,39.2436,38.1582,0,8.4327,1.8073,14.1248,6.4546,20.66,11.36,16.4439,7.4872,45.7477-6.9709,49.5424-3.8728.8433-4.1309,3.1623-2.84,18.3413,1.2909,15.8114.7745,17.92-4.9055,24.6658-7.7454,9.276-21.4291,16.8655-30.7236,16.8655-8.2618,0-11.8764,3.1622-5.9382,5.06,2.3236.6325,9.8109,1.2649,17.04,1.2649,12.3927,0,13.6836.6325,33.5636,15.179L104.4073,108.19l6.9709-6.3245c3.6145-3.3731,19.1054-17.0764,33.8218-30.3579s33.5636-29.9363,41.8255-36.8933S202,20.9109,202,19.4351c0-1.2649-8.52-8.8544-19.1055-16.4438L163.7891-11.1336l-1.0327-16.0222c-.7746-12.6492-2.5819-18.9737-8.52-28.4606C145.9745-69.1088,136.1636-77.3307,60-134.0409c-27.6255-20.66-57.5745-43.2179-66.6109-49.9641-9.0364-6.957-17.5564-12.2275-19.1055-11.8058-4.3891,1.2649-12.3927,14.5464-12.3927,20.66,0,9.0652,7.2291,17.2871,29.9491,34.3635,19.88,15.1789,26.0764,22.5576,18.8473,22.5576-2.5818,0-41.5673-28.25-81.0691-58.8185-37.1782-28.8821-62.2218-46.38-68.6764-47.645C-143.4473-225.5363-147.5782-224.693-152.4836-221.5307Z" transform="translate(224 225)"/><path d="M-211.3491-211.4114a12.5936,12.5936,0,0,0-5.68,10.9625c0,6.1138,2.84,9.2761,22.72,24.6658,19.88,15.179,24.0109,17.498,32.0146,17.498a89.3426,89.3426,0,0,1,14.7163,1.2649c4.3891.8433,5.68-.2108,8.2618-6.957l3.0982-8.0111-21.1709-16.8655C-192.76-216.8927-198.9564-219.4225-211.3491-211.4114Z" transform="translate(224 225)"/><path d="M-218.32-163.3448c-4.1309,2.3191-5.68,5.27-5.68,10.9626,0,6.7462,2.0655,9.276,16.2655,20.2386l16.0072,12.4383,1.5491-8.2219a69.1492,69.1492,0,0,1,5.68-16.4439c4.1309-7.8,4.1309-8.4327,0-11.595C-199.2145-167.1395-208.2509-169.0369-218.32-163.3448Z" transform="translate(224 225)"/><path d="M-123.3091-160.3933c-2.84,2.319-5.1636,6.7462-5.1636,9.9085-.2582,3.3731-.2582,41.9529,0,86.2249.2582,68.9377-.2582,80.7436-3.6146,82.8517-2.0654,1.4758-5.1636,2.1082-6.7127,1.265s-2.5818-26.3524-2.5818-75.4732c0-84.1167,0-83.695-17.8146-83.695-18.5891,0-18.3309-1.4757-18.3309,81.5869,0,62.8239-.5163,74.2082-3.8727,76.5272-3.0982,2.1082-4.1309,2.1082-5.1636-.2109-.5164-1.6865-1.5491-27.1956-1.8073-56.921-.7746-49.7533-1.2909-54.6021-5.68-58.6076-4.9055-4.4272-15.4909-5.6921-21.4291-2.7407-1.5491.8433-4.1309,4.0056-5.4218,6.7462-3.0982,6.7462-3.0982,200.7,0,219.0407,2.84,17.498,8.7782,28.0389,24.2691,43.4287l12.6509,12.6491,1.2909,22.9793,1.2909,22.9792,33.5636.2108c18.5891.2108,51.3782,0,73.0655-.4216l39.2436-.4217V181.3439l9.8109-5.6921c11.1019-6.5354,17.5564-13.914,25.3019-28.25C4.2327,138.5477,4.4909,131.38,5.2655,41.15L6.04-55.6164l-11.1018,1.265c-8.2618.8432-13.1673,3.1622-19.3637,8.6435l-8.52,7.59v27.1956c0,20.0278-.7745,27.6173-3.3563,29.5146-2.0655,1.265-4.3891,1.6866-5.1637.8433-1.0327-.6324-1.8072-34.1526-1.8072-74.419,0-70.8351-.2582-73.3649-5.4218-78.8462-9.2946-9.4869-25.8182-6.5354-30.2073,5.4813-1.2909,4.0055-2.0655,34.7851-1.5491,70.2026.7745,70.8351,0,79.69-6.1964,78.6354-3.8727-.6324-4.3891-9.0652-5.68-88.5439-1.2909-82.43-1.5491-87.9114-6.1963-92.1278C-104.72-165.8746-116.5964-165.8746-123.3091-160.3933Z" transform="translate(224 225)"/><path d="M19.9818,73.6155c.7746,1.0541,2.0655,2.1082,2.84,2.1082.5164,0,1.0327-1.0541,1.0327-2.1082,0-1.2649-1.2909-2.1081-2.84-2.1081C19.7236,71.5074,19.2073,72.3506,19.9818,73.6155Z" transform="translate(224 225)"/></svg>