<svg id="Layer_1" data-name="Layer 1" xmlns="http://www.w3.org/2000/svg" width="454.4074" height="456.9361" viewBox="0 0 454.4074 456.9361"><defs><style>.cls-1{fill:#d01d35;}.cls-2{fill:#181516;}</style></defs><g id="_d01d35ff" data-name="#d01d35ff"><path class="cls-1" d="M-134.9482-350.2238c49.8212-6.0926,101.8361,3.4014,144.8534,29.8274,55.8444,33.1915,96.8539,91.4634,107.7477,155.94C128.4722-106.9321,115.5336-45.7074,83.67,3.1453,51.5468,50.802,1.614,86.8715-54.6766,99.0192c-52.5725,12.26-109.9041,5.532-157.3458-20.782C-261.1,53.2689-299.21,8.5651-318.6548-42.904c-22.0477-59.1316-18.6272-127.645,9.89-183.9733,33.3133-66.3454,100.1258-114.75,173.8167-123.3465M-234.6651-274.87c26.1,26.7251,52.0892,53.5623,78.8589,79.5772,14.1284,12.858,25.5055,28.893,41.1955,39.92,8.7744,11.0264,17.772,22.9125,30.5248,29.5284,6.8783,12.7084,18.4041,21.7538,28.294,31.9579C-40.3994-78.2634-24.3376-63.2749-9.7631-46.8287c3.83,5.0086,9.4809,7.5129,15.3182,9.3818.0372,1.4577.1115,4.4106.1487,5.8683C19.572-20.3279,29.6849-3.3584,45.4864,4.6778,102.6321-60.0978,107.9489-164.1574,58.5-234.9508c-34.2057-50.7964-92.4668-85.6324-153.8882-87.3518-50.193-3.065-101.3156,14.2035-139.2764,47.4323m-40.6377,48.03C-323.8971-149.4306-309.5085-37.858-240.13,22.3575c.8923-4.3732,1.6731-8.7838,2.3423-13.1943a86.46,86.46,0,0,0-.409,15.5117c41.3814,38.7233,100.4233,56.6273,156.342,50.0114C-43.56,69.0049-6.4169,53.5679,23.1041,28.1137,11.9129,14.7324-1.3232,3.2949-13.1836-9.4884c-3.718-3.0275-7.0271-8.7089-12.6041-7.6624.8924-.9344,2.7142-2.7659,3.6437-3.7-23.3491-22.09-45.9917-44.8906-68.3-68.0648-14.76-14.8764-30.3389-29.0051-43.6494-45.3018-5.986.3737-11.972.6728-17.9208,1.3456,4.3129-.7476,8.5886-1.57,12.9015-2.467-38.5557-39.882-77.1114-79.8014-116.9312-118.4126A258.0987,258.0987,0,0,0-275.3028-226.84Z" transform="translate(333 352)"/></g><g id="_181516ff" data-name="#181516ff"><path class="cls-2" d="M-122.8647-297.7081c26.8068-14.3156,61.9047-13.5681,86.89,4.3358C-12.0682-277.15,1.4281-247.2481-2.29-218.4673c-1.3385,15.8482-9.89,29.678-19.4452,41.9-3.1974-8.1484-5.4282-16.82-10.15-24.2956-13.7566-18.4646-46.7353-17.2685-56.588,4.5975-8.9976,14.5773-1.2269,31.36,1.2641,46.61a220.1778,220.1778,0,0,1-27.4016-5.7187c-15.69-11.0265-27.0671-27.0615-41.1955-39.9195C-175.4745-231.1383-157.74-278.9444-122.8647-297.7081Z" transform="translate(333 352)"/><path class="cls-2" d="M-90.2578-177.2022c-2.9-20.2962,18.3669-39.2093,38.1839-33.5279,11.786,1.7568,20.8951,11.176,23.6093,22.6509C-17.4965-145.3938-7.3092-102.5215,3.2127-59.724,5.0717-52.4727,5.5179-44.96,5.5551-37.4469-.2822-39.3158-5.9335-41.82-9.7631-46.8287-24.3376-63.2749-40.3994-78.2634-55.7919-93.8873c-9.89-10.2041-21.4157-19.2495-28.294-31.9579,1.45.1869,4.35.6354,5.8.8223C-81.818-142.5157-87.73-159.4852-90.2578-177.2022Z" transform="translate(333 352)"/><path class="cls-2" d="M-152.0139-132.8722c5.9488-.6728,11.9348-.9719,17.9208-1.3456,13.31,16.2967,28.8889,30.4254,43.6494,45.3018,22.308,23.1742,44.9506,45.9746,68.3,68.0648-.93.9345-2.7513,2.766-3.6437,3.7-13.7938.4859-27.2529-3.0649-40.7493-5.6066C-70.9986,9.836-77.691,42.0556-81.8552,74.6863c-55.9187,6.6159-114.9606-11.2881-156.342-50.0114a86.46,86.46,0,0,1,.409-15.5117c6.6924-37.1909,8.254-77.1477,28.0709-110.3017C-197.6338-121.4347-174.6565-131.0407-152.0139-132.8722Z" transform="translate(333 352)"/></g></svg>