<svg id="Layer_1" data-name="Layer 1" xmlns="http://www.w3.org/2000/svg" width="411.8543" height="400.6099" viewBox="0 0 411.8543 400.6099"><defs><style>.cls-1{fill:#fefefe;}.cls-2{fill:#5d2a58;}</style></defs><g id="_fefefeff" data-name="#fefefeff"><path class="cls-1" d="M-28.56-271.7218C-15.2-271.5977-34.48-262.4447-28.56-271.7218Z" transform="translate(332.0074 282.3946)"/><path class="cls-1" d="M-12.72-268.8053C.6-268.7122-18.64-259.435-12.72-268.8053Z" transform="translate(332.0074 282.3946)"/><path class="cls-1" d="M7.92-265.8887Z" transform="translate(332.0074 282.3946)"/><path class="cls-1" d="M-8.32-259.0316c5.44.59,6.4,2.73,2.8,6.4537C-10.96-253.1675-11.88-255.3084-8.32-259.0316Z" transform="translate(332.0074 282.3946)"/><path class="cls-1" d="M11.44-259.59C24.8-259.1868,5.2-250.4371,11.44-259.59Z" transform="translate(332.0074 282.3946)"/><path class="cls-1" d="M-19.84-254.0673C-8-258.7214-19.56-243.6731-19.84-254.0673Z" transform="translate(332.0074 282.3946)"/><path class="cls-1" d="M11.6-249.6924c5.44.5585,6.4,2.6994,2.92,6.4847C9.08-243.7351,8.12-245.9071,11.6-249.6924Z" transform="translate(332.0074 282.3946)"/><path class="cls-1" d="M.36-247.3033Z" transform="translate(332.0074 282.3946)"/><path class="cls-1" d="M-24.64-244.1075C-11.32-243.4559-30.92-235.0164-24.64-244.1075Z" transform="translate(332.0074 282.3946)"/><path class="cls-1" d="M-32.68-240.9116C-19.32-240.3532-39-231.8206-32.68-240.9116Z" transform="translate(332.0074 282.3946)"/><path class="cls-1" d="M23.28-240.9427C36.64-240.7875,17.32-231.6344,23.28-240.9427Z" transform="translate(332.0074 282.3946)"/><path class="cls-1" d="M7.32-237.8089C20.68-237.53,1.24-228.5627,7.32-237.8089Z" transform="translate(332.0074 282.3946)"/><path class="cls-1" d="M31.16-234.7682C44.48-234.3959,24.92-225.5841,31.16-234.7682Z" transform="translate(332.0074 282.3946)"/><path class="cls-1" d="M39.72-234.1787c5.44.5895,6.4,2.73,2.76,6.4227C37.08-228.3455,36.12-230.4864,39.72-234.1787Z" transform="translate(332.0074 282.3946)"/><path class="cls-1" d="M-20.68-231.5724C-7.32-230.8588-27.16-222.5745-20.68-231.5724Z" transform="translate(332.0074 282.3946)"/><path class="cls-1" d="M-152.6-222.2952C-139.24-221.7057-158.92-213.2042-152.6-222.2952Z" transform="translate(332.0074 282.3946)"/><path class="cls-1" d="M-4.56-222.3573C8.76-221.7677-10.88-213.2352-4.56-222.3573Z" transform="translate(332.0074 282.3946)"/><path class="cls-1" d="M43.6-221.8608c5.4.7136,6.28,2.9166,2.68,6.6088C40.88-215.9656,40-218.1686,43.6-221.8608Z" transform="translate(332.0074 282.3946)"/><path class="cls-1" d="M-28.04-219.3786Z" transform="translate(332.0074 282.3946)"/><path class="cls-1" d="M-144.68-216.0277C-131.28-216.0587-150.48-206.6884-144.68-216.0277Z" transform="translate(332.0074 282.3946)"/><path class="cls-1" d="M-120.68-216.0277C-107.24-215.8415-126.6-206.8125-120.68-216.0277Z" transform="translate(332.0074 282.3946)"/><path class="cls-1" d="M-144.64-206.8125C-131.24-206.3161-150.92-197.69-144.64-206.8125Z" transform="translate(332.0074 282.3946)"/><path class="cls-1" d="M-124.64-206.8746C-111.28-206.254-131.08-197.8146-124.64-206.8746Z" transform="translate(332.0074 282.3946)"/><path class="cls-1" d="M-116.52-203.71C-103.24-202.7169-123.28-194.8049-116.52-203.71Z" transform="translate(332.0074 282.3946)"/><path class="cls-1" d="M15.56-200.1106c5.4.59,6.36,2.7924,2.8,6.5468C12.96-194.1844,12.04-196.3563,15.56-200.1106Z" transform="translate(332.0074 282.3946)"/><path class="cls-1" d="M-128.56-197.3182C-115.16-197.2561-134.48-188.072-128.56-197.3182Z" transform="translate(332.0074 282.3946)"/><path class="cls-1" d="M-96.48-197.4733C-83.12-196.8527-102.8-188.3512-96.48-197.4733Z" transform="translate(332.0074 282.3946)"/><path class="cls-1" d="M59.48-191.3609C72.84-190.306,52.68-182.5181,59.48-191.3609Z" transform="translate(332.0074 282.3946)"/><path class="cls-1" d="M15.32-188.1961C28.72-187.8238,9.2-179.012,15.32-188.1961Z" transform="translate(332.0074 282.3946)"/><path class="cls-1" d="M59.52-181.4632c5.44.6206,6.36,2.7615,2.84,6.4538C56.88-175.599,55.92-177.7709,59.52-181.4632Z" transform="translate(332.0074 282.3946)"/><path class="cls-1" d="M-91.88-175.94Z" transform="translate(332.0074 282.3946)"/><path class="cls-1" d="M-96.68-169.5486C-83.32-169.3314-102.64-160.2714-96.68-169.5486Z" transform="translate(332.0074 282.3946)"/><path class="cls-1" d="M47.36-169.5176C60.72-169.2073,41.4-160.3025,47.36-169.5176Z" transform="translate(332.0074 282.3946)"/><path class="cls-1" d="M31.36-163.3432C44.8-163.0018,25.24-154.19,31.36-163.3432Z" transform="translate(332.0074 282.3946)"/><path class="cls-1" d="M-116.4-159.775c5.44.5275,6.36,2.6994,2.84,6.4847C-119-153.8488-119.96-155.99-116.4-159.775Z" transform="translate(332.0074 282.3946)"/><path class="cls-1" d="M-96.4-159.775c5.44.6206,6.36,2.7925,2.8,6.5158C-99.04-153.88-99.96-156.0517-96.4-159.775Z" transform="translate(332.0074 282.3946)"/><path class="cls-1" d="M-116.52-147.9536C-103.24-147.24-122.92-138.8625-116.52-147.9536Z" transform="translate(332.0074 282.3946)"/><path class="cls-1" d="M-77.92-142.3376c5.16-1.2721,10.36-2.265,15.64-3.0717a79.3682,79.3682,0,0,1,6.24,18.5544A88.56,88.56,0,0,1-77.92-142.3376Z" transform="translate(332.0074 282.3946)"/><path class="cls-1" d="M7.6-14.5668Z" transform="translate(332.0074 282.3946)"/><path class="cls-1" d="M-16.08-8.3613Z" transform="translate(332.0074 282.3946)"/><path class="cls-1" d="M-16.52,1.071C-3.12,2.0329-23.28,9.8518-16.52,1.071Z" transform="translate(332.0074 282.3946)"/><path class="cls-1" d="M-.8,1.071C12.6,1.1951-6.68,10.3482-.8,1.071Z" transform="translate(332.0074 282.3946)"/><path class="cls-1" d="M-96.04,4.0186Z" transform="translate(332.0074 282.3946)"/><path class="cls-1" d="M-60.12,10.1931Z" transform="translate(332.0074 282.3946)"/><path class="cls-1" d="M.16,9.6656C11.96,4.95.48,20.0908.16,9.6656Z" transform="translate(332.0074 282.3946)"/><path class="cls-1" d="M-52.64,16.6158C-39.2,16.864-58.72,25.8-52.64,16.6158Z" transform="translate(332.0074 282.3946)"/><path class="cls-1" d="M-15.84,15.9642C-4.08,11.217-15.44,26.42-15.84,15.9642Z" transform="translate(332.0074 282.3946)"/><path class="cls-1" d="M-.68,16.6468C12.68,16.9881-6.76,25.8309-.68,16.6468Z" transform="translate(332.0074 282.3946)"/><path class="cls-1" d="M15.32,16.5847C28.76,16.9571,9.16,25.7068,15.32,16.5847Z" transform="translate(332.0074 282.3946)"/><path class="cls-1" d="M-68.6,19.8116C-55.12,20.1219-74.72,28.9026-68.6,19.8116Z" transform="translate(332.0074 282.3946)"/><path class="cls-1" d="M-24.6,19.6564C-11.28,20.277-31.08,28.6854-24.6,19.6564Z" transform="translate(332.0074 282.3946)"/><path class="cls-1" d="M8.04,19.5634Z" transform="translate(332.0074 282.3946)"/><path class="cls-1" d="M-88.36,22.7281Z" transform="translate(332.0074 282.3946)"/><path class="cls-1" d="M-60.16,22.7592Z" transform="translate(332.0074 282.3946)"/><path class="cls-1" d="M-16.6,22.79C-3.28,23.2556-22.92,31.9433-16.6,22.79Z" transform="translate(332.0074 282.3946)"/><path class="cls-1" d="M-52.8,25.8309C-39.48,26.1722-59,35.046-52.8,25.8309Z" transform="translate(332.0074 282.3946)"/><path class="cls-1" d="M-44.32,26.3894c5.4.6516,6.32,2.8545,2.72,6.5468C-47,32.2846-47.88,30.1127-44.32,26.3894Z" transform="translate(332.0074 282.3946)"/><path class="cls-1" d="M-8.6,25.924C4.76,26.3584-14.8,35.046-8.6,25.924Z" transform="translate(332.0074 282.3946)"/><path class="cls-1" d="M-84.36,31.9123Z" transform="translate(332.0074 282.3946)"/><path class="cls-1" d="M-91.96,35.0771Z" transform="translate(332.0074 282.3946)"/><path class="cls-1" d="M-72.36,35.0771Z" transform="translate(332.0074 282.3946)"/><path class="cls-1" d="M-52.68,35.17C-39.24,35.48-58.8,44.2922-52.68,35.17Z" transform="translate(332.0074 282.3946)"/><path class="cls-1" d="M3.6,35.015Z" transform="translate(332.0074 282.3946)"/><path class="cls-1" d="M-44.24,38.3349Z" transform="translate(332.0074 282.3946)"/><path class="cls-1" d="M-84.44,45.0368c5.4.5275,6.36,2.6684,2.76,6.4538Q-89.84,50.6529-84.44,45.0368Z" transform="translate(332.0074 282.3946)"/><path class="cls-1" d="M-75.64,44.3542Z" transform="translate(332.0074 282.3946)"/><path class="cls-1" d="M3.96,47.426Z" transform="translate(332.0074 282.3946)"/><path class="cls-1" d="M-75.68,50.6528Z" transform="translate(332.0074 282.3946)"/><path class="cls-1" d="M-16.76,50.8079C-3.32,50.7149-22.52,60.0851-16.76,50.8079Z" transform="translate(332.0074 282.3946)"/><path class="cls-1" d="M-60.08,53.6314Z" transform="translate(332.0074 282.3946)"/><path class="cls-1" d="M-7.88,53.5383Z" transform="translate(332.0074 282.3946)"/><path class="cls-1" d="M-.72,53.8486C12.68,53.88-6.6,63.0948-.72,53.8486Z" transform="translate(332.0074 282.3946)"/><path class="cls-1" d="M8.04,56.7032Z" transform="translate(332.0074 282.3946)"/><path class="cls-1" d="M-76.08,59.9921Z" transform="translate(332.0074 282.3946)"/><path class="cls-1" d="M-64.2,59.7438Z" transform="translate(332.0074 282.3946)"/><path class="cls-1" d="M-16.64,60.0541C-3.24,60.3954-22.8,69.1762-16.64,60.0541Z" transform="translate(332.0074 282.3946)"/><path class="cls-1" d="M-84.04,63.0017Z" transform="translate(332.0074 282.3946)"/><path class="cls-1" d="M3.2,63.2189C16.68,63.4361-2.88,72.403,3.2,63.2189Z" transform="translate(332.0074 282.3946)"/><path class="cls-1" d="M11.96,63.0017Z" transform="translate(332.0074 282.3946)"/><path class="cls-1" d="M-51.64,69.1762Z" transform="translate(332.0074 282.3946)"/><path class="cls-1" d="M-39.68,69.1762Z" transform="translate(332.0074 282.3946)"/><path class="cls-1" d="M-84.36,72.9305c5.36.59,6.28,2.7614,2.72,6.5157C-87.04,78.8257-87.96,76.6538-84.36,72.9305Z" transform="translate(332.0074 282.3946)"/><path class="cls-1" d="M-1.08,80.9976C-14.04,79.167,5.24,71.8135-1.08,80.9976Z" transform="translate(332.0074 282.3946)"/><path class="cls-1" d="M4.16,75.3816Z" transform="translate(332.0074 282.3946)"/><path class="cls-1" d="M-77,83.9452Z" transform="translate(332.0074 282.3946)"/><path class="cls-1" d="M-1.08,80.9976C12,82.58-7.08,90.1817-1.08,80.9976Z" transform="translate(332.0074 282.3946)"/><path class="cls-1" d="M-77,83.9452Z" transform="translate(332.0074 282.3946)"/><path class="cls-1" d="M-32.68,84.9691C-19.24,85.1242-38.68,94.0912-32.68,84.9691Z" transform="translate(332.0074 282.3946)"/><path class="cls-1" d="M-7.96,84.69Z" transform="translate(332.0074 282.3946)"/><path class="cls-1" d="M-72.64,87.9788C-59.16,88.4132-78.84,97.07-72.64,87.9788Z" transform="translate(332.0074 282.3946)"/><path class="cls-1" d="M-40.08,87.6685Z" transform="translate(332.0074 282.3946)"/><path class="cls-1" d="M-12.4,90.9264Z" transform="translate(332.0074 282.3946)"/><path class="cls-1" d="M-4.56,91.0505C8.76,91.8882-11.2,100.0174-4.56,91.0505Z" transform="translate(332.0074 282.3946)"/><path class="cls-1" d="M-83.8,93.874Z" transform="translate(332.0074 282.3946)"/><path class="cls-1" d="M-56.04,93.967c6.6.1862,3.08,7.7879-1.92,7.881C-64.16,101.6-60.4,94.3394-56.04,93.967Z" transform="translate(332.0074 282.3946)"/><path class="cls-1" d="M-23.84,94.1222Z" transform="translate(332.0074 282.3946)"/><path class="cls-1" d="M4.04,93.936Z" transform="translate(332.0074 282.3946)"/><path class="cls-1" d="M-68.6,97.2249C-55.2,97.8145-74.96,106.2849-68.6,97.2249Z" transform="translate(332.0074 282.3946)"/><path class="cls-1" d="M-24,100.1725Z" transform="translate(332.0074 282.3946)"/><path class="cls-1" d="M-76.56,103.3683C-63.2,104.4543-83.36,112.18-76.56,103.3683Z" transform="translate(332.0074 282.3946)"/><path class="cls-1" d="M-52.52,103.4925C-39.16,104.2371-59,112.4594-52.52,103.4925Z" transform="translate(332.0074 282.3946)"/><path class="cls-1" d="M-60.04,106.4091Z" transform="translate(332.0074 282.3946)"/></g><g id="_5d2a58ff" data-name="#5d2a58ff"><path class="cls-2" d="M-25.32-278.7961c17.4-5.2436,39.2-5.647,53.64,4.84,17.04,12.535,16.52,32.1133,26.68,47.5339-.4,1.1481-1.16,3.4751-1.52,4.6231,5.08,3.91,7.48,9.1841,9.64,14.3347,6.08,15.0793,17.04,29.3209,16.72,45.5792-18.88,3.5372-37.36,8.0672-54.6,15.0794,2.88,12.3489,5.56,26.094-3.6,37.3569C6.28-91.6078-28-86.0849-51.48-97.1927c-21.64-12.411-33-33.0752-56.04-44.2451-1.56,1.2411-4.68,3.7543-6.28,4.9954-2.48-.2172-7.44-.7136-9.92-.9308,6.76-20.1368-9.32-38.35-20.36-55.5391-7.4-10.239-16.24-21.0986-13.84-33.3854,11.36-2.0789,23.12-2.7615,34.24-5.585,36.36-10.9216,62.2-35.6815,98.36-46.9134m-3.24,7.0743c-5.92,9.2771,13.36.1241,0,0m15.84,2.9165c-5.92,9.37,13.32.0931,0,0m20.64,2.9166h0m-16.24,6.8571c-3.56,3.7232-2.64,5.8641,2.8,6.4537,3.6-3.7233,2.64-5.8642-2.8-6.4537m19.76-.5585c-6.24,9.153,13.36.4033,0,0m-31.28,5.5228c.28,10.3942,11.84-4.6541,0,0m31.44,4.3749c-3.48,3.7853-2.52,5.9573,2.92,6.4847,3.48-3.7853,2.52-5.9262-2.92-6.4847M.36-247.3033h0m-25,3.1958c-6.28,9.0911,13.32.6516,0,0m-8.04,3.1959c-6.32,9.091,13.36.5584,0,0m55.96-.0311c-5.96,9.3083,13.36.1552,0,0M7.32-237.8089c-6.08,9.2462,13.36.2792,0,0m23.84,3.0407c-6.24,9.1841,13.32.3723,0,0m8.56.59c-3.6,3.6923-2.64,5.8332,2.76,6.4227,3.64-3.6923,2.68-5.8332-2.76-6.4227m-60.4,2.6063c-6.48,8.9979,13.36.7136,0,0m-131.92,9.2772c-6.32,9.091,13.36.5895,0,0m148.04-.0621c-6.32,9.1221,13.32.59,0,0m48.16.4965c-3.6,3.6922-2.72,5.8952,2.68,6.6088,3.6-3.6922,2.72-5.8952-2.68-6.6088m-71.64,2.4822h0m-116.64,3.3509c-5.8,9.3393,13.4-.031,0,0m24,0c-5.92,9.2152,13.44.1862,0,0m-23.96,9.2152c-6.28,9.122,13.4.4964,0,0m20-.0621c-6.44,9.06,13.36.6206,0,0m8.12,3.1648c-6.76,8.9049,13.28.9929,0,0m132.08,3.5992c-3.52,3.7543-2.6,5.9262,2.8,6.5468,3.56-3.7544,2.6-5.9573-2.8-6.5468m-144.12,2.7924c-5.92,9.2462,13.4.0621,0,0m32.08-.1551c-6.32,9.1221,13.36.6206,0,0m155.96,6.1124c-6.8,8.8428,13.36,1.0549,0,0m-44.16,3.1648c-6.12,9.1841,13.4.3723,0,0m44.2,6.7329c-3.6,3.6923-2.64,5.8642,2.84,6.4538,3.52-3.6923,2.6-5.8332-2.84-6.4538M-91.88-175.94h0m-4.8,6.3917c-5.96,9.2772,13.36.2172,0,0m144.04.031c-5.96,9.2151,13.36.31,0,0m-16,6.1744c-6.12,9.1531,13.44.3414,0,0M-116.4-159.775c-3.56,3.7853-2.6,5.9262,2.84,6.4847,3.52-3.7853,2.6-5.9572-2.84-6.4847m20,0c-3.56,3.7233-2.64,5.8952,2.8,6.5158,3.56-3.7233,2.64-5.8952-2.8-6.5158m-20.12,11.8214c-6.4,9.0911,13.28.7137,0,0m38.6,5.616a88.56,88.56,0,0,0,21.88,15.4827,79.3682,79.3682,0,0,0-6.24-18.5544C-67.56-144.6026-72.76-143.61-77.92-142.3376Z" transform="translate(332.0074 282.3946)"/><path class="cls-2" d="M-301.56-256.7356c16.88,0,33.96-1.2721,50.72.4964,11.4,3.2579,19.2,11.0458,27.8,17.3443-3.52,4.3128-7.08,8.6567-10.64,12.97-8.92-.7447-20.72,2.5753-27.04-3.8474-3.2-2.6994-6-5.647-8.92-8.5325a106.9314,106.9314,0,0,0-12.12,5.0264c-8.52,4.499-7.76,15.5758-18.72,17.7166,2.28-7.2914,7.84-14.4277,6.64-22.06C-299-243.3008-303.24-249.5373-301.56-256.7356Z" transform="translate(332.0074 282.3946)"/><path class="cls-2" d="M-308.04-252.7951c5.36.6826,6.24,2.9165,2.68,6.7019C-310.76-246.7758-311.64-249.01-308.04-252.7951Z" transform="translate(332.0074 282.3946)"/><path class="cls-2" d="M-267.92-219.751c15.72-2.1408,31.8-1.2721,47.68-.8377.88,8.4395-2.72,17.6856,3.32,25.3494,19.88,29.2588,38.56,61.7445,31.72,95.6264-.28,5.9883-9.2,8.5015-15.76,7.943-32-.4033-64.04.9619-95.96-1.0549-6.52-15.855-3.52-32.858-2.68-49.2094,3.24-18.9578,28.8-28.39,36.32-45.7965C-256.48-198.6834-269.84-208.488-267.92-219.751Z" transform="translate(332.0074 282.3946)"/><path class="cls-2" d="M-112-48.759c7.12-2.6063,14.76-4.4679,22.76-4.1576,34.8-.0311,69.56.031,104.36,0,6.92-.4034,13,2.265,19,4.53C28.8,7.0593,21.48,62.35,15.68,117.7961c-36.44.5275-72.96.59-109.4,0C-99.8,62.2881-107.36,6.8421-112-48.759M7.6-14.5668h0M-16.08-8.3613h0m-.44,9.4323c-6.76,8.7808,13.4.9619,0,0m15.72,0c-5.88,9.2772,13.4.1241,0,0M-96.04,4.0186h0m35.92,6.1745h0M.16,9.6656c.32,10.4252,11.8-4.7161,0,0m-52.8,6.95c-6.08,9.1841,13.44.2482,0,0m36.8-.6516c.4,10.4562,11.76-4.7472,0,0m15.16.6826c-6.08,9.1841,13.36.3413,0,0m16-.0621c-6.16,9.1221,13.44.3724,0,0M-68.6,19.8116c-6.12,9.091,13.48.31,0,0m44-.1552c-6.48,9.029,13.32.6206,0,0m32.64-.093h0m-96.4,3.1647h0m28.2.0311h0m43.56.031c-6.32,9.1531,13.32.4654,0,0m-36.2,3.0407c-6.2,9.2151,13.32.3413,0,0m8.48.5585c-3.56,3.7233-2.68,5.8952,2.72,6.5468,3.6-3.6923,2.68-5.8952-2.72-6.5468M-8.6,25.924c-6.2,9.122,13.36.4344,0,0m-75.76,5.9883h0m-7.6,3.1648h0m19.6,0h0m19.68.093c-6.12,9.1221,13.44.31,0,0M3.6,35.015h0m-47.84,3.32h0m-40.2,6.7019q-5.4,5.6316,2.76,6.4538c3.6-3.7854,2.64-5.9263-2.76-6.4538m8.8-.6826h0M3.96,47.426h0m-79.64,3.2268h0m58.92.1551c-5.76,9.2772,13.44-.093,0,0m-43.32,2.8235h0m52.2-.0931h0m7.16.31c-5.88,9.2462,13.4.031,0,0m8.76,2.8546h0m-84.12,3.2889h0m11.88-.2483h0m47.56.31c-6.16,9.1221,13.4.3413,0,0m-67.4,2.9476h0m87.24.2172c-6.08,9.1841,13.48.2172,0,0m8.76-.2172h0m-63.6,6.1745h0m11.96,0h0m-44.68,3.7543c-3.6,3.7233-2.68,5.8952,2.72,6.5157,3.56-3.7543,2.64-5.9262-2.72-6.5157m83.28,8.0671c-6,9.1841,13.08,1.5824,0,0,6.32-9.1841-12.96-1.8306,0,0m5.24-5.616h0M-77,83.9452h0m44.32,1.0239c-6,9.1221,13.44.1551,0,0M-7.96,84.69h0m-64.68,3.2889c-6.2,9.091,13.48.4344,0,0m32.56-.31h0m27.68,3.2579h0m7.84.1241c-6.64,8.9669,13.32.8377,0,0M-83.8,93.874h0m27.76.093c-4.36.3724-8.12,7.6328-1.92,7.881,5-.0931,8.52-7.6948,1.92-7.881m32.2.1552h0M4.04,93.936h0M-68.6,97.2249c-6.36,9.06,13.4.59,0,0m44.6,2.9476h0m-52.56,3.1958c-6.8,8.8119,13.36,1.086,0,0m24.04.1242c-6.48,8.9669,13.36.7446,0,0m-7.52,2.9166Z" transform="translate(332.0074 282.3946)"/><path class="cls-2" d="M-265.68-43.2361c5.8-2.3581,12.08-4.9954,18.76-2.9476,3.84,13.4038,7.64,26.9938,6.48,40.8321C-256.2-13.9773-257.84-30.5459-265.68-43.2361Z" transform="translate(332.0074 282.3946)"/><path class="cls-2" d="M-234.24-11.7123c.6-18.0579,19.08-34.1921,43-34.3473C-188.36-26.9157-210.52-11.5571-234.24-11.7123Z" transform="translate(332.0074 282.3946)"/><path class="cls-2" d="M-299.24-7.43c18-6.1744,36.88-.031,54.2,4.1887,16.44-3.94,33.52-9.6495,50.92-5.3367,20.8,5.9262,32.88,23.3016,34.32,39.7771,5.04,29.1658-13.88,58.3315-42.32,76.7928-10.12,7.1053-23.88,3.5682-35.52,1.4893-13.16-3.7232-25.48,6.1124-38.64,2.7925-18.96-4.7782-31.88-18.151-40.84-31.3066-9.96-16.7238-18.76-35.5574-13.12-54.1428C-326.56,12.8925-316.6-1.4112-299.24-7.43Z" transform="translate(332.0074 282.3946)"/></g></svg>