<svg id="Layer_1" data-name="Layer 1" xmlns="http://www.w3.org/2000/svg" width="250.5484" height="250.4329" viewBox="0 0 250.5484 250.4329"><defs><style>.cls-1{fill:#869d34;}.cls-2{fill:#859d32;}.cls-3{fill:#8c9e4d;}.cls-4{fill:#eae8ea;}.cls-5{fill:#f7faf6;}.cls-6{fill:#135a7c;}.cls-7{fill:#edecef;}.cls-8{fill:#aed2d7;}.cls-9{fill:#fafbfb;}.cls-10{fill:#3a393a;}.cls-11{fill:#1f2a33;}.cls-12{fill:#555455;}.cls-13{fill:#fafafa;}.cls-14{fill:#97bbc2;}</style></defs><path class="cls-1" d="M1011.6569,652.0151q-.348.1181-.6958.2355c-.2355-.0948-.3862-.0294-.4335.23q-.2525.1258-.5046.2512-8.0368,3.0962-16.0736,6.1934a149.5431,149.5431,0,0,1-23.4557,4.6326,125.1514,125.1514,0,0,1-101.475-35.8309,11.6945,11.6945,0,0,0-.9594-.7721,6.8379,6.8379,0,0,0-2.9306-3.0973l.0156.0165q-1.55-2.0021-3.1-4.0048c-.48-3.276-1.5268-4.5721-3.9707-4.914l-.019-.0263c-.0536-.4923.057-1.0942-.1868-1.46-2.066-3.096-4.8316-5.7157-6.22-9.2871-.1486-.3822-.9924-.4941-1.5136-.7314l-.04-.12c-.6681-2.8261-1.4562-5.5865-4.0534-7.349l-.0045-.0065A7.2722,7.2722,0,0,0,843,589.5044l.01.0151a1.7032,1.7032,0,0,0-.9464-2.04l-.0072-.0318c-.0836-1.0648.2976-2.2258-.3026-3.18-2.1152-3.3622-2.1046-7.4387-3.748-10.938-1.1945-2.5432-.733-5.6755-2.8675-7.8616l-.0253-.1243a21.5428,21.5428,0,0,0-.0834-2.6837c-.1388-.9306.63-2.2246-.9282-2.67l-.0638-.4885c.6767-5.0411-1.1018-9.8848-1.11-14.9213-.0133-8.7354.5-17.4233,1.0943-26.12a.4492.4492,0,0,1,.0507-.4483c.27-.1606.7834-.3363.7745-.48-.1824-2.9626,1.77-5.6433,1.1331-8.6546q.0727-.4314.1453-.8627c.564-.0887.7454-.4447.9184-.9809,1.2994-4.0282,2.54-8.0824,4.0567-12.03a9.8026,9.8026,0,0,0,.9629-4.4434l.0087-.0342a1.69,1.69,0,0,0,.9-2.0789l-.02.0338c2.3564-.8528,1.9433-3.3932,2.9863-5.0553,1.6588-2.6438,3.7317-5.1727,4.065-8.4818a.4865.4865,0,0,1,.1388-.4362l.3671-.5294-.0179.0125c2.0776.1854,1.4148-1.3847,1.5609-2.4365l.0107-.0241a1.5089,1.5089,0,0,0,.9863-1.47,33.004,33.004,0,0,1,4.9989-7.0279c.5582-.09,1.3579.0262,1.6369-.3014,2.6955-3.1652,4.844-6.69,8.071-9.5471a62.3432,62.3432,0,0,0,6.021-6.3877c.5547-.6567,1.1273-.94,1.9031-.3551.3158.2382.6941.6076,1.0715.2038a.9865.9865,0,0,0-.0233-1.3557,2.1209,2.1209,0,0,1-.7022-1.2569.1513.1513,0,0,1,.2064-.1256c1.0648.1064,2.187.4219,2.7508-.9588a3.2332,3.2332,0,0,1,2.3262-2.0063c.9317-.246,1.1229-1.1156,1.1569-1.986l-.0077.0141c1.5012.1978,2.1087-.7795,2.5675-1.9523a.1356.1356,0,0,1,.2051-.1048c2.9028-.6726,5.0225-2.9132,7.7775-3.8807a2.931,2.931,0,0,1,3.0222,2.0255,1.0026,1.0026,0,0,1-.9078.96c-2.4245.424-3.8966,2.06-5.0752,4.0538a13.1338,13.1338,0,0,1-1.106.9684,118.9973,118.9973,0,0,0-32.9181,34.6292,117.4392,117.4392,0,0,0-17.5227,50.9335,119.5674,119.5674,0,0,0,4.3,46.6374,169.2029,169.2029,0,0,0,7.3163,19.06c-.0823.7484-.2423,1.5364.8583,1.6808a.3012.3012,0,0,1,.14.3367c-.0938.7715-.2027,1.5514.9117,1.659l.0107.0151c.0762.7985-.3451,1.8647,1.0509,1.9531l-.0136-.0123A2.5538,2.5538,0,0,0,854.96,600.98a.2672.2672,0,0,1,.1607.3136c-.112.8125-.1726,1.5951.9737,1.6771a.13.13,0,0,1,.07.2082c-.2483,1.0963-.076,1.8863,1.3069,1.7949l.0709.0887a.4751.4751,0,0,0,.2637.37l.3449.7756c-.2562,2.1521,1.4787,2.8213,2.8188,3.7845l.0411.0457c-.0168,1.0112-.0564,2.0388,1.4186,1.9826l.0771.0669.337.3551.24.4262c-.0481.8041-.1348,1.6376,1.1106,1.4528l-.0461.006a.5651.5651,0,0,0,.5854.5672l.3651.4311c.0219.4321.2839.614.6818.6544.9991,1.4,2.7511,2.1872,3.2537,3.9922a.8893.8893,0,0,0,.991.9908l.0109.0141a.8769.8769,0,0,0,.9742.9919l.0212.019c.039.5086.2165.8827.82.8431a.1457.1457,0,0,1,.1857.1395c.0139.4527.0875.8594.6727.871l-.0152-.0416c-.26,1.1762.5531,1.1448,1.316,1.17.6291.5419,1.2761,1.0644,1.8846,1.6284a119.25,119.25,0,0,0,102.4788,30.1986c24.6958-4.3147,45.8923-15.6816,63.6959-33.3485a142.3584,142.3584,0,0,0,15.8749-19.48,1.8758,1.8758,0,0,0,2.1928-1.3756c2.1092-4.7258,4.9358-9.0965,7.0564-13.8357a5.8681,5.8681,0,0,0,.6609-3.5487l-.0361-.1336.1-.096c1.4836.14.62-2.085,2.0322-2.0163-.0054.736-.0377,1.4731-.0086,2.2077.0271.6828-.96,1.5685-.0739,1.9009a1.7913,1.7913,0,0,0,2.2063-1.4043,2.2123,2.2123,0,0,1,1.8959-1.68c-1.6277,5.4039-4.2987,10.3379-6.8925,15.3068-.38.7277-.749,1.4609-1.123,2.1913a34.8673,34.8673,0,0,0-3.9518,6.489l-.03.0464c-2.8022,3.5525-5.5993,7.1092-8.0433,10.9258l-.9712,1.0568c-3.0287,3.1145-6.074,6.2134-9.0809,9.3492-2.2106,2.3053-4.9678,4.0273-6.9561,6.565l-10.9763,8.04a52.5462,52.5462,0,0,0-8.4033,5.02l-.0625.0242-.6063.36.0363-.033A16.0048,16.0048,0,0,0,1011.6569,652.0151Z" transform="translate(-832.0434 -413.8193)"/><path class="cls-2" d="M896.0309,435.0572a2.931,2.931,0,0,0-3.0221-2.0258q.5055-.9534,1.0109-1.9068a.2793.2793,0,0,1,.324-.17c.9438.1228,1.8344.1437,2.0836-1.0765l-.0427.02c.991.4356,1.5268-.3018,2.1436-.83a2.0223,2.0223,0,0,0,2.9323.7525c.9413-.5271-.7476-1.0325-.4393-1.7674,2.0265-.4167,4.0951-.7647,4.9742-3.0516l-.0126.0116c1.7486.563,3.2626-.45,4.64-1.0755,2.659-1.2074,5.8387-1.4212,7.9015-3.8476l.0672-.01c1.12-.41,2.7519.8626,3.4184-1.04a101.2874,101.2874,0,0,1,24.8986-4.7942,125.268,125.268,0,0,1,118.72,61.8628,6.6679,6.6679,0,0,1,.407,1.1477,5.6793,5.6793,0,0,0,.4111,2.8383c.6981,1.3388,2.2956,2.6137.7263,4.56-.5273.6543.4136,1.5272,1.4455,1.1256.4992-.1944.8218-.8,1.4526-.8434l-.0328-.0033c.1849,4.3274,2.073,8.0666,4.14,11.72a8.9389,8.9389,0,0,1,.8346,1.9864c.8446,2.8956,1.1984,6.019,2.2336,8.7192,2.02,5.2688,2.5137,10.7705,3.6207,16.1631a67.5,67.5,0,0,1,.8357,9.9671c.3222,6.1571,1.751,12.6594-1.6515,18.5777a1.9086,1.9086,0,0,0-.0824.9842,39.1036,39.1036,0,0,1-2.067,15.4639c-.96,2.695-.8228,5.62-2.1695,8.2145a13.26,13.26,0,0,0-1.7643,7.2623l.0016-.0035a2.2123,2.2123,0,0,0-1.8959,1.68,1.7913,1.7913,0,0,1-2.2063,1.4043c-.8861-.3324.101-1.2181.0739-1.9009-.0291-.7346.0032-1.4717.0088-2.2074q.01-.9888.02-1.978l1-.0066.0042-.0011c.144,1.0544.9377,1.3042,1.565.75.773-.6832.5918-1.4807-.58-1.7412l-.0058-.4771-.0023-1.5443.0249-1.9781a.9.9,0,0,0,.9771-1.02c.3416-.9923-.7918-2.48,1.0018-2.9846,1.2368-.1386.9886-1.0932,1.0014-1.8715.0225-1.375.0035-2.7506.0019-4.126l.0017-.0013a.8954.8954,0,0,0,.992-1.0131c.1383-2.8909-.4731-5.8575.339-8.66a27.7806,27.7806,0,0,0,1.5338-7.7614c-.0766-5.9762.8731-11.9684-.7116-17.9731-.8971-3.3989-.1093-7.0954-.94-10.7176-.526-2.2935-1.4793-4.6716-1.3016-7.1666.0323-.4535-.48-.6151-.9084-.6839l.0009.0019a19.6252,19.6252,0,0,0-1.3842-8.86c-1.1709-3.4-2.3083-6.821-3.704-10.13-.624-1.48-.8524-3.4262-2.84-4.0159a.345.345,0,0,1-.1191-.37c.5126-2.3741-1.22-4.018-2.1029-5.8606-1.1644-2.4294-2.3091-5-4.6536-6.6586a.1671.1671,0,0,1-.1806-.1721c-.0656-.8114.2637-1.86-1.1262-1.8767a32.9223,32.9223,0,0,1-3.9492-5.88c.0492-1.1259.34-2.4417-1.5846-2.0174l.039-.006-.4834-.584.0162.0294c.2406-1.5946-.0552-2.7535-2.0542-2.529-8.1879-9.346-17.1836-17.7681-27.6989-24.4929A119.7846,119.7846,0,0,0,967.285,419.912c-7.91-.6963-15.7733-.1863-23.6553.184a15.9436,15.9436,0,0,0-2.6989-.026c-1.0036.1526-2.397-.7522-2.9244.926l-1.3191.122c-4.9257-1.07-9.2659,1.8942-14.0214,2.0574-.7336.0252-.6013.8655-.5976,1.4387l.0144-.0249-.5453.3172-.9092.1836c-2.46-.52-4.5124,1.0386-6.8135,1.3587a1.5222,1.5222,0,0,0-1.2976,1.5913l.0016-.0007c-.6525.0012-1.4433-.2359-1.932.0477-1.5576.9035-4.24.0752-4.5816,2.8827a.26.26,0,0,1-.3178.14c-1.6727-.2926-3.0218.0615-3.6619,1.8324a.3629.3629,0,0,1-.3756.1627l-1.6033-.05c-1.1009-.0047-.665.5808-.42,1.0931l-.1169-.0788.1133.0858c-.7865-.1568-1.508-.1983-1.59.8954l.0014-.0015Zm2.806-3.8949c-1.0521.2207-1.6077.6036-1.5744,1.5075.0033.0919.2463.2521.3758.25C898.6424,432.9026,898.75,432.1853,898.8369,431.1623Z" transform="translate(-832.0434 -413.8193)"/><path class="cls-1" d="M1073.9686,583.9918a13.26,13.26,0,0,1,1.7643-7.2623c1.3467-2.5949,1.21-5.5195,2.1695-8.2145a39.1036,39.1036,0,0,0,2.067-15.4639,1.9086,1.9086,0,0,1,.0824-.9842c3.4025-5.9183,1.9737-12.4206,1.6515-18.5777a67.5,67.5,0,0,0-.8357-9.9671c-1.107-5.3926-1.6007-10.8943-3.6207-16.1631-1.0352-2.7-1.389-5.8236-2.2336-8.7192a8.9389,8.9389,0,0,0-.8346-1.9864c-2.0672-3.6533-3.9553-7.3925-4.14-11.72,1.7479,2.4516,2.6929,5.2893,3.7782,8.0454a124.8845,124.8845,0,0,1,.9634,89.4883A12.4743,12.4743,0,0,1,1073.9686,583.9918Z" transform="translate(-832.0434 -413.8193)"/><path class="cls-3" d="M834.0214,518.46c-.5948,8.6964-1.1076,17.3843-1.0943,26.12.0077,5.0365,1.7862,9.88,1.11,14.9213a47.1291,47.1291,0,0,1-1.619-10.3064,122.1518,122.1518,0,0,1,1.2888-30.0643A2.8311,2.8311,0,0,1,834.0214,518.46Z" transform="translate(-832.0434 -413.8193)"/><path class="cls-3" d="M876.0259,444.0318a2.1209,2.1209,0,0,0,.7022,1.2569.9865.9865,0,0,1,.0233,1.3557c-.3774.4038-.7557.0344-1.0715-.2038-.7758-.5851-1.3484-.3016-1.9031.3551a62.3432,62.3432,0,0,1-6.021,6.3877c-3.227,2.8572-5.3755,6.3819-8.071,9.5471-.279.3276-1.0787.2116-1.6369.3014,3.7046-5.6421,8.4059-10.4118,13.2726-15.0208C872.8069,446.6033,874.0948,444.9262,876.0259,444.0318Z" transform="translate(-832.0434 -413.8193)"/><path class="cls-4" d="M1036.9218,635.9186c1.9883-2.5377,4.7455-4.26,6.9561-6.565,3.0069-3.1358,6.0522-6.2347,9.0809-9.3492a2.3623,2.3623,0,0,1-.9211,2.4118c-1.923,1.4506-2.7651,3.9536-5.0314,5.091-.5548.2785-.7356,1.0839-1.1117,1.5516C1043.4779,632.0638,1040.7,634.6646,1036.9218,635.9186Z" transform="translate(-832.0434 -413.8193)"/><path class="cls-3" d="M835.1373,565.4676c2.1345,2.1861,1.673,5.3184,2.8675,7.8616,1.6434,3.4993,1.6328,7.5758,3.748,10.938.6.9543.219,2.1153.3026,3.18A85.0478,85.0478,0,0,1,835.1373,565.4676Z" transform="translate(-832.0434 -413.8193)"/><path class="cls-3" d="M842.063,490.56a9.8026,9.8026,0,0,1-.9629,4.4434c-1.5165,3.9473-2.7573,8.0015-4.0567,12.03-.173.5362-.3544.8922-.9184.9809A71.0175,71.0175,0,0,1,842.063,490.56Z" transform="translate(-832.0434 -413.8193)"/><path class="cls-4" d="M993.9494,658.9254q8.0369-3.0969,16.0736-6.1934c-.2033,1.309-1.0651,1.8553-2.2676,2.2358a82.6792,82.6792,0,0,0-8.3638,2.9408A10.3732,10.3732,0,0,1,993.9494,658.9254Z" transform="translate(-832.0434 -413.8193)"/><path class="cls-4" d="M1053.93,618.9476c2.444-3.8166,5.2411-7.3733,8.0433-10.9258-.8284,2.8491-.9389,6.0225-4.1406,7.6737C1056.3405,616.465,1055.6845,618.3928,1053.93,618.9476Z" transform="translate(-832.0434 -413.8193)"/><path class="cls-3" d="M850.0031,474.9438c-.3333,3.3091-2.4062,5.838-4.065,8.4818-1.043,1.6621-.63,4.2025-2.9863,5.0553A54.01,54.01,0,0,1,850.0031,474.9438Z" transform="translate(-832.0434 -413.8193)"/><path class="cls-3" d="M918.5248,420.09c-2.0628,2.4264-5.2425,2.64-7.9015,3.8476-1.3779.6256-2.8919,1.6385-4.64,1.0755A51.5674,51.5674,0,0,1,918.5248,420.09Z" transform="translate(-832.0434 -413.8193)"/><path class="cls-3" d="M850.1343,603.451c.5212.2373,1.365.3492,1.5136.7314,1.3884,3.5714,4.154,6.1911,6.22,9.2871.2438.3654.1332.9673.1868,1.46A50.9078,50.9078,0,0,1,850.1343,603.451Z" transform="translate(-832.0434 -413.8193)"/><path class="cls-1" d="M1070.0713,484.9368c-.6308.0437-.9534.649-1.4526.8434-1.0319.4016-1.9728-.4713-1.4455-1.1256,1.5693-1.9466-.0282-3.2215-.7263-4.56a5.6793,5.6793,0,0,1-.4111-2.8383A28.8586,28.8586,0,0,1,1070.0713,484.9368Z" transform="translate(-832.0434 -413.8193)"/><path class="cls-3" d="M905.9954,425.0012c-.8791,2.2869-2.9477,2.6349-4.9743,3.0514-.9576.0275-1.4169,1.2785-2.4929,1.0151-.6168.5286-1.1526,1.266-2.1436.83A34.4556,34.4556,0,0,1,905.9954,425.0012Z" transform="translate(-832.0434 -413.8193)"/><path class="cls-3" d="M894.02,431.1246q-.5053.9534-1.0109,1.9068c-2.7552.9675-4.8749,3.2081-7.7777,3.8807A38.8484,38.8484,0,0,1,894.02,431.1246Z" transform="translate(-832.0434 -413.8193)"/><path class="cls-4" d="M1017.5422,648.9781a52.5462,52.5462,0,0,1,8.4033-5.02C1023.7083,646.5761,1021.115,648.5969,1017.5422,648.9781Z" transform="translate(-832.0434 -413.8193)"/><path class="cls-3" d="M882.4662,438.9551c-.034.87-.2252,1.74-1.1569,1.986a3.2332,3.2332,0,0,0-2.3262,2.0063c-.5638,1.3807-1.686,1.0652-2.7508.9588A20.332,20.332,0,0,1,882.4662,438.9551Z" transform="translate(-832.0434 -413.8193)"/><path class="cls-3" d="M846.0408,595.9815c2.5972,1.7625,3.3853,4.5229,4.0534,7.349A25.7493,25.7493,0,0,1,846.0408,595.9815Z" transform="translate(-832.0434 -413.8193)"/><path class="cls-3" d="M843,589.5044a7.2722,7.2722,0,0,1,3.0368,6.4706A17.9951,17.9951,0,0,1,843,589.5044Z" transform="translate(-832.0434 -413.8193)"/><path class="cls-3" d="M835.98,508.8769c.637,3.0113-1.3155,5.692-1.1331,8.6546.0089.1435-.5044.3192-.7745.48A28.3641,28.3641,0,0,1,835.98,508.8769Z" transform="translate(-832.0434 -413.8193)"/><path class="cls-4" d="M1062.0029,607.9754a34.8673,34.8673,0,0,1,3.9518-6.489A7.164,7.164,0,0,1,1062.0029,607.9754Z" transform="translate(-832.0434 -413.8193)"/><path class="cls-3" d="M858.0737,614.9554c2.4439.3419,3.4911,1.638,3.9707,4.9142a1.5083,1.5083,0,0,0-.4468.0351l-.0093-.001a2.8022,2.8022,0,0,0-1.5655-1.8473C859.5267,616.9262,858.1271,616.3639,858.0737,614.9554Z" transform="translate(-832.0434 -413.8193)"/><path class="cls-4" d="M861.5976,619.9047a1.5083,1.5083,0,0,1,.4468-.0351q1.55,2.0024,3.1,4.0046C863.2778,623.1625,861.8193,622.0863,861.5976,619.9047Z" transform="translate(-832.0434 -413.8193)"/><path class="cls-4" d="M1011.6569,652.0151a16.0048,16.0048,0,0,1,5.2528-2.6856A6.6265,6.6265,0,0,1,1011.6569,652.0151Z" transform="translate(-832.0434 -413.8193)"/><path class="cls-3" d="M834.1,559.9891c1.5584.4459.7894,1.74.9282,2.67a21.5428,21.5428,0,0,1,.0834,2.6837A14.4716,14.4716,0,0,1,834.1,559.9891Z" transform="translate(-832.0434 -413.8193)"/><path class="cls-4" d="M865.1287,623.8577a6.8379,6.8379,0,0,1,2.9306,3.0973A4.787,4.787,0,0,1,865.1287,623.8577Z" transform="translate(-832.0434 -413.8193)"/><path class="cls-3" d="M922.01,419.04c-.6665,1.9021-2.2984.6294-3.4184,1.04A6.1429,6.1429,0,0,1,922.01,419.04Z" transform="translate(-832.0434 -413.8193)"/><path class="cls-3" d="M852.052,471.5542c-.1461,1.0518.5167,2.6219-1.5609,2.4365A4.6914,4.6914,0,0,1,852.052,471.5542Z" transform="translate(-832.0434 -413.8193)"/><path class="cls-3" d="M885.026,437.0169c-.4588,1.1728-1.0663,2.15-2.5675,1.9523A4.9277,4.9277,0,0,1,885.026,437.0169Z" transform="translate(-832.0434 -413.8193)"/><path class="cls-4" d="M860.0228,618.0564a2.8022,2.8022,0,0,1,1.5655,1.8473C860.0014,620.1906,859.9892,619.1429,860.0228,618.0564Z" transform="translate(-832.0434 -413.8193)"/><path class="cls-3" d="M896.4273,429.8785c-.2492,1.22-1.14,1.1993-2.0836,1.0765A3.0137,3.0137,0,0,1,896.4273,429.8785Z" transform="translate(-832.0434 -413.8193)"/><path class="cls-3" d="M842.0626,587.4791a1.7032,1.7032,0,0,1,.9464,2.04A2.7705,2.7705,0,0,1,842.0626,587.4791Z" transform="translate(-832.0434 -413.8193)"/><path class="cls-3" d="M842.9717,488.4471a1.69,1.69,0,0,1-.9,2.0789A2.2779,2.2779,0,0,1,842.9717,488.4471Z" transform="translate(-832.0434 -413.8193)"/><path class="cls-3" d="M853.049,470.06a1.5089,1.5089,0,0,1-.9863,1.47C852.1289,470.8639,852.3,470.2678,853.049,470.06Z" transform="translate(-832.0434 -413.8193)"/><path class="cls-3" d="M850.509,473.9782l-.3671.5294A.4039.4039,0,0,1,850.509,473.9782Z" transform="translate(-832.0434 -413.8193)"/><path class="cls-4" d="M1016.8734,649.3625l.6063-.36Z" transform="translate(-832.0434 -413.8193)"/><path class="cls-4" d="M1010.5276,652.4808c.0473-.26.198-.325.4335-.23Q1010.7442,652.3663,1010.5276,652.4808Z" transform="translate(-832.0434 -413.8193)"/><path class="cls-5" d="M936.6873,421.118l1.3191-.122a20.9794,20.9794,0,0,0,5.6233-.9c7.882-.37,15.7457-.88,23.6553-.184a119.7846,119.7846,0,0,1,54.8533,18.6748c10.5153,6.7248,19.511,15.1469,27.699,24.4929a5.283,5.283,0,0,0,2.0541,2.529l-.0157-.0295q.242.2919.4829.5841l-.0382.0053a3.1276,3.1276,0,0,0,1.5838,2.0181,32.9175,32.9175,0,0,0,3.9493,5.88,2.6627,2.6627,0,0,0,1.1261,1.8767.1673.1673,0,0,0,.1814.1721q3.3786,6.26,6.7557,12.5192a.3454.3454,0,0,0,.119.37,190.3218,190.3218,0,0,1,7.9279,23.0061l-.0009-.0019c.44,2.7037.9008,5.4043,1.317,8.1118a117.8746,117.8746,0,0,1,1.3412,26.618c-.475,6.4832-1.6756,12.85-2.6377,19.2576a.3868.3868,0,0,0-.07.39l-.4819.6106a.9071.9071,0,0,0-.3688,1.0667l.0132.0208c-2.25.9954-.5921,2.9678-1.0994,4.3988l-.09.5047c-1.5085.445-.7341,1.664-.8724,2.5735a.4516.4516,0,0,1-.1276.4271c-1.5058.4282-.7354,1.647-.8845,2.5464l-.1167,1.3763a17.15,17.15,0,0,0-1.9669,5.0694l-.1.096.0364.1346c-3.0964,6.363-6.37,12.6316-9.91,18.759a142.3584,142.3584,0,0,1-15.8749,19.48c-17.8036,17.6669-39,29.0338-63.6959,33.3485A119.25,119.25,0,0,1,875.895,626.6c-.6085-.564-1.2555-1.0865-1.8845-1.6283a1.635,1.635,0,0,0-1.3161-1.17l.014.0423a.9323.9323,0,0,0-.6715-.8717.1457.1457,0,0,0-.1865-.1392,1.174,1.174,0,0,0-.8188-.8434l-.0211-.0189a1.0962,1.0962,0,0,0-.9743-.992l-.0108-.014c-.0219-.6387-.4189-.9024-.9911-.9909-.5026-1.805-2.2546-2.5918-3.2533-3.9919l-.6822-.6547q-.1825-.2156-.3656-.4311-.2929-.2835-.5849-.5672l.0453-.0054a2.2,2.2,0,0,0-1.11-1.4534q-.12-.2132-.24-.4258-.1682-.1775-.3377-.3555l-.077-.0669a3.55,3.55,0,0,0-1.4187-1.9826l-.041-.0456a9.4941,9.4941,0,0,0-2.8189-3.7846q-.1725-.3878-.3445-.7751-.1315-.1851-.2641-.371l-.0706-.0884c-.0015-.9144-.7062-1.317-1.3072-1.7952a.13.13,0,0,0-.07-.2082,2.35,2.35,0,0,0-.9735-1.6771.2673.2673,0,0,0-.16-.3136,7.5764,7.5764,0,0,0-1.8849-3.0486l.0134.0124a2.2181,2.2181,0,0,0-1.0507-1.9532l-.0106-.015a1.6235,1.6235,0,0,0-.9118-1.6591.3011.3011,0,0,0-.14-.3366,2.2747,2.2747,0,0,0-.8584-1.6809,169.2029,169.2029,0,0,1-7.3163-19.06,119.5674,119.5674,0,0,1-4.3-46.6374,117.4392,117.4392,0,0,1,17.5227-50.9335,118.9973,118.9973,0,0,1,32.9181-34.6292,13.1335,13.1335,0,0,0,1.1059-.9683,62.0567,62.0567,0,0,0,7.9867-5.0216l-.0015.0015a2.0064,2.0064,0,0,0,1.59-.8954l-.1133-.0858.1164.0784.2213,0,.1731-.1387a2.2048,2.2048,0,0,0,1.6291-.9039.3626.3626,0,0,0,.3754-.1625,10.3709,10.3709,0,0,0,3.6621-1.8326.26.26,0,0,0,.3178-.14,38.5137,38.5137,0,0,0,6.5136-2.93l-.0016.0007a55.47,55.47,0,0,0,8.1111-2.95l.9089-.1836a.3986.3986,0,0,0,.5456-.3172l-.0145.0247Q929.3776,422.8658,936.6873,421.118Zm-53.9982,35.0334a.5922.5922,0,0,0-.5878.58l-.3834.3742a2.2123,2.2123,0,0,0-2.6452,2.4851l.0217-.0273-.5488.5158c-.5369.6286-1.0558,1.2735-1.613,1.8835-27.0735,29.64-36.7021,64.1815-27.7166,103.2734,6.8476,29.7906,23.6787,53.366,50.0614,68.7215,41.27,24.02,83.038,23.2357,122.2191-4.2027,36.4711-25.5407,50.963-62.0954,46.12-106.3058.4576-1.7472,1.9144-2.5664,3.2042-3.5973,2.1126-1.6885,2.0009-2.234-.4031-3.3662-1.4867-.7-3.2-.8916-4.5-2.0087-.0721-.4084-.119-.823-.22-1.2241-7.6279-30.36-24.5839-54.0807-51.5781-69.91-31.1893-18.2893-64.0462-20.5849-97.9-7.8292-7.4949,2.8241-14.39,6.8433-21.19,11.0243-1.33-.4571-1.6105.5709-2.0139,1.4243a.19.19,0,0,1-.2488.16.71.71,0,0,0-.6992.5286l-.5138.3944c-.8549-.08-1.559.047-1.5651,1.1361l-.4708.3334c-1.6091-1.0838-1.4373.1149-1.4238,1.1109l.0291-.034-.5807.4689.01-.0078c-2.3544-.2194-3.0258,1.52-3.7386,3.2117l-.07.0534c-.8765-.3488-1.1814.0039-1.0676.87Z" transform="translate(-832.0434 -413.8193)"/><path class="cls-3" d="M1057.9446,603.97c3.5406-6.1274,6.814-12.396,9.91-18.759a5.8687,5.8687,0,0,1-.6612,3.5477c-2.1206,4.7392-4.9472,9.11-7.0564,13.8357A1.8758,1.8758,0,0,1,1057.9446,603.97Z" transform="translate(-832.0434 -413.8193)"/><path class="cls-3" d="M898.0344,435.0488a62.0567,62.0567,0,0,1-7.9867,5.0216c1.1787-1.9944,2.6508-3.63,5.0753-4.0539a1.0026,1.0026,0,0,0,.9078-.96Q897.0327,435.0532,898.0344,435.0488Z" transform="translate(-832.0434 -413.8193)"/><path class="cls-3" d="M1067.9183,584.98a17.1488,17.1488,0,0,1,1.9669-5.0693l.1362.1306q-.0263.4716-.051.9447-.01.9891-.02,1.978C1068.5381,582.8954,1069.4019,585.1209,1067.9183,584.98Z" transform="translate(-832.0434 -413.8193)"/><path class="cls-3" d="M858.1508,606.2084a9.4941,9.4941,0,0,1,2.8189,3.7846C859.63,609.03,857.8946,608.3605,858.1508,606.2084Z" transform="translate(-832.0434 -413.8193)"/><path class="cls-3" d="M853.0757,597.9312a7.5764,7.5764,0,0,1,1.8849,3.0486A2.5537,2.5537,0,0,1,853.0757,597.9312Z" transform="translate(-832.0434 -413.8193)"/><path class="cls-3" d="M856.1644,603.1787c.601.4782,1.3057.8808,1.3072,1.7952C856.0884,605.065,855.9161,604.275,856.1644,603.1787Z" transform="translate(-832.0434 -413.8193)"/><path class="cls-3" d="M861.0107,610.0386a3.55,3.55,0,0,1,1.4187,1.9826C860.9543,612.0774,860.9939,611.05,861.0107,610.0386Z" transform="translate(-832.0434 -413.8193)"/><path class="cls-3" d="M852.0384,595.99a2.2181,2.2181,0,0,1,1.0507,1.9532C851.6933,597.8551,852.1146,596.7889,852.0384,595.99Z" transform="translate(-832.0434 -413.8193)"/><path class="cls-3" d="M851.116,594.3163a1.6235,1.6235,0,0,1,.9118,1.6591C850.9133,595.8677,851.0222,595.0878,851.116,594.3163Z" transform="translate(-832.0434 -413.8193)"/><path class="cls-3" d="M863.0838,612.8694a2.2,2.2,0,0,1,1.11,1.4534C862.949,614.507,863.0357,613.6735,863.0838,612.8694Z" transform="translate(-832.0434 -413.8193)"/><path class="cls-3" d="M850.1176,592.2988a2.2747,2.2747,0,0,1,.8584,1.6809C849.8753,593.8352,850.0353,593.0472,850.1176,592.2988Z" transform="translate(-832.0434 -413.8193)"/><path class="cls-3" d="M872.6944,623.8009a1.635,1.635,0,0,1,1.3161,1.17C873.2475,624.9457,872.4339,624.9771,872.6944,623.8009Z" transform="translate(-832.0434 -413.8193)"/><path class="cls-3" d="M855.1211,601.2934a2.35,2.35,0,0,1,.9735,1.6771C854.9485,602.8885,855.0091,602.1059,855.1211,601.2934Z" transform="translate(-832.0434 -413.8193)"/><path class="cls-3" d="M869.0343,619.9731c.5722.0885.9692.3522.9911.9909A.89.89,0,0,1,869.0343,619.9731Z" transform="translate(-832.0434 -413.8193)"/><path class="cls-3" d="M870.0362,620.978a1.0962,1.0962,0,0,1,.9743.992A.877.877,0,0,1,870.0362,620.978Z" transform="translate(-832.0434 -413.8193)"/><path class="cls-3" d="M865.0988,615.3265l.6822.6547C865.3827,615.9405,865.1207,615.7586,865.0988,615.3265Z" transform="translate(-832.0434 -413.8193)"/><path class="cls-3" d="M871.0316,621.9889a1.174,1.174,0,0,1,.8188.8434C871.2481,622.8716,871.0706,622.4975,871.0316,621.9889Z" transform="translate(-832.0434 -413.8193)"/><path class="cls-3" d="M872.0369,622.9715a.9323.9323,0,0,1,.6715.8717C872.1244,623.8309,872.0508,623.4242,872.0369,622.9715Z" transform="translate(-832.0434 -413.8193)"/><path class="cls-3" d="M864.1483,614.3282q.2922.2836.5849.5672A.565.565,0,0,1,864.1483,614.3282Z" transform="translate(-832.0434 -413.8193)"/><path class="cls-3" d="M862.5064,612.0881q.1692.1779.3377.3555Q862.6746,612.2654,862.5064,612.0881Z" transform="translate(-832.0434 -413.8193)"/><path class="cls-3" d="M857.5422,605.0623q.1323.1857.2641.371A.4763.4763,0,0,1,857.5422,605.0623Z" transform="translate(-832.0434 -413.8193)"/><path class="cls-3" d="M1073.9832,565.9967c.9621-6.4074,2.1627-12.7745,2.6377-19.2577a117.8746,117.8746,0,0,0-1.3412-26.618c-.4162-2.7075-.8767-5.4081-1.317-8.1118.4283.0688.9407.23.9084.6839-.1777,2.495.7756,4.8731,1.3016,7.1666.8308,3.6222.043,7.3187.94,10.7176,1.5847,6.0047.635,11.9969.7116,17.9731a27.7806,27.7806,0,0,1-1.5338,7.7614c-.8121,2.8024-.2007,5.769-.3389,8.66a.93.93,0,0,0-.9921,1.0129l-.0017.0014Z" transform="translate(-832.0434 -413.8193)"/><path class="cls-3" d="M1073.9636,512.0111a190.3218,190.3218,0,0,0-7.9279-23.0061c1.9873.59,2.2157,2.5361,2.84,4.0158,1.3957,3.3091,2.5331,6.73,3.704,10.13A19.6252,19.6252,0,0,1,1073.9636,512.0111Z" transform="translate(-832.0434 -413.8193)"/><path class="cls-3" d="M936.6873,421.118q-7.31,1.748-14.6191,3.4959c-.0036-.573-.1359-1.4133.5977-1.4385C927.4214,423.0122,931.7616,420.0476,936.6873,421.118Z" transform="translate(-832.0434 -413.8193)"/><path class="cls-3" d="M1071.8864,572.9877l.09-.5044a10.2744,10.2744,0,0,0,1.0995-4.3991l-.0137-.0211c.4365-.2468.4215-.65.3693-1.0664q.2409-.3053.482-.61l.0414,5.5972c-1.7936.5049-.66,1.9923-1.0016,2.9848a.92.92,0,0,0-.9773,1.0195q-.0124.9891-.0247,1.9784c-1.31.1946-.893,1.2327-.9869,2.0212l.0021-.0019-.9441.0567-.1369-.1312q.0584-.6884.1165-1.3764a4.597,4.597,0,0,0,.8847-2.5464.451.451,0,0,0,.1273-.4273A4.5134,4.5134,0,0,0,1071.8864,572.9877Z" transform="translate(-832.0434 -413.8193)"/><path class="cls-3" d="M1065.9167,488.6351q-3.3775-6.26-6.7557-12.5192c2.3437,1.659,3.4884,4.2292,4.6528,6.6586C1064.6969,484.6171,1066.4293,486.261,1065.9167,488.6351Z" transform="translate(-832.0434 -413.8193)"/><path class="cls-3" d="M920.6282,425.09a55.47,55.47,0,0,1-8.1111,2.95,1.5222,1.5222,0,0,1,1.2976-1.5913C916.1158,426.1286,918.168,424.57,920.6282,425.09Z" transform="translate(-832.0434 -413.8193)"/><path class="cls-3" d="M912.5187,428.0393a38.5137,38.5137,0,0,1-6.5136,2.93c.3418-2.8076,3.024-1.9793,4.5816-2.8828C911.0754,427.8034,911.8662,428.0405,912.5187,428.0393Z" transform="translate(-832.0434 -413.8193)"/><path class="cls-1" d="M1073.9546,571.9836l-.0414-5.5972a.387.387,0,0,1,.07-.39l.9747-.01c.0016,1.3753.0206,2.7509-.0019,4.1259C1074.9432,570.89,1075.1914,571.845,1073.9546,571.9836Z" transform="translate(-832.0434 -413.8193)"/><path class="cls-1" d="M898.5282,429.0677c1.076.2634,1.5353-.9876,2.4929-1.0151-.3082.7351,1.3807,1.24.4394,1.7676A2.0223,2.0223,0,0,1,898.5282,429.0677Z" transform="translate(-832.0434 -413.8193)"/><path class="cls-3" d="M943.63,420.096a20.9794,20.9794,0,0,1-5.6233.9c.5274-1.6782,1.9208-.7734,2.9244-.926A15.9436,15.9436,0,0,1,943.63,420.096Z" transform="translate(-832.0434 -413.8193)"/><path class="cls-3" d="M905.6873,431.11a10.3709,10.3709,0,0,1-3.6621,1.8326C902.6655,431.1714,904.0146,430.8173,905.6873,431.11Z" transform="translate(-832.0434 -413.8193)"/><path class="cls-3" d="M1051.8914,465.6087a5.283,5.283,0,0,1-2.0541-2.529C1051.8362,462.8552,1052.132,464.0141,1051.8914,465.6087Z" transform="translate(-832.0434 -413.8193)"/><path class="cls-1" d="M1071.9589,579.9874c1.172.26,1.3532,1.058.58,1.7412-.6273.5543-1.421.3045-1.5651-.75A.901.901,0,0,0,1071.9589,579.9874Z" transform="translate(-832.0434 -413.8193)"/><path class="cls-1" d="M898.8369,431.1623c-.0872,1.023-.1945,1.74-1.1986,1.7574-.13.0022-.3725-.158-.3758-.25C897.2292,431.7659,897.7848,431.383,898.8369,431.1623Z" transform="translate(-832.0434 -413.8193)"/><path class="cls-3" d="M1053.9042,468.1867a3.1276,3.1276,0,0,1-1.5838-2.0181C1054.2442,465.745,1053.9534,467.0608,1053.9042,468.1867Z" transform="translate(-832.0434 -413.8193)"/><path class="cls-1" d="M1070.9641,579.9875c.0939-.7885-.3233-1.8266.9869-2.0212q.0009.7717.0022,1.5437Q1071.4588,579.7484,1070.9641,579.9875Z" transform="translate(-832.0434 -413.8193)"/><path class="cls-3" d="M1058.98,475.9438a2.6627,2.6627,0,0,1-1.1261-1.8767C1059.2433,474.0839,1058.914,475.1324,1058.98,475.9438Z" transform="translate(-832.0434 -413.8193)"/><path class="cls-3" d="M901.65,433.105a2.2048,2.2048,0,0,1-1.6292.9039q.0129-.477.0259-.9541Z" transform="translate(-832.0434 -413.8193)"/><path class="cls-3" d="M899.6232,434.1549a2.0064,2.0064,0,0,1-1.59.8954C898.1152,433.9566,898.8367,433.9981,899.6232,434.1549Z" transform="translate(-832.0434 -413.8193)"/><path class="cls-3" d="M1070.9641,579.9875q.4946-.2389.9891-.4775.0027.239.0057.4774a.901.901,0,0,1-.9849.9914l-.0041.0011q-.002-.497-.0037-.9943Z" transform="translate(-832.0434 -413.8193)"/><path class="cls-1" d="M1071.9757,575.9879a.92.92,0,0,1,.9773-1.0195A.9.9,0,0,1,1071.9757,575.9879Z" transform="translate(-832.0434 -413.8193)"/><path class="cls-1" d="M1074.96,565.9848a.93.93,0,0,1,.9921-1.0129A.8955.8955,0,0,1,1074.96,565.9848Z" transform="translate(-832.0434 -413.8193)"/><path class="cls-1" d="M1070.9662,579.9856q.0018.4973.0037.9943l-1,.0065q.0252-.4727.0511-.9447Q1070.4944,580.0143,1070.9662,579.9856Z" transform="translate(-832.0434 -413.8193)"/><path class="cls-1" d="M900.0465,433.0548q-.0129.4772-.0259.9541l-.173.1387-.2213,0C899.3815,433.6356,898.9456,433.05,900.0465,433.0548Z" transform="translate(-832.0434 -413.8193)"/><path class="cls-3" d="M1052.3586,466.1633q-.2412-.2921-.4829-.5841Q1052.1168,465.8713,1052.3586,466.1633Z" transform="translate(-832.0434 -413.8193)"/><path class="cls-3" d="M922.0827,424.5892a.3986.3986,0,0,1-.5456.3172Z" transform="translate(-832.0434 -413.8193)"/><path class="cls-6" d="M895.029,446.5382c6.8-4.181,13.6952-8.2,21.19-11.0243,33.8534-12.7557,66.71-10.46,97.9,7.8292,26.9942,15.8293,43.95,39.55,51.5781,69.91.1008.4011.1477.8157.22,1.2242-.7829-.2592-1.5816-.479-2.3464-.7836q-17.9692-7.1573-35.9281-14.3407c-10.2594-4.124-20.4949-8.3075-30.74-12.4644-.2207-4.3046,1.3052-8.3916,1.5717-12.633.0834-1.3272,1.621-1.73,1.5637-3.3666-.2179-6.22-.0754-12.4524-.0864-18.68a2.89,2.89,0,0,0-.3251-1.922,14.9628,14.9628,0,0,0-10.47-6.1489,67.9893,67.9893,0,0,0-10.4523-.0073c-1.55.0826-3.2641.514-3.6293,2.5555-1.8155,1.3-3.5472,2.6742-4.2968,4.9077-1.4167,1.2365-.4958,2.88-.751,4.3179-.689.7805-.4136,1.7368-.4771,2.63-.0821,1.1538.3664,2.464-.3048,3.436-2.4584,3.56-4.2206,7.6915-8.0706,10.1463l-1.5114-.0989c-.4736-.1506-.9591-.2714-1.419-.4559q-13.5512-5.4395-27.0975-10.8908c-1.2244-.492-2.2966-1.02-3.6763.0455q-22.2332,17.1633-44.5758,34.1845a3.5725,3.5725,0,0,0-1.5114,2.9339c-.1827,3.6564-.5126,7.3051-.7362,10.96-.7215,11.7921-1.2366,23.5976-2.3363,35.3639-.1512,1.2315-.22,2.4807-.4682,3.6932-1.0129,4.9491-2.0909,9.8871-1.7785,14.99.1416,2.3133.2181,4.6368.4988,6.9343.59,4.8271.9339,9.7062,2.2958,14.4019,1.3608,4.6916,1.8055,9.067-1.5235,13.37-1.2746,1.6477-2.68,3.8029-2.2733,6.3184-.7671,1.5452-.1383,2.9116.6478,4.1833a23.3275,23.3275,0,0,0,6.78,7.1427,71.6253,71.6253,0,0,0,19.82,10.9928q.3758.1745.75.3507c.564,1.39,1.0666,1.4192,1.8558.0763,1.6006-2.7239.732-5.9937,2.0668-8.7551a4.3427,4.3427,0,0,0,1.9132-4.4158l.0809-.1c2.085-1.5061,2.7253-4.3766,5.0631-5.5725,2.24-1.1455,3.2671-4.274,6.4329-3.8668,1.5274.1964,1.5279-.8712,1.49-1.9286l.5575-.0806c.683.0429,1.372.0956,1.4322-.8778a7.1542,7.1542,0,0,0,3.3888-1.9125c1.9944-1.9061,3.1746-1.6813,4.6022.7814.7,1.2081,1.347,2.447,2.76,2.9891.4953.7768.5954,1.9068,1.818,2.0335a10.5746,10.5746,0,0,0,3.3919,2.9893,32.97,32.97,0,0,1,8.2221,7.2c.9277,1.2284,1.6559,2.6708,3.18,3.3408,1.1266,3.3371,1.1549,6.8108,1.2986,10.2737.2032,4.899,1.5622,5.9816,6.3925,5.0209,5.5141-1.0968,11.0243-2.2544,16.1023-4.7944,5.8187-2.91,10.4658-6.7777,10.82-13.9491a12.1491,12.1491,0,0,0-1.1155-6.1513c-1.42-2.69-2.448-5.7954-1.8273-9.0024.41-2.12.7557-4.4459,3.5221-4.9657.7.2445,1.42.4423,2.0953.74q14.1435,6.24,28.2667,12.5258c1.4513.65,2.1077.8636,2.2378-1.2064.9026-14.3557,1.9567-28.7018,2.8812-43.0562a4.67,4.67,0,0,1,1.8062-3.5794c11.6671-9.8935,23.2685-19.8646,34.9573-29.7324,2.8924-2.4418,5.449-5.3212,8.8636-7.1184,4.8435,44.21-9.6484,80.7651-46.12,106.3058-39.1811,27.4384-80.9493,28.223-122.2191,4.2027-26.3827-15.3555-43.2138-38.9309-50.0614-68.7215-8.9855-39.0919.6431-73.6338,27.7166-103.2734.5572-.61,1.0761-1.2549,1.6129-1.8835l.5489-.5158-.0217.0272a9.5011,9.5011,0,0,0,2.6452-2.485l.3834-.3743q.2938-.29.5878-.58l-.0138.0362q.5337-.4353,1.0679-.87l.0694-.054a18.213,18.213,0,0,0,3.74-3.2111l-.01.0078.5808-.4689-.0292.0338a2.2288,2.2288,0,0,0,1.4239-1.1107l.4708-.3333a2.3205,2.3205,0,0,0,1.5651-1.1362l.5138-.3944.6992-.5286a.19.19,0,0,0,.2487-.1595A3.9682,3.9682,0,0,0,895.029,446.5382Z" transform="translate(-832.0434 -413.8193)"/><path class="cls-7" d="M1067.616,523.4494c-3.4146,1.7972-5.9712,4.6766-8.8636,7.1184-11.6888,9.8678-23.29,19.8389-34.9573,29.7324a4.67,4.67,0,0,0-1.8062,3.5794c-.9245,14.3544-1.9786,28.7005-2.8812,43.0562-.13,2.07-.7865,1.8565-2.2378,1.2064q-14.1081-6.3192-28.2667-12.5258c-.6758-.2981-1.3958-.4959-2.0938-.74-1.8357-.682-2.0133-1.8092-1.4242-3.634a103.0952,103.0952,0,0,0,2.719-10.34c2.3323-11.032,3.0982-22.02-1.3158-32.8036a23.8813,23.8813,0,0,1-.8743-3.6158c.71.2058,1.4342.3721,2.1274.6239,4.36,1.5834,8.3191,4.1029,12.7708,5.4744,4.7992,2.8139,10.0487,4.5738,15.2431,6.4853a118.9186,118.9186,0,0,0-14.7429-7.0719c-3.2083-1.503-6.3626-3.14-9.6455-4.4572-1.8771-.7531-3.5535-2.1723-5.7509-2.044-.551-3.0017.0465-6.4741-3.8645-8.2213,1.4829-.3161,2.5052-.534,3.5277-.7526l-.0605-.0011a5.0369,5.0369,0,0,0,3.16-1.32c4.2022-3.6082,8.7024-6.9312,11.8064-11.6456a13.15,13.15,0,0,0,1.5636-3.09c.7989-2.4531.6718-4.7281-1.6361-6.47-2.2469-1.6955-4.3139-3.66-6.6828-5.1522a2.5546,2.5546,0,0,1-1.3311-3.206c1.0156-4.8617,1.9374-9.7429,2.8952-14.6166.595-.7464-.0429-2.5966,1.9071-2.13,10.246,4.1572,20.4815,8.3407,30.7409,12.4647q17.9466,7.214,35.9281,14.3407c.7648.3046,1.5635.5244,2.3464.7836,1.3,1.117,3.0139,1.3085,4.5006,2.0086,2.404,1.1322,2.5157,1.6777.4031,3.3662C1069.53,520.883,1068.0736,521.7022,1067.616,523.4494Z" transform="translate(-832.0434 -413.8193)"/><path class="cls-7" d="M887.5522,452.0526a18.213,18.213,0,0,1-3.74,3.2111C884.5264,453.5729,885.1978,451.8332,887.5522,452.0526Z" transform="translate(-832.0434 -413.8193)"/><path class="cls-4" d="M1073.0756,568.0842a10.2744,10.2744,0,0,1-1.0995,4.3991C1072.4835,571.052,1070.8251,569.08,1073.0756,568.0842Z" transform="translate(-832.0434 -413.8193)"/><path class="cls-7" d="M881.7179,457.1059a9.5011,9.5011,0,0,1-2.6452,2.485A2.2122,2.2122,0,0,1,881.7179,457.1059Z" transform="translate(-832.0434 -413.8193)"/><path class="cls-7" d="M889.5174,450.5146a2.2288,2.2288,0,0,1-1.4239,1.1107C888.08,450.63,887.9083,449.4308,889.5174,450.5146Z" transform="translate(-832.0434 -413.8193)"/><path class="cls-4" d="M895.029,446.5382a3.9682,3.9682,0,0,1-2.014,1.4244C893.4185,447.1091,893.6986,446.0811,895.029,446.5382Z" transform="translate(-832.0434 -413.8193)"/><path class="cls-4" d="M1071.8864,572.9877a4.5134,4.5134,0,0,1-.8727,2.5733C1071.1523,574.6517,1070.3779,573.4327,1071.8864,572.9877Z" transform="translate(-832.0434 -413.8193)"/><path class="cls-4" d="M1070.8864,575.9883a4.597,4.597,0,0,1-.8847,2.5464C1070.151,577.6353,1069.3806,576.4165,1070.8864,575.9883Z" transform="translate(-832.0434 -413.8193)"/><path class="cls-4" d="M891.5533,449.0451a2.3205,2.3205,0,0,1-1.5651,1.1362C889.9943,449.0921,890.6984,448.9647,891.5533,449.0451Z" transform="translate(-832.0434 -413.8193)"/><path class="cls-7" d="M883.7432,455.3177q-.534.4347-1.0679.87C882.5618,455.3216,882.8667,454.9689,883.7432,455.3177Z" transform="translate(-832.0434 -413.8193)"/><path class="cls-4" d="M1073.4312,566.9967c.0522.4162.0672.82-.3693,1.0664A.9077.9077,0,0,1,1073.4312,566.9967Z" transform="translate(-832.0434 -413.8193)"/><path class="cls-7" d="M888.1227,451.5915l-.5808.4689Z" transform="translate(-832.0434 -413.8193)"/><path class="cls-4" d="M892.7663,448.1221l-.6992.5286A.71.71,0,0,1,892.7663,448.1221Z" transform="translate(-832.0434 -413.8193)"/><path class="cls-7" d="M879.0944,459.5637l-.5489.5158Z" transform="translate(-832.0434 -413.8193)"/><path class="cls-7" d="M882.6891,456.1514q-.2939.29-.5878.58A.5922.5922,0,0,1,882.6891,456.1514Z" transform="translate(-832.0434 -413.8193)"/><path class="cls-7" d="M878.31,544.1671c1.1-11.7671,1.6149-23.5726,2.3364-35.3647.2236-3.6547.5535-7.3034.7362-10.96a3.5725,3.5725,0,0,1,1.5114-2.9339q22.322-17.0479,44.5758-34.1845c1.38-1.0651,2.4519-.5375,3.6763-.0455q13.549,5.4445,27.0975,10.8908c.46.1845.9454.3053,1.418.4555,1.96.673,1.8867,1.5694.6193,3.0709A161.5107,161.5107,0,0,1,945.93,490.3713c-8.5865,7.8423-18.1067,14.7076-25.2741,24.0422-.5487-1.4-1.9936-1.362-3.0762-1.8469-7.1652-3.21-14.3565-6.3611-21.5394-9.5314l-3.6544-1.4326a3.5991,3.5991,0,0,0,3.6105,1.9157c7.9061,4.34,16.3168,7.6077,24.4382,11.49-.9952,2.8245-2.46,5.487-2.9289,8.493-3.6891.82-4.68,2.0974-4.5478,5.9a3.48,3.48,0,0,1-.6161,2.7694c-5.2591,6.2314-10.4155,12.5494-15.6455,18.8057-.4672.559-.7724,1.47-1.9012,1.4729.0626-2.7868.9886-5.2661,1.7462-7.8022a20.4443,20.4443,0,0,0-1.8038-15.8949,5.4534,5.4534,0,0,0-5.8635-2.9664c-2.2745.32-4.2951,1.5263-4.5825,3.6634-.6579,4.8934-2.72,9.19-4.7472,13.5461C878.8064,543.0427,879.5456,544.6446,878.31,544.1671Zm12.5188-42.8143c.37.0152.5525-.1569.4641-.4047a.7591.7591,0,0,0-.4938-.36c-.2347-.058-.4916.0682-.3832.3624C890.4826,501.1305,890.7164,501.2489,890.8291,501.3528Z" transform="translate(-832.0434 -413.8193)"/><path class="cls-8" d="M902.3086,626.1942a71.6485,71.6485,0,0,1-19.8194-10.9937,3.8853,3.8853,0,0,0-.0687-1.23c-.8763-2.1816-.4487-3.8485,1.7311-4.9744.7263-.3751,1.335-.9729,2.05-1.3765,3.9569-2.2345,6.3127-5.4508,6.3226-10.1387,2.5072.3077,4.7536.9474,6.4751,3.1176a4.812,4.812,0,0,0,4.7513,1.9546c-.9907-.9093-2.5188-1.3493-3.0906-2.3407-1.8748-3.25-4.8561-3.9512-8.1568-4.2232a.1921.1921,0,0,1-.0422-.2955,7.4788,7.4788,0,0,1,4.233-6.036c2.17-1.1449,3.7344-2.8181,3.8137-5.3972a29.7583,29.7583,0,0,0-.3211-6.19c-.63-3.5418-1.7231-7.1086-.5442-10.7591l.5169-.87a4.1723,4.1723,0,0,1,3.3953,1.1758c.7526.7349,1.7359,1.7084,2.6365,1.73,2.9547.07,5.1659,1.6681,7.4714,3.0988,1.2755.7916,1.784.5739,1.8539-.9179.1394-2.9764.3213-5.9508.4876-8.926q.3395-6.0767.68-12.153c1.6814.6159,3.2013,1.0564,2.3469-1.7627a.94.94,0,0,1,.8318-1.24c.3038,1.04.6632.7613.9193.002.6611-1.9608,1.2756-3.9372,2.0528-6.3558v9.9669c-.2464-.033-.4919-.0762-.7393-.097-.6552-.0553-1.5367-1.0025-1.9032.0892-.3547,1.0565.5889,1.6067,1.5113,1.8739a4.836,4.836,0,0,0,1.2351.036v6.4852c1.1839-1.1949,1.1748-2.767,2.0664-3.94q.96-.0309,1.921-.0614a4.6554,4.6554,0,0,0-.0819,3.4947,34.1349,34.1349,0,0,0,1.1716-6.9343c2.0391,2.5412.1044,5.8738,1.7732,8.8939l.379-2.4585c2.0213.5829,3.1278,2.77,5.3285,3.0382.2416,1.9606-.4664,4.0679,1.1019,6.4762V562.94c1.7958.474,2.622,2.6172,4.73,2.8667a7.5659,7.5659,0,0,0-4.7885-4.2848l.0318-2.5688c1.6338-.94,2.141-2.7756,3.2777-4.1043,1.3933-1.6285,1.7072-4.1974,4.205-4.8664a8.8025,8.8025,0,0,1,.9907,3.7139l-.4532.0857.4513-.053a.9722.9722,0,0,1,.3881.2971c-.4989.9267,1.2846.9938.7034,2.181-.56,1.1438.3715,1.939,1.49,2.3326l-.0527.9326c-2.0238,1.9872-2.2119,4.8513-3.2866,7.267-4.0167,9.0292-7.8858,18.1046-13.8091,26.1111-.6384.863-.0555,1.3612.3447,1.9634-.4745.0755-1.1747-.0232-1.3884.2536-1.9836,2.57-5.0717,3.7941-7.2787,6.0743l-.0019.02-.7018.2418a45.224,45.224,0,0,0-11.9753,9.0359.2475.2475,0,0,0-.1742.3493l.0379.0361c-.5176.12-.9079.3195-.6019.9572l-.0226.0362c-.47-.4231-.7811.2257-1.1954.1778-2.28.6121-2.2187,2.9617-3.1958,4.4946a11.5043,11.5043,0,0,0-1.7244,9.4011Q902.45,626.0391,902.3086,626.1942Zm31.71-46.3341c-.1177-.34.2266-.9428-.4027-1.186-.5726-.2212-.9036.2993-1.2284.6385a133.3731,133.3731,0,0,0-10.85,13.1781c-.45.6092-1.4574,1.3612-.7685,2.1409.7733.8753,1.8775.2888,2.74-.1923C929.2363,591.2463,931.7949,585.7505,934.0187,579.86Zm.9786-2.9767c-.0062-.384-.1877-.684-.5608-.4429a1.94,1.94,0,0,0-.7278.9291c-.1157.331.17.63.5552.5882C934.8906,577.89,934.9951,577.4089,934.9973,576.8834Z" transform="translate(-832.0434 -413.8193)"/><path class="cls-8" d="M936.5206,604.9142c-1.2226-.1267-1.3227-1.2567-1.818-2.0325-.5176-3.0426-2.6023-5.3474-3.8049-8.0682,3.6311-3.2895,5.49-7.7688,7.8317-11.8939,3.908-6.8842,6.3522-14.4619,9.8719-21.5381,2.25,1.9667,4.9964,3.1008,7.5685,4.5309,3.2952,1.8321,6.5628,3.714,9.8423,5.5745a.3161.3161,0,0,1,.1147.3449c-.3549.694-.8818,1.3534-.4459,2.2469.7984-.5025.81-1.2841.8221-2.0654a3.4585,3.4585,0,0,1,.4437-.1027c.2072,1.4144,1.4559,2.1714,2.1128,3.31.6022,1.0442,1.2079,2.1032.8747,3.2733a14.9918,14.9918,0,0,0,.1531,8.35c1.8133,6.271,2.3527,13.1433,7.8,17.852.417.36.5563,1.0244.9317,1.4536,1.4287,1.6336,2.3248,3.7377,4.2978,4.891,1.3041,1.0574,1.9473,2.5846,2.812,3.9545-.3546,7.1714-5.0017,11.0386-10.82,13.9491-5.078,2.54-10.5882,3.6976-16.1023,4.7944-4.83.9607-6.1893-.1219-6.3925-5.0209-.1437-3.4629-.172-6.9366-1.2993-10.2737-.4564-3.88-2.9991-6.4474-5.8225-8.6553C942.8047,607.6878,940.3983,604.8913,936.5206,604.9142Zm37.0054,7.02c-.2588-.9653-.4532-1.9812-1.8122-2.0944.492.7881.48,1.9386,1.7394,2.1657a2.84,2.84,0,0,0,.1315.9737c1.4365,2.6392,3.447,4.976,3.66,8.2238.0653.9934,1.2869,1.5223,2.3891,1.0986a1.36,1.36,0,0,0,.6622-2.0828A28.8906,28.8906,0,0,0,973.526,611.9341Zm-38.5135-19.4075c-1.7049.4168-1.1313,1.9688-.8593,2.95a14.3977,14.3977,0,0,0,7.4006,8.9662,25.7852,25.7852,0,0,1,10.5682,10.2256c.2427.4311.3387,1.3343,1.1377.967a1.4344,1.4344,0,0,0,.6294-1.5288,3.3625,3.3625,0,0,0-.4632-1.4079c-2.0339-2.9355-4.0753-6.0291-7.3785-7.554-4.5924-2.12-7.69-5.2923-8.9948-10.1921a8.7609,8.7609,0,0,0-.6567-1.608A1.494,1.494,0,0,0,935.0125,592.5266Zm35.1227,9.2453a20.7642,20.7642,0,0,0-16.0356,7.74c2.1549-1.0293,4.3091-1.2956,5.7913-2.7559a6.8557,6.8557,0,0,1,5.15-2.4072A7.4414,7.4414,0,0,0,970.1352,601.7719Zm-7.4516-24.9145c-2.3945,2.5293-3.1306,5.3437-3.5771,8.2661a1.394,1.394,0,0,0,.5215,1.0329c.4283.3484.7679-.0348.9668-.4048C962.0165,583.1075,963.5712,580.4894,962.6836,576.8574Zm2.2474,2.5884.4073-3.4162C964.2814,577.105,964.516,578.2472,964.931,579.4458Z" transform="translate(-832.0434 -413.8193)"/><path class="cls-9" d="M899.642,567.3112c-1.1789,3.6506-.0858,7.2174.5442,10.7592a29.7583,29.7583,0,0,1,.3211,6.19c-.0793,2.5791-1.6436,4.2523-3.8137,5.3972a7.4784,7.4784,0,0,0-4.2329,6.036c-1.1585-.151-2.1-1.0984-3.7052-.9928,1.2964,1.0924,2.23,2.1178,3.7446,2.2285l.0237.5515c-.01,4.6879-2.3657,7.9042-6.3226,10.1387-.7146.4036-1.3233,1.0014-2.05,1.3765-2.18,1.1259-2.6074,2.7928-1.7311,4.9744a3.8853,3.8853,0,0,1,.0687,1.23,23.3252,23.3252,0,0,1-6.78-7.1426c-.7861-1.2717-1.4149-2.6381-.6484-4.1825,2.0429-3.3962,4.0189-6.8366,6.1621-10.1694a5.4973,5.4973,0,0,0,.7276-4.2415c-2.2831-13.2314-4.2239-26.4826-1.8619-39.938a15.6094,15.6094,0,0,0-.0386-2.9711c1.0188-.4956.7248-1.66,1.1649-2.4708,2.2067-4.0666,4.4748-8.1612,4.58-13.0068a3.5657,3.5657,0,0,1,2.8432-3.3864,3.7836,3.7836,0,0,1,4.0662,1.1977,9.8587,9.8587,0,0,1,2.3225,4.6107,24.53,24.53,0,0,1-.6187,14.1873c-.8809,2.51-1.6188,5.24.0631,7.832A34.6322,34.6322,0,0,1,899.642,567.3112Z" transform="translate(-832.0434 -413.8193)"/><path class="cls-10" d="M985.9286,614.9954c-.8647-1.37-1.5079-2.8971-2.8123-3.9544.2226-1.4116-.6182-2.4744-1.1636-3.6467-1.33-2.86-2.5317-5.3609-1.2665-9.0135a121.2638,121.2638,0,0,0,6.1-28.7071c.5361-5.882.6634-11.8574-1.1749-17.5463-1.2116-3.75-2.4609-7.4035-2.2194-11.3982a3.8134,3.8134,0,0,0-2.3906-3.75c-1.5447-.8183-2.92-.28-4.1508.7083a7.0588,7.0588,0,0,0-2.2485,2.9427c-1.6925,4.4421-3.0267,8.8644-1.8367,13.7908.76,3.1472,1.5754,6.5562-.8091,9.5532l-.9924.0113c.2079-1.041-.5388-1.699-1.0185-2.4435q-4.4436-6.8971-8.9285-13.7678c-.9187-1.411-1.8673-2.8024-3.0816-4.6211-.9561,4.01-3.2443,6.6586-5.141,9.5407-.204.31-1.6667,1.1956.2107,1.3182l.0027.9944c-2.769.6362-3.2741,3.1733-4.3747,5.21l-1.0611-.7451q.0263-.4664.0524-.9323.5658-1.22,1.1321-2.4394c1.9161-2.9121,3.815-5.8358,5.7538-8.7327a8.9051,8.9051,0,0,0,1.37-7.5938,3.3547,3.3547,0,0,0-2.5245-2.5248c-1.3166-.3036-1.5,1.0581-2.0837,1.7575-2.49,2.9859-4.4262,6.4127-7.2533,9.1332q-.1377-.3432-.2759-.6864.1531-.9.3077-1.8a116.8126,116.8126,0,0,0,10.5279-14.4626,8.88,8.88,0,0,0,1.4321-5.935,2.241,2.241,0,0,0-2.1422-2.0546c-.8986-.12-1.7849-.3041-2.3309.8249-1.6908,3.496-4.55,6.0929-7.0416,8.9718l-.92-.0292a17.951,17.951,0,0,1,1.5436-4.9258c.4558.1918.796,1.8857,1.4032.1079,1.8627-2.2559,4.7254-4.0388,3.6372-7.69-.5575-.5759-.2784-1.0539.1768-1.5114l1.2357.5256c.305,1.6441,1.1891,2.4441,2.923,2.005.6732.3528,1.3524,1.7641,2.0132-.0117.6269.8337,2.4395.8576,1.763,2.5814-.3069.04-.7751.0235-.6676.4627.5109,2.0869-.3214,4.0163-.6259,6.0068a1.0259,1.0259,0,0,0-.53.9237c-1.6428,2.0908-3.3916,4.1813.0946,6.2.1288.0745.1912.2665.28.4064,4.19,6.5749,8.362,13.1613,12.5854,19.7146.719,1.1157,1.2569,2.4309,2.8085,3.1411-1.3316-7.6466-2.1909-15.1926,1.4575-22.3973q.4142-.4851.829-.9707a9.2589,9.2589,0,0,1,4.3007-2.7212l-1.1092-.8185a2.1085,2.1085,0,0,1-.0131-.2382,20.0342,20.0342,0,0,1,7.617.5239,1.5541,1.5541,0,0,1-.02.2377l-3.5275.7519c3.911,1.7472,3.3135,5.22,3.8644,8.2209q-.001.4947-.0019.99a23.8813,23.8813,0,0,0,.8743,3.6158c4.414,10.7832,3.6481,21.7716,1.3158,32.8036a103.0952,103.0952,0,0,1-2.719,10.34c-.5891,1.8248-.4115,2.952,1.4242,3.634-2.7679.519-3.1132,2.8448-3.5236,4.9649-.6207,3.207.4073,6.312,1.8273,9.0024A12.1491,12.1491,0,0,1,985.9286,614.9954Z" transform="translate(-832.0434 -413.8193)"/><path class="cls-9" d="M970.7778,451.5938c.75-2.2335,2.4813-3.6072,4.2964-4.9075,6.64-2.7779,13.1934-2.8083,19.5375.8185,4.0908,2.3386,5.1448,5.6118,3.2927,9.5668-1.372,1.9723-4.0035,2.42-5.3556,4.418-.7685.5975-2.1073-1.3315-2.5788.5821-2.4874-.0546-4.985.0153-7.46-.1874C975.2473,461.29,970.9237,457.4426,970.7778,451.5938Z" transform="translate(-832.0434 -413.8193)"/><path class="cls-11" d="M880.05,546.5554a15.6094,15.6094,0,0,1,.0386,2.9711c-2.362,13.4554-.4212,26.7066,1.8619,39.938a5.4973,5.4973,0,0,1-.7276,4.2415c-2.1432,3.3328-4.1192,6.7732-6.1621,10.1694-.4065-2.5163.9993-4.6715,2.2739-6.3192,3.329-4.3032,2.8843-8.6786,1.5235-13.37-1.3619-4.6957-1.7059-9.5748-2.2958-14.4019-.2807-2.2975-.3572-4.621-.4988-6.9343-.3124-5.1032.7656-10.0412,1.7785-14.99.2481-1.2125.317-2.4617.4682-3.6932,1.2352.4783.496-1.1236,1.2334-1.17C880.5338,544.0657,879.8119,545.3788,880.05,546.5554Z" transform="translate(-832.0434 -413.8193)"/><path class="cls-10" d="M997.9038,457.0726c1.8527-3.956.7987-7.2292-3.2921-9.5678-6.3441-3.6268-12.8971-3.5964-19.5375-.8185.3656-2.0417,2.0792-2.4731,3.63-2.5557a67.9893,67.9893,0,0,1,10.4523.0073,14.9628,14.9628,0,0,1,10.47,6.1489,2.89,2.89,0,0,1,.3251,1.922c.011,6.2278-.1315,12.46.0864,18.68.0573,1.6363-1.48,2.0394-1.5637,3.3666-.2665,4.2414-1.7924,8.3284-1.5717,12.633-1.9509-.4671-1.313,1.3831-1.908,2.13l-.8689-.074c.3819-1.77.8177-3.53,1.1352-5.3117.836-4.6907,2.5356-9.2162,2.6862-14.0372.2142-.5951,1.0471-1.2912-.2669-1.6373,1.1169-2.0761.6183-4.37.8861-6.5612a3.3339,3.3339,0,0,0,.1131-2.9274c.0084-.4694-.2041-.7233-.6916-.7087Z" transform="translate(-832.0434 -413.8193)"/><path class="cls-12" d="M920.6554,514.4135c7.1674-9.3346,16.6876-16.2,25.2741-24.0422a161.5107,161.5107,0,0,0,14.3517-15.2754c1.2674-1.5015,1.3407-2.3979-.6193-3.0709q.7572.05,1.5106.0986a2.9932,2.9932,0,0,0,1.6838.877,11.7229,11.7229,0,0,1-.9447,1.71,142.496,142.496,0,0,1-9.498,10.9171c-6.1985,6.4135-13.16,11.986-19.8448,17.86-6.325,5.5581-12.1546,11.417-14.12,20.0268l-.9439-.0133c.4689-3.006,1.9337-5.6685,2.9286-8.4927Q920.5444,514.7113,920.6554,514.4135Z" transform="translate(-832.0434 -413.8193)"/><path class="cls-11" d="M936.5206,604.9142c3.8777-.0229,6.2841,2.7736,8.971,4.8748,2.8234,2.2079,5.3661,4.7754,5.8225,8.6553-1.5236-.67-2.2518-2.1124-3.18-3.3408a32.97,32.97,0,0,0-8.2221-7.2A10.5746,10.5746,0,0,1,936.5206,604.9142Z" transform="translate(-832.0434 -413.8193)"/><path class="cls-11" d="M930.8977,594.8135c1.2026,2.7208,3.2873,5.0256,3.8049,8.0682-1.4128-.5431-2.06-1.782-2.76-2.99-1.4276-2.4627-2.6078-2.6875-4.6022-.7814a7.1506,7.1506,0,0,1-3.3879,1.912,1.7125,1.7125,0,0,1-1.7988.1191c2.207-2.28,5.2951-3.5042,7.2787-6.0743.2137-.2768.9139-.1781,1.3847-.2549Z" transform="translate(-832.0434 -413.8193)"/><path class="cls-12" d="M970.7778,451.5938c.1459,5.8488,4.47,9.6959,11.732,10.2905,2.4752.2027,4.9728.1328,7.46.1874-4.726,2.1095-13.4068.2673-17.59-3.6894-.4751-.4494-.7165-1.35-1.6952-1.1584-.4144,2.1529.0988,4.3471-.5791,6.4289q-.04-3.8706-.0794-7.7411C970.282,454.4733,969.3611,452.83,970.7778,451.5938Z" transform="translate(-832.0434 -413.8193)"/><path class="cls-11" d="M907.5186,611.9955c.4144.0477.7251-.6011,1.1956-.1777q.1311.7659.262,1.5312l-.08.1006a6.5076,6.5076,0,0,0-1.9144,4.4157c-1.3348,2.7614-.4662,6.0312-2.0668,8.7551-.7892,1.3429-1.2918,1.3135-1.8559-.0763q.0024-.2956.0051-.5915C904.1022,621.1576,905.1864,616.3774,907.5186,611.9955Z" transform="translate(-832.0434 -413.8193)"/><path class="cls-10" d="M908.9762,613.349q-.1309-.7654-.262-1.5312s.0225-.0365.0269-.0333c.7834.04.76-.4176.5975-.96l-.0362-.034c.1413-.0033.2809-.0087.42-.0141l-.2479-.3373a45.222,45.222,0,0,1,11.9757-9.036q.2559.2891.5109.5784c.0386,1.0574.0381,2.125-1.4893,1.9286-3.1658-.4072-4.1934,2.7213-6.4329,3.8668C911.7015,608.9724,911.0612,611.8429,908.9762,613.349Z" transform="translate(-832.0434 -413.8193)"/><path class="cls-11" d="M970.0268,455.9117q.04,3.8706.0793,7.7412-.0239.9306-.0476,1.861l-.51-.0029c-1-.879-1.0172.3339-1.3014.6881-1.81,2.256-3.1335,4.8965-5.39,6.8016a2.994,2.994,0,0,1-1.6837-.8771c3.8518-2.4541,5.614-6.586,8.0724-10.1456.6712-.972.2227-2.2822.3048-3.436C969.6132,457.6485,969.3378,456.6922,970.0268,455.9117Z" transform="translate(-832.0434 -413.8193)"/><path class="cls-10" d="M906.9821,617.8653a6.5076,6.5076,0,0,1,1.9144-4.4157A4.3455,4.3455,0,0,1,906.9821,617.8653Z" transform="translate(-832.0434 -413.8193)"/><path class="cls-10" d="M922.1539,601.1413a1.7125,1.7125,0,0,0,1.7988-.1191c-.0611.9739-.75.9212-1.4332.879q-.1837-.3693-.3675-.74Z" transform="translate(-832.0434 -413.8193)"/><path class="cls-11" d="M922.152,601.161q.1837.3705.3675.74-.2784.0391-.5574.08-.256-.2894-.5115-.5784Z" transform="translate(-832.0434 -413.8193)"/><path class="cls-8" d="M903.0645,625.9526q-.0025.2958-.0051.5915-.3747-.1758-.75-.3507c.0936-.1026.19-.2037.2888-.3018Q902.83,625.9278,903.0645,625.9526Z" transform="translate(-832.0434 -413.8193)"/><path class="cls-13" d="M958.2714,524.0494c.6765-1.7238-1.1361-1.7477-1.763-2.5814-.8357-1.0281-1.706-2.0307-2.4936-3.0945-.44-.5941-.8823-1.286-.2026-2.0228,3.6481-3.955,7.4144-7.7882,11.53-11.5077a2.8275,2.8275,0,0,1-.8274,3.1686,18.9391,18.9391,0,0,0-3.8659,5.1694c-.7836,1.47-.751,2.49.8321,3.4924,3.0318,1.9194,6.3132,3.331,9.4462,5.02,5.7655,3.1075,10.6383,2.2283,15.4469-1.8912,3.4741-2.9762,7.6122-5.28,8.8982-10.2569.8566.65,1.5964,1.1795,2.3007,1.7523,4.2129,3.4267,4.66,5.4076,1.51,9.8465a46.4432,46.4432,0,0,1-13.09,12.0921c-.4483.2873-1.5644.2269-.7746,1.2826l.0605.0011a1.5588,1.5588,0,0,0,.0195-.237,20.0342,20.0342,0,0,0-7.617-.5239,2.0707,2.0707,0,0,0,.0132.2373l.0739.0222c.5064-.4922.351-.866-.2332-1.108a100.2339,100.2339,0,0,1-18.3469-9.4821c-.5162-.352-1.2215-.594-.9643.57Z" transform="translate(-832.0434 -413.8193)"/><path class="cls-12" d="M985.2188,534.5185c-.79-1.0557.3263-.9953.7746-1.2826a46.4432,46.4432,0,0,0,13.09-12.0921c3.15-4.4389,2.7024-6.42-1.51-9.8465-.7043-.5728-1.4441-1.1019-2.3007-1.7523-1.286,4.9768-5.4241,7.2807-8.8982,10.2569-4.8086,4.1195-9.6814,4.9987-15.4469,1.8912-3.133-1.6887-6.4144-3.1-9.4462-5.02-1.5831-1.0022-1.6157-2.0223-.8321-3.4924a18.9391,18.9391,0,0,1,3.8659-5.1694,2.8275,2.8275,0,0,0,.8274-3.1686c-4.1153,3.7195-7.8816,7.5527-11.53,11.5077-.68.7368-.2374,1.4287.2026,2.0228.7876,1.0638,1.6579,2.0664,2.4936,3.0945-.6608,1.7758-1.34.3645-2.0132.0117a5.3353,5.3353,0,0,0-1.6416-2.6853c-.9637-1.1694-1.0959-.0316-1.2814.68l-1.2357-.5256c.3865-.533.731-1.1034,1.1658-1.5936,7.2254-8.1454,15.3372-15.3987,23.1532-22.9491a12.5617,12.5617,0,0,1,5.8017-3.2342c2.4774-.6027,3.8219.195,4.39,2.6937a17.3225,17.3225,0,0,1-.0532,6.43c-.75,5.0631-1.4535,10.1331-2.1758,15.2l.1209.4014.2189-.4036,1.0557-.1285c-.7344,2.6982-3.0322,4.2322-5.456,3.6879a34.0385,34.0385,0,0,1-10.1149-4.1028c-2.0274-1.2175-4.2453-2.3228-3.3357-5.7828a14.2409,14.2409,0,0,0-3.1656,3.8185c-.93,1.3693-.7134,2.2748.7528,3.2232a57.0012,57.0012,0,0,0,14.9976,6.6033,2.1164,2.1164,0,0,0,1.7028-.0027c5.1431-2.9309,10.2163-5.9776,13.826-10.8356a2.9358,2.9358,0,0,0-.2252-4.0942c-.424-.42-1.0237-.9371-1.5534.0955-1.2765,2.4883-3.6113,4.0854-5.3475,6.19a2.11,2.11,0,0,1-2.1373.958,17.9936,17.9936,0,0,1,3.8907-4.3654,10.13,10.13,0,0,0,3.1116-6.4871,127.1647,127.1647,0,0,1,3.1657-15.3277l.8689.074c-.9578,4.8737-1.88,9.7549-2.8952,14.6166a2.5546,2.5546,0,0,0,1.3311,3.206c2.3689,1.4925,4.4359,3.4567,6.6828,5.1522,2.3079,1.7416,2.435,4.0166,1.6361,6.47a13.15,13.15,0,0,1-1.5636,3.09c-3.104,4.7144-7.6042,8.0374-11.8064,11.6456A5.0369,5.0369,0,0,1,985.2188,534.5185Zm-1.2327-36.99c-.0063-5.5514-1.7076-6.5371-5.9685-4.1726-.5774.32-1.4571.6376-1.5892,1.122-.49,1.7973-2.177,2.0013-3.3271,2.9318-1.9283,1.56-3.6572,3.3718-5.4252,5.1228-.842.8339-2.0065,8.4188-1.4414,9.3528a3.8373,3.8373,0,0,0,1.1062.9847,32.5378,32.5378,0,0,0,11.76,5.1877c1.0661.2457,1.6611.4128,1.971-1.1433.2733-1.3731.3165-2.7672.5922-4.1366C982.7268,507.4972,983.51,502.166,983.9861,497.5286Z" transform="translate(-832.0434 -413.8193)"/><path class="cls-8" d="M985.6141,544.483q.0009-.4951.0019-.99c2.1975-.1279,3.8739,1.2913,5.751,2.0444,3.2829,1.317,6.4372,2.9542,9.6452,4.4572q-.25.2933-.5.5866c-4.4517-1.3715-8.4109-3.891-12.7708-5.4744C987.0483,544.8551,986.324,544.6888,985.6141,544.483Z" transform="translate(-832.0434 -413.8193)"/><path class="cls-4" d="M1000.5123,550.5813q.25-.2933.5-.5866a118.902,118.902,0,0,1,14.7432,7.0719C1010.561,555.1551,1005.3115,553.3952,1000.5123,550.5813Z" transform="translate(-832.0434 -413.8193)"/><path class="cls-10" d="M917.5052,523.5013l.9439.0133c-.3432,2.8041-1.23,5.55-.8986,8.4263L917,532.51c-.6805-1.7551-1.4373-1.6-2.5427-.2577-3.838,4.66-7.796,9.2215-11.62,13.8924-2.5015,3.0551-5.2817,5.8963-7.3373,9.3046l-1.0286.07c-1.6819-2.592-.944-5.3218-.0631-7.832a24.53,24.53,0,0,0,.6187-14.1873,9.8587,9.8587,0,0,0-2.3225-4.6107,3.7836,3.7836,0,0,0-4.0662-1.1977,3.5657,3.5657,0,0,0-2.8432,3.3864c-.1049,4.8456-2.373,8.94-4.58,13.0068-.44.8109-.1461,1.9752-1.1649,2.4708-.2382-1.1766.4837-2.49-.5063-3.5594,2.0273-4.356,4.0893-8.6529,4.7472-13.5463.2874-2.1371,2.308-3.3431,4.5825-3.6634a5.4534,5.4534,0,0,1,5.8635,2.9664,20.4443,20.4443,0,0,1,1.8038,15.8949c-.7576,2.5361-1.6836,5.0154-1.7462,7.8022,1.1288-.0028,1.434-.9139,1.9012-1.4729,5.23-6.2563,10.3864-12.5743,15.6455-18.8057a3.48,3.48,0,0,0,.6161-2.7694C912.8249,525.5987,913.8161,524.321,917.5052,523.5013Zm-2.7859,5.9689a3.6067,3.6067,0,0,0,2.2793-3.6982c-.0231-.3894-.4339-.4385-.7591-.2854C914.5151,526.2988,914.3413,527.7355,914.7193,529.47Z" transform="translate(-832.0434 -413.8193)"/><path class="cls-8" d="M920.6554,514.4135q-.111.2976-.2216.5951c-8.1211-3.8826-16.5318-7.15-24.4376-11.49a4.8291,4.8291,0,0,0,.0436-.4831c7.1829,3.17,14.3742,6.3218,21.5394,9.5314C918.6618,513.0515,920.1067,513.0131,920.6554,514.4135Z" transform="translate(-832.0434 -413.8193)"/><path class="cls-4" d="M896.04,503.0352a4.8291,4.8291,0,0,1-.0436.4831,3.5993,3.5993,0,0,1-3.6108-1.9157Z" transform="translate(-832.0434 -413.8193)"/><path class="cls-4" d="M890.8291,501.3528c-.1127-.1039-.3465-.2223-.4129-.4025-.1084-.2942.1485-.42.3832-.3624a.7591.7591,0,0,1,.4938.36C891.3816,501.1959,891.199,501.368,890.8291,501.3528Z" transform="translate(-832.0434 -413.8193)"/><path class="cls-9" d="M895.5,555.45c2.0556-3.4083,4.8358-6.2495,7.3373-9.3046,3.8244-4.6709,7.7824-9.2324,11.62-13.8924,1.1054-1.342,1.8622-1.4974,2.5427.2577l.5117,1.0355c-.3927.759-1.5143.056-1.9729,1.1942,2.3941.621,2.1906,2.6109,1.874,4.3512a47.4741,47.4741,0,0,0-.3736,7.913l-.0549,1.1407c-2.2738.2662-3.8946-2.15-6.6292-1.5l6.13,3.1316.2007.6728q-.341,6.0765-.6817,12.1531c-.1663,2.9752-.3482,5.95-.4876,8.926-.07,1.4918-.5784,1.7095-1.8539.9179-2.3055-1.4307-4.5167-3.0292-7.4714-3.0988-.9006-.0212-1.8839-.9947-2.6365-1.73a4.1718,4.1718,0,0,0-3.3953-1.1757A27.4687,27.4687,0,0,0,895.5,555.45Z" transform="translate(-832.0434 -413.8193)"/><path class="cls-5" d="M925.005,555.5059c-.8915,1.1734-.8824,2.7455-2.0663,3.94q0-3.2426,0-6.485-.0516-.951-.1044-1.9023v-9.9669c-.7772,2.4186-1.3917,4.395-2.0528,6.3558-.2561.7593-.6155,1.0385-.9181-.0017q.2861-1.7041.57-3.409a16.3141,16.3141,0,0,1,1.0947-6.6018,35.88,35.88,0,0,0,10.4427,4.6357c.3632,2.5107-.9108,4.9123-.4949,7.4265a36.6075,36.6075,0,0,0-.9458,7.0111l-.3629,1.9315-.379,2.4585c-1.6688-3.02.2659-6.3527-1.7733-8.894l-.5567-.0116c-.2235-2,.4153-3.9918.2144-6.0083a27.4459,27.4459,0,0,0-2.1438,7.017C924.708,553.701,925.1165,554.6579,925.005,555.5059Z" transform="translate(-832.0434 -413.8193)"/><path class="cls-5" d="M944.0189,548.14c2.8271-2.7205,4.763-6.1473,7.2533-9.1332.5834-.6994.7671-2.0611,2.0837-1.7575a3.3547,3.3547,0,0,1,2.5245,2.5248,8.9051,8.9051,0,0,1-1.37,7.5938c-1.9388,2.8969-3.8377,5.8206-5.7538,8.7327-1.4541-.1377-1.7969-2.0566-3.3256-2.0745a.9722.9722,0,0,0-.3884-.2972l.0022-.0326a8.7941,8.7941,0,0,0-.9912-3.7137Q944.0359,549.0611,944.0189,548.14Z" transform="translate(-832.0434 -413.8193)"/><path class="cls-14" d="M930.8977,594.8135l-.08-.0014c-.3965-.6009-.9794-1.0991-.341-1.9621,5.9233-8.0065,9.7924-17.0819,13.8091-26.1111,1.0747-2.4157,1.2628-5.28,3.2866-7.267q.5307.3726,1.0609.7453-.0162.5823-.0316,1.1643c-3.52,7.0762-5.9639,14.6539-9.8719,21.5381C936.3877,587.0447,934.5288,591.524,930.8977,594.8135Z" transform="translate(-832.0434 -413.8193)"/><path class="cls-5" d="M934.0187,579.86c-2.2238,5.89-4.7824,11.3862-10.509,14.5792-.8627.4811-1.9669,1.0676-2.74.1923-.6889-.78.3189-1.5317.7685-2.1409a133.3731,133.3731,0,0,1,10.85-13.1781c.3248-.3392.6558-.86,1.2284-.6385C934.2453,578.9173,933.901,579.5205,934.0187,579.86Z" transform="translate(-832.0434 -413.8193)"/><path class="cls-14" d="M944.0189,548.14q.0171.9215.0347,1.8426c-2.4973.6688-2.8112,3.2377-4.2045,4.8662-1.1367,1.3287-1.6439,3.1647-3.2782,4.1046q-.06-.4727-.1188-.9462.1161-1.4721.2314-2.9439c1.1858-.1567,1.39-1.3152,2.0136-2.0253,2.4424-2.7811,1.9672-4.29-1.6727-5.5423l.0013-1.4909c.6074.23,1.4948.282,1.775.7212,1.4191,2.2239,3.0582,2.1082,4.9429.7277Z" transform="translate(-832.0434 -413.8193)"/><path class="cls-4" d="M903.0645,625.9526q-.2343-.0252-.4666-.061a11.5077,11.5077,0,0,1,1.725-9.4017c.9771-1.5329.9158-3.8825,3.1958-4.4946C905.1864,616.3774,904.1022,621.1576,903.0645,625.9526Z" transform="translate(-832.0434 -413.8193)"/><path class="cls-14" d="M892.5238,597.4812q-.0119-.2757-.0235-.5515.0015-.47.0025-.94c3.3007.272,6.282.9727,8.1568,4.2232.5718.9914,2.1,1.4314,3.0906,2.3407a4.812,4.812,0,0,1-4.7513-1.9546C897.2774,598.4286,895.031,597.7889,892.5238,597.4812Z" transform="translate(-832.0434 -413.8193)"/><path class="cls-14" d="M920.4336,544.0375q-.2842,1.7045-.57,3.4087a.94.94,0,0,0-.833,1.24c.8544,2.8191-.6655,2.3786-2.3469,1.7627q-.0984-.3366-.1995-.6731.25-.8157.5-1.631.0275-.57.0547-1.1407C918.5571,546.4577,918.4332,544.0322,920.4336,544.0375Z" transform="translate(-832.0434 -413.8193)"/><path class="cls-12" d="M895.5,555.45a27.4687,27.4687,0,0,1,4.6593,10.9922l-.5169.87a34.6318,34.6318,0,0,0-5.171-11.7922Z" transform="translate(-832.0434 -413.8193)"/><path class="cls-14" d="M930.168,558.44q.1815-.9659.3627-1.9316c1.89.3573,2.8195,2.598,4.9336,2.5162l.0322,2.4536C933.2958,561.21,932.1893,559.0231,930.168,558.44Z" transform="translate(-832.0434 -413.8193)"/><path class="cls-4" d="M935.4965,561.4784q-.016-1.2267-.0318-2.4539.0461-.273.0908-.5454l.8962-.4721q.0593.4731.1192.946-.0152,1.2839-.0315,2.5682.0292.7089.059,1.4184v5.015C935.03,565.5463,935.7381,563.439,935.4965,561.4784Z" transform="translate(-832.0434 -413.8193)"/><path class="cls-14" d="M936.5984,562.94q-.03-.7094-.059-1.4184a7.567,7.567,0,0,1,4.7887,4.2851C939.22,565.5568,938.3942,563.4136,936.5984,562.94Z" transform="translate(-832.0434 -413.8193)"/><path class="cls-4" d="M945.431,554.0257c1.5287.0179,1.8715,1.9368,3.3256,2.0745q-.5663,1.22-1.1321,2.4394c-1.1186-.3939-2.05-1.1891-1.49-2.3329C946.7156,555.02,944.9321,554.9524,945.431,554.0257Z" transform="translate(-832.0434 -413.8193)"/><path class="cls-14" d="M922.8348,551.059q.0525.9513.1044,1.9023a4.8481,4.8481,0,0,1-1.2356-.0362c-.9224-.2672-1.866-.8174-1.5113-1.8739.3665-1.0917,1.248-.1445,1.9032-.0892C922.3429,550.9828,922.5884,551.026,922.8348,551.059Z" transform="translate(-832.0434 -413.8193)"/><path class="cls-7" d="M927.4585,551.9932l.5572.0115a34.1271,34.1271,0,0,1-1.1715,6.9344,4.6511,4.6511,0,0,1,.0825-3.4943q-.0058-.9486-.0131-1.8979C927.0726,553.021,926.8922,552.3762,927.4585,551.9932Z" transform="translate(-832.0434 -413.8193)"/><path class="cls-12" d="M892.5028,595.99q-.0012.47-.0025.94c-1.5145-.1107-2.4484-1.1361-3.7448-2.2285,1.6056-.1056,2.5467.8418,3.7052.9928A.192.192,0,0,0,892.5028,595.99Z" transform="translate(-832.0434 -413.8193)"/><path class="cls-14" d="M926.9136,553.5469q.0069.949.0131,1.8979-.9615.03-1.9216.061c.1114-.8479-.2971-1.8048.5243-2.5041Z" transform="translate(-832.0434 -413.8193)"/><path class="cls-7" d="M934.9969,576.8836c-.0018.5253-.1063,1.0066-.733,1.0742-.3851.0416-.6709-.2572-.5552-.5882a1.94,1.94,0,0,1,.7278-.9291C934.81,576.1994,934.9911,576.4994,934.9969,576.8836Z" transform="translate(-832.0434 -413.8193)"/><path class="cls-11" d="M909.3386,610.8241c.1623.5428.1859,1-.5975.96C908.4307,611.1436,908.821,610.9438,909.3386,610.8241Z" transform="translate(-832.0434 -413.8193)"/><path class="cls-4" d="M945.0448,553.6959l-.0022.0326q-.2251.0267-.451.0531Z" transform="translate(-832.0434 -413.8193)"/><path class="cls-11" d="M909.4749,610.4387l.2479.3373c-.1395.0054-.2791.0108-.42.0141A.2472.2472,0,0,1,909.4749,610.4387Z" transform="translate(-832.0434 -413.8193)"/><path class="cls-9" d="M971.9565,563.9745c2.3845-2.997,1.5692-6.406.8091-9.5532-1.19-4.9264.1442-9.3487,1.8367-13.7908a7.0588,7.0588,0,0,1,2.2485-2.9427c1.2312-.988,2.6061-1.5266,4.1508-.7083a3.8134,3.8134,0,0,1,2.3906,3.75c-.2415,3.9947,1.0078,7.6486,2.2194,11.3982,1.8383,5.6889,1.711,11.6643,1.1749,17.5463a121.2638,121.2638,0,0,1-6.1,28.7071c-1.2652,3.6526-.0639,6.1539,1.2665,9.0135.5454,1.1723,1.3862,2.2351,1.1636,3.6467-1.9727-1.1534-2.8688-3.2575-4.2975-4.8911-.3754-.4292-.5147-1.0932-.9317-1.4536-5.4471-4.7087-5.9865-11.581-7.8-17.852a14.9918,14.9918,0,0,1-.1531-8.35c.3332-1.17-.2725-2.2291-.8747-3.2733-.6569-1.1389-1.9056-1.8959-2.1128-3.31C968.1083,568.9445,970.2094,566.5712,971.9565,563.9745Z" transform="translate(-832.0434 -413.8193)"/><path class="cls-13" d="M948.6013,561.3815q.0156-.582.0316-1.1643c1.1009-2.0372,1.606-4.5743,4.375-5.2105a10.091,10.091,0,0,0,4.1482-2.0112,9.4349,9.4349,0,0,0-4.1509,1.0168c-1.8774-.1226-.4147-1.0082-.2107-1.3182,1.8967-2.8821,4.1849-5.5305,5.141-9.5407,1.2143,1.8187,2.1629,3.21,3.0816,4.6211q4.477,6.8757,8.9285,13.7678c.48.7445,1.2264,1.4025,1.0185,2.4435-2.2,2.138-3.4418,4.908-4.952,7.5011-3.2795-1.8605-6.5471-3.7424-9.8423-5.5745C953.5977,564.4823,950.8514,563.3482,948.6013,561.3815Z" transform="translate(-832.0434 -413.8193)"/><path class="cls-5" d="M935.0125,592.5266a1.494,1.494,0,0,1,1.3834.8183,8.7609,8.7609,0,0,1,.6567,1.608c1.3051,4.9,4.4024,8.0719,8.9948,10.1921,3.3032,1.5249,5.3446,4.6185,7.3785,7.554a3.3625,3.3625,0,0,1,.4632,1.4079,1.4344,1.4344,0,0,1-.6294,1.5288c-.799.3673-.895-.5359-1.1377-.967a25.7852,25.7852,0,0,0-10.5682-10.2256,14.3977,14.3977,0,0,1-7.4006-8.9662C933.8812,594.4954,933.3076,592.9434,935.0125,592.5266Z" transform="translate(-832.0434 -413.8193)"/><path class="cls-14" d="M970.1352,601.7719a7.4414,7.4414,0,0,1-5.0941,2.5769,6.8557,6.8557,0,0,0-5.15,2.4072c-1.4822,1.46-3.6364,1.7266-5.7913,2.7559A20.7642,20.7642,0,0,1,970.1352,601.7719Z" transform="translate(-832.0434 -413.8193)"/><path class="cls-7" d="M973.5268,611.9331a28.9188,28.9188,0,0,1,6.77,8.2856,1.36,1.36,0,0,1-.6622,2.0828c-1.1022.4237-2.3238-.1052-2.3891-1.0986-.2134-3.2478-2.2239-5.5846-3.66-8.2238a2.84,2.84,0,0,1-.1315-.9737Z" transform="translate(-832.0434 -413.8193)"/><path class="cls-5" d="M962.6836,576.8574c.8876,3.632-.6671,6.25-2.0888,8.8942-.1989.37-.5385.7532-.9668.4048a1.394,1.394,0,0,1-.5215-1.0329C959.553,582.2011,960.2891,579.3867,962.6836,576.8574Z" transform="translate(-832.0434 -413.8193)"/><path class="cls-12" d="M966.0121,571.4869c1.51-2.5931,2.7524-5.3631,4.952-7.5011l.9924-.0113c-1.7471,2.5967-3.8482,4.97-5.01,7.9361a3.4751,3.4751,0,0,0-.4437.1026.8506.8506,0,0,0-.3762-.1814A.3161.3161,0,0,0,966.0121,571.4869Z" transform="translate(-832.0434 -413.8193)"/><path class="cls-14" d="M964.931,579.4458c-.415-1.1986-.65-2.3408.4073-3.4162Z" transform="translate(-832.0434 -413.8193)"/><path class="cls-4" d="M973.4532,612.0054c-1.26-.2271-1.2474-1.3776-1.7394-2.1657,1.359.1132,1.5534,1.1291,1.8126,2.0939Z" transform="translate(-832.0434 -413.8193)"/><path class="cls-14" d="M966.1268,571.8318a.8506.8506,0,0,1,.3762.1814c-.0122.7814-.0237,1.563-.8221,2.0655C965.245,573.1852,965.7719,572.5258,966.1268,571.8318Z" transform="translate(-832.0434 -413.8193)"/><path class="cls-13" d="M917.5505,531.9409c-.3312-2.876.5554-5.6222.8986-8.4263,1.9651-8.61,7.7947-14.4687,14.12-20.0268,6.6849-5.8744,13.6463-11.4469,19.8448-17.86a142.496,142.496,0,0,0,9.498-10.9171,11.7229,11.7229,0,0,0,.9447-1.71c2.2568-1.905,3.58-4.5455,5.39-6.8015.2842-.3542.3013-1.5671,1.3014-.6881a4.1449,4.1449,0,0,0,.1563.96c1.709,4.0987,7.4418,7.5554,12.3712,7.499,1.9849-.0227,3.97-.0037,5.9844-.0037-.0977,1.0514-.7,1.2932-1.0985,1.6787-5.6847,5.4962-11.4508,10.91-17.0578,16.4844-10.6135,10.5512-21.7123,20.6614-30.5023,32.9015-.658.9163-1.2445.74-2.11.4308-1.36-.4859-2.4828-1.7545-4.2825-1.3423.2922.2039.4667.3517.6633.4587,1.3836.7535,3.3793,1.172,4.0022,2.33.7513,1.3975-.9539,2.9453-1.5366,4.4466-1.7105,4.4065-1.7437,4.3936-6.2465,2.1456-1.1491-.7012-2.28-1.4539-3.768-1.28a9.7177,9.7177,0,0,0,3.9157,2.2064c1.0984.5874,2.2411,1.1062,3.2845,1.7788,1.4142.9115,2.1253.6343,2.609-1.0143,2.0595-7.0192,6.1013-12.8184,11.03-18.1433,9.0384-9.7658,18.3229-19.2877,27.9994-28.4142,7.2448-6.833,13.7564-14.5878,22.985-19.0391-.1506,4.821-1.85,9.3465-2.6862,14.0372-.3175,1.7814-.7533,3.5417-1.1352,5.3117a127.1647,127.1647,0,0,0-3.1657,15.3277,10.13,10.13,0,0,1-3.1116,6.4871,17.9936,17.9936,0,0,0-3.8907,4.3654.51.51,0,0,0,.0564.2417l-1.0557.1285q-.17-.0021-.34.0022c.7223-5.0672,1.4257-10.1372,2.1758-15.2a17.3225,17.3225,0,0,0,.0532-6.43c-.5679-2.4987-1.9124-3.2964-4.39-2.6937a12.5617,12.5617,0,0,0-5.8017,3.2342c-7.816,7.55-15.9278,14.8037-23.1532,22.9491-.4348.49-.7793,1.0606-1.1658,1.5936-.4552.4575-.7343.9355-.1749,1.5115l.0452.003c-.56-1.705-1.0613-.1413-1.2247.1227-1.4758,2.3842-3.0758,4.7135-3.8628,7.4566a17.9514,17.9514,0,0,0-1.5436,4.9257,6.98,6.98,0,0,1-3.419,4.6161c-1.7715,1.1606-3.5705,2.2808-5.3833,3.3758a2.85,2.85,0,0,1-2.2963.1582A27.6856,27.6856,0,0,1,917.5505,531.9409Zm8.9681-11.4464c-.19-.122-.3789-.2458-.5748-.3573-.0057-.0033-.0851.1229-.13.1888l.6811.1964a2.4378,2.4378,0,0,0,2.5989,1.1821A3.0511,3.0511,0,0,0,926.5186,520.4945Z" transform="translate(-832.0434 -413.8193)"/><path class="cls-4" d="M973.6748,538.5071c-3.6488,7.2049-2.7895,14.7509-1.4579,22.3975-1.5516-.71-2.09-2.0254-2.8085-3.1411-4.2234-6.5533-8.3955-13.14-12.5854-19.7146-.0891-.14-.1515-.3319-.28-.4064-3.4862-2.0186-1.7374-4.1091-.0948-6.2,2.7026.5169,4.9728,2.1,7.503,3.0436C967.2392,535.7122,970.21,537.7081,973.6748,538.5071Z" transform="translate(-832.0434 -413.8193)"/><path class="cls-5" d="M944.496,532.9979c2.4911-2.8789,5.3508-5.4758,7.0416-8.9718.546-1.129,1.4323-.9452,2.3309-.8249a2.241,2.241,0,0,1,2.1422,2.0546,8.88,8.88,0,0,1-1.4321,5.935,116.8117,116.8117,0,0,1-10.528,14.4627c-.6552-2.0153-1.1011-4.28-.3023-6.0938.6728-1.5275-.1628-1.8423-.7619-2.5878A8.3187,8.3187,0,0,0,944.496,532.9979Z" transform="translate(-832.0434 -413.8193)"/><path class="cls-4" d="M958.2714,524.0494l-.047-.0509a76.0282,76.0282,0,0,0,19.5445,10.02l-.0739-.0222c.3161.2342.6323.4676,1.1091.8194a9.2591,9.2591,0,0,0-4.3,2.7209c-2.005-.2249-3.6893-1.3163-5.5193-2.0194-4.0493-1.5556-7.6954-4.0771-12.0064-4.998.3045-1.99,1.1368-3.92.6259-6.0068C957.4963,524.0729,957.9645,524.09,958.2714,524.0494Z" transform="translate(-832.0434 -413.8193)"/><path class="cls-8" d="M942.9864,536.9719c.5991.7455,1.4347,1.06.7619,2.5878-.7988,1.8137-.3529,4.0785.3023,6.0938q-.1541.9-.3076,1.8c-1.8841,1.3806-3.5232,1.4963-4.9423-.7276-.28-.4392-1.1676-.4909-1.7752-.7213q-.0258-2.3884-.0512-4.7769Z" transform="translate(-832.0434 -413.8193)"/><path class="cls-12" d="M942.9864,536.9719q-3.0061,2.1277-6.0121,4.2558a4.76,4.76,0,0,0-2.12,1.1563c-1.0125.3718-1.9179-.2434-2.8825-.3129a35.8788,35.8788,0,0,1-10.4429-4.6358q-2.0088-1.9447-4.0171-3.89L917,532.51l.5505-.5693a27.6856,27.6856,0,0,0,14.9266,9.1778,2.85,2.85,0,0,0,2.2963-.1582c1.8128-1.095,3.6118-2.2152,5.3833-3.3758a6.98,6.98,0,0,0,3.419-4.6161l.92.0293A8.3187,8.3187,0,0,1,942.9864,536.9719Z" transform="translate(-832.0434 -413.8193)"/><path class="cls-8" d="M956.9779,530.5189c4.311.9209,7.9571,3.4424,12.0064,4.998,1.83.7031,3.5143,1.7945,5.5193,2.0194l-.8292.971c-3.4649-.7992-6.4352-2.7951-9.7235-4.0209-2.53-.9433-4.8-2.5267-7.503-3.0436A1.0265,1.0265,0,0,1,956.9779,530.5189Z" transform="translate(-832.0434 -413.8193)"/><path class="cls-12" d="M945.1193,528.0429c.787-2.7431,2.387-5.0724,3.8628-7.4566.1634-.264.6645-1.8277,1.2268-.1225-1.2348,2.5589-3.4583,4.6442-3.6864,7.687C945.9153,529.9286,945.5751,528.2347,945.1193,528.0429Z" transform="translate(-832.0434 -413.8193)"/><path class="cls-4" d="M946.5225,528.1508c.2281-3.0428,2.4516-5.1281,3.6864-7.687l-.0473-.0032C951.2479,524.112,948.3852,525.8949,946.5225,528.1508Z" transform="translate(-832.0434 -413.8193)"/><path class="cls-4" d="M951.5722,519.4747c.1855-.7119.3177-1.85,1.2814-.68a5.3353,5.3353,0,0,1,1.6416,2.6853C952.7613,521.9188,951.8772,521.1188,951.5722,519.4747Z" transform="translate(-832.0434 -413.8193)"/><path class="cls-12" d="M953.0052,554.0123a9.4349,9.4349,0,0,1,4.1509-1.0168,10.091,10.091,0,0,1-4.1482,2.0112Z" transform="translate(-832.0434 -413.8193)"/><path class="cls-13" d="M970.0585,465.5139q.0237-.93.0476-1.861c.678-2.0819.1648-4.2761.5792-6.429.9787-.192,1.22.709,1.6952,1.1584,4.1827,3.9567,12.8635,5.7989,17.59,3.6894.4715-1.9136,1.81.0154,2.5788-.5819,2.2951-.54,4.3413-1.4425,5.4384-3.7292.4875-.0146.7.2393.6921.7072a6.0683,6.0683,0,0,0-.1136,2.9289c-.2678,2.1908.2308,4.4851-.8861,6.5612a13.3455,13.3455,0,0,1-7.8517,4.8279C982.3925,474.6942,972.4719,471.988,970.0585,465.5139Z" transform="translate(-832.0434 -413.8193)"/><path class="cls-3" d="M997.9872,457.7606c-1.0971,2.2867-3.1433,3.19-5.4384,3.7292,1.3521-1.9984,3.9836-2.4459,5.3556-4.4182Q997.9452,457.4172,997.9872,457.7606Z" transform="translate(-832.0434 -413.8193)"/><path class="cls-12" d="M970.0585,465.5139c2.4134,6.4741,12.334,9.18,19.7694,7.2719a13.3455,13.3455,0,0,0,7.8517-4.8279c1.314.3461.4811,1.0422.2669,1.6373-9.2286,4.4513-15.74,12.2061-22.985,19.0391-9.6765,9.1265-18.961,18.6484-27.9994,28.4142-4.9283,5.3249-8.97,11.1241-11.03,18.1433-.4837,1.6486-1.1948,1.9258-2.609,1.0143-1.0434-.6726-2.1861-1.1914-3.2842-1.7785q-.0737-.4633-.148-.927c4.5028,2.248,4.536,2.2609,6.2465-2.1456.5827-1.5013,2.2879-3.0491,1.5366-4.4466-.6229-1.1584-2.6186-1.5769-4.0022-2.33-.1966-.107-.3711-.2548-.6633-.4587,1.8-.4122,2.9223.8564,4.2825,1.3423.8654.3091,1.4519.4855,2.11-.4308,8.79-12.24,19.8888-22.35,30.5023-32.9015,5.607-5.5742,11.3731-10.9882,17.0578-16.4844.3987-.3855,1.0008-.6273,1.0985-1.6787-2.014,0-4-.019-5.9844.0037-4.9294.0564-10.6622-3.4-12.3712-7.499a4.1449,4.1449,0,0,1-.1563-.96Z" transform="translate(-832.0434 -413.8193)"/><path class="cls-3" d="M998.5657,461.3967a6.0683,6.0683,0,0,1,.1136-2.9289A3.3386,3.3386,0,0,1,998.5657,461.3967Z" transform="translate(-832.0434 -413.8193)"/><path class="cls-12" d="M977.7689,534.0182a76.0282,76.0282,0,0,1-19.5445-10.02c-.2571-1.1644.4482-.9224.9644-.57a100.2339,100.2339,0,0,0,18.3469,9.4821C978.12,533.1522,978.2753,533.526,977.7689,534.0182Z" transform="translate(-832.0434 -413.8193)"/><path class="cls-13" d="M983.9861,497.5286c-.4766,4.6374-1.2593,9.9686-2.3224,15.2493-.2757,1.3694-.3189,2.7635-.5922,4.1366-.31,1.5561-.9049,1.389-1.971,1.1433a32.5378,32.5378,0,0,1-11.76-5.1877,3.8373,3.8373,0,0,1-1.1062-.9847c-.5651-.934.5994-8.5189,1.4414-9.3528,1.768-1.751,3.4969-3.5626,5.4252-5.1228,1.15-.93,2.8368-1.1345,3.3271-2.9318.1321-.4844,1.0118-.8016,1.5892-1.122C982.2785,490.9915,983.98,491.9772,983.9861,497.5286Z" transform="translate(-832.0434 -413.8193)"/><path class="cls-7" d="M984.0135,515.366a.51.51,0,0,1-.0564-.2417,2.11,2.11,0,0,0,2.1373-.958c1.7362-2.1046,4.071-3.7017,5.3475-6.19.53-1.0326,1.1294-.5155,1.5534-.0955a2.9358,2.9358,0,0,1,.2252,4.0942c-3.61,4.858-8.6829,7.9047-13.826,10.8356a2.1164,2.1164,0,0,1-1.7028.0027,57.0012,57.0012,0,0,1-14.9976-6.6033c-1.4662-.9484-1.6833-1.8539-.7528-3.2232a14.2409,14.2409,0,0,1,3.1656-3.8185c-.91,3.46,1.3083,4.5653,3.3357,5.7828a34.0385,34.0385,0,0,0,10.1149,4.1028C980.9813,519.5982,983.2791,518.0642,984.0135,515.366Z" transform="translate(-832.0434 -413.8193)"/><path class="cls-7" d="M982.618,515.4967q.17-.0042.34-.0022l-.2189.4036Z" transform="translate(-832.0434 -413.8193)"/><path class="cls-4" d="M914.7193,529.47c-.378-1.7347-.2042-3.1714,1.52-3.9836.3252-.1531.736-.104.7591.2854A3.6067,3.6067,0,0,1,914.7193,529.47Z" transform="translate(-832.0434 -413.8193)"/><path class="cls-8" d="M917.5117,533.5457q2.0085,1.9447,4.0171,3.89a16.3165,16.3165,0,0,0-1.0946,6.6019c-2.001-.005-1.8771,2.4205-3.3952,2.9669a47.4957,47.4957,0,0,1,.3738-7.913c.3166-1.74.52-3.73-1.874-4.3512C915.9974,533.6017,917.119,534.3047,917.5117,533.5457Z" transform="translate(-832.0434 -413.8193)"/><path class="cls-12" d="M916.9843,548.1448q-.25.8154-.5,1.631c-1.9485-.9953-3.8971-1.9909-6.1294-3.1314C913.09,545.9944,914.7105,548.411,916.9843,548.1448Z" transform="translate(-832.0434 -413.8193)"/><path class="cls-8" d="M935.556,558.4789q-.0455.2727-.0913.5456c-2.1145.0821-3.044-2.1586-4.934-2.5159a36.6,36.6,0,0,1,.9463-7.011c1.639-.922,1.5424-3.2837,3.364-4.0539Z" transform="translate(-832.0434 -413.8193)"/><path class="cls-14" d="M934.841,545.4437c-1.8216.77-1.725,3.1319-3.364,4.0539-.4162-2.5142.8578-4.9158.4946-7.4265.9647.0695,1.87.6847,2.8828.3129Q934.848,543.9139,934.841,545.4437Z" transform="translate(-832.0434 -413.8193)"/><path class="cls-8" d="M926.9135,553.5469l-1.3841-.5452a27.4548,27.4548,0,0,1,2.144-7.0169c.2009,2.0165-.4379,4.0088-.2144,6.0083C926.8922,552.3762,927.0726,553.021,926.9135,553.5469Z" transform="translate(-832.0434 -413.8193)"/><path class="cls-7" d="M934.841,545.4437q.0069-1.53.0134-3.06a4.7586,4.7586,0,0,1,2.12-1.1563q.0255,2.388.0512,4.7766,0,.7455-.0012,1.491c-.9191,2.4863-.4212,5.0363-.3408,7.5676q-.1155,1.4719-.2314,2.9439l-.8966.4723Q935.1988,551.9613,934.841,545.4437Z" transform="translate(-832.0434 -413.8193)"/><path class="cls-8" d="M936.6835,555.0629c-.08-2.5313-.5783-5.0813.3408-7.5676,3.64,1.2526,4.1152,2.7612,1.6728,5.5423C938.0735,553.7477,937.8693,554.9062,936.6835,555.0629Z" transform="translate(-832.0434 -413.8193)"/><path class="cls-14" d="M929.8913,533.5006q.0742.4637.148.927a9.7209,9.7209,0,0,1-3.916-2.2067C927.6115,532.0467,928.7422,532.7994,929.8913,533.5006Z" transform="translate(-832.0434 -413.8193)"/><path class="cls-8" d="M926.5186,520.4943a3.0519,3.0519,0,0,1,2.5751,1.21,2.4378,2.4378,0,0,1-2.5989-1.1821Z" transform="translate(-832.0434 -413.8193)"/><path class="cls-8" d="M926.4948,520.5224l-.6811-.1964c.045-.0659.1244-.1921.13-.1888.1959.1115.3848.2353.5748.3572Z" transform="translate(-832.0434 -413.8193)"/></svg>