<svg id="Layer_1" data-name="Layer 1" xmlns="http://www.w3.org/2000/svg" width="251.8254" height="250.4822" viewBox="0 0 251.8254 250.4822"><defs><style>.cls-1{fill:#879d36;}.cls-2{fill:#899e3d;}.cls-3{fill:#ebf2c7;}.cls-4{fill:#95a55d;}.cls-5{fill:#f6faf6;}.cls-6{fill:#819b24;}.cls-7{fill:#145b7d;}.cls-8{fill:#31657b;}.cls-9{fill:#acd3da;}.cls-10{fill:#f9fcfc;}.cls-11{fill:#f5fafa;}.cls-12{fill:#f3fafa;}.cls-13{fill:#255f7b;}.cls-14{fill:#a0cfd9;}.cls-15{fill:#d8edf2;}</style></defs><path class="cls-1" d="M1028.3113,645.8512q-.2321.2015-.464.4033c-2.3858.7729-4.3494,2.3336-6.4959,3.5429-4.817,2.7138-10.0151,4.61-14.9153,7.1365a141.22,141.22,0,0,1-24.5046,6.5443,125.2032,125.2032,0,0,1-104.1926-30.7309c-.613-.5482-1.1335-1.2-1.6972-1.8032l-.0172-1.4711c2.4946.5213,3.7956,2.49,5.2986,4.2611.4616.5438.9253,1.5493,2.0094.9984a1.4138,1.4138,0,0,0,.682-1.2473c.1211-1.0682-.4051-1.4881-1.4049-1.5972a1.4692,1.4692,0,0,1-1.295-1.05c-.2817-1.8552-1.7534-2.3683-3.0776-3.2189a14.8958,14.8958,0,0,1-5.3607-5.8072c-.3272-.6442-.8283-1.5394-1.3926-1.6621-1.9292-.42-1.4914-1.6294-1.2285-2.862.5861.5664,1.2032,1.1043,1.7534,1.7036,4.6284,5.0419,9.32,10.0145,14.913,14.0308A15.4467,15.4467,0,0,0,892.02,636.98c2.19,1.4922,4.3338,3.0593,6.5786,4.4645a119.3853,119.3853,0,0,0,99.204,12.4454c4.5806-1.4546,9.03-3.3228,13.54-5.0011a6.3193,6.3193,0,0,0,2.2009-.1518c2.7373-1.2714,5.6555-2.3565,8.0207-4.1514,1.4777-1.1215,3.8656-1.3653,4.3855-3.6623l-.01.01a2.4821,2.4821,0,0,0,3.0188-1.9962l-.0082.008a2.4729,2.4729,0,0,0,2.9672-2.0556l-.0083.0128a2.4214,2.4214,0,0,0,1.9015-.3036,62.1623,62.1623,0,0,0,5.2011-4.2748c1.7115-1.7235,3.9026-3.0473,4.9081-5.4175l-.01.0093q2.4086.4388,2.0338-1.9807l-.0087.0083q1.0647.0436,1.001-1.02l-.013.0143c2.7933-1.6315,4.6734-4.2411,6.8869-6.4892.2057-.2088.04-.7834.0468-1.1882a.2824.2824,0,0,1,.1749-.2772c1.3229-.8987,2.8448-1.6387,2.8581-3.5823l-.0088.0166a.5266.5266,0,0,0,.4775-.5638l-.0326.0223c.56-.0508.6412-.446.6459-.8965l0,0a2.4421,2.4421,0,0,0,2.6682-1.3379c.266-.4851-.6981-1.0192.0859-1.7066,2.2231-1.9493,3.3192-4.724,4.8417-7.1719.4725-.76,1.3418-1.6838.8007-2.8474l.0021.0137c.92-.6555,1.8522-1.3039,1.4729-2.6747.3255-.7587.6192-1.5329.9813-2.2737a119.8148,119.8148,0,0,0,12.2015-46.8953,126.9076,126.9076,0,0,0-5.0523-41.5933c-.0062-.9145.2735-1.96-.0746-2.7179-.8969-1.9519-.2053-4.7473-2.9279-5.7594a.3308.3308,0,0,1-.0922-.3429,4.5691,4.5691,0,0,0-1.9626-4.6432.1968.1968,0,0,1-.1009-.2454,5.5225,5.5225,0,0,0-2.8138-5.7756.3087.3087,0,0,1-.1249-.3181c.2624-1.7057.0071-3.132-1.9607-3.6346l.0119.01c.0017-1.2128.32-2.4681-.8589-3.4282a10.8589,10.8589,0,0,1-3.1143-4.6023c.239-1.54-.4018-2.225-1.9607-2.0178l-.0292-.9871c1.3048.06,2.0726-.4414,1.9907-1.8693-.0389-.6779-.3045-1.1527-1.0457-1.0715-1.29.1413-.8252,1.1913-.942,1.9348l-.9964-.0025a219.5178,219.5178,0,0,0-1.9514-2.0048l-.0687-.966.0164-1.02c.8993-.103,1.0812-.5918.8049-1.3978-.2948-.86-.5326-1.7391-.7952-2.61l.99.0036.8959.0405.0662.0659c.0228.5008.2168.8586.7678.9178l.26.5172.0045.5188c-.035,1.0436-.0571,2.0775,1.4669,1.9459.53.2058.6035.9943,1.285,1.0066l.2738.4683q-.0041.748-.0082,1.4966a2.6235,2.6235,0,0,0,1.9391,2.0244l.547-.0075.0056.005.3863.5209.0639.1338a.6894.6894,0,0,0,.2388.3667.2.2,0,0,1,.1861.2182,1.6369,1.6369,0,0,0-.05.3405c-.5835.821-.301,1.2625.6235,1.4227a4.3822,4.3822,0,0,1,.0563.4806c-.0185.7285-.0317,1.4535.9808,1.5138a2.7557,2.7557,0,0,0,1.7195,1.9013l.3055.5677.3938.5581.0532.0685a.6921.6921,0,0,0,.2516.3782l.3786.8812a.8833.8833,0,0,0,.6532,1.1823l.3509.7931c-.1148.7819-.197,1.546.904,1.6695a.3225.3225,0,0,1,.1034.299l.4.6947-.0032-.0045.33.5094.2852.8041c-.1172.7678-.2472,1.542.8519,1.7006a.4176.4176,0,0,1,.1212.3281l.3566.6782.0289.0484.3192.4351.2775.8771c-.052.6327-.2568,1.3351.6891,1.5137l.2451.5935c-.0057.573-.1242,1.1917.5957,1.4707l.496,1.3884c-.0619.6236-.2681,1.3015.5933,1.578l.2869.6078c.2029.8665-.4935,2.0583.9017,2.4936a.9572.9572,0,0,1,.1122.4771c.1728.8888-.5345,2.1027.9289,2.5149a.7173.7173,0,0,1,.1012.4377c.1357.9029-.5418,2.0723.8414,2.5662a123.8255,123.8255,0,0,1,4.1083,48.9056c-.5253,4.3667-1.3205,8.7008-1.9918,13.05a.462.462,0,0,0-.0541.3889c-1.0524,1.7485-1.177,3.78-1.6721,5.6881-1.8184,7.0079-4.7062,13.6183-7.3678,20.3146l.0089.024a40.5,40.5,0,0,0-3.8877,7.5846c-3.7258,6.8648-8.6828,12.8833-13.2013,19.2035-.4825.4483-.9925.87-1.4446,1.3476-3.7594,3.9674-7.2424,8.2136-11.6555,11.5195a.5923.5923,0,0,0-.6078.6043.3464.3464,0,0,1-.143.2851.9168.9168,0,0,0-.9748.877.6227.6227,0,0,1-.392.1891c-1.4732-.1114-2.1763.7313-2.5129,2.0282l.0006-.01a.8473.8473,0,0,0-1.0593.944l.0042-.004a.906.906,0,0,0-1.04.8961.5142.5142,0,0,1-.331.1782c-1.0948-.2175-1.7092.1608-1.6716,1.3478l-.0469.0547q-.2046.1907-.41.3815C1032.6326,641.8453,1030.87,644.4176,1028.3113,645.8512Z" transform="translate(-836.3192 -414.5898)"/><path class="cls-2" d="M837.95,521.3226a109.0266,109.0266,0,0,1,7.4662-28.0976,125.7511,125.7511,0,0,1,22.6506-36.6771l7.41-7.5285.0581-.0268c.3247.02.4359-.1619.4276-.4554a125.0238,125.0238,0,0,1,108.73-31.778,138.104,138.104,0,0,1,27.5811,8.4414c2.0179,1.6974,4.8479,1.9223,6.7943,3.7484-2.8037.66-4.94-1.1284-7.1288-2.2487a16.754,16.754,0,0,0-3.6782-1.7367,63.4183,63.4183,0,0,1-9.6493-3.1353,9.491,9.491,0,0,0-4.0225-.7857c-.6529.0067-1.4135-.0791-1.5286.86-.1126.92.55.9582,1.2332,1.1719a46.4539,46.4539,0,0,1,6.3958,2.3c1.2362.5973,2.1923.9975,3.3768.0873.9393-.7218,1.66-.2707,1.82.7165.1739,1.0737.1941,1.5971,1.6828,1.6441a7.2251,7.2251,0,0,1,4.094,1.8774c2.2718,1.9844,5.2216,1.8216,7.4127-.75,4.2734,1.6875,8.0309,4.2793,11.8635,6.7446,6.0913,3.9181,11.4707,8.7419,17.04,13.3248,1.2913,1.5222,3.0132,2.6479,4.0537,4.4013q-.0439.3112-.087.6214a6.1543,6.1543,0,0,1-4.51-3.2226c-1.0673-2.0815-2.2524-2.6543-4.4186-1.502.1319-2.4413-.5633-4.031-2.9433-4.4064-.2606-.041-.4774-.41-.6989-.6415-3.431-3.59-6.9524-7.0392-11.9728-8.3731a2.257,2.257,0,0,1-1.1162-.934c-2.247-3.3783-5.4183-4.21-8.9677-2.3058,2.6143.8593,5.1361,1.8593,6.66,4.3768l-1.0787.0434a147.6956,147.6956,0,0,0-23.0878-10.4889,119.9227,119.9227,0,0,0-54.3517-5.1247,115.9426,115.9426,0,0,0-37.4174,11.5917,102.188,102.188,0,0,0-20.0481,12.9027,9.1785,9.1785,0,0,0-3.6571,2.9668,5.6773,5.6773,0,0,0-2.3388,2.0417,15.5308,15.5308,0,0,0-5.1011,4.9323c-.7054.0822-1.0223.6066-1.3162,1.157a115.78,115.78,0,0,0-23.74,35.8229c-1.629,3.8854-3.1051,7.8349-4.652,11.7543-.3006-2.0811-.4844-4.1155,1.252-5.78.7259-.6958.7062-1.396-.2162-2.06-.66-.4748-1.115-1.4723.0309-1.6317,1.5883-.2208,1.7832-.9553,1.827-2.308a2.058,2.058,0,0,0-1.7158-2.2747c-1.4159,2.7972-1.9312,5.88-3.1824,8.6489-1.016,2.2482-2.2443,4.34-2.1541,6.899a5.1276,5.1276,0,0,1-.8572,3.511c-1.4179,1.91-1.2357,4.2-1.118,6.433a1.1854,1.1854,0,0,0,.7407,1.1871c.24.076.8149-.1285.8409-.2761.2618-1.4812,2.2968-2.65.7561-4.4738-.4672-.5532-.4356-2.011-.1072-1.93,3.3482.8233,1.4182-1.7745,1.6811-2.6845.3993-1.3822-.01-3.1083,2.1832-3.22-.8994,5.4854-2.64,10.7756-3.4805,16.2964a123.7735,123.7735,0,0,0-.2411,36.2576,151.2482,151.2482,0,0,0,5.636,23.2135q-.0738.296-.1474.5916c-1.0337-.4676-1.9747-1.1709-1.8339-2.3677.2511-2.135-.6381-3.8157-1.6909-5.5091a3.9234,3.9234,0,0,1-.7458-1.8179c-.0423-3.1707-.0783-6.3032-2.4207-8.8514-.2275-.2475-.1844-.7956-.1747-1.2019.2075-8.7208-1.7049-17.3587-1.02-26.0978a2.86,2.86,0,0,0-.0181-.993c-.5712-1.9583-.2149-3.8834-.0995-5.8634.1045-1.7911,1.5-3.1795,1.1282-4.9982-.0978-.4783-.0017-1.076-.6475-1.1747-.6712-.1026-.848.421-.8358.946.042,1.8087-1.14,1.97-2.5036,1.9137ZM957.7,416.2107c-1.7182-.5985-3.4233.6925-5.2305.18-1.2448-.353-3.5195-1.8436-3.8067,1.3311-.01.1139-.4038.2522-.63.2784-2.9818.3447-6.0669.4612-8.97.551-2.3836.0738-4.4439,1.3379-6.784.8146a9.9792,9.9792,0,0,0,6.25,1.7317c1.2467-.0719,2.0281-1.1352,3.2631-1.0558,5.9873.3847,11.9026-.747,17.8494-.8966,4.5554-.1145,9.1046-.3006,13.76.66,4.1513.8568,8.5339.7976,12.6653,2.1775a1.9724,1.9724,0,0,0,2.2256-.7465c.3175-.393.8095-.7168.514-1.2524-.246-.4462-.7127-.1773-1.1152-.0981-.8921.1756-1.98.5053-2.5762-.3171-1.3187-1.82-3.1523-1.5377-4.9616-1.534-1.7476.0035-3.4957.02-5.2423-.0208-.4892-.0115-1.4636.1463-.9748-.8343.75-1.5048-.4563-1.1072-1.033-1.1123-4.2436-.0377-8.4878-.0224-12.7317-.0124-.41.001-.8524.0388-.8236.72.6464.4192,1.41.2036,2.13.2724.7466.0715,1.5962-.2375,2.3723.4875-2.3815.7318-7.275.7128-7.515.042C956.3889,416.7229,957.6613,417.3713,957.7,416.2107Zm-33.7415,5.3556c6.8323,1.8591,8.4273,1.9532,10.3034.4808C930.7522,422.5207,927.7325,419.8858,923.9583,421.5663Z" transform="translate(-836.3192 -414.5898)"/><path class="cls-3" d="M1083.9448,566.99c.6713-4.349,1.4665-8.6831,1.9918-13.05a123.8291,123.8291,0,0,0-4.1081-48.9056,4.7356,4.7356,0,0,0-.8416-2.5662.7184.7184,0,0,0-.1011-.4378,4.5034,4.5034,0,0,0-.929-2.5148.9592.9592,0,0,0-.112-.4771,3.7633,3.7633,0,0,0-.9019-2.4936q-.1434-.3039-.2877-.6077a2.1786,2.1786,0,0,0-.5925-1.5781q-.2479-.6942-.4963-1.3883a1.8629,1.8629,0,0,0-.5954-1.4708q-.1226-.2967-.2463-.5934-.3451-.7568-.6879-1.5138-.1387-.4386-.2772-.877a.757.757,0,0,0,.0677-.3725q.1065-.1.2143-.1984c1.3489.6064,1.5485,1.8118,2.0442,3.0875,1.1127,2.8641,2.117,5.7608,3.1963,8.6292,1.159,3.08,1.595,6.3049,2.6232,9.3939,1.3793,4.1437,1.4326,8.6146,2.9549,12.7392a1.4635,1.4635,0,0,1,.0576.4931c.0285,8.7914,2.0977,17.5833.7988,26.306-.4917,3.3025.0286,6.84-1.57,10.0616-.57,1.1487-.1561,2.7824-.2028,4.1943A4.7826,4.7826,0,0,1,1083.9448,566.99Z" transform="translate(-836.3192 -414.5898)"/><path class="cls-4" d="M837.95,521.3226q.0526,1.8474.1052,3.6947-.0247,3.9783-.0492,7.9569c-.8643.1367-.9484.7625-.947,1.47q.0129,6.5526.0075,13.1051c0,.7034.0744,1.3351.9391,1.4773l.0292,2.975c.3921,1.3254-.9233,3.06.9643,4.027l.0305,1.9747c.3473,1.8345-.8522,3.9378.9594,5.5177l.048,1.4745c.0832.788-.3357,1.8191.9746,2.013l.0075.0086a12.2132,12.2132,0,0,0,.0528,2.9217c.4916,1.9029.455,4.0129,1.922,5.5849l.0479,1.4621c1.4413,1.5637.7691,3.5771,1.1424,5.368l-.11.0976c-3.3983-8.0115-5.0537-16.47-6.4235-25.0032a120.5912,120.5912,0,0,1-.0769-35.2221A3.7611,3.7611,0,0,1,837.95,521.3226Z" transform="translate(-836.3192 -414.5898)"/><path class="cls-3" d="M1047.98,449.02c-5.5694-4.5829-10.9488-9.4067-17.04-13.3248-3.8326-2.4653-7.59-5.0571-11.8635-6.7446l-.0075-.0019c-1.9468-1.8256-4.7768-2.05-6.7947-3.7479,1.8242-.23,3.4362-.3761,4.9331,1.3609.8741,1.0143,2.6936,1.5058,3.9794,1.9636,3.1633,1.1262,5.6253,3.3338,8.4338,4.9012,3.568,1.9913,7.32,4.0141,10.2791,7.0431a27.9294,27.9294,0,0,0,6.2511,5.0362A3.63,3.63,0,0,1,1047.98,449.02Z" transform="translate(-836.3192 -414.5898)"/><path class="cls-3" d="M1043.92,633.9506a.3466.3466,0,0,0,.1429-.2861q.3041-.3027.6079-.6033c4.4131-3.3059,7.8961-7.5521,11.6555-11.5195.4521-.4771.9621-.8993,1.4446-1.3476-.0928,1.8245-4.07,7.2569-5.7514,7.7614a2.0278,2.0278,0,0,0-1.2376.7415c-1.9076,2.8761-4.746,4.8816-7.2255,7.1386-2.1954,1.9985-4.3009,4.51-7.5105,5.199l-.1724-.17a.9709.9709,0,0,0,.0226-.4122l.0472-.0546a3.5148,3.5148,0,0,0,1.6716-1.348.5153.5153,0,0,0,.3311-.178,1.39,1.39,0,0,0,1.04-.8963l-.0042.0039a1.5605,1.5605,0,0,0,1.0593-.9439l-.0009.0091a4.6542,4.6542,0,0,0,2.5132-2.0278.6246.6246,0,0,0,.392-.1886A1.1657,1.1657,0,0,0,1043.92,633.9506Z" transform="translate(-836.3192 -414.5898)"/><path class="cls-4" d="M871.9691,627.03c-3.5174-2.9126-6.2426-6.5445-9.0372-10.0966-2.9523-3.7524-5.9221-7.5106-7.9826-11.87.06-.0587.12-.1169.1806-.1742.7885.0917,1.0161,1.1544,1.8924,1.095l.0046.0053c.0431.6131-.2588,1.5594.9814,1.0158l.0047-.0015c.08.7929-.3027,1.8147.9925,2.0065q0,.2385.013.4766c-.012.7313.0173,1.4349,1.0052,1.4933l.0053.0055a2.73,2.73,0,0,0,1.9663,2.0323,4.6625,4.6625,0,0,0,.0217.4682,2.523,2.523,0,0,0,1.9847,2.5078l.01.011a.9072.9072,0,0,0,.9974.9873l.0034.0043c-.09,2.1521,1.4394,3.0831,3.0065,3.9853l.0025.003a2.6194,2.6194,0,0,0,1.9958,1.9932l.0067.0066a.9034.9034,0,0,0,.977,1.0075l.0082.0085a.9166.9166,0,0,0,.9977.99l.0022.0032.1338,1.8634Z" transform="translate(-836.3192 -414.5898)"/><path class="cls-3" d="M1074.8508,593.382c2.6616-6.6963,5.5494-13.3067,7.3678-20.3146.4951-1.9078.62-3.94,1.6721-5.6881a45.6206,45.6206,0,0,1-4.2891,17.4977,57.6931,57.6931,0,0,0-2.6206,6.9376A1.9505,1.9505,0,0,1,1074.8508,593.382Z" transform="translate(-836.3192 -414.5898)"/><path class="cls-3" d="M1006.4361,656.9339c4.9-2.5263,10.0983-4.4227,14.9153-7.1365,2.1465-1.2093,4.11-2.77,6.4959-3.5429.3937,1.2927-.44,1.8056-1.42,2.2058-2.5289,1.0331-4.8713,2.446-7.3758,3.55a46.1909,46.1909,0,0,0-8.2531,4.5191C1009.5211,657.4386,1007.9006,656.8412,1006.4361,656.9339Z" transform="translate(-836.3192 -414.5898)"/><path class="cls-3" d="M1075.0546,487.3546a.4179.4179,0,0,0-.1211-.3281,2.3538,2.3538,0,0,0-.852-1.7006q-.1427-.402-.2847-.804-.1647-.2547-.33-.51l.0031.0045-.4-.6947a.3228.3228,0,0,0-.1034-.2991,2.2334,2.2334,0,0,0-.904-1.6694q-.1755-.3964-.3505-.793a1.3456,1.3456,0,0,0-.6536-1.1824q-.1893-.4405-.3776-.8808-.1253-.1889-.2526-.3786l-.0529-.0685q-.1968-.2792-.3941-.5581-.1527-.2838-.3063-.5675a4.6857,4.6857,0,0,0-1.5951-2.5682.5415.5415,0,0,0-.1436-.3354l-.0944-.9531c2.4727,1.0558,3.173,3.5209,4.2614,5.5939,1.5618,2.9751,3.8124,5.6909,3.9378,9.284-.0713.0651-.1427.1313-.2134.1977a.8342.8342,0,0,0-.3875-.0625l-.0287-.0484Q1075.2332,487.6938,1075.0546,487.3546Z" transform="translate(-836.3192 -414.5898)"/><path class="cls-4" d="M854.9493,605.0634c-2.5348-3.03-3.9264-6.7243-5.8641-10.1013q-.585-1.6881-1.1695-3.3763l.1755-.1439q.4632.2808.9276.5608l1.0345,1.9726a2.6323,2.6323,0,0,0,1.948,3.0467l.0342.96c.718.9641.64,2.4528,1.9814,3.0061l.0078.0089c.0852.7877-.3053,1.8124.9938,1.9955l.001.0015.1111,1.8943Q855.0394,604.9755,854.9493,605.0634Z" transform="translate(-836.3192 -414.5898)"/><path class="cls-3" d="M1028.3113,645.8512c2.5588-1.4336,4.3213-4.0059,7.1748-5.0171l.1909.0479.1963-.0175.1724.17c-.12.87-.12,1.5934-1.2886,2.0484a8.1456,8.1456,0,0,0-3.7053,2.237C1030.313,646.2524,1029.2826,645.965,1028.3113,645.8512Z" transform="translate(-836.3192 -414.5898)"/><path class="cls-3" d="M1070.972,600.9906a40.5,40.5,0,0,1,3.8877-7.5846C1075.4867,596.92,1073.1538,598.9164,1070.972,600.9906Z" transform="translate(-836.3192 -414.5898)"/><path class="cls-3" d="M875.4769,449.0194l-7.41,7.5285c-.2369-.9765.4073-1.5611,1.03-2.0679C871.27,452.7122,872.5785,449.9343,875.4769,449.0194Z" transform="translate(-836.3192 -414.5898)"/><path class="cls-4" d="M876.0245,629.473l.0172,1.4711a10.9341,10.9341,0,0,1-4.0725-3.9138l.1729-.1722q.9316.0669,1.8648.1323l.0038.0027a.91.91,0,0,0,1.0046.9894l.0014.0014a.9322.9322,0,0,0,.9921,1.0119Q876.0162,629.2344,876.0245,629.473Z" transform="translate(-836.3192 -414.5898)"/><path class="cls-4" d="M1052.5575,453.93a10.2737,10.2737,0,0,1,4.1826,4.6153l-1.7576-1.0319-1.4892-1.5094c.0058-.8419-.6968-1.28-1.0823-1.8986Z" transform="translate(-836.3192 -414.5898)"/><path class="cls-4" d="M845.12,585.8792c-.2847-1.1622-1.2657-2.1121-1.0454-3.4283l.1086-.0968q.9112.3306,1.8248.6593-.0542,1.8352-.109,3.6712Z" transform="translate(-836.3192 -414.5898)"/><path class="cls-2" d="M1054.9825,457.5134l1.7576,1.0319q.4005.4569.8013.913l.0067.0047.4261.5595q-.0041.502-.0079,1.0041l-.99-.0035C1056.4666,459.7652,1054.8516,459.1351,1054.9825,457.5134Z" transform="translate(-836.3192 -414.5898)"/><path class="cls-3" d="M847.9157,591.5858q.5845,1.6881,1.1695,3.3763c-2.4811-.6778-2.0149-2.6946-2.039-4.4887Z" transform="translate(-836.3192 -414.5898)"/><path class="cls-4" d="M847.9157,591.5858l-.87-1.1124q-.1493-.3007-.2994-.6011-.383-1.44-.7641-2.8813l1.0352.008.008-.0033c.0976.7838-.3279,1.83,1.0012,1.9963l.0006,0,.064,2.4491Z" transform="translate(-836.3192 -414.5898)"/><path class="cls-3" d="M845.9825,586.9909q.3818,1.4409.7643,2.8814c-1.9171-.77-1.8141-2.3642-1.6269-3.9928q.39.4023.78.8041A.4665.4665,0,0,0,845.9825,586.9909Z" transform="translate(-836.3192 -414.5898)"/><path class="cls-4" d="M1062.9789,468.004q.0039-.7483.008-1.4964c.8213.2742,1.0318,1.0038,1.2749,1.7091l-.0058.016Q1063.6187,468.117,1062.9789,468.004Z" transform="translate(-836.3192 -414.5898)"/><path class="cls-4" d="M1062.7131,466.0393c-.6815-.0123-.755-.8008-1.2846-1.0067q-.07-.42-.141-.84l.0413-.0334C1062.0094,464.6244,1062.822,464.9926,1062.7131,466.0393Z" transform="translate(-836.3192 -414.5898)"/><path class="cls-4" d="M1067.8418,473.0681q.0473.4766.0945.9531l-.9608-.5118a4.5081,4.5081,0,0,0-.056-.4805,1.5817,1.5817,0,0,0-.0388-.4471l.1753-.1348Z" transform="translate(-836.3192 -414.5898)"/><path class="cls-4" d="M1057.9663,461.0266q.0039-.502.0079-1.0041a1.0791,1.0791,0,0,1,.8881,1.0447Z" transform="translate(-836.3192 -414.5898)"/><path class="cls-4" d="M1059.6962,462.0508c-.551-.0592-.745-.417-.7678-.9178C1059.488,461.185,1059.7718,461.4676,1059.6962,462.0508Z" transform="translate(-836.3192 -414.5898)"/><path class="cls-4" d="M1060.4612,463.0314a1.0745,1.0745,0,0,1,.8677,1.1274l-.04.0328a1.516,1.516,0,0,1-.942-1.0423Z" transform="translate(-836.3192 -414.5898)"/><path class="cls-4" d="M1066.2956,471.6062a1.6369,1.6369,0,0,1,.05-.3405c.5914.1806.5891.7182.71,1.1814l-.1745.1343Q1066.5891,472.0935,1066.2956,471.6062Z" transform="translate(-836.3192 -414.5898)"/><path class="cls-4" d="M1064.2618,468.2167c.5559.2184.666.73.8045,1.2236l-.1793.1375-.6323-1.3438Z" transform="translate(-836.3192 -414.5898)"/><path class="cls-4" d="M1066.1594,471.0475a.6894.6894,0,0,1-.2388-.3667Q1066.04,470.8646,1066.1594,471.0475Z" transform="translate(-836.3192 -414.5898)"/><path class="cls-4" d="M1065.8567,470.547l-.3863-.5209A.4137.4137,0,0,1,1065.8567,470.547Z" transform="translate(-836.3192 -414.5898)"/><path class="cls-3" d="M875.9626,448.5372c.0083.2935-.1029.475-.4276.4554Z" transform="translate(-836.3192 -414.5898)"/><path class="cls-4" d="M1065.4648,470.0211l-.5465.0075a1.8274,1.8274,0,0,0-.0313-.4508l.1793-.1375Q1065.2662,469.73,1065.4648,470.0211Z" transform="translate(-836.3192 -414.5898)"/><path class="cls-4" d="M1051.9462,454.0427q.0435-.3107.0872-.6216.2619.2545.5237.5093l-.1457.1744a1.6822,1.6822,0,0,0-.4558-.0531Z" transform="translate(-836.3192 -414.5898)"/><polygon class="cls-4" points="221.229 44.873 221.222 44.869 221.293 44.801 221.229 44.873"/><path class="cls-4" d="M1059.9612,463.0868l-.0045-.5188.5046.4634-.114.1171A.8023.8023,0,0,0,1059.9612,463.0868Z" transform="translate(-836.3192 -414.5898)"/><path class="cls-5" d="M887.9951,445.9581a102.188,102.188,0,0,1,20.0481-12.9027,115.9426,115.9426,0,0,1,37.4174-11.5917,119.9227,119.9227,0,0,1,54.3517,5.1247A147.7288,147.7288,0,0,1,1022.9,437.0771a1.0555,1.0555,0,0,0,.9386.5957q.2934.21.5859.42a1.8887,1.8887,0,0,0,1.56.9027.3385.3385,0,0,0,.324.14c.2846.8018,1.1169.96,1.7071,1.354,5.57,3.7186,10.5377,8.2032,15.7911,12.3228l12.113,13.2357a1.7716,1.7716,0,0,0,1.0071,1.5171l0-.0157.5.54-.0206-.0051.4464.6415a.2873.2873,0,0,0,.1885.2854,1.0213,1.0213,0,0,0,.89,1.06l.0054-.02a1.7217,1.7217,0,0,0,.9785,1.5675.4509.4509,0,0,0,.1666.3912.9312.9312,0,0,0,.8615,1.0478l-.01-.0065a47.56,47.56,0,0,0,4.9934,8.0143l-.0117-.01a7.13,7.13,0,0,0,1.9605,3.6347.309.309,0,0,0,.1248.3182,21.6217,21.6217,0,0,0,2.8139,5.7755.1967.1967,0,0,0,.101.2454,11.8315,11.8315,0,0,0,1.9625,4.6432.3308.3308,0,0,0,.0922.3429,58.8037,58.8037,0,0,0,3.0026,8.4773,126.91,126.91,0,0,1,5.0522,41.5933,119.8148,119.8148,0,0,1-12.2015,46.8953c-.3621.7408-.6558,1.515-.981,2.2745a4.0962,4.0962,0,0,0-1.4732,2.6739l-.0016-.0135q-4.198,6.5319-8.397,13.0636l0,0a.9162.9162,0,0,0-.6459.8965l.0331-.0215q-.2387.2822-.478.563l.0092-.0162c-1.0813,1.0915-2.3164,2.06-2.8585,3.5819a.2822.2822,0,0,0-.1747.2778,63.5558,63.5558,0,0,0-6.9339,7.6768l.0131-.0141a1.1659,1.1659,0,0,0-1.0011,1.02l.0088-.0082a2.8886,2.8886,0,0,0-2.0339,1.9806l.01-.0091q-6.0053,4.998-12.0109,9.9957l.0084-.0125a5.4846,5.4846,0,0,0-2.9673,2.0553l.0082-.0079a7.0754,7.0754,0,0,0-3.0188,1.9961l.01-.01q-7.3035,3.9828-14.6071,7.9653c-4.51,1.6783-8.959,3.5465-13.54,5.0011a119.3853,119.3853,0,0,1-99.204-12.4454c-2.2448-1.4052-4.3883-2.9723-6.5786-4.4645-1.0644-2.1371-2.4256-3.8917-5.0979-3.9575-5.5928-4.0163-10.2846-8.9889-14.913-14.0308-.55-.5993-1.1673-1.1372-1.7537-1.7031l-.0342.0008c-.3868-1.4466-1.8244-2.1871-2.37-3.527-.0968-1.85-2.0854-4.4624-3.5481-4.6615l-.3354-.5157c-.1532-3.5076-2.8152-5.383-4.9465-7.6037a.2355.2355,0,0,1-.1534-.2464,3.8109,3.8109,0,0,0-.5225-3.0022c-1.4774-2.27-3.0527-4.4854-3.6378-7.3041-.2186-1.0533-.8331-2.7708-2.585-2.9722q-1.0026-2.052-2.005-4.1044l-.3054-.8975a1.8206,1.8206,0,0,0-.7463-2.0132,151.2368,151.2368,0,0,1-5.6361-23.2135A123.7735,123.7735,0,0,1,843.67,520.97c.84-5.5208,2.5811-10.811,3.4805-16.2964l.04-.04c1.5462-3.92,3.0223-7.87,4.6513-11.755a115.7826,115.7826,0,0,1,23.74-35.823c.7431-.04,1.5247-.0363,1.317-1.1563a11.0055,11.0055,0,0,0,5.1-4.9329,5.6736,5.6736,0,0,1,2.3393-2.0415C886.4257,449.0059,887.215,447.4876,887.9951,445.9581Zm145.0413,179.5453.4875-.4184.06-.0483c1.37-.01,2.6079-.1761,2.4106-2.039l.006-.0055a.9069.9069,0,0,0,.996-.9907.3508.3508,0,0,1,.2586-.204q.5674.0418.5583-.5271c1.0715-1.0434,2.1828-2.0491,3.2085-3.1356,26.0864-27.632,36.3815-60.3176,30.2659-97.76-7.3429-44.9566-43.6076-81.9-88.6664-89.794-42.0324-7.3641-77.5491,5.3909-105.9244,37.3543a94.7777,94.7777,0,0,0-17.79,29.2731,81.5573,81.5573,0,0,0-6.89,23.8028,48.8155,48.8155,0,0,0-1.3987,9.8584,111.2549,111.2549,0,0,0,15.44,66.2692c23.8457,40.2136,71.3755,61.3283,117.3207,52.0958a113.374,113.374,0,0,0,48.5667-22.7807.9172.9172,0,0,0,1.0642-.9281Z" transform="translate(-836.3192 -414.5898)"/><path class="cls-6" d="M876.0245,629.473q-.0084-.2385-.0155-.4774a.88.88,0,0,0-.9923-1.0117l-.0013-.0015a.8743.8743,0,0,0-1.0047-.9893l-.0036-.003a2.455,2.455,0,0,0-1.9979-1.9962l-.002-.0034a.8634.8634,0,0,0-.9979-.99l-.0079-.0086a.8648.8648,0,0,0-.9773-1.0074l-.0066-.0067c.122-1.4527-.5564-2.104-1.9959-1.9931l-.0024-.003a5.4987,5.4987,0,0,0-3.0066-3.9853l-.0032-.0045a.8606.8606,0,0,0-.9976-.9871l-.01-.0112c-.3222-1.1045-.1166-2.627-1.9849-2.5076a4.5493,4.5493,0,0,1-.0213-.4686c.1984-1.5043-.7873-1.8618-1.9667-2.0319l-.0052-.0055c.0252-.74.02-1.46-1.0053-1.4933q-.0134-.2382-.0127-.477c-.0731-.7965.4037-1.8651-.9928-2.0061l-.0044.0012a.8735.8735,0,0,0-.9817-1.0155l-.0045-.0053a2.5264,2.5264,0,0,0-2.0029-2.99l-.0009-.0016c-.0823-.7892.3774-1.8484-.9939-1.9954l-.0076-.009c.0024-1.4391.3726-3.1206-1.9816-3.006q-.0171-.48-.0339-.9606c-.3156-1.2291-.4409-2.58-1.9483-3.0463q-.5172-.9862-1.0343-1.9728c-.3156-1.0083.8378-2.5-.9913-3.01l0-.0006c-.0838-.7908.3569-1.8448-1.0013-1.9962l-.0078.0031q.0042-2.0043.008-4.0083a.8985.8985,0,0,0-.99-1.0019c-.4566-1.0836-1.2557-2.0277-1.026-3.3635.2664-1.55-.7881-1.7175-1.9678-1.64q-.024-.7311-.0474-1.4624c1.516-3.16-1.2106-5.56-1.5212-8.3948-.0059-.0531-.2964-.075-.4541-.1115l-.0072-.0087c-.0587-.8.3722-1.8372-.9749-2.0129q-.024-.7373-.0475-1.4748a23.7411,23.7411,0,0,0,.0167-2.9187c-.1006-.9215.647-2.2317-.9766-2.5987q-.0153-.9873-.03-1.975c-.3649-1.332,1.04-3.088-.9647-4.0267q-.0145-1.4875-.0288-2.9753,0-8.026,0-16.0516.0246-3.9784.0492-7.9569c1.3639.0561,2.5458-.1049,2.5038-1.9136-.0122-.525.1646-1.0486.8358-.946.6458.0987.55.6964.6475,1.1747.3716,1.8187-1.0237,3.2071-1.1282,4.9982-.1154,1.98-.4717,3.9051.0995,5.8634a2.86,2.86,0,0,1,.0181.993c-.6848,8.7391,1.2276,17.377,1.02,26.0978-.01.4063-.0528.9544.1747,1.2019,2.3424,2.5482,2.3784,5.6807,2.4207,8.8514a3.9234,3.9234,0,0,0,.7458,1.8179c1.0528,1.6934,1.942,3.3741,1.6909,5.5091-.1408,1.1968.8,1.9,1.8348,2.3674q.0586.4779.1156.9562c.0007.8877-.0624,1.7815.02,2.6615.08.856-.521,2.0628.9976,2.3165l-.001.0033a.8839.8839,0,0,0,.989,1.01l0-.001c-.0085,2.8942-.0021,2.8871,1.8094,4.52.1569.1415.1549.4585.2279.6936.9087,2.9289,2.8087,5.31,4.514,7.76.6749.97-.063,2.19,1.2,3.0585a9.8593,9.8593,0,0,1,3.09,4.1186c1.5965,3.7436,4.47,6.2832,7.1623,9.0412.211.2162.7763.0867,1.177.1179l.0342-.0008c-.2626,1.2321-.7,2.4417,1.2288,2.8615.5643.1227,1.0654,1.0179,1.3926,1.6621a14.8958,14.8958,0,0,0,5.3607,5.8072c1.3242.8506,2.7959,1.3637,3.0776,3.2189a1.4692,1.4692,0,0,0,1.295,1.05c1,.1091,1.526.529,1.4049,1.5972a1.4138,1.4138,0,0,1-.682,1.2473c-1.0841.5509-1.5478-.4546-2.0094-.9984C879.82,631.9635,878.5191,629.9943,876.0245,629.473Z" transform="translate(-836.3192 -414.5898)"/><path class="cls-6" d="M1054.9825,457.5134c-.1309,1.6217,1.4841,2.2518,1.9938,3.51.2627.8707.5,1.75.7953,2.61.2763.806.0944,1.2948-.8048,1.3977-1.9995-2.1906-4.0062-4.3747-5.9967-6.5735-2.1338-2.357-3.5113-5.5305-6.98-6.44a.9541.9541,0,0,0-1.0194-.9891.8965.8965,0,0,0-1.0019-.99,95.0678,95.0678,0,0,0-14-10.9959c-.1559-1.3693-1.2087-.918-2.0049-.9876l-.0036-.007c-.1348-1.3646-1.196-.9183-1.98-1.0132l-.0006-.0009c-1.524-2.5175-4.0458-3.5175-6.66-4.3768,3.5494-1.9042,6.7207-1.0725,8.9677,2.3058a2.257,2.257,0,0,0,1.1162.934c5.02,1.3339,8.5418,4.7834,11.9728,8.3731.2215.2317.4383.6005.6989.6415,2.38.3754,3.0752,1.9651,2.9433,4.4064,2.1662-1.1523,3.3513-.5795,4.4186,1.502a6.1543,6.1543,0,0,0,4.51,3.2226l.0094.009c-.0182,1.0685.2239,1.9323,1.5375,1.9525Z" transform="translate(-836.3192 -414.5898)"/><path class="cls-2" d="M1043.99,452.0174c3.4688.9092,4.8463,4.0827,6.98,6.44,1.9905,2.1988,3.9972,4.3829,5.9967,6.5735q-.0083.51-.0162,1.02-.5152-.0015-1.0308-.0022-6.0564-6.6178-12.1125-13.2363Q1043.8991,452.4139,1043.99,452.0174Z" transform="translate(-836.3192 -414.5898)"/><path class="cls-4" d="M1011.3417,648.8885q7.3035-3.9827,14.6071-7.9653c-.52,2.2968-2.9078,2.5406-4.3855,3.6621-2.3652,1.7949-5.2834,2.88-8.0207,4.1514A6.3193,6.3193,0,0,1,1011.3417,648.8885Z" transform="translate(-836.3192 -414.5898)"/><path class="cls-4" d="M1057.9706,610.9792q4.1988-6.5318,8.397-13.0636c.5406,1.1634-.3287,2.0876-.8012,2.8472-1.5225,2.4479-2.6186,5.2226-4.8417,7.1719-.784.6874.18,1.2215-.0859,1.7066A2.4421,2.4421,0,0,1,1057.9706,610.9792Z" transform="translate(-836.3192 -414.5898)"/><path class="cls-4" d="M1031.9082,636.902q6.0056-4.9977,12.0109-9.9957c-1.0057,2.37-3.1968,3.6938-4.9083,5.4173a62.1623,62.1623,0,0,1-5.2011,4.2748A2.4214,2.4214,0,0,1,1031.9082,636.902Z" transform="translate(-836.3192 -414.5898)"/><path class="cls-4" d="M1065.9269,481.0653a47.5526,47.5526,0,0,1-4.9933-8.0143l1.02-.0162a10.8589,10.8589,0,0,0,3.1143,4.6023C1066.2464,478.5972,1065.9286,479.8525,1065.9269,481.0653Z" transform="translate(-836.3192 -414.5898)"/><path class="cls-4" d="M1046.922,623.9373a63.5558,63.5558,0,0,1,6.9339-7.6768c-.007.4042.1587.9788-.047,1.1876C1051.5954,619.6962,1049.7153,622.3058,1046.922,623.9373Z" transform="translate(-836.3192 -414.5898)"/><path class="cls-4" d="M1075.9726,504.4921a58.8153,58.8153,0,0,1-3.0025-8.4773c2.7226,1.0121,2.031,3.8075,2.9279,5.7594C1076.2461,502.5316,1075.9664,503.5776,1075.9726,504.4921Z" transform="translate(-836.3192 -414.5898)"/><path class="cls-3" d="M886.9216,633.0222c2.6723.0658,4.0335,1.82,5.0979,3.9575A15.4467,15.4467,0,0,1,886.9216,633.0222Z" transform="translate(-836.3192 -414.5898)"/><path class="cls-4" d="M1070.8144,490.7833a21.6217,21.6217,0,0,1-2.8139-5.7755A5.5222,5.5222,0,0,1,1070.8144,490.7833Z" transform="translate(-836.3192 -414.5898)"/><path class="cls-6" d="M1059.9668,469.0239c.1168-.7435-.3477-1.7935.942-1.9348.7412-.0812,1.0068.3936,1.0457,1.0715.0819,1.4279-.6859,1.9293-1.9907,1.8692l-.0008-.0034Z" transform="translate(-836.3192 -414.5898)"/><path class="cls-4" d="M1072.8779,495.6719a11.8315,11.8315,0,0,1-1.9625-4.6432A4.5692,4.5692,0,0,1,1072.8779,495.6719Z" transform="translate(-836.3192 -414.5898)"/><path class="cls-4" d="M1067.8757,484.69a7.13,7.13,0,0,1-1.9605-3.6347C1067.8828,481.5576,1068.1381,482.9839,1067.8757,484.69Z" transform="translate(-836.3192 -414.5898)"/><path class="cls-4" d="M1054.0306,615.9827c.5421-1.5218,1.7772-2.49,2.8585-3.5819C1056.8754,614.344,1055.3535,615.084,1054.0306,615.9827Z" transform="translate(-836.3192 -414.5898)"/><path class="cls-4" d="M1043.9089,626.9154a2.8886,2.8886,0,0,1,2.0339-1.9806Q1046.3157,627.3522,1043.9089,626.9154Z" transform="translate(-836.3192 -414.5898)"/><path class="cls-4" d="M1028.9493,638.9448a5.4846,5.4846,0,0,1,2.9673-2.0553A2.4731,2.4731,0,0,1,1028.9493,638.9448Z" transform="translate(-836.3192 -414.5898)"/><path class="cls-4" d="M1025.9387,640.933a7.0754,7.0754,0,0,1,3.0188-1.9961A2.4821,2.4821,0,0,1,1025.9387,640.933Z" transform="translate(-836.3192 -414.5898)"/><path class="cls-2" d="M1061.9537,473.0348l-1.02.0162.01.0064c.0356-.6147-.2088-.9992-.8616-1.0477a.4506.4506,0,0,1-.1664-.3916q.0391-.3011.0776-.6011C1061.5519,470.81,1062.1927,471.4949,1061.9537,473.0348Z" transform="translate(-836.3192 -414.5898)"/><path class="cls-4" d="M1042.553,635.0167a4.6542,4.6542,0,0,1-2.5132,2.0278C1040.3767,635.748,1041.08,634.9053,1042.553,635.0167Z" transform="translate(-836.3192 -414.5898)"/><path class="cls-2" d="M1064.887,469.5778a1.8274,1.8274,0,0,1,.0313.4508,2.6234,2.6234,0,0,1-1.94-2.0244q.6395.1134,1.2773.2285Q1064.57,468.9065,1064.887,469.5778Z" transform="translate(-836.3192 -414.5898)"/><path class="cls-4" d="M1068.08,474.3566a4.6857,4.6857,0,0,1,1.5951,2.5682,2.7567,2.7567,0,0,1-1.7186-1.9015Q1068.0181,474.69,1068.08,474.3566Z" transform="translate(-836.3192 -414.5898)"/><path class="cls-2" d="M1059.9612,463.0868a.8023.8023,0,0,1,.3861.0617,1.5132,1.5132,0,0,0,.9413,1.0431c.046.2809.0932.5609.14.841C1059.9041,465.1643,1059.9262,464.13,1059.9612,463.0868Z" transform="translate(-836.3192 -414.5898)"/><path class="cls-4" d="M1066.3692,597.9291a4.0962,4.0962,0,0,1,1.4732-2.6739C1068.2214,596.6252,1067.2889,597.2736,1066.3692,597.9291Z" transform="translate(-836.3192 -414.5898)"/><path class="cls-4" d="M1080.9869,502.4688a4.7356,4.7356,0,0,1,.8416,2.5662C1080.4451,504.5411,1081.1226,503.3717,1080.9869,502.4688Z" transform="translate(-836.3192 -414.5898)"/><path class="cls-4" d="M1079.9568,499.5162a4.5034,4.5034,0,0,1,.929,2.5148C1079.4223,501.6189,1080.13,500.405,1079.9568,499.5162Z" transform="translate(-836.3192 -414.5898)"/><path class="cls-4" d="M1078.9429,496.5455a3.7633,3.7633,0,0,1,.9019,2.4936C1078.4494,498.6038,1079.1458,497.412,1078.9429,496.5455Z" transform="translate(-836.3192 -414.5898)"/><path class="cls-4" d="M1037.6147,639.05a3.5148,3.5148,0,0,1-1.6716,1.348C1035.9055,639.2105,1036.52,638.8322,1037.6147,639.05Z" transform="translate(-836.3192 -414.5898)"/><path class="cls-4" d="M1072.0625,481.3537a2.2334,2.2334,0,0,1,.904,1.6694C1071.8655,482.9,1071.9477,482.1356,1072.0625,481.3537Z" transform="translate(-836.3192 -414.5898)"/><path class="cls-4" d="M1074.0815,485.3259a2.3538,2.3538,0,0,1,.852,1.7006C1073.8343,486.8679,1073.9643,486.0937,1074.0815,485.3259Z" transform="translate(-836.3192 -414.5898)"/><path class="cls-4" d="M1055.92,466.048q.5156.0009,1.0308.0022.0339.4836.0679.9664-.0463.2744-.0916.5485A1.7716,1.7716,0,0,1,1055.92,466.048Z" transform="translate(-836.3192 -414.5898)"/><path class="cls-2" d="M1068.08,474.3566q-.0618.3333-.1235.6667c-1.0126-.06-.9994-.7853-.9809-1.5138q.4806.2558.9609.5117A.542.542,0,0,1,1068.08,474.3566Z" transform="translate(-836.3192 -414.5898)"/><path class="cls-4" d="M1059.993,471.017q-.0387.3-.0776.6011a1.719,1.719,0,0,1-.978-1.5678q.5135-.0126,1.0256-.024l.0008.0035Q1059.9784,470.5236,1059.993,471.017Z" transform="translate(-836.3192 -414.5898)"/><path class="cls-2" d="M1058.041,469.0115a.2865.2865,0,0,1-.1882-.2862q.06-.3535.12-.7057l.0142-.0151a.9346.9346,0,0,1,.9831,1.017l-.0191.019Z" transform="translate(-836.3192 -414.5898)"/><path class="cls-4" d="M1045.934,624.943a1.1659,1.1659,0,0,1,1.0011-1.02Q1047,624.9879,1045.934,624.943Z" transform="translate(-836.3192 -414.5898)"/><path class="cls-2" d="M1066.2956,471.6062q.2933.4875.5858.9752a1.6114,1.6114,0,0,1,.0381.4475C1065.9946,472.8687,1065.7121,472.4272,1066.2956,471.6062Z" transform="translate(-836.3192 -414.5898)"/><path class="cls-2" d="M1059.963,470.0263q-.5124.0117-1.0256.024l-.006.0209q.01-.5155.02-1.0307l.0191-.019q.4985.0011.9965.0024Q1059.9649,469.5252,1059.963,470.0263Z" transform="translate(-836.3192 -414.5898)"/><path class="cls-4" d="M1076.971,491.5006a1.8629,1.8629,0,0,1,.5954,1.4708C1076.8468,492.6923,1076.9653,492.0736,1076.971,491.5006Z" transform="translate(-836.3192 -414.5898)"/><path class="cls-2" d="M1056.9269,467.5651q.0456-.2742.0916-.5485a.9318.9318,0,0,1,.9685.9881l-.0141.015-.567.0649.0207.0048q-.25-.27-.5-.54Z" transform="translate(-836.3192 -414.5898)"/><path class="cls-4" d="M1071.0584,479.3783a1.3456,1.3456,0,0,1,.6536,1.1824A.8834.8834,0,0,1,1071.0584,479.3783Z" transform="translate(-836.3192 -414.5898)"/><path class="cls-4" d="M1078.0627,494.36a2.1786,2.1786,0,0,1,.5925,1.5781C1077.7946,495.6612,1078.0008,494.9833,1078.0627,494.36Z" transform="translate(-836.3192 -414.5898)"/><path class="cls-4" d="M1076.0368,489.3934q.3433.7569.6879,1.5138C1075.78,490.7285,1075.9848,490.0261,1076.0368,489.3934Z" transform="translate(-836.3192 -414.5898)"/><path class="cls-4" d="M1043.92,633.9506a1.1657,1.1657,0,0,1-.9748.8775A.9169.9169,0,0,1,1043.92,633.9506Z" transform="translate(-836.3192 -414.5898)"/><path class="cls-4" d="M1040.0407,637.0354a1.5605,1.5605,0,0,1-1.0593.9439A.8473.8473,0,0,1,1040.0407,637.0354Z" transform="translate(-836.3192 -414.5898)"/><path class="cls-4" d="M1038.9856,637.9754a1.39,1.39,0,0,1-1.04.8963A.9059.9059,0,0,1,1038.9856,637.9754Z" transform="translate(-836.3192 -414.5898)"/><path class="cls-4" d="M1057.3248,611.8755a.9162.9162,0,0,1,.6459-.8965C1057.966,611.43,1057.8844,611.8247,1057.3248,611.8755Z" transform="translate(-836.3192 -414.5898)"/><path class="cls-4" d="M1056.88,612.417q.2393-.2812.478-.563A.5271.5271,0,0,1,1056.88,612.417Z" transform="translate(-836.3192 -414.5898)"/><path class="cls-4" d="M1075.44,488.0812a.8342.8342,0,0,1,.3875.0625.7609.7609,0,0,1-.068.3727Q1075.6,488.2988,1075.44,488.0812Z" transform="translate(-836.3192 -414.5898)"/><path class="cls-4" d="M1070.4282,478.1189q.1269.1895.2526.3786A.6909.6909,0,0,1,1070.4282,478.1189Z" transform="translate(-836.3192 -414.5898)"/><path class="cls-4" d="M1069.9812,477.4923q.1972.279.3941.5581Q1070.1781,477.7714,1069.9812,477.4923Z" transform="translate(-836.3192 -414.5898)"/><path class="cls-4" d="M1075.0546,487.3546q.1785.3391.3568.6783Q1075.2329,487.6938,1075.0546,487.3546Z" transform="translate(-836.3192 -414.5898)"/><path class="cls-4" d="M1073.4664,484.0124q.1655.2547.33.51Q1073.6311,484.267,1073.4664,484.0124Z" transform="translate(-836.3192 -414.5898)"/><path class="cls-4" d="M1044.6706,633.0612q-.3039.3012-.6079.6033A.5923.5923,0,0,1,1044.6706,633.0612Z" transform="translate(-836.3192 -414.5898)"/><path class="cls-4" d="M1035.8733,640.8645l-.1963.0175-.1909-.0479.41-.3819A.9762.9762,0,0,1,1035.8733,640.8645Z" transform="translate(-836.3192 -414.5898)"/><path class="cls-4" d="M1073.07,483.3222l.4.6947Q1073.27,483.67,1073.07,483.3222Z" transform="translate(-836.3192 -414.5898)"/><path class="cls-6" d="M957.7,416.2107c-.0385,1.1606-1.3109.5122-1.3677,1.3631.2421.6735,5.1356.6925,7.5171-.0393-.7761-.725-1.6257-.416-2.3723-.4875-.72-.0688-1.4832.1468-2.13-.2724-.0288-.6808.4134-.7186.8236-.72,4.2439-.01,8.4881-.0253,12.7317.0124.5767.0051,1.7834-.3925,1.033,1.1123-.4888.9806.4856.8228.9748.8343,1.7466.0413,3.4947.0243,5.2423.0208,1.8093-.0037,3.6429-.2855,4.9616,1.534.5959.8224,1.6841.4927,2.5762.3171.4025-.0792.8692-.3481,1.1152.0981.2955.5356-.1965.8594-.514,1.2524a1.9724,1.9724,0,0,1-2.2256.7465c-4.1314-1.38-8.514-1.3207-12.6653-2.1775-4.6555-.9609-9.2047-.7748-13.76-.66-5.9468.15-11.8621,1.2813-17.8494.8966-1.235-.0794-2.0164.9839-3.2631,1.0558a9.9792,9.9792,0,0,1-6.25-1.7317c2.34.5233,4.4-.7408,6.784-.8146,2.9026-.09,5.9877-.2063,8.97-.551.2267-.0262.62-.1645.63-.2784.2872-3.1747,2.5619-1.6841,3.8067-1.3311C954.2765,416.9032,955.9816,415.6122,957.7,416.2107Zm7.6608,1.3374a8.5463,8.5463,0,0,0,6.2779-.1427A11.0167,11.0167,0,0,0,965.3606,417.5481Z" transform="translate(-836.3192 -414.5898)"/><path class="cls-6" d="M847.1509,504.6737c-2.1932.1113-1.7839,1.8374-2.1832,3.22-.2629.91,1.6671,3.5078-1.6811,2.6845-.3284-.0808-.36,1.377.1072,1.93,1.5407,1.8241-.4943,2.9926-.7561,4.4738-.026.1476-.6012.3521-.8409.2761a1.1854,1.1854,0,0,1-.7407-1.1871c-.1177-2.2326-.3-4.5233,1.118-6.433a5.1276,5.1276,0,0,0,.8572-3.511c-.09-2.5589,1.1381-4.6508,2.1541-6.899,1.2512-2.7689,1.7665-5.8517,3.1824-8.6489a2.058,2.058,0,0,1,1.7158,2.2747c-.0438,1.3527-.2387,2.0872-1.827,2.308-1.1459.1594-.6906,1.1569-.0309,1.6317.9224.6638.9421,1.364.2162,2.06-1.7364,1.6645-1.5526,3.6989-1.252,5.78Z" transform="translate(-836.3192 -414.5898)"/><path class="cls-6" d="M1019.0761,428.95c-2.1911,2.5715-5.1409,2.7343-7.4127.75a7.2251,7.2251,0,0,0-4.094-1.8774c-1.4887-.047-1.5089-.57-1.6828-1.6441-.16-.9872-.8807-1.4383-1.82-.7165-1.1845.91-2.1406.51-3.3768-.0873a46.4539,46.4539,0,0,0-6.3958-2.3c-.6836-.2137-1.3458-.2524-1.2332-1.1719.1151-.9394.8757-.8536,1.5286-.86a9.491,9.491,0,0,1,4.0225.7857,63.4183,63.4183,0,0,0,9.6493,3.1353,16.754,16.754,0,0,1,3.6782,1.7367c2.1887,1.12,4.3251,2.9087,7.1288,2.2487Z" transform="translate(-836.3192 -414.5898)"/><path class="cls-6" d="M923.9583,421.5663c3.7742-1.68,6.7939.9544,10.3034.4808C932.3856,423.52,930.7906,423.4254,923.9583,421.5663Z" transform="translate(-836.3192 -414.5898)"/><path class="cls-3" d="M881.9992,450.9666a11.0138,11.0138,0,0,1-5.1,4.934A15.5064,15.5064,0,0,1,881.9992,450.9666Z" transform="translate(-836.3192 -414.5898)"/><path class="cls-3" d="M887.9951,445.9581c-.78,1.5295-1.5694,3.0478-3.6566,2.967A9.1724,9.1724,0,0,1,887.9951,445.9581Z" transform="translate(-836.3192 -414.5898)"/><path class="cls-4" d="M849.0344,581.9887q-.0575-.4782-.1156-.9562.0723-.2954.1465-.5913a1.8217,1.8217,0,0,1,.7468,2.0136Z" transform="translate(-836.3192 -414.5898)"/><path class="cls-3" d="M876.8977,455.8978c.2088,1.1217-.5728,1.118-1.3159,1.158C875.8758,456.5055,876.1927,455.9811,876.8977,455.8978Z" transform="translate(-836.3192 -414.5898)"/><path class="cls-4" d="M1023.8387,437.6731a1.0562,1.0562,0,0,1-.9383-.596l1.0784-.0432.0006.0009a2.4335,2.4335,0,0,0,.0448.4632Q1023.93,437.584,1023.8387,437.6731Z" transform="translate(-836.3192 -414.5898)"/><path class="cls-2" d="M838.0061,532.9742q0,8.0258,0,16.0516c-.8651-.1419-.94-.7736-.9395-1.477q.0048-6.5526-.0075-13.1051C837.0577,533.7367,837.1418,533.1109,838.0061,532.9742Z" transform="translate(-836.3192 -414.5898)"/><path class="cls-2" d="M841.0192,567.0166c.1577.0365.4482.0584.4541.1115.3106,2.8344,3.0372,5.2348,1.5212,8.3948-1.4675-1.5717-1.4309-3.6817-1.9225-5.5846A12.2132,12.2132,0,0,1,841.0192,567.0166Z" transform="translate(-836.3192 -414.5898)"/><path class="cls-2" d="M843.0419,576.9853c1.18-.0777,2.2342.09,1.9678,1.64-.23,1.3358.5694,2.28,1.026,3.3635l.0019.9967-.03.0284q-.9127-.3294-1.8245-.66C843.811,580.5624,844.4832,578.549,843.0419,576.9853Z" transform="translate(-836.3192 -414.5898)"/><path class="cls-2" d="M839.03,558.0028c1.6236.367.876,1.6772.9766,2.5987a23.7411,23.7411,0,0,1-.0167,2.9187C838.1775,561.9406,839.377,559.8373,839.03,558.0028Z" transform="translate(-836.3192 -414.5898)"/><path class="cls-2" d="M838.0349,552.0011c2.0045.9387.6,2.6947.9647,4.0267C837.1116,555.0608,838.427,553.3265,838.0349,552.0011Z" transform="translate(-836.3192 -414.5898)"/><path class="cls-2" d="M840.0371,564.995c1.3471.1757.9162,1.2129.9749,2.0129C839.7014,566.8141,840.12,565.783,840.0371,564.995Z" transform="translate(-836.3192 -414.5898)"/><path class="cls-1" d="M865.0126,616.9966a5.4987,5.4987,0,0,1,3.0066,3.9853C866.452,620.08,864.923,619.1487,865.0126,616.9966Z" transform="translate(-836.3192 -414.5898)"/><path class="cls-1" d="M855.02,602.9942a2.5264,2.5264,0,0,1,2.0029,2.99c-.8764.0594-1.104-1.0033-1.8925-1.095Q855.0755,603.9411,855.02,602.9942Z" transform="translate(-836.3192 -414.5898)"/><path class="cls-1" d="M862.017,613.4862c1.8683-.1194,1.6627,1.4031,1.9849,2.5076A2.5226,2.5226,0,0,1,862.017,613.4862Z" transform="translate(-836.3192 -414.5898)"/><path class="cls-1" d="M872.0092,624.9939a2.455,2.455,0,0,1,1.9979,1.9963q-.9332-.0655-1.865-.1321Q872.0766,625.9253,872.0092,624.9939Z" transform="translate(-836.3192 -414.5898)"/><path class="cls-1" d="M868.0216,620.9849c1.4395-.1109,2.1179.54,1.9959,1.9931A2.6191,2.6191,0,0,1,868.0216,620.9849Z" transform="translate(-836.3192 -414.5898)"/><path class="cls-1" d="M860.029,610.9857c1.1794.17,2.1651.5276,1.9667,2.0319A2.7287,2.7287,0,0,1,860.029,610.9857Z" transform="translate(-836.3192 -414.5898)"/><path class="cls-1" d="M858.013,607.0038c1.3965.141.92,1.21.9928,2.0061C857.71,608.8185,858.0929,607.7967,858.013,607.0038Z" transform="translate(-836.3192 -414.5898)"/><path class="cls-1" d="M859.0185,609.4869c1.0253.0331,1.03.753,1.0053,1.4933C859.0358,610.9218,859.0065,610.2182,859.0185,609.4869Z" transform="translate(-836.3192 -414.5898)"/><path class="cls-1" d="M857.0269,605.99a.8735.8735,0,0,1,.9817,1.0155C856.7681,607.5489,857.07,606.6026,857.0269,605.99Z" transform="translate(-836.3192 -414.5898)"/><path class="cls-1" d="M871.0093,624.0007a.8634.8634,0,0,1,.9979.99A.9164.9164,0,0,1,871.0093,624.0007Z" transform="translate(-836.3192 -414.5898)"/><path class="cls-1" d="M864.0118,616.005a.8606.8606,0,0,1,.9976.9871A.907.907,0,0,1,864.0118,616.005Z" transform="translate(-836.3192 -414.5898)"/><path class="cls-1" d="M870.0241,622.9847a.8648.8648,0,0,1,.9773,1.0074A.9033.9033,0,0,1,870.0241,622.9847Z" transform="translate(-836.3192 -414.5898)"/><path class="cls-1" d="M852.0355,597.9822c2.3542-.1146,1.984,1.5669,1.9816,3.006C852.6757,600.435,852.7535,598.9463,852.0355,597.9822Z" transform="translate(-836.3192 -414.5898)"/><path class="cls-1" d="M850.0533,593.9753c1.5074.4665,1.6327,1.8172,1.9483,3.0463A2.6316,2.6316,0,0,1,850.0533,593.9753Z" transform="translate(-836.3192 -414.5898)"/><path class="cls-1" d="M848.0277,588.9925c1.8291.51.6757,2.0017.9913,3.01q-.4644-.28-.9278-.5606Q848.06,590.2168,848.0277,588.9925Z" transform="translate(-836.3192 -414.5898)"/><path class="cls-1" d="M854.0247,600.9972c1.3713.147.9116,1.2062.9939,1.9954C853.7194,602.81,854.11,601.7849,854.0247,600.9972Z" transform="translate(-836.3192 -414.5898)"/><path class="cls-1" d="M875.0167,627.9839a.88.88,0,0,1,.9923,1.0117A.932.932,0,0,1,875.0167,627.9839Z" transform="translate(-836.3192 -414.5898)"/><path class="cls-1" d="M874.0107,626.9931a.8743.8743,0,0,1,1.0047.9893A.91.91,0,0,1,874.0107,626.9931Z" transform="translate(-836.3192 -414.5898)"/><path class="cls-2" d="M1053.4933,456.004c-1.3136-.02-1.5557-.884-1.5375-1.9525a1.69,1.69,0,0,1,.4556.0533C1052.7965,454.7241,1053.4991,455.1621,1053.4933,456.004Z" transform="translate(-836.3192 -414.5898)"/><path class="cls-2" d="M847.0261,582.9905q-.0039,2.0041-.008,4.0084l-1.0354-.0079a.466.466,0,0,1-.0829-.3074q.0538-1.8342.1084-3.67l.0294-.0281Z" transform="translate(-836.3192 -414.5898)"/><path class="cls-1" d="M847.0259,586.9957c1.3582.1514.9175,1.2054,1.0013,1.9962C846.698,588.8258,847.1235,587.78,847.0259,586.9957Z" transform="translate(-836.3192 -414.5898)"/><path class="cls-7" d="M858.9068,497.2079a94.7777,94.7777,0,0,1,17.79-29.2731c28.3753-31.9634,63.892-44.7184,105.9244-37.3543,45.0588,7.8943,81.3235,44.8374,88.6664,89.794,6.1156,37.4427-4.1795,70.1283-30.2659,97.76-1.0257,1.0865-2.137,2.0922-3.2084,3.1358q-.2791.2637-.5584.5269a.3508.3508,0,0,0-.2586.204,1.3486,1.3486,0,0,0-.996.9907l-.006.0055a4.9733,4.9733,0,0,0-2.4106,2.039l-.06.0482-.4876.4185-.0266.0219a1.46,1.46,0,0,0-1.0643.9281,113.374,113.374,0,0,1-48.5667,22.7807c-45.9452,9.2325-93.475-11.8822-117.3207-52.0958a111.2549,111.2549,0,0,1-15.44-66.2692,48.8175,48.8175,0,0,1,1.3987-9.8585c.547-.0626.7317-.446,1.0357-.8758,1.86-2.6294.4445-5.8864,1.8913-8.6932,1.526-2.96,1.4515-6.5829,3.1439-9.5365A6.642,6.642,0,0,0,858.9068,497.2079Zm162.6677-13.25a.58.58,0,0,0-.5348-.5758l-.39-.4335-.601-.5984a2.6369,2.6369,0,0,0-1.3915-1.4035l-.6082-.601-.4118-.3967-.5807-.542.0346.0313-.5631-.4941.0282.0269-.5369-.5154.0245.0176a6.8823,6.8823,0,0,0-2.6275-2.2695l-.1327-.1065a1.6706,1.6706,0,0,0-1.3356-1.0024l-.0442-.0307c-.3038-1.0068-1.1765-1.3978-1.9972-1.8451.1526-1.09-.6153-1.5928-1.3241-2.182-2.2541-1.8737-5.3336-2.455-7.4127-4.4444a5.3453,5.3453,0,0,0-4.8911-1.4852c-.623-.2281-1.26-.423-1.8668-.689-16.4352-7.2121-33.5049-9.2241-51.01-5.3487-27.9722,6.1927-48.0935,22.4813-59.6261,48.71-8.9971,20.4621-8.9372,41.4043-.9262,62.224a73.8325,73.8325,0,0,0,15.6759,24.9792,4.0162,4.0162,0,0,0,1.9525,2.0446l-.0047-.0043a11.6392,11.6392,0,0,0,3.5256,3.491l.5209.4638a2.8455,2.8455,0,0,0,1.5529,1.3737l.0955.0878.3387.3081.3951.2849a1.3731,1.3731,0,0,0,1.1212.9331l.0071.006a12.623,12.623,0,0,0,3.9821,3.0094l0,0a1.1389,1.1389,0,0,0,.9356.6825c.5181.4108,1.0056.8691,1.5588,1.2252a82.8586,82.8586,0,0,0,40.9023,13.516,79.5858,79.5858,0,0,0,32.572-4.5284,4.3853,4.3853,0,0,0,2.42-.9406l.5689-.1737a9.5623,9.5623,0,0,0,4.2912-1.8791l.1246.0256.07-.1064.5761-.2963-.0223.0135.8014-.3841a1.5518,1.5518,0,0,0,1.2227-.5514,1.5339,1.5339,0,0,0,1.3158-.6737l.1-.03a2.8027,2.8027,0,0,0,1.8329-.9875l.1511-.0713a1.6724,1.6724,0,0,0,1.2847-.7338l.8766-.558.1375.072.0623-.1626.1432-.1a3.6774,3.6774,0,0,0,2.07-1.3457l-.0091.005c.9273-.2418,1.6948-.579.7285-1.6364-.8937-.9777-1.8305-1.916-2.7483-2.8717l-.0042-.006-.481-.5066-.0058-.0059a1.3728,1.3728,0,0,0-.9324-1.0761l.02.03-.5276-.5953-.3806-.425-.5841-.67-.57-.908.0474.0866c-1.365-1.57-2.8243-3.0691-4.0663-4.7309-1.0653-1.4254-1.9631-1.4977-3.5168-.613-14.47,8.2388-29.9037,10.8707-46.2052,7.2816a62.7691,62.7691,0,0,1-38.8507-25.616c.037-.895.37-1.8412-.3364-2.6258-3.6016-4.0016-4.2782-9.5861-7.4713-13.8107a1.1559,1.1559,0,0,1-.0834-.7331c.2154-2.1018-.9-3.9419-1.2545-5.94-.6342-3.5723-1.7244-7.0688-1.747-10.74a80.7205,80.7205,0,0,1,.7945-8.9955c.61-5.7565,1.3715-11.2272,3.9-16.6008,1.3337-2.8344,2.8818-5.6344,3.9785-8.5917.4583-1.2358,1.864-2.2729,1.0963-3.8693l.1188.04-.1047-.0688c1.4746.247,1.1395-.7645,1.0947-1.5742l.0032-.14.1246-.065c2.512.6213,2.3888-1.7647,3.4893-2.866,4.6719-4.6752,8.8727-9.91,14.9442-13.027,2.6393-1.3551,4.9323-3.3431,7.8673-4.2011a2.24,2.24,0,0,0,1.6429-1.99,53.6689,53.6689,0,0,1,20.4829-4.832c19.6617-.9536,36.6316,5.4517,50.4739,19.5633a62.2522,62.2522,0,0,1,17.4883,35.9237c.5013,3.6105.3909,3.6667-2.9453,3.1975-1.875-.2637-3.7658-.4147-5.7056-.6224a6.1157,6.1157,0,0,0,1.1406,2.9034q5.64,10.5567,11.3157,21.0941c.98,1.8176,1.61,4.8762,3.1346,5.0818,1.9087.2575,3.0579-2.6285,4.4212-4.23,4.41-5.18,9.0908-10.1341,13.185-15.5816a9.3722,9.3722,0,0,0,3.037-3.4107l-.008.0108c.5563-.3643,1.3146-.8341,1.1717-1.445-.1855-.7936-1.081-.4765-1.715-.4622l-1.9576-.1379-5.6147-.9531-.2448-1.5188a39.0311,39.0311,0,0,0-1.6183-12.0621l.011.0153a22.6552,22.6552,0,0,0-2.0476-7.9748l-.1157-.4763a24.8827,24.8827,0,0,0-2.8514-7.5856l-.4259-.9037a1.1453,1.1453,0,0,0-.51-1.1986,69.6488,69.6488,0,0,0-11.69-18.3176l-.4177-.4718-.0144-.0167a2.4354,2.4354,0,0,0-1.4227-1.5765l.017.0231-.53-.5207.0267.0229-.5023-.55Zm-25.598,31.0384a.838.838,0,0,0,.0647,1.3575l.2.6337c1.8079,2.1015,3.1348,2.1127,5.8147.049,3.9791-1.7264,4.7975-3.67,2.56-6.0783-1.2632-1.2409-2.5315-1.3029-3.8056-.0164l-1.5288.5486-.0152-.0018-.3368.37c-1.356.6968-3.072,1.0547-2.9551,3.1384Zm-16.0712-21.0684a4.6764,4.6764,0,0,0-1.7864,3.0963c-.2391.9758-.33,1.9125.6732,2.562,1.7212,1.8592,3.0079,1.8378,4.6276-.0769a.212.212,0,0,0,.1575-.2563,1.47,1.47,0,0,0,.8276-1.266,5.5485,5.5485,0,0,0,1.6549-3.28c.4518-.7176.6312-1.4208-.1091-2.0757-.1032-.6863-.8692-.73-1.179-1.2154-2.3917-1.2508-3.7713-.5434-4.8941,2.51Zm-29.913,54.0625a22.5406,22.5406,0,0,0,2.0791-3.4285,4.6022,4.6022,0,0,1,2.9512-3.1281l.9733.5827c-.3411,1.7483,1.2275,2.2185,2.1891,2.5368,1.7863.5914,1.9561,1.72,1.8166,3.2055-.239,2.5455.3071,5.0754.07,7.6411a3.7677,3.7677,0,0,0,1.9546,3.5881l.1026.0733-.0191.1246c-.1034.8375-.2779,1.7156,1.0048,1.7631a14.3007,14.3007,0,0,0,8.4018,4.1577c.4828.8812,1.3186.8268,2.1634.8971,1.61.134,3.0037-.63,4.4881-.9129,4.3832-.8367,7.8185-5.4007,7.8171-9.7613q-.0042-13.8378.0077-27.6754c.0055-2.32-1.01-4.392-1.5206-6.5812-.99-4.2437-7.748-6.1924-11.0485-6.0581-.7236.0294-1.339.1167-1.4205,1.0073l-1.1964.1007c-4.3016-.3193-7.5679,1.6759-8.2,5.0087l.0218-.0211c-.8-.1294-1.5088-.1217-1.63.9448-.1242,1.0965-.9625.9227-1.6965.92a3.13,3.13,0,0,1,.0118-1.9571c.8228-.32.6744-1.0409.676-1.6826q.01-4.33-.0043-8.6592c-.0021-.6422.1453-1.3634-.6852-1.6745l-.5385-3.4084c.1007-.102.3066-.2516.2854-.2983-.1616-.3568-.477-.2044-.7514-.1795l-.865-.382-.4763-.1751c-2.5043.042-3.4764,1.4145-3.4288,3.8047.0558,2.7954.0253,5.5928.0084,8.3892-.0046.7541.32,1.7518-1.02,1.749-4.1781-3.0781-8.688-3.0435-13.2143-1.1a9.9483,9.9483,0,0,0-6.2485,9.1611c-.23,3.8912-.2138,3.8923,3.7406,3.9057a23.7025,23.7025,0,0,1,2.9924.0309c1.8935.2491,2.42-.5039,2.38-2.3588-.0584-2.6821.9927-3.8691,2.9279-3.7246,2.5674.1917,2.6208,2.1018,2.6164,4.0128-.01,4.4806-2.2547,8.0674-4.64,11.598a1.5769,1.5769,0,0,0-.4921.0489c-2.5789,1.1617-2.0213,4.934-4.8755,5.8873a1.5265,1.5265,0,0,0,.0522.468,4.0628,4.0628,0,0,1-1.6441,3.8364c-2.5865,2.2322-3.1218,5.0739-3.1123,8.21a13.32,13.32,0,0,1-.156,3.4622c-.5713,2.1057.49,3.9967,2.7095,4.0208q10.0937.11,20.1891-.0073c1.9942-.0234,4.0191-2.95,3.0286-4.4825a5.846,5.846,0,0,1-.5554-4.7408c.2814-1.3447-.379-1.8252-1.3538-1.7739-2.8722.1509-5.7762-.328-8.6119.37-.4336.1067-.7633.7025-1.2268.075-.3757-.5085-.6118-1.1467-.1222-1.59,1.4644-1.3252.944-3.2571,1.6042-4.8148q.2433-.0127.4868-.0251A.8712.8712,0,0,0,949.9923,547.9908Zm-39.8907-10.5845.0066.0094c-1.6506-1.3237-7.14-1.4505-8.5652-.198a3.0429,3.0429,0,0,0,1.0472,5.2066,10.9324,10.9324,0,0,0,6.6027.0217C911.4422,541.7206,911.8034,539.3311,910.1016,537.4063Zm93.968,25.8356-.7949-.3979a7.0418,7.0418,0,0,0-3.0936-2c-1.7062-.6821-3.2078-.3366-4.0984,1.2582-.9608,1.72-.3577,3.2438,1.2416,4.2982a35.6705,35.6705,0,0,0,3.6741,2.1184c1.818.909,3.5552.6395,4.5221-1.1885A2.6734,2.6734,0,0,0,1004.07,563.2419Zm-89.9674-44.759c1.8522.0285,2.82-.6215,3.4015-1.8693a2.7275,2.7275,0,0,0-.649-3.4026,15.92,15.92,0,0,0-5.3774-3.026,3.4624,3.4624,0,0,0-3.5935,1.184c-.6029.6145-1.264,1.8688-.5781,2.6993A14.82,14.82,0,0,0,914.1022,518.4829Zm-3.1988,50.4952c1.9823-.3312,3.6567-1.6228,5.4-2.7178a2.8968,2.8968,0,0,0,1.079-4.1346,2.9262,2.9262,0,0,0-4.0691-1.3089,30.7522,30.7522,0,0,0-4.5229,2.6275,2.73,2.73,0,0,0-.9438,3.54C908.3431,568.3388,909.4062,568.8506,910.9034,568.9781Zm24.5909,12.8883c.0566-1.8879-.5072-2.9017-1.8226-3.4428a2.8859,2.8859,0,0,0-3.5959.8425,17.9647,17.9647,0,0,0-2.8336,4.9447,2.8765,2.8765,0,0,0,.9457,3.3716,2.7315,2.7315,0,0,0,3.4848.24A12.104,12.104,0,0,0,935.4943,581.8664Zm24.4351,8.2281c0-.7477.0353-1.4974-.0069-2.2427a3.0728,3.0728,0,0,0-3.092-3.2467c-2.089-.0765-3.13,1.2809-3.2924,3.2959-.06.7426-.002,1.4947.0024,2.2425.02,3.5336,1.0187,5.1248,3.2427,5.1683C958.9055,595.3533,959.9663,593.6132,959.9294,590.0945Zm17.9612-8.7408a15.1547,15.1547,0,0,0,3.0954,5.8206,2.774,2.774,0,0,0,4.0034.5268,2.7173,2.7173,0,0,0,1.1464-3.6647,28.648,28.648,0,0,0-2.7084-4.7262,2.8179,2.8179,0,0,0-3.5706-.9131A2.9429,2.9429,0,0,0,977.8906,581.3537Zm-50.8614-87.5c.2744,2.1276,1.629,3.7558,2.723,5.4918a2.9358,2.9358,0,0,0,4.3052,1.0844c1.6854-.9407,1.8564-2.5479,1.1439-4.1047a25.6686,25.6686,0,0,0-2.6971-4.46,2.8814,2.8814,0,0,0-3.3771-.8959C927.7277,491.3953,927.3531,492.58,927.0292,493.8538Zm32.9081-4.6215a21.9327,21.9327,0,0,0-.0122-2.2346c-.2073-2.0144-1.3424-3.3228-3.3763-3.219a3.0347,3.0347,0,0,0-3.0046,3.3091q-.0239,1.1176-.0243,2.2359c0,3.438,1.1,5.1607,3.27,5.1294C958.9284,494.4223,959.94,492.754,959.9373,489.2323Zm47.3926,53.3656a24.4024,24.4024,0,0,0,2.7338-.0178,2.8658,2.8658,0,0,0,2.8836-3.0925,2.8989,2.8989,0,0,0-2.9515-3.048c-.822-.0771-1.6572-.0125-2.4864-.0151-3.6611-.0114-5.23.8818-5.3326,3.0378C1002.0745,541.605,1003.7172,542.6148,1007.33,542.5979Z" transform="translate(-836.3192 -414.5898)"/><path class="cls-1" d="M870.2207,617.2891c-.4007-.0312-.966.0983-1.177-.1179-2.6927-2.758-5.5658-5.2976-7.1623-9.0412a9.8593,9.8593,0,0,0-3.09-4.1186c-1.2634-.8687-.5255-2.0888-1.2-3.0585-1.7053-2.45-3.6053-4.8309-4.514-7.76-.073-.2351-.071-.5521-.2279-.6936-1.8115-1.6333-1.8179-1.6262-1.8094-4.52l.9606.0222a.52.52,0,0,1,.0932.3753c.4262.6473-1.1223,2.2388.9937,2.0782,1.9757,3.3991,3.2852,7.1728,5.7793,10.2806a.2365.2365,0,0,0,.1541.2457,29.1875,29.1875,0,0,0,4.9465,7.6037q.1677.2579.336.5154a14.51,14.51,0,0,0,3.5475,4.6618C868.3963,615.102,869.8339,615.8425,870.2207,617.2891Z" transform="translate(-836.3192 -414.5898)"/><path class="cls-8" d="M858.9068,497.2079a6.642,6.642,0,0,1-.82,4.6972c-1.6924,2.9536-1.6179,6.5762-3.1439,9.5365-1.4468,2.8068-.0314,6.0638-1.8913,8.6932-.304.43-.4887.8132-1.0357.8758A81.5576,81.5576,0,0,1,858.9068,497.2079Z" transform="translate(-836.3192 -414.5898)"/><path class="cls-4" d="M1043.99,452.0174q-.091.3967-.1827.7943c-5.2539-4.119-10.2215-8.6036-15.7916-12.3222-.59-.394-1.4225-.5522-1.7066-1.3542q.83-.0466,1.6592-.0927a95.0738,95.0738,0,0,1,14,10.9958.8986.8986,0,0,0,1.0019.99A.9541.9541,0,0,1,1043.99,452.0174Z" transform="translate(-836.3192 -414.5898)"/><path class="cls-3" d="M852.0937,588.3767a.52.52,0,0,0-.0932-.3754l.1217-.545c1.7518.2014,2.3663,1.9189,2.5849,2.9722.5851,2.8187,2.16,5.0341,3.6378,7.3041a3.8109,3.8109,0,0,1,.5225,3.0022c-2.4948-3.1071-3.8043-6.8808-5.78-10.28A3.7846,3.7846,0,0,0,852.0937,588.3767Z" transform="translate(-836.3192 -414.5898)"/><path class="cls-3" d="M863.9673,608.5849a29.1875,29.1875,0,0,1-4.9465-7.6037C861.1521,603.2019,863.8141,605.0773,863.9673,608.5849Z" transform="translate(-836.3192 -414.5898)"/><path class="cls-3" d="M867.8508,613.7621a14.51,14.51,0,0,1-3.5475-4.6618C865.7654,609.3,867.754,611.9123,867.8508,613.7621Z" transform="translate(-836.3192 -414.5898)"/><path class="cls-1" d="M849.0344,581.9887l.7777.4661q.1521.4482.3048.8974-.0326,1.8076-.0646,3.6145c-1.5186-.2537-.9172-1.46-.9976-2.3165C848.972,583.77,849.0351,582.8764,849.0344,581.9887Z" transform="translate(-836.3192 -414.5898)"/><path class="cls-4" d="M850.0523,586.9667q.0323-1.8071.0646-3.6145,1.0027,2.0518,2.0052,4.1041-.0606.2724-.1216.545l-.9606-.0221,0,.0009a.91.91,0,0,0-.9889-1.01Z" transform="translate(-836.3192 -414.5898)"/><path class="cls-9" d="M1033.584,625.0367a4.9733,4.9733,0,0,1,2.4106-2.039C1036.1919,624.8606,1034.9541,625.0268,1033.584,625.0367Z" transform="translate(-836.3192 -414.5898)"/><path class="cls-2" d="M1027.9683,439.0426q-.8293.0462-1.6592.0927a.3382.3382,0,0,1-.3244-.14l-.0213-.94C1026.76,438.1246,1027.8124,437.6733,1027.9683,439.0426Z" transform="translate(-836.3192 -414.5898)"/><path class="cls-4" d="M1025.9634,438.055l.0213.94a1.8891,1.8891,0,0,1-1.56-.9028l.1218-.15,1.4129.1058Z" transform="translate(-836.3192 -414.5898)"/><path class="cls-4" d="M1058.9512,469.0405q-.01.5152-.02,1.0307a1.0212,1.0212,0,0,1-.8906-1.06Z" transform="translate(-836.3192 -414.5898)"/><path class="cls-4" d="M1060.0818,472.01c.6528.0485.8972.433.8616,1.0477A.9311.9311,0,0,1,1060.0818,472.01Z" transform="translate(-836.3192 -414.5898)"/><path class="cls-9" d="M1036.0006,622.9922a1.3486,1.3486,0,0,1,.996-.9907A.9069.9069,0,0,1,1036.0006,622.9922Z" transform="translate(-836.3192 -414.5898)"/><path class="cls-9" d="M1031.9455,626.4534a1.46,1.46,0,0,1,1.0643-.9281A.9173.9173,0,0,1,1031.9455,626.4534Z" transform="translate(-836.3192 -414.5898)"/><path class="cls-4" d="M1056.9265,467.5494q.25.27.5.54Q1057.1764,467.82,1056.9265,467.5494Z" transform="translate(-836.3192 -414.5898)"/><path class="cls-4" d="M1057.4059,468.0846l.567-.0649q-.06.3523-.12.7056Q1057.6289,468.4058,1057.4059,468.0846Z" transform="translate(-836.3192 -414.5898)"/><path class="cls-9" d="M1033.0364,625.5034l.4876-.4185Z" transform="translate(-836.3192 -414.5898)"/><path class="cls-4" d="M1024.4249,438.0927q-.2928-.21-.5859-.42c.06-.0592.1222-.1175.1847-.1745q.2612.2224.523.4441Z" transform="translate(-836.3192 -414.5898)"/><path class="cls-9" d="M1037.2552,621.7975q.2791-.2634.5584-.5269Q1037.8222,621.8388,1037.2552,621.7975Z" transform="translate(-836.3192 -414.5898)"/><path class="cls-1" d="M847.0261,582.9905l-.9885-.0052-.0019-.9967A.8985.8985,0,0,1,847.0261,582.9905Z" transform="translate(-836.3192 -414.5898)"/><path class="cls-1" d="M850.0513,586.97a.91.91,0,0,1,.9889,1.01A.8838.8838,0,0,1,850.0513,586.97Z" transform="translate(-836.3192 -414.5898)"/><path class="cls-2" d="M1024.5467,437.9424q-.2618-.2219-.523-.4441a2.48,2.48,0,0,1-.0443-.4635c.7844.0949,1.8456-.3514,1.98,1.0132Q1025.2532,437.9954,1024.5467,437.9424Z" transform="translate(-836.3192 -414.5898)"/><path class="cls-2" d="M1042.9706,451.0283a.8986.8986,0,0,1-1.0019-.99A.8986.8986,0,0,1,1042.9706,451.0283Z" transform="translate(-836.3192 -414.5898)"/><path class="cls-2" d="M965.3606,417.5481a11.0167,11.0167,0,0,1,6.2779-.1427A8.5463,8.5463,0,0,1,965.3606,417.5481Z" transform="translate(-836.3192 -414.5898)"/><path class="cls-10" d="M1000.5125,600.3284q.2851.454.57.9084a.6411.6411,0,0,0,.5841.6695q.19.2124.3806.4251l.5277.5952-.02-.03a.841.841,0,0,0,.9325,1.0759l.0057.0058.4811.5067.0042.006c-.0641,1.0952.0389,2.0809,1.2286,2.6246.7826.3576.79,1.1434.7912,1.8835l.0091-.005c-1.0137-.0492-2.0805-.18-2.07,1.3457l-.143.1-.2.0907q-.4383.279-.8769.5578c-.6583-.1577-1.1244.0205-1.2844.734l-.1511.0713c-.7291.11-1.6463-.13-1.8329.9875l-.0994.03c-.5379.03-1.1042.0058-1.3159.6737a1.5507,1.5507,0,0,1-1.2235.551.67.67,0,0,0-.8006.3845l.0222-.0136q-.2881.1481-.576.2964l-.07.1064-.1246-.0256c-1.6549.1135-3.4935-.1923-4.2912,1.8791l-.5689.1737c-.8561.1862-2.0438-.4807-2.42.9406a79.5858,79.5858,0,0,1-32.572,4.5284,82.8586,82.8586,0,0,1-40.9023-13.516c-.5532-.3561-1.0407-.8144-1.5588-1.2253-.07-.56-.4543-.6873-.9356-.6824l0,0c-.8591-1.6228-1.7091-3.2575-3.9821-3.0094l-.007-.006c-.0253-.73-.4287-1.0051-1.1213-.9331l-.395-.2847a.4366.4366,0,0,0-.3388-.3083l-.0955-.0878c.0239-1.07-.524-1.4937-1.5529-1.3737l-.5208-.4638a3.455,3.455,0,0,0-3.5257-3.491l.0048.0043c-.0944-1.2129-.4858-2.1423-1.9526-2.0446A73.8325,73.8325,0,0,1,882.85,570.0044c-8.011-20.82-8.0709-41.7619.9262-62.224,11.5326-26.2289,31.6539-42.5175,59.6261-48.71,17.5048-3.8754,34.5745-1.8634,51.01,5.3487.6063.266,1.2438.4609,1.8672.689,4.4451,2.6019,9.1207,4.8262,13.1805,8.0577-.2456,1.9976,1.1255,1.9145,2.4441,1.8991l.0443.0306c.0582.85.6607.9744,1.3356,1.0024l.1326.1064a2.6409,2.6409,0,0,0,2.6276,2.27l-.0246-.0174.537.5152-.0283-.0267.5632.4939-.0347-.031a.5817.5817,0,0,0,.5808.5417l.4118.3968a.632.632,0,0,0,.6082.6009,2.6367,2.6367,0,0,1,1.3915,1.4036.64.64,0,0,0,.601.5983l.39.4335.5348.5758-.0285-.0339q.2511.2754.5024.55l-.0268-.0228.53.5206-.0171-.023a1.3444,1.3444,0,0,0,1.4228,1.5764l.0144.0166.4177.4719a69.643,69.643,0,0,1,11.69,18.3176.8809.8809,0,0,0,.5106,1.1986q.213.4518.4259.9037a11.2236,11.2236,0,0,0,2.8514,7.5856l.1156.4763c.024,1.2191-.3581,2.6652.1669,3.6042.7912,1.4154.04,3.4723,1.8808,4.3706l-.0112-.0151c-.7094,3.9621,1.035,7.6979,1.09,11.592.0022.1591.3449.3134.529.47q.1224.7595.2447,1.5187c-.1666,1.0466.66.9263,1.2207.9457,1.463.0508,2.9292.0111,4.3941.0075l1.9576.1379q.2715.9537.5433,1.9072l.0079-.0108c-2.1609.1142-3.0022,1.4033-3.0369,3.4107-4.0942,5.4475-8.7747,10.4012-13.185,15.5816-1.3633,1.6013-2.5125,4.4873-4.4212,4.23-1.5242-.2056-2.1548-3.2642-3.1346-5.0818q-5.6788-10.5358-11.3157-21.0941a6.1157,6.1157,0,0,1-1.1406-2.9034c1.94.2077,3.8306.3587,5.7056.6224,3.3362.4692,3.4466.413,2.9453-3.1975a62.2522,62.2522,0,0,0-17.4883-35.9237c-13.8423-14.1116-30.8122-20.5169-50.4739-19.5633a53.67,53.67,0,0,0-20.483,4.832,36.7526,36.7526,0,0,0-9.532,4.68c-7.2927,4.5608-13.7,10.0949-18.4116,17.4041l-.1246.065-.0032.1409a2.4781,2.4781,0,0,0-1.0947,1.5738l.1047.0688-.1181-.04c-.7234.37-.9626,1.1275-1.3423,1.75a62.45,62.45,0,0,0-8.7829,42.5515,58.7435,58.7435,0,0,0,11.2478,27.605,62.7691,62.7691,0,0,0,38.8507,25.616c16.3015,3.5891,31.7354.9572,46.2052-7.2816,1.5537-.8847,2.4515-.8124,3.5168.613,1.242,1.6618,2.7013,3.1611,4.0661,4.7311Z" transform="translate(-836.3192 -414.5898)"/><path class="cls-11" d="M970.8069,516.1233l1.1964-.1007c9.5463.8253,12.8776,4.4569,12.8728,14.03q-.0057,11.3357-.0115,22.6713c-.0086,4.0709-.93,7.7585-4.5474,10.2275-2.66,1.8158-5.6959,2.1357-8.8006,2.156a14.3007,14.3007,0,0,1-8.4018-4.1577,2.9388,2.9388,0,0,0-1.0048-1.7631l.0191-.1246-.1026-.0732a22.0613,22.0613,0,0,1-1.0017-7.3337c.017-2.3078.2991-4.6386-.243-6.9312.4566-2.2181.1131-4.4638.2309-6.6936l.0911-8.99c.2928-.1911.2914-.3823,0-.5734-.3017-2.62.589-4.9924,1.526-7.3553l-.0226.02A15.84,15.84,0,0,1,970.8069,516.1233Zm-.3388,9.806-.0346.0689c-.8417.9594-.5086,2.0407-.3222,3.1067l-.0089,13.7962.0133.7063.0332.7266a24.583,24.583,0,0,0,.31,6.94,3.3582,3.3582,0,0,0-.2954,2.4013c.0624,1.3707.4158,2.7043,1.92,3.16a2.7169,2.7169,0,0,0,3.3768-1.3668c1.0466-2.4453.4066-5.02.478-7.5211a186.06,186.06,0,0,0-.1027-19.0849l-.0048-.7152c.1515-.9065.61-1.8782-.533-2.51-1.4688-1.7785-3.001-1.708-4.5839-.157Z" transform="translate(-836.3192 -414.5898)"/><path class="cls-12" d="M943.07,540.0269c2.385-3.5306,4.63-7.1174,4.64-11.598.0044-1.911-.049-3.8211-2.6164-4.0128-1.9352-.1445-2.9863,1.0425-2.9279,3.7246.04,1.8549-.4861,2.6079-2.38,2.3588a23.7025,23.7025,0,0,0-2.9924-.0309c-3.9544-.0134-3.97-.0145-3.7406-3.9057a9.9483,9.9483,0,0,1,6.2485-9.1611c4.5263-1.9436,9.0362-1.9782,13.2141,1.1.9165,1.3327,2.82,1.6945,3.2586,3.5524.7223,3.0577,1.53,5.9887.8667,9.275a40.6686,40.6686,0,0,1-3.1442,8.3184,59.7713,59.7713,0,0,0-5.552,9.3268,48.5244,48.5244,0,0,0-4.4112,7.5627c4.1162,0,7.902-.019,11.6875.0061,2.9179.0194,1.7263,2.4045,1.5413,3.49-.2562,1.5035,1.824,4.3485-1.51,4.4577-6.72.22-13.452.07-20.1791.05-.6133-.0018-1.5391.1423-1.4758-.8453.1822-2.84-.6778-5.7343.96-8.499C937.5105,550.2088,940.244,545.0906,943.07,540.0269Z" transform="translate(-836.3192 -414.5898)"/><path class="cls-9" d="M953.4963,539.6478a40.6864,40.6864,0,0,0,3.1441-8.3188c.6629-3.2863-.1444-6.2173-.8667-9.275-.4389-1.8579-2.3421-2.22-3.2586-3.5524,1.34.0029,1.0156-.9948,1.02-1.7489.0169-2.7964.0474-5.5938-.0084-8.3892-.0476-2.39.9245-3.7627,3.4285-3.8049l.4766.1753q.4324.1909.8657.3816.2334.2388.4653.4782.2692,1.7043.538,3.4082a69.7351,69.7351,0,0,0,.014,12.0165,3.1336,3.1336,0,0,0-.0123,1.9571c-.4588,4.4376-.1155,8.8868-.1838,13.33-.0188,1.2241.677,1.7923,1.8938,1.7244-.1178,2.23.2257,4.4755-.2307,6.6935-1.8162-.5116-3.0767-2.006-4.7861-2.7066l-.9733-.5825C954.6722,540.7036,953.6664,540.5327,953.4963,539.6478Z" transform="translate(-836.3192 -414.5898)"/><path class="cls-13" d="M943.07,540.0269c-2.8257,5.0637-5.5592,10.1819-8.5134,15.1694-1.6376,2.7647-.7776,5.6587-.96,8.499-.0633.9876.8625.8435,1.4758.8453,6.7271.02,13.4593.17,20.1791-.05,3.3344-.1092,1.2542-2.9542,1.51-4.4577.185-1.0853,1.3766-3.47-1.5413-3.49-3.7855-.0251-7.5713-.0061-11.6875-.0061a48.5244,48.5244,0,0,1,4.4112-7.5627l.559.0226c-.66,1.5577-.14,3.49-1.6042,4.8148-.49.4431-.2535,1.0813.1222,1.59.4635.6275.7932.0317,1.2268-.075,2.8357-.698,5.74-.2191,8.6119-.37.9748-.0513,1.6352.4292,1.3538,1.7739a5.846,5.846,0,0,0,.5554,4.7408c.99,1.5322-1.0344,4.4591-3.0286,4.4825q-10.0935.1183-20.1891.0073c-2.219-.0241-3.2808-1.9151-2.7095-4.0208a13.32,13.32,0,0,0,.156-3.4622c-.01-3.1365.5258-5.9782,3.1123-8.21a4.0628,4.0628,0,0,0,1.6441-3.8364,1.5265,1.5265,0,0,1-.0522-.468c2.8542-.9533,2.2966-4.7256,4.8755-5.8873A1.5769,1.5769,0,0,1,943.07,540.0269Z" transform="translate(-836.3192 -414.5898)"/><path class="cls-8" d="M907.9209,576.7367a58.7435,58.7435,0,0,1-11.2478-27.605A62.45,62.45,0,0,1,905.456,506.58c.38-.6229.6189-1.3806,1.3423-1.75.767,1.596-.6387,2.6331-1.097,3.8689-1.0967,2.9573-2.6448,5.7573-3.9785,8.5917-2.5285,5.3736-3.29,10.8443-3.9,16.6008a80.7205,80.7205,0,0,0-.7945,8.9955c.0226,3.6713,1.1128,7.1678,1.747,10.74.3547,1.9984,1.47,3.8385,1.2545,5.94a1.1559,1.1559,0,0,0,.0834.7331c3.1931,4.2246,3.87,9.8091,7.4713,13.8107C908.2907,574.8955,907.9579,575.8417,907.9209,576.7367Z" transform="translate(-836.3192 -414.5898)"/><path class="cls-8" d="M971.5166,565.1071c3.1047-.02,6.14-.34,8.8006-2.156,3.6173-2.469,4.5388-6.1566,4.5474-10.2275q.024-11.3356.0115-22.6713c.0048-9.5728-3.3265-13.2044-12.8728-14.03.0815-.8906.6969-.9779,1.4205-1.0073,3.3-.1343,10.0588,1.8144,11.0485,6.0581.5106,2.1892,1.5261,4.2607,1.5206,6.5812q-.0328,13.8377-.0077,27.6754c.0014,4.3606-3.4339,8.9246-7.8171,9.7613-1.4844.2833-2.8784,1.0469-4.4881.9129C972.8352,565.9339,971.9994,565.9883,971.5166,565.1071Z" transform="translate(-836.3192 -414.5898)"/><path class="cls-14" d="M914.1022,518.4829a14.82,14.82,0,0,1-6.7965-4.4146c-.6859-.8305-.0248-2.0848.5781-2.6993a3.4624,3.4624,0,0,1,3.5935-1.184,15.92,15.92,0,0,1,5.3774,3.026,2.7275,2.7275,0,0,1,.649,3.4026C916.9227,517.8614,915.9544,518.5114,914.1022,518.4829Z" transform="translate(-836.3192 -414.5898)"/><path class="cls-14" d="M910.9034,568.9781c-1.4972-.1275-2.56-.6393-3.0566-1.9933a2.73,2.73,0,0,1,.9438-3.54,30.7522,30.7522,0,0,1,4.5229-2.6275,2.9262,2.9262,0,0,1,4.0691,1.3089,2.8968,2.8968,0,0,1-1.079,4.1346C914.56,567.3553,912.8857,568.6469,910.9034,568.9781Z" transform="translate(-836.3192 -414.5898)"/><path class="cls-14" d="M935.4943,581.8664a12.104,12.104,0,0,1-3.8216,5.9564,2.7315,2.7315,0,0,1-3.4848-.24,2.8765,2.8765,0,0,1-.9457-3.3716,17.9647,17.9647,0,0,1,2.8336-4.9447,2.8859,2.8859,0,0,1,3.5959-.8425C934.9871,578.9647,935.5509,579.9785,935.4943,581.8664Z" transform="translate(-836.3192 -414.5898)"/><path class="cls-14" d="M959.9294,590.0945c.0369,3.5187-1.0239,5.2588-3.1462,5.2173-2.224-.0435-3.2223-1.6347-3.2427-5.1683-.0044-.7478-.0624-1.5-.0024-2.2425.1626-2.015,1.2034-3.3724,3.2924-3.2959a3.0728,3.0728,0,0,1,3.092,3.2467C959.9647,588.5971,959.9294,589.3468,959.9294,590.0945Z" transform="translate(-836.3192 -414.5898)"/><path class="cls-14" d="M977.8906,581.3537a2.9429,2.9429,0,0,1,1.9662-2.9566,2.8179,2.8179,0,0,1,3.5706.9131,28.648,28.648,0,0,1,2.7084,4.7262,2.7173,2.7173,0,0,1-1.1464,3.6647,2.774,2.774,0,0,1-4.0034-.5268A15.1547,15.1547,0,0,1,977.8906,581.3537Z" transform="translate(-836.3192 -414.5898)"/><path class="cls-14" d="M927.0292,493.8538c.3239-1.2737.6985-2.4585,2.0979-2.8845a2.8814,2.8814,0,0,1,3.3771.8959,25.6686,25.6686,0,0,1,2.6971,4.46c.7125,1.5568.5415,3.164-1.1439,4.1047a2.9358,2.9358,0,0,1-4.3052-1.0844C928.6582,497.61,927.3036,495.9814,927.0292,493.8538Z" transform="translate(-836.3192 -414.5898)"/><path class="cls-14" d="M959.9373,489.2323c.003,3.5217-1.0089,5.19-3.1469,5.2208-2.17.0313-3.2707-1.6914-3.27-5.1294q0-1.118.0243-2.2359a3.0347,3.0347,0,0,1,3.0046-3.3091c2.0339-.1038,3.169,1.2046,3.3763,3.219A21.9327,21.9327,0,0,1,959.9373,489.2323Z" transform="translate(-836.3192 -414.5898)"/><path class="cls-14" d="M1007.33,542.5979c-3.6127.0169-5.2554-.9929-5.1531-3.1356.1028-2.156,1.6715-3.0492,5.3326-3.0378.8292.0026,1.6644-.062,2.4864.0151a2.8989,2.8989,0,0,1,2.9515,3.048,2.8658,2.8658,0,0,1-2.8836,3.0925A24.4024,24.4024,0,0,1,1007.33,542.5979Z" transform="translate(-836.3192 -414.5898)"/><path class="cls-8" d="M908.0342,503.0208c4.7114-7.3092,11.1189-12.8433,18.4116-17.4041a36.7526,36.7526,0,0,1,9.532-4.68,2.24,2.24,0,0,1-1.6428,1.99c-2.935.858-5.228,2.846-7.8673,4.2011-6.0715,3.117-10.2723,8.3518-14.9442,13.027C910.423,501.2561,910.5462,503.6421,908.0342,503.0208Z" transform="translate(-836.3192 -414.5898)"/><path class="cls-9" d="M983.5772,499.2534a.2121.2121,0,0,1-.1572.2563c-1.53.7736-3.08.3552-4.6279.0769-1.0029-.6495-.9123-1.5862-.6733-2.562,2.35-.0195,1.8559-1.68,1.7865-3.0963l-.027-.0021c.4206.043.9072.0161,1.043-.4056.6267-1.9463,2.1632-2.1449,3.85-2.1044.31.4858,1.0758.5291,1.1791,1.215q.0548,1.0377.109,2.0761a5.549,5.549,0,0,1-1.6548,3.28C983.6533,498.0984,983.4707,498.5814,983.5772,499.2534Z" transform="translate(-836.3192 -414.5898)"/><path class="cls-9" d="M996.2408,516.9879q-.1-.3168-.2-.633-.0326-.6783-.0645-1.3582l-.0027,0c2.0379-.0548,2.26-1.819,2.9551-3.1384q.1685-.1848.3361-.37l.0159.0018q.7644-.2743,1.5294-.5485l3.805.0163c2.2377,2.4086,1.4193,4.3519-2.56,6.0782Z" transform="translate(-836.3192 -414.5898)"/><path class="cls-14" d="M1004.07,563.2419a2.6734,2.6734,0,0,1,1.4509,4.0888c-.9669,1.828-2.7041,2.0975-4.5221,1.1885a35.6705,35.6705,0,0,1-3.6741-2.1184c-1.5993-1.0544-2.2024-2.5777-1.2416-4.2982.8906-1.5948,2.3922-1.94,4.0984-1.2582a7.0286,7.0286,0,0,1,3.0924,2q-1.2325.0747-2.4628.1487c-1.6581.1015-2.3691,1.1779-1.6257,2.57.7871,1.4743,2.1756,1.5516,3.6336,1.4149,1.5851-.1487,1.0564-1.3683,1.1642-2.2576C1004.0421,564.2315,1004.0426,563.7351,1004.07,563.2419Z" transform="translate(-836.3192 -414.5898)"/><path class="cls-8" d="M961.0127,538.03c-1.2168.0679-1.9126-.5-1.8938-1.7244.0683-4.4433-.275-8.8925.1838-13.33.7345.0029,1.5728.1767,1.697-.92.1207-1.0665.8291-1.0742,1.63-.9446-.9367,2.3631-1.8274,4.7356-1.5257,7.3557l0,.5732Z" transform="translate(-836.3192 -414.5898)"/><path class="cls-14" d="M910.1016,537.4063c1.7018,1.9248,1.3406,4.3143-.9087,5.04a10.9324,10.9324,0,0,1-6.6027-.0217,3.0429,3.0429,0,0,1-1.0472-5.2066c1.4253-1.2525,6.9146-1.1257,8.5647.1985-1.8454-.1363-3.69-.2767-5.5355-.4087-1.8651-.1335-1.9019,1.5741-2.43,2.6188-.5346,1.0574.6067,1.2744,1.31,1.6592,4.0043,2.19,6.4223.87,6.6191-3.6329C910.075,537.57,910.0912,537.4884,910.1016,537.4063Z" transform="translate(-836.3192 -414.5898)"/><path class="cls-9" d="M1004.07,563.2419c-.027.4932-.0275.99-.0868,1.4789-.1078.8893.4209,2.1089-1.1642,2.2576-1.458.1367-2.8465.0594-3.6336-1.4149-.7434-1.3925-.0324-2.4689,1.6257-2.57q1.2308-.0752,2.4628-.1487Q1003.6727,563.0427,1004.07,563.2419Z" transform="translate(-836.3192 -414.5898)"/><path class="cls-13" d="M955.9959,542.0169c1.7094.7006,2.97,2.195,4.7861,2.7066.5419,2.2927.26,4.6235.2428,6.9313a22.0613,22.0613,0,0,0,1.0017,7.3337,3.7679,3.7679,0,0,1-1.9546-3.5882c.2368-2.5657-.3093-5.0956-.07-7.6411.1395-1.485-.03-2.6141-1.8166-3.2055C957.2234,544.2354,955.6548,543.7652,955.9959,542.0169Z" transform="translate(-836.3192 -414.5898)"/><path class="cls-8" d="M1009.4592,473.1656c-4.06-3.2315-8.7354-5.4558-13.1805-8.0577a5.3449,5.3449,0,0,1,4.8907,1.4852c2.0791,1.9894,5.1586,2.5707,7.4127,4.4444.7088.5892,1.4767,1.0923,1.324,2.1818A1.1128,1.1128,0,0,0,1009.4592,473.1656Z" transform="translate(-836.3192 -414.5898)"/><path class="cls-8" d="M948.5032,548.9968l-.559-.0226a59.7713,59.7713,0,0,1,5.552-9.3268c.17.8853,1.176,1.0562,1.5264,1.787a4.6015,4.6015,0,0,0-2.9512,3.1279,22.5538,22.5538,0,0,1-2.079,3.4286.9232.9232,0,0,0-1.0024.9808Q948.7466,548.984,948.5032,548.9968Z" transform="translate(-836.3192 -414.5898)"/><path class="cls-8" d="M959.315,521.0184a69.7351,69.7351,0,0,1-.014-12.0165c.831.3113.6836,1.0325.6857,1.6747q.0139,4.33.0043,8.6592C959.9894,519.9775,960.1378,520.6984,959.315,521.0184Z" transform="translate(-836.3192 -414.5898)"/><path class="cls-15" d="M1043.6378,535.5176c-.1841-.1565-.5268-.3108-.529-.47-.0545-3.8941-1.7989-7.63-1.09-11.592A39.0232,39.0232,0,0,1,1043.6378,535.5176Z" transform="translate(-836.3192 -414.5898)"/><path class="cls-8" d="M970.8069,516.1233a15.84,15.84,0,0,0-8.2,5.0084C963.239,517.7992,966.5053,515.804,970.8069,516.1233Z" transform="translate(-836.3192 -414.5898)"/><path class="cls-15" d="M1042.0305,523.4708c-1.84-.8983-1.09-2.9552-1.8808-4.3706-.525-.939-.1429-2.3851-.1669-3.6042A22.6532,22.6532,0,0,1,1042.0305,523.4708Z" transform="translate(-836.3192 -414.5898)"/><path class="cls-15" d="M1039.8672,515.02a11.2236,11.2236,0,0,1-2.8514-7.5856A24.8827,24.8827,0,0,1,1039.8672,515.02Z" transform="translate(-836.3192 -414.5898)"/><path class="cls-14" d="M996.2408,516.9879l5.8145.0489C999.3756,519.1006,998.0487,519.0894,996.2408,516.9879Z" transform="translate(-836.3192 -414.5898)"/><path class="cls-15" d="M1005.9985,608.9991c-.0013-.74-.0086-1.5259-.7912-1.8835-1.19-.5437-1.2927-1.5294-1.2286-2.6246.9178.9557,1.8546,1.894,2.7483,2.8717C1007.6933,608.42,1006.9258,608.7573,1005.9985,608.9991Z" transform="translate(-836.3192 -414.5898)"/><path class="cls-15" d="M900.4732,597.0239a3.455,3.455,0,0,1,3.5257,3.491A11.6384,11.6384,0,0,1,900.4732,597.0239Z" transform="translate(-836.3192 -414.5898)"/><path class="cls-14" d="M984.7716,491.4162c-1.6871-.0405-3.2236.1581-3.85,2.1044-.1358.4217-.6224.4486-1.043.4056C981,490.8728,982.38,490.1654,984.7716,491.4162Z" transform="translate(-836.3192 -414.5898)"/><path class="cls-15" d="M1048.9692,543.4345c.0347-2.0074.876-3.2965,3.0369-3.4107A9.371,9.371,0,0,1,1048.9692,543.4345Z" transform="translate(-836.3192 -414.5898)"/><path class="cls-14" d="M978.7921,499.5866c1.5478.2783,3.0979.6967,4.6279-.0769C981.8,501.4244,980.5133,501.4458,978.7921,499.5866Z" transform="translate(-836.3192 -414.5898)"/><path class="cls-15" d="M908.03,603.9723c2.273-.2481,3.123,1.3866,3.9821,3.0094A12.623,12.623,0,0,1,908.03,603.9723Z" transform="translate(-836.3192 -414.5898)"/><path class="cls-14" d="M998.9289,511.8585c-.6948,1.3194-.9172,3.0836-2.9551,3.1384C995.8569,512.9132,997.5729,512.5553,998.9289,511.8585Z" transform="translate(-836.3192 -414.5898)"/><path class="cls-15" d="M990.97,616.763c.7977-2.0714,2.6363-1.7656,4.2912-1.8791A9.5623,9.5623,0,0,1,990.97,616.763Z" transform="translate(-836.3192 -414.5898)"/><path class="cls-14" d="M979.9053,493.9283c.0694,1.4158.5639,3.0768-1.7865,3.0963A4.6769,4.6769,0,0,1,979.9053,493.9283Z" transform="translate(-836.3192 -414.5898)"/><path class="cls-15" d="M1049.4973,537.99c-1.4649.0036-2.9311.0433-4.3941-.0075-.56-.0194-1.3873.1009-1.2207-.9457Z" transform="translate(-836.3192 -414.5898)"/><path class="cls-14" d="M1004.6153,510.9586l-3.805-.0163C1002.0838,509.6557,1003.3521,509.7177,1004.6153,510.9586Z" transform="translate(-836.3192 -414.5898)"/><path class="cls-15" d="M1009.4592,473.1656a1.1128,1.1128,0,0,1,.4469.0537c.8208.4475,1.6935.8385,1.9973,1.8454C1010.5847,475.08,1009.2136,475.1632,1009.4592,473.1656Z" transform="translate(-836.3192 -414.5898)"/><path class="cls-15" d="M1016.0434,478.4737a2.6409,2.6409,0,0,1-2.6276-2.27A6.883,6.883,0,0,1,1016.0434,478.4737Z" transform="translate(-836.3192 -414.5898)"/><path class="cls-15" d="M1051.9982,540.0346q-.2717-.9535-.5433-1.9072c.634-.0143,1.53-.3314,1.715.4622C1053.3128,539.2005,1052.5545,539.67,1051.9982,540.0346Z" transform="translate(-836.3192 -414.5898)"/><path class="cls-15" d="M898.5254,594.9836c1.4668-.0977,1.8582.8317,1.9526,2.0446A4.016,4.016,0,0,1,898.5254,594.9836Z" transform="translate(-836.3192 -414.5898)"/><path class="cls-15" d="M1003.9372,610.34c-.01-1.5259,1.0567-1.3949,2.07-1.3457A3.6774,3.6774,0,0,1,1003.9372,610.34Z" transform="translate(-836.3192 -414.5898)"/><path class="cls-15" d="M1023.9574,486.5257a1.3444,1.3444,0,0,1-1.4228-1.5764A2.4349,2.4349,0,0,1,1023.9574,486.5257Z" transform="translate(-836.3192 -414.5898)"/><path class="cls-15" d="M987.9814,617.8773c.376-1.4213,1.5637-.7544,2.42-.9406A4.3853,4.3853,0,0,1,987.9814,617.8773Z" transform="translate(-836.3192 -414.5898)"/><path class="cls-8" d="M906.8117,504.8005a2.4781,2.4781,0,0,1,1.0947-1.5738C907.9512,504.036,908.2863,505.0475,906.8117,504.8005Z" transform="translate(-836.3192 -414.5898)"/><path class="cls-15" d="M904.52,600.9787c1.0289-.12,1.5768.3037,1.5529,1.3737A2.8455,2.8455,0,0,1,904.52,600.9787Z" transform="translate(-836.3192 -414.5898)"/><path class="cls-15" d="M999.4489,612.8813c.1866-1.117,1.1038-.8777,1.8329-.9875A2.8027,2.8027,0,0,1,999.4489,612.8813Z" transform="translate(-836.3192 -414.5898)"/><path class="cls-13" d="M962.11,559.1863a2.9388,2.9388,0,0,1,1.0048,1.7631C961.8321,560.9019,962.0066,560.0238,962.11,559.1863Z" transform="translate(-836.3192 -414.5898)"/><path class="cls-15" d="M1013.2832,476.0977c-.6749-.028-1.2774-.1526-1.3356-1.0024A1.6706,1.6706,0,0,1,1013.2832,476.0977Z" transform="translate(-836.3192 -414.5898)"/><path class="cls-15" d="M906.9019,603.0332c.6926-.072,1.096.2033,1.1213.9331A1.3731,1.3731,0,0,1,906.9019,603.0332Z" transform="translate(-836.3192 -414.5898)"/><path class="cls-14" d="M986.06,494.7073q-.0544-1.0383-.109-2.0761C986.6909,493.2865,986.5115,493.99,986.06,494.7073Z" transform="translate(-836.3192 -414.5898)"/><path class="cls-14" d="M983.5772,499.2534c-.1065-.672.0761-1.155.8277-1.266A1.47,1.47,0,0,1,983.5772,499.2534Z" transform="translate(-836.3192 -414.5898)"/><path class="cls-15" d="M1003.4877,603.9725a.841.841,0,0,1-.9325-1.0759A1.3722,1.3722,0,0,1,1003.4877,603.9725Z" transform="translate(-836.3192 -414.5898)"/><path class="cls-15" d="M1001.4329,611.8225c.16-.7135.6261-.8917,1.2844-.734A1.671,1.671,0,0,1,1001.4329,611.8225Z" transform="translate(-836.3192 -414.5898)"/><path class="cls-13" d="M948.99,548.9717a.9232.9232,0,0,1,1.0024-.9808A.8713.8713,0,0,1,948.99,548.9717Z" transform="translate(-836.3192 -414.5898)"/><path class="cls-14" d="M995.9765,514.9967q.0321.6795.0645,1.3582A.8388.8388,0,0,1,995.9765,514.9967Z" transform="translate(-836.3192 -414.5898)"/><path class="cls-15" d="M1036.59,506.53a.8809.8809,0,0,1-.5106-1.1986A1.1451,1.1451,0,0,1,1036.59,506.53Z" transform="translate(-836.3192 -414.5898)"/><path class="cls-15" d="M998.0336,613.5848c.2117-.6679.778-.6432,1.3159-.6737A1.5342,1.5342,0,0,1,998.0336,613.5848Z" transform="translate(-836.3192 -414.5898)"/><path class="cls-8" d="M958.763,505.5937q-.2323-.2393-.4653-.4782c.2737-.0245.5891-.1769.7507.18C959.07,505.3421,958.8637,505.4917,958.763,505.5937Z" transform="translate(-836.3192 -414.5898)"/><path class="cls-15" d="M912.0127,606.982c.4813-.0049.8658.1228.9356.6824A1.1386,1.1386,0,0,1,912.0127,606.982Z" transform="translate(-836.3192 -414.5898)"/><path class="cls-15" d="M1017.0907,479.4387l-.5632-.4939Q1016.8092,479.1916,1017.0907,479.4387Z" transform="translate(-836.3192 -414.5898)"/><path class="cls-15" d="M1016.5558,478.9715l-.537-.5152Q1016.2873,478.7137,1016.5558,478.9715Z" transform="translate(-836.3192 -414.5898)"/><path class="cls-15" d="M996.01,614.52a.67.67,0,0,1,.8006-.3845Q996.4107,614.3284,996.01,614.52Z" transform="translate(-836.3192 -414.5898)"/><path class="cls-15" d="M995.4557,614.8031q.288-.1482.576-.2964Z" transform="translate(-836.3192 -414.5898)"/><path class="cls-8" d="M957.432,504.7339l-.4766-.1753Z" transform="translate(-836.3192 -414.5898)"/><path class="cls-15" d="M1024.39,487.0142l-.4177-.4719Z" transform="translate(-836.3192 -414.5898)"/><path class="cls-14" d="M999.2809,511.4908l-.0159-.0018Z" transform="translate(-836.3192 -414.5898)"/><path class="cls-15" d="M1000.5125,600.3284l.0472.0868Z" transform="translate(-836.3192 -414.5898)"/><path class="cls-15" d="M1001.6667,601.9063a.6411.6411,0,0,1-.5841-.6695Q1001.3747,601.5712,1001.6667,601.9063Z" transform="translate(-836.3192 -414.5898)"/><path class="cls-15" d="M906.1681,602.44a.4366.4366,0,0,1,.3388.3083Z" transform="translate(-836.3192 -414.5898)"/><path class="cls-15" d="M1002.575,602.9266l-.5277-.5952Z" transform="translate(-836.3192 -414.5898)"/><polygon class="cls-15" points="167.275 195.941 167.475 195.85 167.413 196.013 167.275 195.941"/><path class="cls-15" d="M1003.9745,604.485l-.4811-.5067Z" transform="translate(-836.3192 -414.5898)"/><path class="cls-15" d="M1022.5517,484.9723l-.53-.5206Z" transform="translate(-836.3192 -414.5898)"/><path class="cls-15" d="M1022.0484,484.4745q-.2513-.2749-.5024-.55Q1021.7974,484.1992,1022.0484,484.4745Z" transform="translate(-836.3192 -414.5898)"/><path class="cls-15" d="M1018.6568,480.9471a.632.632,0,0,1-.6082-.6009Q1018.3527,480.6465,1018.6568,480.9471Z" transform="translate(-836.3192 -414.5898)"/><path class="cls-15" d="M1017.6368,479.9494a.5817.5817,0,0,1-.5808-.5417Q1017.3466,479.6783,1017.6368,479.9494Z" transform="translate(-836.3192 -414.5898)"/><path class="cls-15" d="M1021.5745,483.9583l-.5348-.5758A.58.58,0,0,1,1021.5745,483.9583Z" transform="translate(-836.3192 -414.5898)"/><path class="cls-15" d="M1020.6493,482.949a.64.64,0,0,1-.601-.5983Z" transform="translate(-836.3192 -414.5898)"/><path class="cls-4" d="M852.0937,588.3767a3.7846,3.7846,0,0,1,.9935,2.0782C850.9714,590.6155,852.52,589.024,852.0937,588.3767Z" transform="translate(-836.3192 -414.5898)"/><path class="cls-7" d="M975.831,528.1468q.0024.3576.0052.7154c-.5374,1.1022-.2524,2.2766-.26,3.414-.0337,4.99-.0146,9.98-.0146,15.3783l-5.4127-3.3205q-.0167-.3633-.0334-.7266c.3109-.2412.308-.4767-.0131-.7063q.0045-6.8982.0087-13.7962c.5211-.9926.2483-2.0676.3224-3.1067l.0345-.0687c.2657-.0491.3912-.1753.2461-.45,1.5829-1.551,3.1151-1.6215,4.5841.1569Q975.5648,526.8917,975.831,528.1468Z" transform="translate(-836.3192 -414.5898)"/><path class="cls-14" d="M970.1489,544.334l5.4127,3.3205c0-5.3979-.0191-10.3883.0146-15.3783.0076-1.1374-.2774-2.3118.26-3.414a186.1691,186.1691,0,0,1,.1023,19.0847c-.0714,2.5009.5686,5.0758-.478,7.5211-.689-2.5642-3.4523-2.6551-5.0011-4.1941A24.583,24.583,0,0,1,970.1489,544.334Z" transform="translate(-836.3192 -414.5898)"/><path class="cls-8" d="M970.4594,551.2739c1.5488,1.539,4.3121,1.63,5.0011,4.1941a2.7169,2.7169,0,0,1-3.3768,1.3668c-1.5039-.4553-1.8573-1.7889-1.92-3.16A3.3582,3.3582,0,0,1,970.4594,551.2739Z" transform="translate(-836.3192 -414.5898)"/><path class="cls-14" d="M970.4335,525.9982c-.0741,1.0391.1987,2.1141-.3224,3.1067C969.9249,528.0389,969.5918,526.9576,970.4335,525.9982Z" transform="translate(-836.3192 -414.5898)"/><path class="cls-14" d="M975.831,528.1468q-.2664-1.255-.5328-2.51C976.441,526.2686,975.9825,527.24,975.831,528.1468Z" transform="translate(-836.3192 -414.5898)"/><path class="cls-14" d="M970.1024,542.9011c.3211.23.324.4651.0131.7063Q970.1092,543.2542,970.1024,542.9011Z" transform="translate(-836.3192 -414.5898)"/><path class="cls-14" d="M970.7141,525.48c.1451.2743.02.4-.2461.45Z" transform="translate(-836.3192 -414.5898)"/><path class="cls-9" d="M961.1038,529.04l0-.5732C961.3952,528.6577,961.3966,528.8489,961.1038,529.04Z" transform="translate(-836.3192 -414.5898)"/><path class="cls-9" d="M910.1016,537.4063c-.01.0821-.0266.1639-.03.2463-.1968,4.5026-2.6148,5.8229-6.6191,3.6329-.7034-.3848-1.8447-.6018-1.31-1.6592.5281-1.0447.5649-2.7523,2.43-2.6188,1.8454.132,3.69.2724,5.5355.4087Z" transform="translate(-836.3192 -414.5898)"/></svg>