<svg id="Layer_1" data-name="Layer 1" xmlns="http://www.w3.org/2000/svg" width="254.4465" height="250.576" viewBox="0 0 254.4465 250.576"><defs><style>.cls-1{fill:#879c35;}.cls-2{fill:#95a45b;}.cls-3{fill:#e9f1cb;}.cls-4{fill:#91a24c;}.cls-5{fill:#d5d1ca;}.cls-6{fill:#f6faf6;}.cls-7{fill:#135a7d;}.cls-8{fill:#fdf9f1;}.cls-9{fill:#35667c;}.cls-10{fill:#d9ecef;}.cls-11{fill:#fbfcfb;}.cls-12{fill:#363433;}.cls-13{fill:#213039;}.cls-14{fill:#f9f7f0;}.cls-15{fill:#f4f3ef;}</style></defs><path class="cls-1" d="M844.0922,581.4061a.4741.4741,0,0,0-.16-.4066,37.5661,37.5661,0,0,0-2.8283-7.6044.5026.5026,0,0,0-.1123-.4084,23.1094,23.1094,0,0,0-1.9193-6.0108q-.0756-.483-.1511-.9659a10.6818,10.6818,0,0,0-.6391-3.3844c-1.7665-8.0917-3.3883-16.202-3.2871-24.5435a39.9911,39.9911,0,0,0,1.0434-11.2227c-.0845-2.4073-.031-4.8212.02-7.2309.0514-2.4508.8947-4.7817,1.2775-7.1864.556-3.4931,1.972-6.8485,1.67-10.4931a.5558.5558,0,0,1,.0767-.4366c2.32-1.6821,2.018-4.1406,1.9352-6.5343q.0912-.4725.1823-.9451c1.3885-1.01,1.7111-2.6862,2.324-4.0977,1.3976-3.2191,3.2235-6.319,3.4857-9.9451l-.0079.01c1.1-.2067,1.5649-1.021,2.0293-1.9411,1.5938-3.1578,3.135-6.3545,4.962-9.3756a4.8877,4.8877,0,0,0,1.0492-3.1382l.0055-.0121c.9824-.0587,1.01-.7568.9943-1.4842a51.7209,51.7209,0,0,1,6.6255-8.99c2.0987-.6512,3.2743-2.2971,4.3567-4.0433.8489-.6191,2.5719-.7072,1.51-2.4867-.004-.4847.3509-.563.7148-.631,1.7331.4183,1.8815-.6078,1.7346-1.9031l.0021-.0033c2.1352.1543,3.1009-.88,3.0229-2.9745l-.0018.0018c2.0279.1079,3.0318-.8619,3.0358-2.8842,1.4207-1.0717,3.1613-1.7143,4.2809-3.19,2.6285-1.0911,5.2643-2.1723,6.71-4.8871l.9744-.0458a.8666.8666,0,0,0,.99-.9761c2.1018-1.3583,4.1265-2.8613,6.3271-4.0342,2.1841-1.1642,4.2644-2.5063,6.5167-3.589,2.3276-1.119,4.7556-2.1249,6.9944-3.429,2.4893-1.45,5.7245-1.4088,7.6729-3.8907a.4648.4648,0,0,1,.4033-.0962c1.5558.4035,2.7976-.5354,4.1891-.9011,4.0134-1.0548,7.835-2.8821,12.0662-3.0795a1.468,1.468,0,0,0,1.318-.9681q.411-.055.8227-.11c2.712.168,5.358-.45,8.0036-.6774,5.6419-.4857,11.2529-1.7992,16.9851-1.23,2.1451.213,4.4522-.2932,6.4483.3114,3.7438,1.134,7.4906.5133,11.2264.751l.9983.1a7.8367,7.8367,0,0,0,4.7984,1.77c2.7721.1143,5.2811,1.25,7.9484,1.6383,3.3213.4841,6.1885,2.6371,9.6528,2.4841a105.7079,105.7079,0,0,1,22.343,10.5164c1.8908,1.1426,3.7418,2.351,5.6114,3.529q1.8762,1.5754,3.7516,3.1512a2.3787,2.3787,0,0,0,2.3984,1.7491l-.0051-.0033.5558.4643-.018-.0171.5878.501.4614.3473c.0365.5863.4388.6964.9185.7057l-.0035-.0039c.8121,1.4318,1.6522,2.83,3.5414,2.9838l.2377.0016.2373-.0143-.06.1479a.919.919,0,0,0,.9387.9227l.061.0643q.27.7021.5392,1.4047l-.1158.1982.11-.2036,1.5179.4862,0,0c-.0295.6786.3165.9984.9746,1.02l.0039.0058c-.2071,1.5579.4861,2.1956,2.019,1.9751l0,0c-.2277,1.5029.39,2.2072,1.9287,2.0416l.03.0287a4.52,4.52,0,0,0,2.8894,2.9919l.0888.0885c.04.5046.2626.8411.8093.88l.249.4659a2.3187,2.3187,0,0,0,2.0608,2.4593l-.0151-.0161a3.1287,3.1287,0,0,0,1.1152,2.3208c1.4044,1.5734,2.1025,3.783,4.1469,4.7828l.6939.4383q.1755.3071.3512.6139.0778.426.1552.8524l.4176.5512a.566.566,0,0,1,.1618.3508c-.06.5329.0012.9836.6863,1.01a83.5576,83.5576,0,0,1,8.3167,14.92c-.002.8789-.5563,2,.9685,2.21a.1854.1854,0,0,1,.0408.2663c-.1143.7875-.29,1.6062.8806,1.7452a.309.309,0,0,1,.09.313c-.3311,2.1156.844,3.8619,1.5281,5.6949.2522.6758.0785,1.988,1.4384,1.9757a.1986.1986,0,0,1,.0642.2676c.0991.9779-.8405,2.2972.8995,2.7357a1.8206,1.8206,0,0,1,.4989,1.4994c-.8311.81-.5982,1.29.47,1.51a.36.36,0,0,1,.0736.3635c.2332,1.2273-.9136,2.8267.973,3.6082l-.0084-.005a.9945.9945,0,0,0,.3382,1.0121q.1043.4971.2086.994c-.7805.5439-.4653.837.2384,1.0411l.2409,1.3639c-.73,3.6351,1.3289,6.9861,1.1039,10.5773-.0105.167.4725.3649.7257.5484l.11,1.4946.2443.9382.0554,1.0946c-.6592,2.6377-.1427,5.3152-.2639,7.9714a.9386.9386,0,0,0,.8682.9942q-.0244,3.7366-.049,7.4732c-1.65,2.2141-.769,4.62-.53,6.978q-.0648.8037-.13,1.6075l-.2014.9017-.0928.5122c-1.0113.2048-.8858,1.0042-.8856,1.722,0,1.4569.0186,2.9138.0294,4.3706a.52.52,0,0,1-.0442.4115c-1.9443,1.2168-.6078,3.0924-.9306,4.6348q-.14.9482-.2806,1.8963l-.2263.5351.0217-.0359a7.0265,7.0265,0,0,0-1.4814,5.6848,61.53,61.53,0,0,1-3.7159,11.5333c-1.74,4.2713-3.6287,8.4821-5.4528,12.7192a.2178.2178,0,0,0-.1229.2413q-3.956,6.3573-7.9132,12.7131-.7026,1.2576-1.4053,2.5155a2.7333,2.7333,0,0,0-1.5024,1.2078A111.1228,111.1228,0,0,1,1049.0942,621.3c-.802.8066-1.8822,1.4107-2.18,2.643l-7.953,7.0071a41.9367,41.9367,0,0,0-7.7611,5.824.2409.2409,0,0,0-.2394.1553c-4.9975,2.7315-9.6837,5.99-14.7924,8.5489-2.95,1.4776-6.1593,2.4289-8.8887,4.35a.2979.2979,0,0,0-.3078.107,35.4793,35.4793,0,0,0-8.103,2.9567,140.9869,140.9869,0,0,1-19.8639,4.6386,122.7975,122.7975,0,0,1-46.5239-1.6989,9.5887,9.5887,0,0,0-7.0345-1.846l-.2242.0151-.2089-.0828c-.0743-.5565-.4187-.7673-.9371-.9731-2.813-1.1169-5.9078-1.4761-8.5292-3.0777a5.6445,5.6445,0,0,0-4.2116-.8127.269.269,0,0,1-.3174-.1361c-.1554-1.1211-.9408-.9735-1.7138-.851l-.1651.0054-.1324-.0986c-.5243-1.3785-2.0544-1.2627-2.9981-2.0181a.8864.8864,0,0,0-1.0041-.9764c-1.2314.3426-1.9747-.75-2.9979-1.02-.0282-.6453-.34-.99-1.011-.9528-3.481-2.1289-7.0072-4.1813-10.4423-6.3894-4.2271-2.7173-7.5305-6.3935-11.5691-9.2418-3.4508-2.4338-5.8623-6.044-8.9981-8.8462-2.2977-2.0533-3.5252-5.0521-6.4-6.6373a6.4539,6.4539,0,0,1-2.579-3.2262,15.851,15.851,0,0,0-6.0638-7.1406l.01.0287c.1183-.7949.1691-1.5467-.9782-1.5343l.0084.0063a3.6382,3.6382,0,0,0-.4437-2.1c-1.3487-2.5483-3.3427-4.7214-3.9622-7.73-.24-1.1644-.7061-3.0007-2.6131-3.2055-.7492-.776-.7458-2.0285-1.6957-2.6774l-.0237-.0641A5.2068,5.2068,0,0,0,844.0922,581.4061Zm53.0248-149.777-.5778.4528.0168-.0092c-.7517-.0544-1.4864-.0825-1.5277.9755l-.0025.0011a2.5444,2.5444,0,0,0-3.0049,2.02.2034.2034,0,0,1-.2578.0841c-1.5962-.3111-2.3058.5977-2.69,1.9547l.0048-.0144c-1.8141-.1772-2.9073.5436-3.05,2.4484q-.0123.237-.0344.4731l.0086-.0052-.5985-.0122a3.6551,3.6551,0,0,0-3.2276,1.3274c-1.221,1.2971-2.2628,2.9292-3.9393,3.5847-1.3315.5206-1.2624,1.2613-1.0764,2.2733l-.1259-.09.1366.0727a5.0846,5.0846,0,0,0-2.9575,1.88,24.7529,24.7529,0,0,1-4.6455,4.7308c-1.2759.87-1.6976,1.6069-1.4174,2.963l-.3586.3878a.6565.6565,0,0,0-.6613.6748.1633.1633,0,0,1-.0827.2295c-1.209.4225-2.111,1.0858-1.9966,2.5461l-.4852.4618a2.332,2.332,0,0,0-1.545,2.47l-.0122.01c-2.3758.3541-2.3682,2.4118-2.9131,4.0748l.0179-.0255c-1.5245,1.3461-3.4579,2.4391-3.0745,4.9663l.0032-.0069-.3991.617.04-.037a2.6439,2.6439,0,0,0-1.6529,2.9132l0,0c-1.6956.3008-1.9129,1.8693-2.5016,3.045-1.8713,3.7374-3.9881,7.3954-4.3866,11.69a.182.182,0,0,1-.072.2688c-1.6763.3515-.8441,1.6585-.988,2.5937.0544,1.3872-.6869,2.5512-1.09,3.806a119.89,119.89,0,0,0-4.83,49.98,96.7941,96.7941,0,0,0,4.91,22.5672,6.4492,6.4492,0,0,0,.45,2.1682,129.2807,129.2807,0,0,0,8.06,18.7169l.38.6392.0217.0754a3.582,3.582,0,0,0,2.1919,3.8136l-.0167-.037c-.0981.8088-.3162,1.7068,1.0567,1.4237l.02.0337c.3486,1.2915.3415,2.8951,1.1334,3.7976,1.0582,1.2063,1.01,3.7925,3.5952,3.3812a.25.25,0,0,1,.1559.2794c-.2635,1.5731.641,2.2769,1.9786,2.6584l-.0161-.0192a.8674.8674,0,0,0,.9156,1.0851l.0127.0125c.2143,2.4237,2.104,3.8808,3.3669,5.6838.2238.32,1.0706.203,1.63.2878a.1818.1818,0,0,1,.1466.2165,2.3419,2.3419,0,0,0,.2373,1.6592c1.8548,3.2223,5.12,5.0052,7.6043,7.5781.6213.6434,1.35.512,2.0877.494l-.0169-.0149a2.3586,2.3586,0,0,0,1.4541,2.8523c2.2794.8574,3.8506,2.7267,5.6371,4.1235,2.5844,2.0208,5.2359,3.9078,7.9858,5.6642,1.1485.7336,2.3142,1.6494,3.8531,1.4376.1379,1.0632,1.1556,1.2111,1.8088,1.7381l-.0537-.0472q1.1043.171,2.2093.341c.2421,1.1954,1.2337.8736,2.0087.9911.2479,1.1073,1.0335.9733,1.8378.7961l.1242-.036.1048.0757c.1156,1.2711.93,1.1233,1.7908.8823l1.2347.1053-.0722.1753c.1637,1.1136.9565.9666,1.7279.8622l.1665-.0089.1278.107a16.2274,16.2274,0,0,0,10.5727,3.957l.2253-.0008.19.1217a2.3058,2.3058,0,0,0,2.1346,1.7813c3.0506-.1194,5.8118,1.8778,8.9088,1.0962l.003-.0276c1.6864,1.9847,3.9458.8206,5.9457,1.0819l.9976.1372c.1927.8874.8977.83,1.558.8338,1.6487.0089,3.2975.0074,4.9463.01l1.019.0822a4.1669,4.1669,0,0,0,2.5333.8681,171.7151,171.7151,0,0,0,25.9758-.9877,1.0083,1.0083,0,0,0,.9677-.9408l.1964-.09.2151.0208c1.3986-.081,2.9626.6527,4.0773-.8275l.9292-.1642c1.41-.092,3.0092.66,4.0871-.9154l.0466-.0125c2.5208.0914,5.0046.0519,6.9313-1.9586l.84-.172c.9577-.0912,2.2221.7379,2.668-.8891l.1536-.1057.1864.0033c2.836-.2323,5.56-.7538,7.6287-2.9619a4.5093,4.5093,0,0,1,.7875-.5619,118.5188,118.5188,0,0,0,41.2731-29.8558c2.5072-.4492,3.3329-2.9347,5.1341-4.2383a2.2082,2.2082,0,0,0,.72-2.4682.2823.2823,0,0,1,.1215-.3028,4.5852,4.5852,0,0,0,3.5858-2.8077c1.7451-4.1811,4.6632-7.6236,6.7626-11.5631,1.73-3.2461,3.9553-6.2036,5.0308-9.8382.3048-1.03.09-2.4368,1.0394-3.1759,2.0039-1.5592,1.57-3.64,1.4618-5.6832l-.0231.0129c.6488-.1436.8668-.62,1.0981-1.1992,1.4661-3.6735,2.1624-7.5479,3.1746-11.3433a44.6169,44.6169,0,0,0,1.8181-14.4266,189.6826,189.6826,0,0,0-.0016-25.4064,33.7352,33.7352,0,0,0-1.1553-12.3969c-1.0737-3.7912-1.881-7.6422-2.9354-11.4214-.7611-2.7282-1.2652-5.7732-3.7974-7.7092a.6066.6066,0,0,1-.1184-.4414c-.0279-.8068.3841-1.8025-.8907-2.0737a.3511.3511,0,0,1-.1523-.3507,1.6951,1.6951,0,0,0-.9182-2.1385l-.0015-.0042a9.2215,9.2215,0,0,0-3.0683-6.4452l.0125.01c-.2457-2.1117-.7386-4.08-2.9326-5.0636a194.4177,194.4177,0,0,0-12.0484-16.9107c.0394-.6737-.2507-1.0547-.9514-1.0709a.2194.2194,0,0,1-.1578-.2368c-.1687-2.0007-4.239-6.24-6.4452-6.712l-.4721-.4471a2.0063,2.0063,0,0,0-.7754-1.9379,76.0868,76.0868,0,0,0-9.4545-8.0861c-.9357-.7084-1.9487-1.86-3.4658-1.4256l-6.2293-4.1522c-.8-2.2352-3.0645-2.63-4.803-3.4006-1.9343-.8576-3.2808-3.2514-5.8853-2.49a.2751.2751,0,0,1-.3094-.0992c-.1206-1.0748-.8115-1.0654-1.6119-.8478l-.0826-.0063c.2523-2.4953-1.636-.5917-2.3334-1.1354a.7788.7788,0,0,1-.47-.0919l-.59-.3451.0327.0337c-.2664-.7708-.8965-.6115-1.4775-.5776l.0087.0082c-1.0714-2.2723-3.0742-2.1439-5.0925-1.9759a133.143,133.143,0,0,0-29.3857-6.3761,120.6264,120.6264,0,0,0-39.6022,2.9037,153.65,153.65,0,0,0-19.361,6.4076c-.7783.0661-1.7779-.3522-2.0065.9169a.3213.3213,0,0,1-.3551.1477c-.9227-.1333-1.7453-.054-2.1126.9935l.026-.0152c-.9052-.1151-1.6932,0-2.0191,1.0258l.0276-.0181c-.7112-.0712-1.4277-.1522-1.5687.8407a.4266.4266,0,0,1-.4182.14c-.7547-.06-1.4964-.0978-1.5715.9577a.2.2,0,0,1-.278.1067c-.7874-.11-1.5877-.2441-1.7249.8969a.3016.3016,0,0,1-.3157.0919c-.7913-.0919-1.6-.2131-1.6428.9666l.01-.0152c-.4581-.0244-.8644.0354-.9629.594Z" transform="translate(-831.5282 -408.3947)"/><path class="cls-2" d="M902.007,643.96c1.0232.2694,1.7665,1.3622,2.998,1.0194a.9151.9151,0,0,0,1.004.9766c.9437.7554,2.4738.64,2.9981,2.0181-5.08-1.4491-9.4181-4.3988-13.9258-6.98-2.7242-1.56-5.2837-3.4077-7.9176-5.126a15.7726,15.7726,0,0,0-3.9985-3.03l-.0263-.0158a1.0792,1.0792,0,0,0-1.1224-.8423,129.6155,129.6155,0,0,1-25.6553-27.6163,5.3809,5.3809,0,0,1-1.4171-2.8379,15.853,15.853,0,0,1,6.0635,7.1407,6.4539,6.4539,0,0,0,2.579,3.2262c2.8747,1.5852,4.1022,4.584,6.4,6.6373,3.1358,2.8022,5.5473,6.4124,8.9981,8.8462,4.0386,2.8483,7.342,6.5245,11.5691,9.2418,3.4351,2.2081,6.9613,4.26,10.4425,6.3889A.9243.9243,0,0,0,902.007,643.96Z" transform="translate(-831.5282 -408.3947)"/><path class="cls-3" d="M1083.8474,548.4844l.0928-.5122a.5919.5919,0,0,0,.2014-.9017q.0647-.8037.13-1.6074a19.8884,19.8884,0,0,0,.53-6.9781q.0246-3.7366.0492-7.4731a32.7976,32.7976,0,0,0-.6045-8.9657q-.0278-.5474-.0547-1.0942a.6413.6413,0,0,0-.245-.9386l-.11-1.4946c.0981-3.8249-.9145-7.4673-1.83-11.1257q-.12-.6819-.2408-1.3639a.95.95,0,0,0-.2385-1.0411q-.1043-.497-.2082-.9938a.9633.9633,0,0,0-.3386-1.0123l.0083.005a6.5072,6.5072,0,0,0-.9729-3.6082.36.36,0,0,0-.0736-.3635,1.6923,1.6923,0,0,0-.47-1.51,1.82,1.82,0,0,0-.499-1.4994l.0932-1.019a4.38,4.38,0,0,1,2.7031,4.073c-.0864,4.105,1.3975,7.836,2.2761,11.6626,2.6527,11.553,1.8148,23.2381,1.7629,34.8844-.0092,2.0735-.0964,4.6153-1.9309,6.3664Q1083.8629,550.2289,1083.8474,548.4844Z" transform="translate(-831.5282 -408.3947)"/><path class="cls-3" d="M1081.7358,561.52q.14-.9481.28-1.897a10.3026,10.3026,0,0,0,.9309-4.6341.52.52,0,0,0,.0441-.4119q.3912-1.1368.7829-2.2728a23.8094,23.8094,0,0,1-1.6379,12.17c-.5241,1.3637-.3249,2.9188-.6315,4.3889-.7767,3.724-2.7176,7.0065-3.7953,10.6138a7.9733,7.9733,0,0,0-.7888,2.7558c.0214.4054.0669,1.0309-.16,1.1941-2.6243,1.891-2.9165,4.9377-3.844,7.652-.3986,1.1662-1.2745.7869-2.0356.878,1.8239-4.2371,3.7125-8.4479,5.4526-12.7192a61.4983,61.4983,0,0,0,3.7157-11.5345,13.6978,13.6978,0,0,0,1.4816-5.6836l-.022.0356Q1081.6222,561.7865,1081.7358,561.52Z" transform="translate(-831.5282 -408.3947)"/><path class="cls-3" d="M1078.0741,493.27a.1984.1984,0,0,0-.0645-.2676,26.7341,26.7341,0,0,0-2.9662-7.6706.309.309,0,0,0-.09-.313,2.0183,2.0183,0,0,0-.8806-1.7452.1851.1851,0,0,0-.0412-.2663,2.8023,2.8023,0,0,0-.9681-2.21,83.4714,83.4714,0,0,0-8.3179-14.9192q-.3437-.505-.6851-1.0109a.5667.5667,0,0,0-.1614-.3506q-.2086-.2756-.418-.5514-.0774-.4263-.1552-.8524a1.6442,1.6442,0,0,1,2.0756.9542c1.4148,3.7119,5.0182,6.0616,5.8612,10.2949.3653,1.8342,2.4753,3.5212,3.1834,5.6664,1.5407,4.6678,4.5805,8.8572,4.4668,14.0518Q1078.4935,493.6752,1078.0741,493.27Z" transform="translate(-831.5282 -408.3947)"/><path class="cls-2" d="M917.5105,416.0931c-1.9484,2.4819-5.1836,2.4406-7.6729,3.8907-2.2388,1.3041-4.6668,2.31-6.9944,3.429-2.2523,1.0827-4.3326,2.4248-6.5167,3.589-2.2006,1.1729-4.2253,2.6759-6.3269,4.0342a.9087.9087,0,0,0-.99.9761q-.4872.0228-.9746.0456l-.76-.1572c2.5494-2.5635,5.7567-4.1819,8.791-6.0291a105.5985,105.5985,0,0,1,19.9956-9.5094A9.3294,9.3294,0,0,1,917.5105,416.0931Z" transform="translate(-831.5282 -408.3947)"/><path class="cls-2" d="M978.9732,410.0934c-3.7358-.2377-7.4826.383-11.2264-.751-1.9961-.6046-4.3032-.0984-6.4483-.3114-5.7322-.5691-11.3432.7444-16.9851,1.23-2.6456.2277-5.2916.8454-8.0036.6774,2.3288-1.3083,4.9975-1.1885,7.4916-1.498a122.1784,122.1784,0,0,1,34.4953.3615A2.978,2.978,0,0,1,978.9732,410.0934Z" transform="translate(-831.5282 -408.3947)"/><path class="cls-3" d="M834.9954,538.0821c-.1012,8.3415,1.5206,16.4518,3.2871,24.5435a10.6818,10.6818,0,0,1,.6391,3.3844,4.8716,4.8716,0,0,1-1.82-3.5049,20.2936,20.2936,0,0,0-1.9305-8.5958,1.467,1.467,0,0,1-.0871-.4882c-1.23-9.8656-1.066-19.779-1.02-29.6886a1.0818,1.0818,0,0,1,.9431-1.24c0,.8274-.0181,1.6552.0024,2.4821C835.1181,529.344,834.0736,533.7122,834.9954,538.0821Z" transform="translate(-831.5282 -408.3947)"/><path class="cls-2" d="M834.9954,538.0821c-.9218-4.37.1227-8.7381.0142-13.1075-.02-.8269-.0026-1.6547-.0024-2.4821,1.0851-6.8959,1.38-13.9458,3.9991-20.5433.3016,3.6444-1.1144,7-1.67,10.4929-.3828,2.4047-1.2261,4.7356-1.2775,7.1864-.0506,2.41-.1041,4.8236-.02,7.2309A39.9911,39.9911,0,0,1,834.9954,538.0821Z" transform="translate(-831.5282 -408.3947)"/><path class="cls-3" d="M881.3246,436.945c-1.12,1.4757-2.86,2.1183-4.281,3.19a9.6093,9.6093,0,0,0-3.0357,2.8844l.0019-.0018a10.1858,10.1858,0,0,0-3.023,2.9745l-.0019.0034a3.3342,3.3342,0,0,0-1.7348,1.903c-.3639.068-.7188.1463-.7148.6311l-1.6092,1.7623-1.81,1.35c-.3346-1.1088.5041-1.6708,1.12-2.2988a6.9273,6.9273,0,0,0,2.0126-3c.5154-1.7862,2.79-1.6782,3.9316-3.1564,1.1473-1.4859,3.0274-2.4363,3.8972-4.2805.57-1.2086,1.9354-1.4387,2.89-2.09a29.6321,29.6321,0,0,0,4.876-4.0655c.8321-.878,1.7815-.6856,2.7566-.6561C885.02,433.9052,882.5129,434.708,881.3246,436.945Z" transform="translate(-831.5282 -408.3947)"/><path class="cls-3" d="M1046.9146,623.9429c.2974-1.2323,1.3776-1.8364,2.18-2.643a111.1228,111.1228,0,0,0,10.8431-12.6661,2.7333,2.7333,0,0,1,1.5024-1.2078c-.66,3.83-3.5089,6.0571-5.8871,8.7968-1.9111,2.2015-3.9533,4.298-5.8646,6.5037A2.7536,2.7536,0,0,1,1046.9146,623.9429Z" transform="translate(-831.5282 -408.3947)"/><path class="cls-3" d="M1007.28,649.828c2.7294-1.9209,5.9384-2.8722,8.8887-4.35,5.1087-2.5587,9.7949-5.8174,14.7924-8.5489-.06.7792.18,1.5509-.9061,2.03-3.3922,1.4957-6.2344,3.9543-9.6716,5.456-3.3549,1.4658-6.4542,3.51-9.6986,5.2389A5.6221,5.6221,0,0,1,1007.28,649.828Z" transform="translate(-831.5282 -408.3947)"/><path class="cls-2" d="M1002.3711,416.0857c-3.4643.153-6.3315-2-9.6528-2.4841-2.6673-.3888-5.1763-1.524-7.9484-1.6383a7.8367,7.8367,0,0,1-4.7984-1.77A79.9311,79.9311,0,0,1,1002.3711,416.0857Z" transform="translate(-831.5282 -408.3947)"/><path class="cls-3" d="M1038.0574,436.3236q-.2307-.1736-.462-.3472-.2941-.2505-.5872-.501l.0176.0172q-.2779-.2322-.5554-.4645l.005.0033a3.5253,3.5253,0,0,0-2.3983-1.7491q-1.8756-1.5758-3.7516-3.1512c2.1738-.2616,3.9985-.2365,5.4681,2.0638a10.1172,10.1172,0,0,0,5.0194,4.2211,3.4318,3.4318,0,0,1,2.1758,3.5805l-.2373.0143-.2379-.0015c-1.0315-1.1715-1.9549-2.471-3.5412-2.9839l.0035.0039Q1038.5166,436.6765,1038.0574,436.3236Z" transform="translate(-831.5282 -408.3947)"/><path class="cls-2" d="M855.0428,465.5455a4.8877,4.8877,0,0,1-1.0492,3.1382c-1.827,3.0211-3.3682,6.2178-4.962,9.3756-.4644.92-.9291,1.7344-2.0293,1.9411A55.9978,55.9978,0,0,1,855.0428,465.5455Z" transform="translate(-831.5282 -408.3947)"/><path class="cls-3" d="M1062.845,604.9105q3.957-6.3562,7.9132-12.7131a3.5416,3.5416,0,0,1-.8255,3.3947c-1.51,2.1023-2.6117,4.4936-4.0375,6.6632C1065.157,603.3787,1064.4174,604.67,1062.845,604.9105Z" transform="translate(-831.5282 -408.3947)"/><path class="cls-2" d="M847.01,479.99c-.2622,3.6261-2.0881,6.726-3.4857,9.9451-.6129,1.4115-.9355,3.088-2.324,4.0977A51.9911,51.9911,0,0,1,847.01,479.99Z" transform="translate(-831.5282 -408.3947)"/><path class="cls-2" d="M935.4871,411.0482a1.468,1.468,0,0,1-1.318.9681c-4.2312.1974-8.0528,2.0247-12.0662,3.0795-1.3915.3657-2.6333,1.3046-4.1891.9011A56.6078,56.6078,0,0,1,935.4871,411.0482Z" transform="translate(-831.5282 -408.3947)"/><path class="cls-2" d="M846.9653,586.99c1.907.2048,2.3734,2.0411,2.6131,3.2055.62,3.0089,2.6135,5.182,3.9622,7.73a3.6382,3.6382,0,0,1,.4437,2.1c-2.1739-2.3618-3.4285-5.2956-4.9986-8.0331a1.8929,1.8929,0,0,0-.8467-1.6541.5264.5264,0,0,0-.14-.351Q847.4821,588.489,846.9653,586.99Z" transform="translate(-831.5282 -408.3947)"/><path class="cls-2" d="M911.3358,649.0542a5.6445,5.6445,0,0,1,4.2116.8127c2.6214,1.6016,5.7162,1.9608,8.5292,3.0777.5184.2058.8628.4166.9371.9731A55.3246,55.3246,0,0,1,911.3358,649.0542Z" transform="translate(-831.5282 -408.3947)"/><path class="cls-3" d="M1031.2,636.774a41.9367,41.9367,0,0,1,7.7611-5.824c.02.9239.02,1.6222-1.1645,2.1079-1.8758.769-2.9074,2.8514-4.9449,3.5557A2.5286,2.5286,0,0,1,1031.2,636.774Z" transform="translate(-831.5282 -408.3947)"/><path class="cls-2" d="M1062.2806,462.0611c-2.0444-1-2.7425-3.2094-4.1469-4.7828a3.1287,3.1287,0,0,1-1.1152-2.3208c2.25,1.5306,3.4058,3.9547,4.9525,6.06Z" transform="translate(-831.5282 -408.3947)"/><path class="cls-4" d="M881.3246,436.945c1.1883-2.237,3.6955-3.04,5.2754-4.8511q.3385-.0963.6759-.1931.3786.078.7588.1569C886.5889,434.7727,883.9531,435.8539,881.3246,436.945Z" transform="translate(-831.5282 -408.3947)"/><path class="cls-3" d="M998.8691,652.8917a35.4793,35.4793,0,0,1,8.103-2.9567C1004.687,652.06,1002.0855,653.3183,998.8691,652.8917Z" transform="translate(-831.5282 -408.3947)"/><path class="cls-5" d="M831.5282,549.0548c.06-.8634-.0243-1.8124.9774-1.8366a1.4,1.4,0,0,1,1.4353,1.6453c-.0806.8011-.3924,1.8168-1.3168,1.8819C831.4186,550.8305,831.6266,549.7112,831.5282,549.0548Z" transform="translate(-831.5282 -408.3947)"/><path class="cls-2" d="M841.0182,494.9781c.0828,2.3937.3847,4.8522-1.9352,6.5343A11.9138,11.9138,0,0,1,841.0182,494.9781Z" transform="translate(-831.5282 -408.3947)"/><path class="cls-3" d="M841.1043,573.3951A37.5661,37.5661,0,0,1,843.9326,581C841.2071,579.1275,841.5113,576.1291,841.1043,573.3951Z" transform="translate(-831.5282 -408.3947)"/><path class="cls-3" d="M846.9653,586.99q.5168,1.499,1.0334,2.9979a5.0633,5.0633,0,0,1-2.7307-5.6746C846.22,584.9616,846.2161,586.2141,846.9653,586.99Z" transform="translate(-831.5282 -408.3947)"/><path class="cls-2" d="M925.4468,653.9854a9.5887,9.5887,0,0,1,7.0345,1.846A18.9819,18.9819,0,0,1,925.4468,653.9854Z" transform="translate(-831.5282 -408.3947)"/><path class="cls-2" d="M865.1161,451.6416q.9049-.675,1.81-1.3487l.0985.7231c-1.0824,1.7462-2.258,3.3921-4.3567,4.0433q.1956-.4864.3909-.9731a1.4289,1.4289,0,0,0,.9608-1.0614l.0026-.0027a1.1915,1.1915,0,0,0,.9131-1.0193A.6287.6287,0,0,0,865.1161,451.6416Z" transform="translate(-831.5282 -408.3947)"/><path class="cls-3" d="M839.0727,566.9759a23.1094,23.1094,0,0,1,1.9193,6.0108A6.0565,6.0565,0,0,1,839.0727,566.9759Z" transform="translate(-831.5282 -408.3947)"/><path class="cls-3" d="M883.1652,632.8377a15.7726,15.7726,0,0,1,3.9985,3.03C884.2318,635.8621,883.1531,635.0449,883.1652,632.8377Z" transform="translate(-831.5282 -408.3947)"/><path class="cls-4" d="M1083.774,552.3038q-.3917,1.1362-.7829,2.2728c-.0107-1.4564-.0288-2.9133-.0293-4.37,0-.7178-.1257-1.5172.8856-1.722q.0153,1.7445.03,3.489A.4449.4449,0,0,0,1083.774,552.3038Z" transform="translate(-831.5282 -408.3947)"/><path class="cls-2" d="M1053.8257,451.08a4.52,4.52,0,0,1-2.8894-2.9919A5.8162,5.8162,0,0,1,1053.8257,451.08Z" transform="translate(-831.5282 -408.3947)"/><path class="cls-2" d="M1048.9777,446.018c-1.5329.2205-2.2261-.4172-2.019-1.9751A2.9816,2.9816,0,0,1,1048.9777,446.018Z" transform="translate(-831.5282 -408.3947)"/><path class="cls-2" d="M1057.0336,454.9736a2.3187,2.3187,0,0,1-2.0608-2.4593A3.24,3.24,0,0,1,1057.0336,454.9736Z" transform="translate(-831.5282 -408.3947)"/><path class="cls-2" d="M1050.906,448.0594c-1.5387.1656-2.1564-.5387-1.9287-2.0416A2.8217,2.8217,0,0,1,1050.906,448.0594Z" transform="translate(-831.5282 -408.3947)"/><path class="cls-3" d="M844.0922,581.4061a5.2068,5.2068,0,0,1,1.1537,2.8425C843.1189,584.0088,844.3706,582.3964,844.0922,581.4061Z" transform="translate(-831.5282 -408.3947)"/><path class="cls-2" d="M1044.4676,442.5361q-.27-.7024-.5392-1.4047a3.3834,3.3834,0,0,1,2.0517,1.8856l-1.5179-.4863Z" transform="translate(-831.5282 -408.3947)"/><path class="cls-4" d="M1078.0741,493.27q.4194.405.8386.81.0768.4534.1539.9064-.0464.51-.0931,1.019C1077.2336,495.5675,1078.1732,494.2482,1078.0741,493.27Z" transform="translate(-831.5282 -408.3947)"/><path class="cls-2" d="M856.0426,464.0492c.016.7274-.0119,1.4255-.9943,1.4842C855.0622,464.8259,855.24,464.2281,856.0426,464.0492Z" transform="translate(-831.5282 -408.3947)"/><path class="cls-2" d="M909.3046,648.0671c.773-.1225,1.5584-.27,1.7138.851A1.6456,1.6456,0,0,1,909.3046,648.0671Z" transform="translate(-831.5282 -408.3947)"/><path class="cls-2" d="M853.9759,600.02c1.1473-.0124,1.0965.7394.9782,1.5343A1.55,1.55,0,0,1,853.9759,600.02Z" transform="translate(-831.5282 -408.3947)"/><path class="cls-3" d="M848.139,590.339a1.8929,1.8929,0,0,1,.8467,1.6541C847.9309,591.837,848.0094,591.1011,848.139,590.339Z" transform="translate(-831.5282 -408.3947)"/><path class="cls-3" d="M1062.2806,462.0611l-.31-1.0438c.99.05,1.0244.7474,1.0034,1.4821Z" transform="translate(-831.5282 -408.3947)"/><path class="cls-2" d="M1043.8674,441.0671a.919.919,0,0,1-.9387-.9227C1043.51,440.1788,1043.8924,440.4159,1043.8674,441.0671Z" transform="translate(-831.5282 -408.3947)"/><path class="cls-2" d="M1054.7238,452.0484c-.5467-.0388-.7695-.3753-.8093-.88C1054.505,451.1669,1054.7174,451.5129,1054.7238,452.0484Z" transform="translate(-831.5282 -408.3947)"/><path class="cls-2" d="M1046.9548,444.0371c-.6581-.0216-1.0041-.3414-.9746-1.02A1.03,1.03,0,0,1,1046.9548,444.0371Z" transform="translate(-831.5282 -408.3947)"/><path class="cls-3" d="M882.0165,631.98a1.0792,1.0792,0,0,1,1.1224.8423C882.4124,633.0113,882.078,632.6776,882.0165,631.98Z" transform="translate(-831.5282 -408.3947)"/><path class="cls-3" d="M864.9355,452.0028a1.1915,1.1915,0,0,1-.9131,1.0193A.8968.8968,0,0,1,864.9355,452.0028Z" transform="translate(-831.5282 -408.3947)"/><path class="cls-3" d="M864.02,453.0248a1.4289,1.4289,0,0,1-.9608,1.0614A.8818.8818,0,0,1,864.02,453.0248Z" transform="translate(-831.5282 -408.3947)"/><path class="cls-6" d="M1069.8817,486.6534a.3511.3511,0,0,0,.1521.3506,3.11,3.11,0,0,0,.8909,2.0738.6066.6066,0,0,0,.1183.4413,10.6277,10.6277,0,0,0,.4062,1.6689,101.7186,101.7186,0,0,1,5.3028,17.8915c.8545,3.9614,1.4613,7.9763,2.1792,11.9672a189.6841,189.6841,0,0,1,.0016,25.4065c-.5784,3.24-1.2178,6.4705-1.722,9.7219-.9134,5.89-2.9431,11.4908-4.3688,17.2471l.0236-.0126c-.2876.5835-.6276,1.147-.856,1.7526a121.3736,121.3736,0,0,1-10.3913,21.1673c-2.1286,3.4338-4.4173,6.7685-6.6336,10.1479a.2826.2826,0,0,0-.1214.3034c-2.3442,1.8927-3.9959,4.39-5.8547,6.7059a118.5188,118.5188,0,0,1-41.2731,29.8558,4.5093,4.5093,0,0,0-.7875.5619,30.4448,30.4448,0,0,0-7.6287,2.9619l-.1864-.0033-.1536.1057a3.2465,3.2465,0,0,0-2.668.8891l-.8394.1719a40.026,40.026,0,0,0-6.9315,1.9587l-.0466.0124a10.4324,10.4324,0,0,0-4.0871.9155l-.9291.1641a9.78,9.78,0,0,0-4.0774.8276l-.2151-.0208-.1964.09c-9.79,1.3393-19.6329,1.2152-29.4768,1.0605l-1.0189-.0822a22.3268,22.3268,0,0,0-6.5044-.8439l-.9975-.1372a21.3737,21.3737,0,0,0-5.9458-1.0819l-.003.0277a111.4794,111.4794,0,0,0-11.0434-2.8776l-.19-.1217-.2255.0009a95.1437,95.1437,0,0,0-10.5725-3.9571l-.1278-.107-.1672.0091a2.5435,2.5435,0,0,0-1.7272-.8624l.0722-.1752c-.1983-.9522-.8991-.8978-1.6178-.8073l-.008.011c-.31-1.08-1.1284-1.1356-2.0363-1.0116a.4578.4578,0,0,1-.356-.1611c-.1776-1.008-.9129-.92-1.6455-.837a.4857.4857,0,0,1-.3624-.1274c-.1277-.6109-.2716-1.186-1.0085-.4593l-.9877-.5328c-.1053-.9732-.804-.9789-1.5308-.9388l.0046.0022c-.8527-.9939-1.5947-2.1752-3.2023-1.89a.3449.3449,0,0,1-.2815-.14c-.098-1.01-.8042-1.02-1.56-.9486l-.5493-.33c-.0536-.5964-.4783-.6676-.9505-.6716a12.5628,12.5628,0,0,1-1.487-.8257q-6.2211-4.611-12.4166-9.2563l.0164.0155q-4.9647-4.8655-9.9291-9.7315a.1818.1818,0,0,0-.1466-.2165,42.3445,42.3445,0,0,0-4.9966-5.9716l-.0127-.0125a1.19,1.19,0,0,0-.9156-1.0851l.0159.0194a5.2393,5.2393,0,0,0-1.9784-2.6586.25.25,0,0,0-.1558-.2794q-2.3643-3.5894-4.7287-7.1788l-.0209-.0316c-.2548-.5462-.3717-1.1952-1.0554-1.4258l.0159.0374a6.6869,6.6869,0,0,0-2.1911-3.814l-.0217-.0753.0763-.5252c.4741-2.8671-2.0689-4.5833-2.7007-7.0789-.7869-3.1079-3.078-5.6016-3.5606-9.0122a7.9379,7.9379,0,0,0-2.7041-4.9081,96.7941,96.7941,0,0,1-4.91-22.5672,119.89,119.89,0,0,1,4.83-49.98c.4027-1.2548,1.144-2.4188,1.09-3.8063a4.0084,4.0084,0,0,0,.9881-2.5934.1825.1825,0,0,0,.0717-.27q3.444-7.3677,6.8885-14.7338l0,0a5.5673,5.5673,0,0,0,1.6529-2.9132l-.0405.0362q.1994-.3088.4-.6162l-.0032.0069a13.448,13.448,0,0,0,3.0745-4.9663l-.0182.0252c1.3516-.8768,1.8466-2.45,2.9-3.5688,2.7717.0136,2.5887-2.2286,3.0426-3.9847a.2192.2192,0,0,1,.21-.1485c.6354.001.7538-.4.7171-.922l-.0145-.02c1.9724-.994,3.5323-2.3368,3.938-4.6558l6.2825-7.1289-.1366-.0727.1252.0892c.8342-.036,1.1595-.854,1.8068-1.1776a2.8219,2.8219,0,0,0,2.2573-.6711c1.3857-1.23,2.3441-2.9635,4.3264-3.5386.6994-.2029.4155-1.1481.452-1.7852l-.0086.0054c.8915-.0188,1.8872.2964,2.599-.4508,2.29-2.4034,5.5-3.5574,7.8769-5.7572,1.4593-1.35,3.9034-1.5439,4.5134-3.8427l.7533-.8279a.1989.1989,0,0,0,.2762-.1072,2.067,2.067,0,0,0,1.5715-.9577.4267.4267,0,0,0,.4182-.14,1.8233,1.8233,0,0,0,1.5687-.8408l-.0276.0178a2.5212,2.5212,0,0,0,2.0191-1.0255l-.0261.015a2.9259,2.9259,0,0,0,2.1127-.9933.3214.3214,0,0,0,.3551-.1476,3.3343,3.3343,0,0,0,2.0065-.917,153.65,153.65,0,0,1,19.361-6.4076,120.6264,120.6264,0,0,1,39.6022-2.9037,133.157,133.157,0,0,1,29.3861,6.376,16.44,16.44,0,0,0,5.0921,1.976l-.0086-.0083a1.6763,1.6763,0,0,0,1.4774.5777l-.0323-.0339a.4543.4543,0,0,0,.59.3453.779.779,0,0,0,.47.0919,3.867,3.867,0,0,0,2.3333,1.1354l.0832.0053a1.8407,1.8407,0,0,0,1.6113.8488.2751.2751,0,0,0,.31.0989c3.119,2.769,7.0522,4.06,10.6877,5.8908q3.1146,2.076,6.23,4.1517,6.8483,5.7246,13.695,11.45.2361.2236.4722.4471a68.1325,68.1325,0,0,0,6.4451,6.7121.2194.2194,0,0,0,.1578.2368,1.0619,1.0619,0,0,0,.9514,1.0709,194.404,194.404,0,0,1,12.0484,16.9108,12.45,12.45,0,0,0,2.9326,5.0635l-.0123-.01a23.0375,23.0375,0,0,0,3.0681,6.4453l.0015.0042A2.6223,2.6223,0,0,0,1069.8817,486.6534ZM893.0355,443.57l.0116-.0048c-1.0417-.5735-1.048.1382-1.0547.85l-.8994.6284c-.6531-.0249-1.05.2482-1.0907.9368a.1653.1653,0,0,1-.2159.1492.6634.6634,0,0,0-.6934.6111c-3.2583,3.0268-6.8059,5.7543-9.5918,9.27l.0066-.004a.4983.4983,0,0,0-.5207.5031l.0095-.0135a74.2929,74.2929,0,0,0-12.1182,15.3968l.09.1368-.0768-.1445a25.2453,25.2453,0,0,0-3.99,6.5336l.0707.1106-.0571-.1181a2.8958,2.8958,0,0,0-1.0816,1.9845l.025-.0333a28.8484,28.8484,0,0,0-3.7845,7.6688.21.21,0,0,0-.14.2851,7.9706,7.9706,0,0,0-.64,1.0463,109.1624,109.1624,0,0,0-8.6148,36.4917,110.9671,110.9671,0,0,0,16.3077,65.5434,82.1634,82.1634,0,0,0,12.8993,16.7189l.114-.1295-.1252.1187a39.859,39.859,0,0,0,8.0694,7.959l-.0185-.0154a45.9678,45.9678,0,0,0,9.1247,7.32l.0872.0812c-.0137.2379.073.3589.3292.283l.4919.2567a35.6908,35.6908,0,0,0,7.9409,5.1121l.1194-.04-.1233.0247a28.04,28.04,0,0,0,7.1232,3.815c12.4117,6.4246,25.6976,9.7275,39.5319,11.0764,6.8041.6634,13.6056.3049,20.4076-.0329,2.7942-.0288,5.7482.5006,8.3383-.2411,2.6655-.7633,5.2138-1.7744,8.0334-1.7644a1.49,1.49,0,0,0,1.6735-1.4326l.0569-.0085.8209-.1539,1.4917-.4341c2.3255.6057,4.4359-.5435,6.2969-1.4119,1.527-.7125,3.4067.24,4.575-1.3353.7456-1.0051,1.9557-.95,3.0208-1.3135,1.8059-.6167,4.5133-.3089,4.74-3.3l.1087-.0517a.2828.2828,0,0,0,.2551-.1084l.9919-.4841c1.6273.1675,2.9746-.5643,4.42-1.1795,2.1333-.9082,3.3182-3.29,5.6168-3.6864,1.6333-.2817,2.012-1.1227,2.0813-2.471l.9249-.6349c1.2634.1393,2.3868-.6418,2.2178-1.6286-.23-1.3433-1.6963-.7841-2.6968-.7062-.1709.0133-.318.333-.4761.5112l-1.0214.1249c-1.9784-.6106-4.0043-.1048-6.003-.2522-.6837-.0505-1.3139.0462-1.4583.8991l-1.0025.0645c-.3846-.8941-1.15-1.0084-1.99-.9727-.0688-1.8939-1.1264-2.0272-2.7165-1.7579-.8537.1446-2.2.1129-2.1807-1.3127.0176-1.2718,1.1739-.8332,1.9244-.9306a6.0726,6.0726,0,0,0,1.7106-.1946c3.6339-1.6937,7.3356.3365,10.9858-.2423a.8265.8265,0,0,1,.9881.8589c-.0632.6922-.7323.6087-1.1736.5522-1.7717-.2269-3.421.5617-5.1618.5575-.5306-.0013-1.076.2519-1.1075.797-.04.69.6088.6522,1.0906.6552a46.5775,46.5775,0,0,0,5.47-.0513,3.9491,3.9491,0,0,0,3.0517-2.1954c.4684-.9628-.6227-1.9978-1.1157-2.2728-2.46-1.3723-2.5549-3.6569-2.77-5.9627l.6441-.0658.47.7933a.6691.6691,0,0,0,.5352.7084,1.7174,1.7174,0,0,0,.3665.04l.0059.008q-.0036.24-.007.48c-.0319.7566-.0383,1.4957,1.0251,1.5074l-.01-.012c-.0157.4907.1109.88.68.9539l1.3677,1.9176c-.2439,1.8152.4865,2.9188,2.3393,3.2025l.05.0439c.1872,1.02.9661.9837,1.6835.8472,1.1739-.2233.7438-1.2222.84-1.9578l.1459-.8946c8.7682-6.1691,15.12-14.5793,21.3925-23.0632,2.5161-.2454,2.518-2.0808,2.4891-3.9357q.0156-.2369.0251-.4741a.8585.8585,0,0,0,.43-.1007c1.676-.1451,1.5415-1.3565,1.4852-2.5218l-.0019-.0019c1.371-.1025.9549-1.1617,1.0442-1.95q.4983-1.248.9964-2.4961l.0118-.0249a87.6624,87.6624,0,0,0,8.86-23.4912q.1251-.6.25-1.2009a18.404,18.404,0,0,0,.7028-2.0921,110.7846,110.7846,0,0,0,.3856-45.2651c-1.395-6.909-3.093-13.7441-6.1132-20.1691a4.8349,4.8349,0,0,0-.1829-.7207q-15.7917-37.4973-51.7752-56.492a96.4007,96.4007,0,0,0-28.5475-10.0555,79.5332,79.5332,0,0,0-19.4133-2.4412c-8.8034-.1646-17.5616.1932-26.13,2.5062l-1.02.165c-4.4758.5909-8.7035,2.1023-12.9561,3.5123-8.8973,2.95-17.0711,7.3755-24.9913,12.3124-1.4362.0371-3.1925-.3932-2.9856,2.0439l.0087-.01a.8517.8517,0,0,0-1.0765.8169.3523.3523,0,0,1-.3273.1971Z" transform="translate(-831.5282 -408.3947)"/><path class="cls-2" d="M1054.9847,606.4774c2.2163-3.3794,4.505-6.7141,6.6336-10.1479a121.3736,121.3736,0,0,0,10.3913-21.1673c.2284-.6056.5684-1.1691.856-1.7526.1077,2.0431.5416,4.1237-1.4623,5.6829-.95.7391-.7346,2.1456-1.0394,3.1759-1.0755,3.6346-3.301,6.5921-5.0308,9.8382-2.0994,3.94-5.0175,7.382-6.7626,11.5631A4.5852,4.5852,0,0,1,1054.9847,606.4774Z" transform="translate(-831.5282 -408.3947)"/><path class="cls-2" d="M1078.9312,521.0467c-.7179-3.9909-1.3247-8.0058-2.1792-11.9672a101.7186,101.7186,0,0,0-5.3028-17.8915,10.6277,10.6277,0,0,1-.4062-1.6689c2.5323,1.9361,3.0364,4.9811,3.7975,7.7093,1.0544,3.7792,1.8617,7.63,2.9354,11.4214A33.7352,33.7352,0,0,1,1078.9312,521.0467Z" transform="translate(-831.5282 -408.3947)"/><path class="cls-4" d="M895.92,634.6585q.2746.165.5495.33a1.9141,1.9141,0,0,0,1.5594.9487.3445.3445,0,0,0,.2821.14c.3494.87,1.3735.9705,1.8853,1.6547q-.1.1262-.201.2515c-1.5385.2114-2.7042-.7044-3.8527-1.438-2.75-1.7564-5.4014-3.6434-7.9858-5.6642-1.7865-1.3968-3.3577-3.2661-5.6371-4.1235a2.3584,2.3584,0,0,1-1.4539-2.8525q6.2053,4.632,12.4167,9.2561a12.5563,12.5563,0,0,0,1.4871.8257A1.1264,1.1264,0,0,0,895.92,634.6585Z" transform="translate(-831.5282 -408.3947)"/><path class="cls-2" d="M949.5119,653.0379c9.8439.1547,19.6867.2788,29.4768-1.0605a1.0083,1.0083,0,0,1-.9677.9409,171.7151,171.7151,0,0,1-25.9758.9877A4.1669,4.1669,0,0,1,949.5119,653.0379Z" transform="translate(-831.5282 -408.3947)"/><path class="cls-2" d="M1072.842,573.4222c1.4257-5.7563,3.4554-11.3568,4.3688-17.2471.5042-3.2514,1.1436-6.4818,1.722-9.7219a44.6167,44.6167,0,0,1-1.8181,14.4265c-1.0122,3.7954-1.7085,7.67-3.1746,11.3433C1073.7088,572.8026,1073.4908,573.2786,1072.842,573.4222Z" transform="translate(-831.5282 -408.3947)"/><path class="cls-3" d="M846.0726,569.9721a7.9379,7.9379,0,0,1,2.7041,4.9081c.4826,3.4106,2.7737,5.9043,3.5606,9.0122.6318,2.4956,3.1748,4.2118,2.7007,7.0789q-.2255-.067-.4558-.1141a129.2807,129.2807,0,0,1-8.06-18.7169A6.4492,6.4492,0,0,1,846.0726,569.9721Z" transform="translate(-831.5282 -408.3947)"/><path class="cls-3" d="M900.9833,429.9643c-.61,2.2988-3.0541,2.4924-4.5134,3.8427-2.3772,2.2-5.5874,3.3538-7.8769,5.7572-.7118.7472-1.7075.432-2.599.4508q.0222-.2362.0343-.4731a8.0808,8.0808,0,0,0,3.05-2.4485l-.0051.0141a5.1365,5.1365,0,0,0,2.69-1.9544.2033.2033,0,0,0,.2578-.0842,7.2856,7.2856,0,0,0,3.0049-2.02l.0024-.0011a2.0928,2.0928,0,0,0,1.5278-.9755l-.0168.009q.2889-.2265.5778-.4526l-.0192.04a.9189.9189,0,0,0,.9633-.593l-.01.015a2.21,2.21,0,0,0,1.643-.9664.3019.3019,0,0,0,.3158-.0919Z" transform="translate(-831.5282 -408.3947)"/><path class="cls-2" d="M1042.8987,447.6346q-6.847-5.7253-13.695-11.45c1.5164-.4338,2.5294.7177,3.4651,1.4261a76.0868,76.0868,0,0,1,9.4545,8.0861A2.0063,2.0063,0,0,1,1042.8987,447.6346Z" transform="translate(-831.5282 -408.3947)"/><path class="cls-4" d="M871.1534,614.1889q4.9644,4.8659,9.9291,9.7315c-.7377.0178-1.4662.1492-2.0875-.4942-2.4845-2.5729-5.75-4.3558-7.6043-7.5781A2.3419,2.3419,0,0,1,871.1534,614.1889Z" transform="translate(-831.5282 -408.3947)"/><path class="cls-4" d="M855.0311,476.0215q-3.4443,7.3665-6.8885,14.7338c.3988-4.2934,2.5156-7.9514,4.3869-11.6888C853.1182,477.8908,853.3355,476.3223,855.0311,476.0215Z" transform="translate(-831.5282 -408.3947)"/><path class="cls-2" d="M1022.9737,432.0328c-3.6355-1.831-7.5687-3.1218-10.6877-5.8908,2.6039-.7612,3.95,1.6326,5.8847,2.49C1019.9092,429.4031,1022.1734,429.7976,1022.9737,432.0328Z" transform="translate(-831.5282 -408.3947)"/><path class="cls-4" d="M877.1715,447.1656q-3.1412,3.5645-6.2821,7.13c-1.1865.5081-1.7231,1.7443-2.7383,2.4441-.28-1.3561.1415-2.0931,1.4174-2.963a24.7529,24.7529,0,0,0,4.6455-4.7308A5.0846,5.0846,0,0,1,877.1715,447.1656Z" transform="translate(-831.5282 -408.3947)"/><path class="cls-4" d="M878.9669,446.0045c-.6473.3236-.9726,1.1416-1.8068,1.1776-.1853-1.0112-.2544-1.7519,1.0771-2.2725,1.6765-.6555,2.7183-2.2876,3.9393-3.5847a3.655,3.655,0,0,1,3.228-1.3273C883.5026,442.2612,880.7365,443.5988,878.9669,446.0045Z" transform="translate(-831.5282 -408.3947)"/><path class="cls-4" d="M923.9989,648.0428a111.4794,111.4794,0,0,1,11.0434,2.8776c-3.097.7815-5.8582-1.2157-8.9088-1.0963A2.3058,2.3058,0,0,1,923.9989,648.0428Z" transform="translate(-831.5282 -408.3947)"/><path class="cls-4" d="M913.0113,643.9649a95.1437,95.1437,0,0,1,10.5725,3.9571A16.2279,16.2279,0,0,1,913.0113,643.9649Z" transform="translate(-831.5282 -408.3947)"/><path class="cls-2" d="M1049.0086,613.4867c1.8588-2.3162,3.5105-4.8132,5.8547-6.7059a2.2078,2.2078,0,0,1-.7206,2.4676C1052.3415,610.552,1051.5158,613.0375,1049.0086,613.4867Z" transform="translate(-831.5282 -408.3947)"/><path class="cls-2" d="M1049.816,454.7937a68.1325,68.1325,0,0,1-6.4451-6.7121C1045.577,448.5542,1049.6473,452.793,1049.816,454.7937Z" transform="translate(-831.5282 -408.3947)"/><path class="cls-4" d="M858.2349,596.8058q2.3644,3.5894,4.7287,7.1788c-2.585.4113-2.5371-2.1749-3.5953-3.3812C858.5764,599.7009,858.5835,598.0973,858.2349,596.8058Z" transform="translate(-831.5282 -408.3947)"/><path class="cls-3" d="M878.9669,446.0045c1.77-2.4057,4.5357-3.7433,6.4376-6.0069l.5981.012c-.0365.6371.2474,1.5823-.452,1.7852-1.9823.5751-2.9407,2.3088-4.3264,3.5386A2.8219,2.8219,0,0,1,878.9669,446.0045Z" transform="translate(-831.5282 -408.3947)"/><path class="cls-4" d="M1082.0066,507.3931c.9151,3.6584,1.9277,7.3008,1.83,11.1257-.2532-.1835-.7362-.3814-.7257-.5484C1083.3355,514.3792,1081.2763,511.0282,1082.0066,507.3931Z" transform="translate(-831.5282 -408.3947)"/><path class="cls-4" d="M866.01,608.0008a42.3445,42.3445,0,0,1,4.9966,5.9716c-.5591-.0848-1.4059.0318-1.63-.2878C868.1142,611.8816,866.2245,610.4245,866.01,608.0008Z" transform="translate(-831.5282 -408.3947)"/><path class="cls-4" d="M1084.246,522.0462a32.7976,32.7976,0,0,1,.6045,8.9657.9388.9388,0,0,1-.8684-.9943C1084.1033,527.3614,1083.5868,524.6839,1084.246,522.0462Z" transform="translate(-831.5282 -408.3947)"/><path class="cls-2" d="M999.3193,646.8663a30.4448,30.4448,0,0,1,7.6287-2.9619C1004.879,646.1125,1002.1553,646.634,999.3193,646.8663Z" transform="translate(-831.5282 -408.3947)"/><path class="cls-4" d="M1075.0434,485.3321a26.7341,26.7341,0,0,1,2.9662,7.6706c-1.36.0123-1.1859-1.3-1.4381-1.9757C1075.8874,489.194,1074.7123,487.4477,1075.0434,485.3321Z" transform="translate(-831.5282 -408.3947)"/><path class="cls-3" d="M868.1511,456.7394c1.0152-.7,1.5518-1.936,2.7383-2.4441-.4061,2.3182-1.966,3.661-3.9382,4.6552q.0489-.4593.0975-.919a.1644.1644,0,0,0,.0826-.2307q.3306-.3379.6612-.6736Z" transform="translate(-831.5282 -408.3947)"/><path class="cls-4" d="M1084.8013,538.485a19.8884,19.8884,0,0,1-.53,6.9781C1084.0323,543.1054,1083.1517,540.6991,1084.8013,538.485Z" transform="translate(-831.5282 -408.3947)"/><path class="cls-2" d="M1068.962,484.5107a23.0375,23.0375,0,0,1-3.0681-6.4453A9.2225,9.2225,0,0,1,1068.962,484.5107Z" transform="translate(-831.5282 -408.3947)"/><path class="cls-2" d="M988.54,649.9884a40.026,40.026,0,0,1,6.9315-1.9587C993.545,650.04,991.0612,650.08,988.54,649.9884Z" transform="translate(-831.5282 -408.3947)"/><path class="cls-2" d="M1065.9062,478.0757a12.45,12.45,0,0,1-2.9326-5.0635C1065.1676,473.9955,1065.6605,475.964,1065.9062,478.0757Z" transform="translate(-831.5282 -408.3947)"/><path class="cls-4" d="M860.1143,467.5692a13.448,13.448,0,0,1-3.0745,4.9663C856.6564,470.0083,858.59,468.9153,860.1143,467.5692Z" transform="translate(-831.5282 -408.3947)"/><path class="cls-2" d="M1005.4523,423.0809a16.44,16.44,0,0,1-5.0921-1.976C1002.3781,420.937,1004.3809,420.8086,1005.4523,423.0809Z" transform="translate(-831.5282 -408.3947)"/><path class="cls-2" d="M935.0453,650.8927a21.3737,21.3737,0,0,1,5.9458,1.0819C938.9911,651.7133,936.7317,652.8774,935.0453,650.8927Z" transform="translate(-831.5282 -408.3947)"/><path class="cls-4" d="M862.996,464.0256c-1.0533,1.1191-1.5483,2.692-2.9,3.5688.5452-1.6627.5376-3.72,2.9135-4.0745Q863.0029,463.7727,862.996,464.0256Z" transform="translate(-831.5282 -408.3947)"/><path class="cls-3" d="M862.996,464.0256q.0069-.2529.0136-.5057l.0121-.01a2.6688,2.6688,0,0,0,1.545-2.47q.2426-.2309.4851-.4619.4934-.2685.9868-.5366C865.5847,461.797,865.7677,464.0392,862.996,464.0256Z" transform="translate(-831.5282 -408.3947)"/><path class="cls-2" d="M941.9886,652.1118a22.3268,22.3268,0,0,1,6.5044.8439c-1.6489-.0027-3.2977-.0012-4.9464-.01C942.8863,652.942,942.1813,652.9992,941.9886,652.1118Z" transform="translate(-831.5282 -408.3947)"/><path class="cls-4" d="M1081.5312,562.0188a13.6978,13.6978,0,0,1-1.4816,5.6836A7.0258,7.0258,0,0,1,1081.5312,562.0188Z" transform="translate(-831.5282 -408.3947)"/><path class="cls-4" d="M874.0079,443.0192a9.6093,9.6093,0,0,1,3.0357-2.8844C877.04,442.1573,876.0358,443.1271,874.0079,443.0192Z" transform="translate(-831.5282 -408.3947)"/><path class="cls-4" d="M870.9868,445.9919a10.1858,10.1858,0,0,1,3.023-2.9745C874.0877,445.1122,873.122,446.1462,870.9868,445.9919Z" transform="translate(-831.5282 -408.3947)"/><path class="cls-4" d="M854.9834,591.5718a6.6869,6.6869,0,0,1,2.1911,3.814A3.5832,3.5832,0,0,1,854.9834,591.5718Z" transform="translate(-831.5282 -408.3947)"/><path class="cls-2" d="M1038.9724,437.0254c1.5863.5129,2.51,1.8124,3.5412,2.9839C1040.6246,439.8557,1039.7845,438.4572,1038.9724,437.0254Z" transform="translate(-831.5282 -408.3947)"/><path class="cls-4" d="M889.0783,437.0934a8.0808,8.0808,0,0,1-3.05,2.4485C886.171,437.637,887.2642,436.9162,889.0783,437.0934Z" transform="translate(-831.5282 -408.3947)"/><path class="cls-4" d="M903.0391,638.9039l.9876.5328a.8719.8719,0,0,0,.0632.4414l-.13.1376-2.2083-.3419.0535.0472c-.6532-.527-1.6709-.6749-1.809-1.7379.0671-.0834.1341-.1672.2-.25q.6579.1182,1.317.2347l-.0046-.0022A1.3965,1.3965,0,0,0,903.0391,638.9039Z" transform="translate(-831.5282 -408.3947)"/><path class="cls-4" d="M1082.947,554.9885a10.3026,10.3026,0,0,1-.9309,4.6341C1082.3392,558.0809,1081.0027,556.2053,1082.947,554.9885Z" transform="translate(-831.5282 -408.3947)"/><path class="cls-4" d="M863.1194,604.264a5.2393,5.2393,0,0,1,1.9784,2.6586C863.76,606.5409,862.8559,605.8371,863.1194,604.264Z" transform="translate(-831.5282 -408.3947)"/><path class="cls-2" d="M984.4067,650.9163a10.4324,10.4324,0,0,1,4.0871-.9155C987.4159,651.5759,985.8168,650.8243,984.4067,650.9163Z" transform="translate(-831.5282 -408.3947)"/><path class="cls-4" d="M866.0386,460.0409q-.4935.2682-.9868.5366c-.1143-1.46.7877-2.1235,1.9968-2.546q-.0486.46-.0974.919l.0145.02a1.1219,1.1219,0,0,0-.7173.9218A.2192.2192,0,0,0,866.0386,460.0409Z" transform="translate(-831.5282 -408.3947)"/><path class="cls-2" d="M979.4,651.908a9.78,9.78,0,0,1,4.0774-.8276C982.3628,652.5607,980.7988,651.827,979.4,651.908Z" transform="translate(-831.5282 -408.3947)"/><path class="cls-4" d="M895.0258,433.0493a7.2856,7.2856,0,0,1-3.0049,2.02A2.5444,2.5444,0,0,1,895.0258,433.0493Z" transform="translate(-831.5282 -408.3947)"/><path class="cls-4" d="M867.0248,451.016l-.0985-.7231q.8043-.883,1.609-1.7635C869.5967,450.3088,867.8737,450.3969,867.0248,451.016Z" transform="translate(-831.5282 -408.3947)"/><path class="cls-4" d="M1080.0159,499.3788a6.5072,6.5072,0,0,1,.9729,3.6082C1079.1023,502.2055,1080.2491,500.6061,1080.0159,499.3788Z" transform="translate(-831.5282 -408.3947)"/><path class="cls-4" d="M891.7631,435.1531a5.1365,5.1365,0,0,1-2.69,1.9544C889.4573,435.7508,890.1669,434.842,891.7631,435.1531Z" transform="translate(-831.5282 -408.3947)"/><path class="cls-4" d="M864.5667,461.0394a2.6688,2.6688,0,0,1-1.545,2.47A2.332,2.332,0,0,1,864.5667,461.0394Z" transform="translate(-831.5282 -408.3947)"/><path class="cls-2" d="M1010.2815,425.189a3.867,3.867,0,0,1-2.3333-1.1354C1008.6455,424.5973,1010.5338,422.6937,1010.2815,425.189Z" transform="translate(-831.5282 -408.3947)"/><path class="cls-4" d="M869.25,447.8983a3.3342,3.3342,0,0,1,1.7348-1.903C871.1316,447.2905,870.9832,448.3166,869.25,447.8983Z" transform="translate(-831.5282 -408.3947)"/><path class="cls-4" d="M856.6838,473.1086a5.5673,5.5673,0,0,1-1.6529,2.9132A2.6439,2.6439,0,0,1,856.6838,473.1086Z" transform="translate(-831.5282 -408.3947)"/><path class="cls-2" d="M996.3113,647.8578a3.2465,3.2465,0,0,1,2.668-.8891C998.5334,648.5957,997.269,647.7666,996.3113,647.8578Z" transform="translate(-831.5282 -408.3947)"/><path class="cls-4" d="M848.0709,491.025a4.0084,4.0084,0,0,1-.9881,2.5934C847.2268,492.6835,846.3946,491.3765,848.0709,491.025Z" transform="translate(-831.5282 -408.3947)"/><path class="cls-2" d="M1034.0771,433.2823a3.5253,3.5253,0,0,1,2.3983,1.7491A2.3787,2.3787,0,0,1,1034.0771,433.2823Z" transform="translate(-831.5282 -408.3947)"/><path class="cls-4" d="M905.0353,639.896a.4852.4852,0,0,0,.3629.1272q.3627.4.7244.8l-.1543.1831c-.7743-.1183-1.7659.2035-2.0084-.9915l.13-.137Q904.5625,639.8874,905.0353,639.896Z" transform="translate(-831.5282 -408.3947)"/><path class="cls-4" d="M1073.0633,480.7978a2.8023,2.8023,0,0,1,.9681,2.21C1072.507,482.7977,1073.0613,481.6767,1073.0633,480.7978Z" transform="translate(-831.5282 -408.3947)"/><path class="cls-3" d="M907.3992,641.0215c.9079-.124,1.7264-.068,2.0365,1.0114q-.7-.0959-1.4-.1912l-.1048-.0757-.1254.0369Q907.6012,641.4131,907.3992,641.0215Z" transform="translate(-831.5282 -408.3947)"/><path class="cls-4" d="M912.0109,424.04a3.3343,3.3343,0,0,1-2.0065.917C910.233,423.688,911.2326,424.1063,912.0109,424.04Z" transform="translate(-831.5282 -408.3947)"/><path class="cls-4" d="M909.6493,425.1048a2.9259,2.9259,0,0,1-2.1127.9933C907.904,425.0508,908.7266,424.9715,909.6493,425.1048Z" transform="translate(-831.5282 -408.3947)"/><path class="cls-4" d="M907.5627,426.0831a2.5212,2.5212,0,0,1-2.0191,1.0255C905.87,426.0836,906.6575,425.968,907.5627,426.0831Z" transform="translate(-831.5282 -408.3947)"/><path class="cls-4" d="M907.3992,641.0215q.2027.3912.4064.7814c-.8031.1763-1.5887.31-1.837-.7966l.1537-.1823q.46.0186.9209.0364A.4578.4578,0,0,0,907.3992,641.0215Z" transform="translate(-831.5282 -408.3947)"/><path class="cls-4" d="M908.0358,641.8417q.7.0956,1.4.1912l.008-.0111q.1918.3509.3829.7022C908.966,642.965,908.1514,643.1128,908.0358,641.8417Z" transform="translate(-831.5282 -408.3947)"/><path class="cls-3" d="M909.8266,642.724q-.1912-.3513-.3829-.7022c.7185-.09,1.4193-.1446,1.6176.8076Z" transform="translate(-831.5282 -408.3947)"/><path class="cls-2" d="M1069.8817,486.6534a2.6223,2.6223,0,0,1-.9182-2.1385A1.6951,1.6951,0,0,1,1069.8817,486.6534Z" transform="translate(-831.5282 -408.3947)"/><path class="cls-2" d="M1070.9247,489.0778a3.11,3.11,0,0,1-.8909-2.0738C1071.3088,487.2753,1070.8968,488.271,1070.9247,489.0778Z" transform="translate(-831.5282 -408.3947)"/><path class="cls-4" d="M1079.4725,497.5054a1.6923,1.6923,0,0,1,.47,1.51C1078.8743,498.7955,1078.6414,498.3159,1079.4725,497.5054Z" transform="translate(-831.5282 -408.3947)"/><path class="cls-4" d="M857.1586,595.3484c.6837.2306.8006.88,1.0554,1.4258C856.8424,597.0552,857.0605,596.1572,857.1586,595.3484Z" transform="translate(-831.5282 -408.3947)"/><path class="cls-2" d="M1011.976,426.0431a1.8407,1.8407,0,0,1-1.6113-.8488C1011.1645,424.9777,1011.8554,424.9683,1011.976,426.0431Z" transform="translate(-831.5282 -408.3947)"/><path class="cls-4" d="M905.5712,427.0908a1.8233,1.8233,0,0,1-1.5687.8408C904.1435,426.9386,904.86,427.02,905.5712,427.0908Z" transform="translate(-831.5282 -408.3947)"/><path class="cls-4" d="M903.5843,428.0715a2.067,2.067,0,0,1-1.5715.9577C902.0879,427.9737,902.83,428.0119,903.5843,428.0715Z" transform="translate(-831.5282 -408.3947)"/><path class="cls-4" d="M900.9833,429.9643l-.9733.0685c.1371-1.141.9374-1.0066,1.7257-.8966Q901.36,429.5505,900.9833,429.9643Z" transform="translate(-831.5282 -408.3947)"/><path class="cls-4" d="M896.556,432.0727a2.0928,2.0928,0,0,1-1.5278.9755C895.07,431.99,895.8043,432.0183,896.556,432.0727Z" transform="translate(-831.5282 -408.3947)"/><path class="cls-4" d="M910.9891,643.0046a2.5435,2.5435,0,0,1,1.7272.8624C911.9456,643.9712,911.1528,644.1182,910.9891,643.0046Z" transform="translate(-831.5282 -408.3947)"/><path class="cls-4" d="M1074.0726,483.2739a2.0183,2.0183,0,0,1,.8806,1.7452C1073.7822,484.88,1073.9583,484.0614,1074.0726,483.2739Z" transform="translate(-831.5282 -408.3947)"/><path class="cls-4" d="M899.6942,430.1247a2.21,2.21,0,0,1-1.643.9664C898.0943,429.9116,898.9029,430.0328,899.6942,430.1247Z" transform="translate(-831.5282 -408.3947)"/><path class="cls-4" d="M889.0093,432.0121a.9087.9087,0,0,1,.99-.9761A.8668.8668,0,0,1,889.0093,432.0121Z" transform="translate(-831.5282 -408.3947)"/><path class="cls-2" d="M1050.9252,456.1014a1.0619,1.0619,0,0,1-.9514-1.0709C1050.6745,455.0467,1050.9646,455.4277,1050.9252,456.1014Z" transform="translate(-831.5282 -408.3947)"/><path class="cls-4" d="M906.009,645.9558a.9151.9151,0,0,1-1.004-.9766A.8866.8866,0,0,1,906.009,645.9558Z" transform="translate(-831.5282 -408.3947)"/><path class="cls-4" d="M902.007,643.96a.9243.9243,0,0,1-1.0108-.9533C901.6671,642.97,901.9788,643.3145,902.007,643.96Z" transform="translate(-831.5282 -408.3947)"/><path class="cls-4" d="M865.0819,606.9032a1.19,1.19,0,0,1,.9156,1.0851A.8674.8674,0,0,1,865.0819,606.9032Z" transform="translate(-831.5282 -408.3947)"/><path class="cls-4" d="M1081.5272,504.9881a.95.95,0,0,1,.2386,1.0411C1081.062,505.8251,1080.7468,505.532,1081.5272,504.9881Z" transform="translate(-831.5282 -408.3947)"/><path class="cls-2" d="M1006.9211,423.65a1.6763,1.6763,0,0,1-1.4774-.5777C1006.0246,423.0388,1006.6547,422.88,1006.9211,423.65Z" transform="translate(-831.5282 -408.3947)"/><path class="cls-2" d="M1064.06,464.8677q.342.5056.6851,1.0109C1064.0615,465.8513,1064,465.4006,1064.06,464.8677Z" transform="translate(-831.5282 -408.3947)"/><path class="cls-4" d="M1080.9805,502.982a.9633.9633,0,0,1,.3386,1.0123A.9944.9944,0,0,1,1080.9805,502.982Z" transform="translate(-831.5282 -408.3947)"/><path class="cls-4" d="M1084.1416,547.0705a.5919.5919,0,0,1-.2014.9017Q1084.0408,547.5213,1084.1416,547.0705Z" transform="translate(-831.5282 -408.3947)"/><path class="cls-4" d="M898.0611,431.0761a.9189.9189,0,0,1-.9633.593C897.1967,431.1115,897.603,431.0517,898.0611,431.0761Z" transform="translate(-831.5282 -408.3947)"/><path class="cls-4" d="M1083.9463,520.0134a.6413.6413,0,0,1,.245.9386Q1084.0682,520.4824,1083.9463,520.0134Z" transform="translate(-831.5282 -408.3947)"/><path class="cls-2" d="M1038.0574,436.3236q.4591.353.9185.7057C1038.4962,437.02,1038.0939,436.91,1038.0574,436.3236Z" transform="translate(-831.5282 -408.3947)"/><path class="cls-4" d="M857.043,472.5286q-.2.3078-.4.6162Q856.8437,472.8375,857.043,472.5286Z" transform="translate(-831.5282 -408.3947)"/><path class="cls-2" d="M1044.4622,442.5307l-.11.2036.1158-.1982Z" transform="translate(-831.5282 -408.3947)"/><path class="cls-2" d="M1036.47,435.0281q.2775.2323.5554.4645Q1036.7485,435.26,1036.47,435.0281Z" transform="translate(-831.5282 -408.3947)"/><path class="cls-4" d="M854.5822,590.8572q.23.0471.4558.1141-.0381.2626-.0763.5252Z" transform="translate(-831.5282 -408.3947)"/><path class="cls-4" d="M897.117,431.6291q-.2889.2262-.5778.4526Q896.8281,431.8557,897.117,431.6291Z" transform="translate(-831.5282 -408.3947)"/><path class="cls-2" d="M1007.4784,423.9617a.4543.4543,0,0,1-.59-.3453Q1007.1833,423.7894,1007.4784,423.9617Z" transform="translate(-831.5282 -408.3947)"/><path class="cls-4" d="M1081.7358,561.52q-.1134.2672-.2266.5348Q1081.6228,561.7873,1081.7358,561.52Z" transform="translate(-831.5282 -408.3947)"/><path class="cls-4" d="M867.7925,457.1272q-.3306.3361-.6612.6736A.656.656,0,0,1,867.7925,457.1272Z" transform="translate(-831.5282 -408.3947)"/><path class="cls-2" d="M1063.4809,463.9657q.2092.2757.418.5514Q1063.69,464.2411,1063.4809,463.9657Z" transform="translate(-831.5282 -408.3947)"/><path class="cls-2" d="M1037.0082,435.4754q.2934.2505.5872.501Q1037.3025,435.7258,1037.0082,435.4754Z" transform="translate(-831.5282 -408.3947)"/><path class="cls-3" d="M901.8047,639.721l-.0535-.0472Z" transform="translate(-831.5282 -408.3947)"/><path class="cls-7" d="M895.9591,623.9906l-.4913-.2564a.3947.3947,0,0,0-.33-.2833l-.0871-.0811c-.1729-.7579.366-1.9164-.5941-2.2084-1.8915-.5751-2.7317-2.2955-4.1525-3.3589-1.3036-.9757-2.5572-2.0714-4.3782-1.7531l.0186.0153a2.4441,2.4441,0,0,0-1.8554-3.0417,2.6012,2.6012,0,0,1-1.8536-1.51c-.6107-2.325-2.5535-2.7344-4.3605-3.4068l.1252-.1187-.1138.1292c.2254-1.5067.4752-2.91-1.6067-3.4964a3.905,3.905,0,0,1-1.9206-1.8872,36.7332,36.7332,0,0,0-5.5155-7.5179c-1.1-1.1765-2.35-2.58-2.6355-4.0544a7.1171,7.1171,0,0,0-2.1984-3.7061,3.2952,3.2952,0,0,1-.9816-1.3978c-.9722-3.5782-2.9226-6.7267-4.4921-10.0432-1.1683-2.4687-3.2523-4.9369-3.27-7.4176-.0288-3.9028-1.7037-7.2919-2.5868-10.7995a76.0019,76.0019,0,0,1-2.413-14.4967c-.5228-10.4536-1.09-21.0257,1.6334-31.4129.7508-2.8633.8214-5.9612,2.108-8.6816,1.2167-2.5727-.1009-6.0614,2.9262-7.9359-.3385-2.4144,1.7673-4.4769,1.0009-6.9528a.21.21,0,0,1,.14-.2852c2.2267-1.1236,4.0764-4.8718,3.7845-7.6687l-.0241.0337c1.2573-.1738,1.2354-1.0432,1.0807-1.9849l.0571.1181-.0705-.11c1.8874-.4787,4.0149-3.9631,3.99-6.5338l.0768.1445-.09-.1366c1.016.2215,1.5294-.4259,1.9836-1.1583a9.3068,9.3068,0,0,0,1.1049-1.8916c.58-1.7967,3.0544-1.5972,3.5224-3.5057.4043-1.6494,1.8537-2.7015,2.6078-4.0826.896-1.6412,3.6591-2.17,2.8992-4.7588l-.0095.0135.5207-.5031-.0066.004c1.6434.2554,3.0832-.1468,3.7236-1.7644.7669-1.9372,2.3828-2.79,4.0178-3.7147a5.7109,5.7109,0,0,0,2.6046-2.579,5.777,5.777,0,0,1,2.1212-1.9745c2.15-1.5965,4.5278-2.8123,6.7062-4.3079,1.213-.8328,2.24-1.9561,3.5931-2.7771,3.9231-2.381,8.9617-2.7266,12.05-6.6027.0909-.1141.3089-.1172.4432-.208,3.0811-2.0829,6.8544-2.3428,10.194-3.8575a26.8278,26.8278,0,0,1,9.1341-2.2631,2.3793,2.3793,0,0,0,1.9051-1.74l1.02-.165c.3086.3865.6931.2188,1.1024.2312,5.0077.1507,9.8379-1.5347,14.8736-1.2988a109.2042,109.2042,0,0,0,13.665-.0317c5.3872-.425,10.5424,1.7218,15.9021,1.0343a96.4007,96.4007,0,0,1,28.5475,10.0555q35.9819,18.9538,51.7752,56.492a4.8116,4.8116,0,0,1,.1828.7213c-.6415,2.5052.5308,4.7153,1.386,6.865,1.433,3.602,2.9015,7.3235,3.2943,11.0429.4276,4.05,1.8984,8.0394,1.2527,12.21a4.8186,4.8186,0,0,0,.191,2.199,37.8034,37.8034,0,0,1,1.7143,10.8617c.02.56.1115,1.3152-.6308,1.4462-1.598.2821-1.2938,1.4643-1.2978,2.4992-.0149,3.8191.3056,7.6729-.11,11.4464-.3288,2.9838-1.272,5.8964-.7744,8.9548q-.1251.6-.25,1.2008c-.2195.1046-.5985.17-.6354.32-1.5006,6.0859-5.5817,11.2549-6.2733,17.63a1.6461,1.6461,0,0,1-.5365,1.0605c-1.5975,1.1614-1.5194,2.8082-1.415,4.4813l-.0118.0247c-2.0839.7609-4.0125,4.21-3.9536,7.0711q-.0095.2372-.0251.4741a14.5879,14.5879,0,0,0-2.4891,3.9357c-6.2724,8.4839-12.6243,16.8941-21.3923,23.063-2.72.0442-3.7663-2.05-4.6954-3.9859a3.1231,3.1231,0,0,0-3.4186-2.1022l-.0059-.008c-.3661-1.645-.3662-3.5311-2.5993-3.9463q-.9-1.0717-1.7986-2.1429A4.5456,4.5456,0,0,0,1017,603.4256a.4.4,0,0,0-.19-.4282,6.7039,6.7039,0,0,0-1.7205-2.7525,1.4688,1.4688,0,0,1,.4648-2.2618,32.6281,32.6281,0,0,0,11.6008-17.0809c.7518-.174.7628-.7558.7557-1.3566a10.4231,10.4231,0,0,0-1.6769-6.1368,91.3983,91.3983,0,0,1-8.1088-14.9913c-1.0321-2.4664-3.2839-4.4126-3.162-7.3682.1852-2.6832-2.46-4.2765-2.61-6.9966-.0628-1.1354.1035-2.6565-.6615-3.7661-2.3808-3.4534-3.02-7.2589-2.7926-11.3859a5.8026,5.8026,0,0,0-1.9211-4.8983c.07-2.65-1.3261-4.8369-2.3395-7.1213-.9914-2.2348-2.2376-4.358-2.6671-6.81a51.3929,51.3929,0,0,0-.8966-11.53c-.6846-3.43-.3464-6.9881-.809-10.5254-.5916-4.523-1.8587-9.09-1.3183-13.7741a37.55,37.55,0,0,0,.0047-4.9882c-.0219-1.1543-1.4409-1.9605-.93-3.2232.8416-2.08.2521-4.271-.3141-6.0577-1.1811-3.7274-.6047-7.5951-1.6065-11.3342-.6409-2.3918-1.1445-4.8177-1.9522-7.1867-.4278-1.2545-1.086-1.4341-2.1825-1.4265-4.3265.03-8.6533.0081-12.98.0054l.0057.0064c-.3349-1.009.7807-2.5128-1.03-3.0184a1.1543,1.1543,0,0,1,.0046-.4193,2.29,2.29,0,0,0-2.5184-2.5329,6.5472,6.5472,0,0,0-2.4086-.4268c-2.2052.4968-3.1761-.6146-3.7864-2.4505-.4139-1.2451-1.5724-1.4509-2.6034-1.57-5.0143-.5783-8.9224,1.3038-10.6542,7.2247-.3086,1.055-.8467,2.4843-2.0024,1.8283-2.0152-1.1438-3.9934-.5582-5.9952-.63-.78.0988-1.825-.3377-1.9937.99l-.0085.0075c-.8911.1045-2.6042-.1269-2.5531.2585.37,2.7828-3.478,3.94-2.482,6.8958a1.3272,1.3272,0,0,1-1.2662,1.7692c-.7632.0832-1.553.1183-1.71-.9323-.1306-.8752-.7536-.9762-1.4649-.9836-6.3267-.0661-12.6707.3512-18.9441-.9745-2.203-.4656-4.6127.62-6.7345-.9046-.5736-.4122-1.1941.2655-1.7988.5151-3.35,1.383-3.1428,9.1674-1.1211,11.9246.3,5.1238,2.6138,9.323,5.9852,13.037.4309,3.7588,2.2128,7.049,3.7078,10.4218,1.4832,3.3463,3.2836,6.4657,3.5626,10.3377a21.6292,21.6292,0,0,0,1.12,6.1461,8.1824,8.1824,0,0,1-.3129,7.4579c-1.7475.3029-3.1816-.512-4.7084-1.18-1.88-.8223-3.3862-2.2007-5.1942-3.158a34.3589,34.3589,0,0,1-8.3347-5.9314,10.1768,10.1768,0,0,0-4.9595-2.6841c-1.1126-.3037-2.2811-.3954-3.41-.6487a13.91,13.91,0,0,0-12.1146,2.6989c-3.229,2.4627-3.4108,8.1811.7468,10.4318,1.4112.764,2.6631,1.7554,4.0437,2.4546,3.525,1.7852,6.1458,4.7391,9.4357,6.815,4.2683,2.6932,7.0827,6.9516,10.2386,10.69a57.5384,57.5384,0,0,0,17.2793,14.3665c.2393,1.0213-.3234,2.1689.4934,3.0966.17,1.5659.39,3.1282.5016,4.6982A366.1994,366.1994,0,0,0,930.44,583.061c2.6372,15.0332,6.5121,29.7158,12.6161,43.7524.3422.6544-.9658,2.1649,1.02,1.9667l.9205.404c3.1758,1.697,6.6383.9765,9.8124.5376,4.3139-.5965,8.5926-1.4605,12.9583-1.7774,4.1489-.3011,8.2653-.033,12.4842-.7149,4.71-.7613,9.5523-1.7934,14.49-1.3357,3.3154.3073,6.8222.7112,9.6855-1.8116l9.5377-1.1353,1.0027-.0645a36.0838,36.0838,0,0,0,7.4613-.6469l1.0214-.1249c1.057.221,2.8284.0678.9551,1.8236l-.9248.6348-12.1179,7.337q-.4959.2421-.9915.4837l-.17-.07-.0858.1785-.1086.0516c-6.0857,2.7705-12.313,5.1828-18.6327,7.3613q-.7458.2171-1.4914.4338-.41.0768-.8212.1542l-.0569.0085c-5.9455,1.5108-12.0215,2.3376-18.0452,3.4381-6.802.3378-13.6035.6963-20.4076.0329-13.8343-1.3489-27.12-4.6518-39.5318-11.0764-.0321-.5656.1894-1.4192-.3494-1.6045-2.2445-.7717-4.0533-2.9222-6.7739-2.2105l.1233-.0247-.1192.04A8.5441,8.5441,0,0,0,895.9591,623.9906Z" transform="translate(-831.5282 -408.3947)"/><path class="cls-8" d="M1020.97,610.4746c.2147,2.3058.3094,4.59,2.77,5.9627.493.275,1.5841,1.31,1.1157,2.2728a3.9491,3.9491,0,0,1-3.0517,2.1954,46.5775,46.5775,0,0,1-5.47.0513c-.4818-.003-1.13.0347-1.0906-.6552.0315-.5451.5769-.7983,1.1075-.797,1.7408.0042,3.39-.7844,5.1618-.5575.4413.0565,1.11.14,1.1736-.5522a.8265.8265,0,0,0-.9881-.8589c-3.65.5788-7.3519-1.4514-10.9858.2423a6.0726,6.0726,0,0,1-1.7106.1946c-.75.0974-1.9068-.3412-1.9244.9306-.02,1.4256,1.327,1.4573,2.1807,1.3127,1.59-.2693,2.6477-.136,2.7166,1.7578q-.495.0037-.99.0075c-3.6419-.469-7.1946.8011-10.8333.56-.72-.0478-1.1032.6215-1.1759,1.3556-4.9773.5319-9.9634.1564-15.0044.7954a108.4525,108.4525,0,0,1-16.5629,1.2543c-4.46-.1239-8.7373,1.7331-13.2265,1.063a1.0334,1.0334,0,0,0-.7158.1508c-1.9363,1.51-4.2129.8882-6.2567.6983-1.7924-.1665-3.8215-1.021-4.1474-3.248-.8687-5.9346-3.5132-11.3489-5.5272-16.8441-2.5768-7.0308-2.92-14.4732-5.421-21.456-1.2974-3.6223-1.4364-7.66-1.9228-11.4851-.5643-4.4368-1.8613-8.8807-1.2181-13.4555a4.4805,4.4805,0,0,0-.1106-2.2239,30.5152,30.5152,0,0,1-1.9085-11.28c-.0844-3.97.9787-8.1139-1.3332-11.8458l-.0343-1.0379.3857-.399,3.9457,1.9425c2.6218,2.0252,5.4038,3.8766,7.8315,6.1127a33.4844,33.4844,0,0,0,16.4066,8.4866c7.8428,1.5041,12.6312,6.4817,16.31,12.72,4.4639,7.5706,8.3188,15.5,12.4372,23.2744a86.4973,86.4973,0,0,0,4.2918,8.8478c.1811.37.3938,1.0034,1.0624.5136a1.6345,1.6345,0,0,1,.2352.23c-1.24.5815-.3764,1.3692-.1179,1.99.4608,1.1063,1.075,2.1487,1.6251,3.2178.709,1.8363,2.2987,3.3156,2.1938,5.4911a.5855.5855,0,0,0,.7142.5247c2.1557-.3567,4.471.9136,6.509-1.2238a6.138,6.138,0,0,1,4.7769-1.7087,4.9134,4.9134,0,0,0,5.5515-3.5165c.6526-1.6861,1.6087-2.0783,2.7212-.2913a7.7092,7.7092,0,0,0,4.5219,3.7676l-.0038,0a.9045.9045,0,0,0,.99,1.0125c.2053-.0375.4106-.0749.6134-.1126-.0357.3669-.0687.7341-.1018,1.1013-.7712.817-.13.91.5137,1.0021C1020.1129,608.4427,1019.9554,609.9188,1020.97,610.4746ZM970.5094,607.95l-.4882-.5032a1.013,1.013,0,0,0-.9907-.5164.9377.9377,0,0,0-.5342-.9607.9526.9526,0,0,0-.9787-1.0259l-.4907-.501c-2.1381-3.3233-5.1362-5.848-7.9436-8.55a2.8314,2.8314,0,0,0-1.9624-2.0632,4.9061,4.9061,0,0,0-3.3462-3.41c1.0642,1.6741,1.8277,2.88,3.1168,3.6545a2.8207,2.8207,0,0,0,2.0016,2.0143,24.7769,24.7769,0,0,0,8.0636,8.4244l.4946.4971a.8823.8823,0,0,0,1.0331.97.9857.9857,0,0,0,.4868,1.0192,1.0094,1.0094,0,0,0,.9883.51l.5044.4863.4868.5114.2588.6607a1.3691,1.3691,0,0,0,.1827-.1481c-.1152-.199-.2458-.389-.3741-.58Q970.764,608.1941,970.5094,607.95Zm12.4775,10.0178c.2411.413.4482.8881,1.0562.7741a.4052.4052,0,0,0,.1877-.3459c-.2464-.5952-.8044-.3512-1.2462-.4256-.4121-1.3985-1.5577-1.5513-2.7568-1.6131A4.11,4.11,0,0,0,982.9869,617.9676Zm-39.0221-41.45a.9993.9993,0,0,0,.5012.9925c2.016,4.8889,5.655,8.5365,9.1921,12.2672a54.5185,54.5185,0,0,0-5.1133-7.4465c-1.3189-1.6394-2.1089-3.72-4.0038-4.8857a1.0074,1.0074,0,0,0-.5112-.9838c-.59-2.7229-2.6759-4.6353-3.7836-7.0791A12.141,12.141,0,0,0,943.9648,576.5172Zm28.0167,33.4781a18.2111,18.2111,0,0,0,7.292,5.5572c-2.0591-2.084-4.0673-4.2155-6.7-5.5869C972.3609,609.6755,972.1553,609.5187,971.9815,609.9953Zm-33.2979-45.7939c-.2453,1.0753-.3853,1.8771.5687,2.5479C939.6294,565.75,939.05,565.1259,938.6836,564.2014Zm1.2016,3.7724c-.0368-.0566-.0626-.1391-.1141-.1608-.035-.0148-.106.0556-.1609.088l.1946.2564Z" transform="translate(-831.5282 -408.3947)"/><path class="cls-9" d="M857.9344,488.3163c.7664,2.4759-1.3394,4.5384-1.0009,6.9528-3.0271,1.8745-1.7095,5.3632-2.9262,7.9359-1.2866,2.72-1.3572,5.8183-2.108,8.6816-2.7234,10.3872-2.1562,20.9593-1.6334,31.4129a76.0019,76.0019,0,0,0,2.413,14.4967c.8831,3.5076,2.558,6.8967,2.5868,10.7995.0182,2.4807,2.1022,4.9489,3.27,7.4176,1.5695,3.3165,3.52,6.465,4.4921,10.0432a3.2952,3.2952,0,0,0,.9816,1.3978,7.1171,7.1171,0,0,1,2.1984,3.7061c.2851,1.4744,1.5352,2.8779,2.6355,4.0544a36.7332,36.7332,0,0,1,5.5155,7.5179A3.905,3.905,0,0,0,876.28,604.62c2.0819.5866,1.8321,1.99,1.6067,3.4964a82.1472,82.1472,0,0,1-12.8995-16.7186,110.9671,110.9671,0,0,1-16.3077-65.5434,109.1624,109.1624,0,0,1,8.6148-36.4917A7.9706,7.9706,0,0,1,857.9344,488.3163Z" transform="translate(-831.5282 -408.3947)"/><path class="cls-9" d="M935.9937,424.2215a2.3793,2.3793,0,0,1-1.9051,1.74,26.8278,26.8278,0,0,0-9.1341,2.2631c-3.34,1.5147-7.1129,1.7746-10.194,3.8575-.1343.0908-.3523.0939-.4432.208-3.0879,3.8761-8.1265,4.2217-12.05,6.6027-1.3529.821-2.38,1.9443-3.5931,2.7771-2.1784,1.4956-4.5561,2.7114-6.7062,4.3079a5.777,5.777,0,0,0-2.1212,1.9745,5.7109,5.7109,0,0,1-2.6046,2.579c-1.635.9245-3.2509,1.7775-4.0178,3.7147-.64,1.6176-2.08,2.02-3.7236,1.7644,2.7859-3.5156,6.3335-6.2431,9.5919-9.27q.3466-.3058.6933-.6107a.1654.1654,0,0,0,.216-.1492,1.5784,1.5784,0,0,0,1.0906-.9368l.8995-.6284a1.5083,1.5083,0,0,0,1.0546-.85l-.0116.0047.63-.4766a.3526.3526,0,0,0,.3274-.1971,1.43,1.43,0,0,0,1.0764-.8169l-.0088.01a8.34,8.34,0,0,0,2.9857-2.0438c7.92-4.9369,16.094-9.3623,24.9913-12.3124C927.29,426.3238,931.5179,424.8124,935.9937,424.2215Z" transform="translate(-831.5282 -408.3947)"/><path class="cls-9" d="M1068.0876,558.786c-.4976-3.0584.4456-5.971.7744-8.9548.416-3.7735.0955-7.6273.11-11.4464.004-1.0349-.3-2.2171,1.2978-2.4992.7423-.131.6511-.8862.6308-1.4462a37.8034,37.8034,0,0,0-1.7143-10.8617,4.8186,4.8186,0,0,1-.191-2.199c.6457-4.1711-.8251-8.16-1.2527-12.21-.3928-3.7194-1.8613-7.4409-3.2943-11.0429-.8552-2.15-2.0275-4.36-1.386-6.865,3.02,6.4244,4.7183,13.26,6.1133,20.1685a110.7846,110.7846,0,0,1-.3856,45.2651A18.404,18.404,0,0,1,1068.0876,558.786Z" transform="translate(-831.5282 -408.3947)"/><path class="cls-9" d="M982.5572,423.9915c-5.36.6875-10.5149-1.4593-15.9021-1.0343a109.2042,109.2042,0,0,1-13.665.0317c-5.0357-.2359-9.8659,1.45-14.8736,1.2988-.4093-.0124-.7938.1553-1.1024-.2312,8.5682-2.313,17.3264-2.6708,26.13-2.5062A79.5332,79.5332,0,0,1,982.5572,423.9915Z" transform="translate(-831.5282 -408.3947)"/><path class="cls-9" d="M1058.9771,583.4781c-.1044-1.6731-.1825-3.32,1.415-4.4813a1.6461,1.6461,0,0,0,.5365-1.0605c.6916-6.375,4.7727-11.544,6.2733-17.63.0369-.15.4159-.215.6354-.32A87.6618,87.6618,0,0,1,1058.9771,583.4781Z" transform="translate(-831.5282 -408.3947)"/><path class="cls-9" d="M878.9966,456.496c.76,2.5885-2.0032,3.1176-2.8992,4.7588-.7541,1.3811-2.2035,2.4332-2.6078,4.0826-.468,1.9085-2.9422,1.709-3.5224,3.5057a9.3068,9.3068,0,0,1-1.1049,1.8916c-.4542.7324-.9676,1.38-1.9836,1.1583A74.2774,74.2774,0,0,1,878.9966,456.496Z" transform="translate(-831.5282 -408.3947)"/><path class="cls-10" d="M991.3735,639.9113c6.32-2.1785,12.547-4.5908,18.6327-7.3613-.2267,2.9917-2.9341,2.6839-4.74,3.3006-1.0651.3637-2.2752.3084-3.0208,1.3135-1.1683,1.575-3.048.6228-4.575,1.3353C995.8094,639.3678,993.699,640.517,991.3735,639.9113Z" transform="translate(-831.5282 -408.3947)"/><path class="cls-9" d="M1022.9912,611.9586a3.1231,3.1231,0,0,1,3.4186,2.1022c.9291,1.9363,1.9752,4.03,4.6954,3.9859q-.0732.4476-.1461.8948c-.8992.2383-1.4465,1.2759-2.5233,1.1106l-.05-.0438a12.7793,12.7793,0,0,0-2.3393-3.2026q-.6838-.9588-1.3679-1.9175-.34-.477-.68-.954l.01.012a2.2635,2.2635,0,0,0-1.0251-1.5074Q1022.9875,612.1986,1022.9912,611.9586Z" transform="translate(-831.5282 -408.3947)"/><path class="cls-9" d="M885.9261,616.0494c1.821-.3183,3.0746.7774,4.3782,1.7531,1.4208,1.0634,2.261,2.7838,4.1525,3.3589.96.292.4212,1.4505.5941,2.2084A45.97,45.97,0,0,1,885.9261,616.0494Z" transform="translate(-831.5282 -408.3947)"/><path class="cls-10" d="M1011.3618,631.9059l12.1179-7.337c-.0694,1.3484-.4481,2.1894-2.0814,2.4711-2.2986.3964-3.4835,2.7782-5.6168,3.6864C1014.3364,631.3416,1012.9891,632.0734,1011.3618,631.9059Z" transform="translate(-831.5282 -408.3947)"/><path class="cls-10" d="M970.9588,643.9459c6.0237-1.1005,12.1-1.9273,18.0452-3.4381a1.49,1.49,0,0,1-1.6735,1.4326c-2.82-.01-5.3679,1.0011-8.0334,1.7644C976.707,644.4465,973.753,643.9171,970.9588,643.9459Z" transform="translate(-831.5282 -408.3947)"/><path class="cls-9" d="M877.8752,608.1058c1.807.6724,3.75,1.0818,4.3605,3.4068a2.6012,2.6012,0,0,0,1.8536,1.51,2.4441,2.4441,0,0,1,1.8554,3.0417A39.8539,39.8539,0,0,1,877.8752,608.1058Z" transform="translate(-831.5282 -408.3947)"/><path class="cls-9" d="M895.9591,623.9906a8.5441,8.5441,0,0,1,7.9411,5.1118A35.6756,35.6756,0,0,1,895.9591,623.9906Z" transform="translate(-831.5282 -408.3947)"/><path class="cls-9" d="M903.8961,629.0874c2.7206-.7117,4.5294,1.4388,6.7739,2.2105.5388.1853.3173,1.0389.3494,1.6045A28.0384,28.0384,0,0,1,903.8961,629.0874Z" transform="translate(-831.5282 -408.3947)"/><path class="cls-9" d="M861.8586,480.3624c.2919,2.7969-1.5578,6.5451-3.7845,7.6687A28.8493,28.8493,0,0,1,861.8586,480.3624Z" transform="translate(-831.5282 -408.3947)"/><path class="cls-9" d="M866.8915,471.8851c.0252,2.5707-2.1023,6.0551-3.99,6.5338A25.237,25.237,0,0,1,866.8915,471.8851Z" transform="translate(-831.5282 -408.3947)"/><path class="cls-9" d="M1055.0117,590.5739c-.0589-2.8609,1.87-6.31,3.9536-7.0711q-.4982,1.2485-.9964,2.4963a3.1114,3.1114,0,0,0-1.0442,1.95l.002.0019a5.529,5.529,0,0,0-1.4853,2.5218A.8585.8585,0,0,1,1055.0117,590.5739Z" transform="translate(-831.5282 -408.3947)"/><path class="cls-10" d="M1010.9848,621.9816l.99-.0076c.8391-.0356,1.6049.0787,1.9894.9728l-9.5378,1.1353a.8021.8021,0,0,1,.1141-.246c.4346-.4907,1.1242-.1936,1.5664-.4456C1007.632,622.5213,1009.764,623.8138,1010.9848,621.9816Z" transform="translate(-831.5282 -408.3947)"/><path class="cls-10" d="M1022.428,622.2354a36.0838,36.0838,0,0,1-7.4613.6469c.1444-.8529.7746-.95,1.4583-.8991C1018.4237,622.1306,1020.45,621.6248,1022.428,622.2354Z" transform="translate(-831.5282 -408.3947)"/><path class="cls-10" d="M1024.4045,623.9341c1.8733-1.7558.1019-1.6026-.9551-1.8236.1581-.1782.3052-.4979.4761-.5112,1-.0779,2.4667-.6371,2.6968.7062C1026.7913,623.2923,1025.6679,624.0734,1024.4045,623.9341Z" transform="translate(-831.5282 -408.3947)"/><path class="cls-10" d="M1052.4975,594.9837a14.5879,14.5879,0,0,1,2.4891-3.9357C1055.0155,592.9029,1055.0136,594.7383,1052.4975,594.9837Z" transform="translate(-831.5282 -408.3947)"/><path class="cls-10" d="M1020.97,610.4746c-1.0146-.5558-.8571-2.0319-1.9712-2.51a1.1262,1.1262,0,0,0-.5134-1.0022q.05-.5508.0995-1.1017.9009,1.0716,1.8012,2.1435l1.228,2.4044Z" transform="translate(-831.5282 -408.3947)"/><path class="cls-9" d="M1021.6141,610.4088l-1.228-2.4044c2.233.4151,2.2331,2.3012,2.5992,3.9462a1.719,1.719,0,0,1-.3666-.04q-.2676-.3541-.5351-.7084Z" transform="translate(-831.5282 -408.3947)"/><path class="cls-10" d="M898.0463,440.0462a8.34,8.34,0,0,1-2.9857,2.0438C894.8538,439.653,896.61,440.0833,898.0463,440.0462Z" transform="translate(-831.5282 -408.3947)"/><path class="cls-10" d="M1028.4358,620.0521c1.0768.1653,1.6241-.8723,2.5233-1.1106-.096.7356.3341,1.7345-.84,1.9578C1029.4019,621.0358,1028.623,621.0723,1028.4358,620.0521Z" transform="translate(-831.5282 -408.3947)"/><path class="cls-10" d="M1026.0466,616.8057a12.7793,12.7793,0,0,1,2.3393,3.2026C1026.5331,619.7245,1025.8027,618.6209,1026.0466,616.8057Z" transform="translate(-831.5282 -408.3947)"/><path class="cls-3" d="M901.5129,637.9673q-.6588-.1168-1.317-.2347c-.5112-.685-1.5353-.7859-1.8847-1.6555C899.9182,635.7921,900.66,636.9734,901.5129,637.9673Z" transform="translate(-831.5282 -408.3947)"/><path class="cls-10" d="M1055.4414,590.4732a5.529,5.529,0,0,1,1.4853-2.5218C1056.9829,589.1167,1057.1174,590.3281,1055.4414,590.4732Z" transform="translate(-831.5282 -408.3947)"/><path class="cls-9" d="M862.9152,478.4112c.1547.9417.1766,1.8111-1.0807,1.9849A2.8913,2.8913,0,0,1,862.9152,478.4112Z" transform="translate(-831.5282 -408.3947)"/><path class="cls-3" d="M903.0391,638.9039a1.3965,1.3965,0,0,1-1.5308-.9388C902.2351,637.925,902.9338,637.9307,903.0391,638.9039Z" transform="translate(-831.5282 -408.3947)"/><path class="cls-10" d="M1056.9247,587.95a3.1114,3.1114,0,0,1,1.0442-1.95C1057.88,586.7878,1058.2957,587.847,1056.9247,587.95Z" transform="translate(-831.5282 -408.3947)"/><path class="cls-3" d="M907.0432,640.86q-.4606-.018-.9209-.0364-.3615-.4009-.7241-.8008C906.13,639.9406,906.8656,639.8524,907.0432,640.86Z" transform="translate(-831.5282 -408.3947)"/><path class="cls-10" d="M1022.9842,612.4388a2.2635,2.2635,0,0,1,1.0251,1.5074C1022.9459,613.9345,1022.9523,613.1954,1022.9842,612.4388Z" transform="translate(-831.5282 -408.3947)"/><path class="cls-3" d="M898.0291,635.9372a1.9141,1.9141,0,0,1-1.5594-.9487C897.2249,634.9176,897.9311,634.9273,898.0291,635.9372Z" transform="translate(-831.5282 -408.3947)"/><path class="cls-3" d="M905.0353,639.896q-.4728-.0088-.9455-.0178a.8734.8734,0,0,1-.0631-.4415C904.7637,638.71,904.9076,639.2851,905.0353,639.896Z" transform="translate(-831.5282 -408.3947)"/><path class="cls-10" d="M893.0471,443.5655a1.5083,1.5083,0,0,1-1.0546.85C891.9991,443.7037,892.0054,442.992,893.0471,443.5655Z" transform="translate(-831.5282 -408.3947)"/><path class="cls-10" d="M891.093,445.0434a1.5784,1.5784,0,0,1-1.0906.9368C890.0426,445.2916,890.44,445.0185,891.093,445.0434Z" transform="translate(-831.5282 -408.3947)"/><path class="cls-10" d="M895.0694,442.08a1.43,1.43,0,0,1-1.0764.8169A.8516.8516,0,0,1,895.0694,442.08Z" transform="translate(-831.5282 -408.3947)"/><path class="cls-3" d="M895.92,634.6585a1.1264,1.1264,0,0,1-.95-.6716C895.4419,633.9909,895.8666,634.0621,895.92,634.6585Z" transform="translate(-831.5282 -408.3947)"/><path class="cls-3" d="M866.2484,459.8924a1.1219,1.1219,0,0,1,.7173-.9218C867.0022,459.4922,866.8838,459.8934,866.2484,459.8924Z" transform="translate(-831.5282 -408.3947)"/><path class="cls-10" d="M1023.9988,613.9342q.34.477.68.954C1024.11,614.8143,1023.9831,614.4249,1023.9988,613.9342Z" transform="translate(-831.5282 -408.3947)"/><path class="cls-10" d="M989.0609,640.4993q.4107-.0772.8212-.1542Q989.4713,640.4225,989.0609,640.4993Z" transform="translate(-831.5282 -408.3947)"/><path class="cls-9" d="M895.138,623.4509a.3947.3947,0,0,1,.33.2833C895.211,623.81,895.1243,623.6888,895.138,623.4509Z" transform="translate(-831.5282 -408.3947)"/><path class="cls-10" d="M893.6656,443.0936l-.63.4766Z" transform="translate(-831.5282 -408.3947)"/><path class="cls-9" d="M879.5078,456.0064l-.5207.5031A.4983.4983,0,0,1,879.5078,456.0064Z" transform="translate(-831.5282 -408.3947)"/><path class="cls-10" d="M1022.0836,611.2021q.2674.3543.5351.7084A.6691.6691,0,0,1,1022.0836,611.2021Z" transform="translate(-831.5282 -408.3947)"/><path class="cls-10" d="M889.7864,446.1294q-.3466.3051-.6933.6107A.6632.6632,0,0,1,889.7864,446.1294Z" transform="translate(-831.5282 -408.3947)"/><path class="cls-10" d="M1010.1148,632.4984l.0858-.1785.17.07A.2833.2833,0,0,1,1010.1148,632.4984Z" transform="translate(-831.5282 -408.3947)"/><path class="cls-11" d="M1016.9876,604.9616a7.7092,7.7092,0,0,1-4.5219-3.7676c-1.1125-1.787-2.0686-1.3948-2.7212.2913a4.9134,4.9134,0,0,1-5.5515,3.5165,6.138,6.138,0,0,0-4.7769,1.7087c-2.038,2.1374-4.3533.8671-6.509,1.2238a.5855.5855,0,0,1-.7142-.5247c.1049-2.1755-1.4848-3.6548-2.1939-5.491.6483-2.0688-1.3214-3.38-1.5071-5.2077a1.633,1.633,0,0,0-.2351-.23l-4.4615-9.534c-3.5986-8.5875-8.0307-16.74-12.43-24.94a23.4568,23.4568,0,0,0-14.475-11.9623c-8.0918-2.52-15.73-5.8325-21.7076-12.16a10.2272,10.2272,0,0,0-3.5987-2.617c-4.4531-3.2393-9.6784-4.6717-14.8108-6.3165-2.5665-.8224-4.7379-2.051-5.4023-4.9409.3653-5.393,3.78-8.6,9.242-8.6474,4.8075-.0418,8.8083,2.2212,12.7135,4.6243,3.11,1.9135,6.0223,4.1531,9.1709,5.9939,1.7718,1.0359,3.9041,1.284,5.5624-.3835,1.6941-1.7036-.0812-3.096-.7929-4.4159-6.47-11.9975-13.1542-23.885-19.1434-36.1312-3.7155-7.5972-6.3281-15.58-6-24.2093.1662-4.3753,1.2412-4.9986,5.2483-3.3766.3755.152.7407.3569,1.1823.1132a46.7758,46.7758,0,0,1,.0306-4.9271c.3284-3.0926,2.5109-4.2085,5.3827-3.0324,1.8982.7773,2.6549,2.6079,3.9873,3.9-.5639.0776-.9371.3826-.9071.9668.0638,1.2412-.6074,1.7973-1.7258,2.0026a2.4124,2.4124,0,0,1-2.6412-1.3243c-.5814-.8451-.5258-2.0435-1.6378-2.56.8113,1.6834-.1147,4.363,2.6752,4.8917,3.0022.569,4.1628-.5163,4.4128-3.7447l.8765,1.388c.6582,1.2188.3763,2.8021,1.4867,3.8473-.2581.7292.23,1.3164.4883,1.8727a94.1341,94.1341,0,0,0,20.0875,27.6435c.5033.4917,1.0241.8615,1.7588.5422a6.5948,6.5948,0,0,0-1.31-2.3186q-3.799-4.6254-7.4964-9.3342a184.7751,184.7751,0,0,1-12.6267-18.3877l-1.4826-3.926c2.1232-3.0749,4.0816-3.834,6.336-2.0274,3.5395,2.8363,6.7055,6.2739,8.1575,10.5336a45.371,45.371,0,0,0,14.8195,20.8647c.3721.3037.6169.8969,1.1495.3617a.8938.8938,0,0,0-.0649-1.1509,13.1942,13.1942,0,0,0-.9871-1.1227,105.0048,105.0048,0,0,1-13.4941-18.5354,2.9678,2.9678,0,0,1,.5919-4.0137c1.3037-1.2257,2.5053-.216,3.5188.6353a16.9982,16.9982,0,0,1,2.4119,2.5224c7.455,9.5055,15.5983,18.4252,23.4814,27.5645,7.9893,9.2625,15.177,18.972,19.0009,30.7974,1.3868,4.2887,1.9652,8.7555,3.1169,13.092.2965,5.6307,2.8386,10.4964,5.25,15.4068.4272,2.9069,1.9553,5.4015,3.0964,8.0268,2.45,5.6372,5.0612,11.2479,9.113,15.9255,1.8912,2.1833,2.5949,4.2664,1.7451,6.9442a32.6281,32.6281,0,0,1-11.6008,17.0809,1.469,1.469,0,0,0-.4649,2.262,2.12,2.12,0,0,0,1.7206,2.7523.4.4,0,0,1,.19.4282ZM929.0029,458.53l-.1753-.4054-.1865.2394.3679.16a5.6063,5.6063,0,0,0,1.1648,3.0622c.9528,1.8128,1.5326,3.83,2.95,5.3885-.335.5412.0532.8983.2866,1.3384,2.9855,5.63,5.94,11.2765,8.92,16.91a52.1333,52.1333,0,0,0,9.3847,12.4863c.725-1.2655-.0118-2.025-.5346-2.801-4.869-7.2275-9.408-14.6529-13.7607-22.2051-1.1384-1.9753-2-4.2635-3.9228-5.7536.0516-2.4093-1.7213-3.9214-2.8324-5.7583A4.6243,4.6243,0,0,0,929.0029,458.53Zm-5.4211,69.5606a5.6233,5.6233,0,0,0,1.8155-6.105c-.4869-1.3516-1.4265-1.65-3.8346-1.2175,3.1031.9664,3.7734,2.4361,2.5306,5.5552-.2136.5361-.4375,1.0681-.6552,1.6036a18.1254,18.1254,0,0,1-4.5259-.1234C920.4212,528.6856,921.9086,529.8615,923.5818,528.0908Zm22.8472-72.738c-1.19,1.3744,1.209,3.2484-.7987,3.8944-1.5493.4985-2.37-1.3639-3.5688-2.4223-.1418,2,1.0833,2.7773,2.454,3.4271a2.0035,2.0035,0,0,0,2.4684-.5972C948.1373,458.1762,946.5484,456.9573,946.429,455.3528Zm-17.8206,6.29c-3.1915,2.8576-3.8218,2.5507-5.5061-2.0929.1567,1.8552-.5034,4.26,2.0528,4.8548C926.5248,464.7232,928.2261,464.11,928.6084,461.6426Zm33.2237,3.9147a6.7823,6.7823,0,0,1-3.9756-3.1924C957.8785,465.303,958.69,465.9982,961.8321,465.5573Z" transform="translate(-831.5282 -408.3947)"/><path class="cls-12" d="M1007.95,534.5989c-1.1517-4.3365-1.73-8.8033-3.1169-13.092-3.8239-11.8254-11.0116-21.5349-19.0009-30.7974-7.8831-9.1393-16.0264-18.059-23.4814-27.5645a16.9982,16.9982,0,0,0-2.4119-2.5224c-1.0135-.8513-2.2151-1.861-3.5188-.6353a2.9678,2.9678,0,0,0-.5919,4.0137,105.0048,105.0048,0,0,0,13.4941,18.5354,13.1942,13.1942,0,0,1,.9871,1.1227.8938.8938,0,0,1,.0649,1.1509c-.5326.5352-.7774-.058-1.1495-.3617a45.371,45.371,0,0,1-14.8195-20.8647c-1.452-4.26-4.618-7.6973-8.1575-10.5336-2.2544-1.8066-4.2128-1.0475-6.3356,2.0264q-.4523.03-.9054.0627-.4386-.6943-.8771-1.3885a.175.175,0,0,0-.1761-.2327c-1.3324-1.2924-2.0891-3.123-3.9873-3.9-2.8718-1.1761-5.0543-.06-5.3827,3.0324a46.7758,46.7758,0,0,0-.0306,4.9271c-.4416.2437-.8068.0388-1.1823-.1132-4.0071-1.622-5.0821-.9987-5.2483,3.3766-.3278,8.63,2.2848,16.6121,6,24.2093,5.9892,12.2462,12.6738,24.1337,19.1434,36.1312.7117,1.32,2.487,2.7123.7929,4.4159-1.6583,1.6675-3.7906,1.4194-5.5624.3835-3.1486-1.8408-6.0614-4.08-9.1709-5.9939-3.9052-2.4031-7.906-4.6661-12.7135-4.6243-5.4615.0475-8.8767,3.2544-9.242,8.6474-2.226-.9727-3.693-2.8267-5.2012-4.5987-.3713-.4363-.1218-1.12.49-1.4628a8.6524,8.6524,0,0,1,1.2695,1.1356c1.0865,1.4311,1.76,1.7539,2.9082-.1672a11.4748,11.4748,0,0,1,6.3061-4.9953c2.4465-.8267,4.9234-.3464,7.392-.3308l.1584.1463.2115-.0422a59.6326,59.6326,0,0,1,12.1628,6.2652,42,42,0,0,0,6.6839,4.3524c.739.3319,1.7286.6454,2.3216-.0693.4658-.5612-.2454-1.23-.5488-1.7877-2.943-5.4073-5.9875-10.7606-8.8557-16.2069-4.8036-9.1213-10.25-17.9338-13.7239-27.7071-2.19-6.1612-3.641-12.472-2.9893-19.0868.3659-3.7139,1.3738-4.7021,5.0786-5.0678.51-.05,1.1443.0661,1.1346-.604-.0293-2.0165,1.313-3.7153,1.245-5.7246,3.61-1.2032,7.1115-1.6513,10.1042,1.4491,1.2151,1.5311,2.346,2.26,4.4108.9031,1.66-1.0912,3.673-.4855,5.3725.7058a22.9078,22.9078,0,0,1,4.8469,4.9906c1.1309,1.4653,1.8983,3.4844,4.3522,1.4505.85-.7043,2.24-.1641,3.2881.4855a13.9088,13.9088,0,0,1,3.5154,3.1413c2.24,2.7828,4.4391,5.5995,6.7039,8.3622,8.324,10.1539,17.2327,19.829,25.0167,30.4238,2.1,2.8577,3.98,5.8762,5.9615,8.821-.2632.881.169,1.2278.9839,1.2808.43,2.4515,1.6758,4.5747,2.6672,6.8095,1.0134,2.2844,2.4091,4.4711,2.3395,7.1213C1006.6685,527.5927,1008.6,530.9773,1007.95,534.5989Z" transform="translate(-831.5282 -408.3947)"/><path class="cls-13" d="M906.66,517.9481c-.6122.343-.8617,1.0265-.49,1.4628,1.5082,1.772,2.9752,3.626,5.2012,4.5987.6644,2.89,2.8358,4.1185,5.4023,4.9409,5.1324,1.6448,10.3577,3.0772,14.8109,6.3166-.0514,1.0869-.7888,1.2652-1.6662,1.2583l-3.9456-1.9425a.3811.3811,0,0,0,.0877-.2967c-.2076-.8693-.9005-.787-1.55-.79l-.2159-.111.2081.1187c.0169.5241.1809.9284.79.9707l.2942.5076.0343,1.0378q-.144.2545-.2878.5093c-.39.3756-.31.866-.3257,1.3331a57.5114,57.5114,0,0,1-17.2793-14.365c-3.1559-3.7384-5.97-7.9968-10.2386-10.69-3.29-2.0759-5.9107-5.03-9.4357-6.815-1.3806-.6992-2.6325-1.6906-4.0437-2.4546-4.1576-2.2507-3.9758-7.9691-.7468-10.4318a13.91,13.91,0,0,1,12.1146-2.6989c1.1285.2533,2.297.345,3.41.6487a10.1768,10.1768,0,0,1,4.9595,2.6841,34.3589,34.3589,0,0,0,8.3347,5.9314c1.808.9573,3.3141,2.3357,5.1942,3.158,1.5268.6678,2.9609,1.4827,4.7087,1.18l2.27.0285q.0881.7242.1765,1.4482l-.9106.5826a19.5426,19.5426,0,0,1-2.915-.3925c-4.7858-1.2108-8.8708-3.7113-12.8214-6.5215-2.4381-1.7343-4.72-3.7219-7.4555-4.9915-4.5987-2.1345-9.32-2.6672-13.9138-.1468-4.5317,2.4864-4.5168,5.2435-.0713,7.7655a89.9122,89.9122,0,0,1,15.7839,11.3228C903.762,514.5735,905.7582,515.7683,906.66,517.9481Z" transform="translate(-831.5282 -408.3947)"/><path class="cls-10" d="M925.3326,536.529l.2877-.5093c2.312,3.732,1.2489,7.8759,1.3333,11.8459a30.5152,30.5152,0,0,0,1.9085,11.28,4.4805,4.4805,0,0,1,.1106,2.2239c-.6432,4.5748.6538,9.0187,1.2181,13.4555.4864,3.8248.6254,7.8628,1.9228,11.4851,2.5012,6.9828,2.8442,14.4252,5.421,21.456,2.014,5.4952,4.6585,10.91,5.5272,16.8441.3259,2.227,2.355,3.0815,4.1474,3.248,2.0438.19,4.32.8115,6.2567-.6983a1.0334,1.0334,0,0,1,.7158-.1508c4.4892.67,8.7662-1.1869,13.2265-1.063a108.4525,108.4525,0,0,0,16.5629-1.2543c5.041-.639,10.0271-.2635,15.0044-.7947q1.2948.0568,2.59.1126c-6.8562.6495-13.7105,1.32-20.5691,1.9438q-17.9978,1.6376-36,3.23l-.9205-.4039a3.3978,3.3978,0,0,0-1.02-1.9668c-6.104-14.0366-9.9789-28.7192-12.6161-43.7524a366.1994,366.1994,0,0,1-4.4376-37.4026c-.1114-1.57-.3317-3.1323-.5016-4.6977Q925.4165,538.7452,925.3326,536.529Z" transform="translate(-831.5282 -408.3947)"/><path class="cls-13" d="M977.9666,436.5991a1.1492,1.1492,0,0,0-.0043.42c.3461,1.0052-.6812,2.4785,1.0295,3.0181l-.0057-.0064a.9387.9387,0,0,1-.9169,1.0384q-.7569-.0221-1.5126-.0437l-.1283-.9675a3.4661,3.4661,0,0,0-3.3209-4.9691,8.041,8.041,0,0,1-5.5639-2.0361,2.2719,2.2719,0,0,0-2.1368-1.4465c-2.126.0852-4.122.4959-5.4781,2.3918-1.9668,2.75-2.6815,6.0357-3.9018,9.1035-.0783.1969.266.562.4137.8488-1.2725.2516-.8255,1.2979-.9594,2.0758l-1.4336.3513-.7074-.33c.0782-.3193.1329-.6466.2385-.9565a3.822,3.822,0,0,0-1.5616-4.7593c-1.5659-1.0141-3.1943-.2952-4.5636.7494a7.8951,7.8951,0,0,0-3.5149,6.4368l-.6867.8628-1.2429-.1091c-.4492-2.3945.5887-4.3733,1.8022-6.2821.6559-1.0316,1.77-1.7324,2.1847-2.9493l.0084-.0075a2.8952,2.8952,0,0,0,1.9938-.99c2.0018.0718,3.98-.5138,5.9952.63,1.1557.656,1.6938-.7733,2.0024-1.8283,1.7318-5.9209,5.64-7.803,10.6542-7.2247,1.031.1189,2.1895.3247,2.6034,1.57.61,1.8359,1.5812,2.9473,3.7864,2.4505a6.5562,6.5562,0,0,1,2.409.4265A5.921,5.921,0,0,0,977.9666,436.5991Z" transform="translate(-831.5282 -408.3947)"/><path class="cls-9" d="M978.07,441.069a.9388.9388,0,0,0,.9162-1.0386c4.3266.0027,8.6534.0247,12.98-.0054,1.0965-.0076,1.7547.172,2.1825,1.4265.8077,2.369,1.3113,4.7949,1.9522,7.1867,1.0018,3.7391.4254,7.6068,1.6065,11.3342.5662,1.7867,1.1557,3.9781.3141,6.0577-.511,1.2627.908,2.0689.93,3.2232a37.55,37.55,0,0,1-.0047,4.9882c-.54,4.6842.7267,9.2511,1.3183,13.7741.4626,3.5373.1244,7.0959.809,10.5254a51.3929,51.3929,0,0,1,.8966,11.53c-.815-.0522-1.2472-.399-.984-1.28-.02-.7472.0067-1.499-.0673-2.2408-1.3213-13.2361-2.58-26.4791-4.0143-39.7032-.8241-7.6-1.6625-15.2029-3.0825-22.73-.4457-2.3623-1.6139-3.191-3.9122-3.14a72.3277,72.3277,0,0,0-8.457.5155,4.2526,4.2526,0,0,0-2.4542.2146l-.9625-.115Q978.0529,441.33,978.07,441.069Z" transform="translate(-831.5282 -408.3947)"/><path class="cls-9" d="M945.9958,439.04c-.4151,1.2169-1.5288,1.9177-2.1847,2.9493-1.2135,1.9088-2.2514,3.8876-1.8021,6.2822-1.4185.6963-3.3313-.4034-4.4906,1.2354-2.9927-3.1-6.4943-2.6523-10.104-1.4492-1.8572.253-3.6033-.3774-5.3739-.7292-3.4906-.6935-6.9563-1.551-10.5553-1.337-3.0716.1827-4.243,1.516-4.296,4.56-.0354,2.03.7516,3.8916.9751,5.86q-.1223.098-.2438.1969c-2.021-2.7578-2.2284-10.5422,1.1218-11.9252.6047-.25,1.2252-.9273,1.7988-.5151,2.1218,1.5244,4.5315.439,6.7345.9046,6.2734,1.3257,12.6174.9084,18.9441.9745.7113.0074,1.3343.1084,1.4649.9836.1569,1.0506.9467,1.0155,1.71.9323a1.3272,1.3272,0,0,0,1.2662-1.7692c-.996-2.9561,2.8515-4.113,2.482-6.8958C943.3916,438.9132,945.1047,439.1446,945.9958,439.04Z" transform="translate(-831.5282 -408.3947)"/><path class="cls-9" d="M944.9963,629.1841q18-1.6128,36-3.23c6.8586-.624,13.7129-1.2943,20.5689-1.9439l2.9756-.1739a.8021.8021,0,0,0-.1141.246c-2.8633,2.5228-6.37,2.1189-9.6855,1.8116-4.9373-.4577-9.7793.5744-14.49,1.3357-4.2189.6819-8.3353.4138-12.4842.7149-4.3657.3169-8.6444,1.1809-12.9583,1.7774C951.6346,630.1606,948.1721,630.8811,944.9963,629.1841Z" transform="translate(-831.5282 -408.3947)"/><path class="cls-13" d="M1027.1543,580.9022c.85-2.6778.1461-4.7609-1.7451-6.9442-4.0518-4.6776-6.6628-10.2883-9.113-15.9255-1.1411-2.6253-2.6692-5.12-3.0964-8.0269q.8813.5217,1.7625,1.0437c-.1219,2.9556,2.13,4.9018,3.162,7.3682a91.3983,91.3983,0,0,0,8.1088,14.9913,10.4231,10.4231,0,0,1,1.6769,6.1368C1027.9171,580.1464,1027.9061,580.7282,1027.1543,580.9022Z" transform="translate(-831.5282 -408.3947)"/><path class="cls-9" d="M924.254,504.0375l-2.27-.0286a8.1835,8.1835,0,0,0,.3126-7.458,21.6292,21.6292,0,0,1-1.12-6.1461c-.279-3.872-2.0794-6.9914-3.5626-10.3377-1.495-3.3728-3.2769-6.663-3.7078-10.4218l.0977-.1175a14.7594,14.7594,0,0,1,.9879,1.417A81.33,81.33,0,0,1,924.254,504.0375Z" transform="translate(-831.5282 -408.3947)"/><path class="cls-9" d="M1014.9623,551.0493q-.8813-.522-1.7625-1.0437c-2.4109-4.91-4.953-9.776-5.25-15.4067.6494-3.6216-1.2818-7.0062-.9733-10.5965a5.8026,5.8026,0,0,1,1.9211,4.8983c-.2273,4.127.4118,7.9325,2.7926,11.3859.765,1.11.5987,2.6307.6615,3.7661C1012.5027,546.7728,1015.1475,548.3661,1014.9623,551.0493Z" transform="translate(-831.5282 -408.3947)"/><path class="cls-9" d="M913.9064,469.6453c-3.3714-3.714-5.6856-7.9132-5.9852-13.037.08-.0654.1616-.131.243-.1962q2.92,6.5578,5.84,13.1157Z" transform="translate(-831.5282 -408.3947)"/><path class="cls-9" d="M977.9666,436.5991a5.921,5.921,0,0,1-2.518-2.5332A2.29,2.29,0,0,1,977.9666,436.5991Z" transform="translate(-831.5282 -408.3947)"/><path class="cls-9" d="M978.9918,440.0368c-1.7107-.54-.6834-2.0129-1.0295-3.0181C979.7725,437.524,978.6569,439.0278,978.9918,440.0368Z" transform="translate(-831.5282 -408.3947)"/><path class="cls-10" d="M1016.8092,602.9974a2.12,2.12,0,0,1-1.7206-2.7523A6.7011,6.7011,0,0,1,1016.8092,602.9974Z" transform="translate(-831.5282 -408.3947)"/><path class="cls-12" d="M925.3326,536.529q.0839,2.2161.1677,4.4317c-.8168-.9282-.2541-2.0758-.4934-3.0971C925.0224,537.395,924.9424,536.9046,925.3326,536.529Z" transform="translate(-831.5282 -408.3947)"/><path class="cls-10" d="M1016.9876,604.9616l.0118-1.536a4.5617,4.5617,0,0,1,1.59,2.4361l-.6159.1122a.9432.9432,0,0,0-.99-1.0125Z" transform="translate(-831.5282 -408.3947)"/><path class="cls-9" d="M943.0556,626.8134a3.3978,3.3978,0,0,1,1.02,1.9668C942.09,628.9783,943.3978,627.4678,943.0556,626.8134Z" transform="translate(-831.5282 -408.3947)"/><path class="cls-9" d="M947.998,438.0421a2.8952,2.8952,0,0,1-1.9938.99C946.173,437.7044,947.2185,438.1409,947.998,438.0421Z" transform="translate(-831.5282 -408.3947)"/><path class="cls-12" d="M929.9175,536.5254c.8774.0069,1.6148-.1714,1.6662-1.2583a10.2263,10.2263,0,0,1,3.5986,2.6169c5.9772,6.328,13.6158,9.64,21.7076,12.16a23.4568,23.4568,0,0,1,14.475,11.9623c4.4,8.2,8.8318,16.3526,12.43,24.9395q-.4466.086-.8926.1731c-4.1184-7.7742-7.9733-15.7038-12.4372-23.2744-3.6785-6.2386-8.4669-11.2162-16.31-12.72a33.4844,33.4844,0,0,1-16.4066-8.4866C935.3213,540.402,932.5393,538.5506,929.9175,536.5254Z" transform="translate(-831.5282 -408.3947)"/><path class="cls-5" d="M944.5425,577.4434c1.8934,1.1671,2.6834,3.2476,4.0023,4.887a54.5185,54.5185,0,0,1,5.1133,7.4465c-3.5371-3.7307-7.1761-7.3783-9.1921-12.2672Z" transform="translate(-831.5282 -408.3947)"/><path class="cls-6" d="M1004.54,623.8361l-2.9756.1739q-1.2945-.0558-2.5893-.1125c.0727-.7348.456-1.4041,1.1759-1.3563,3.6387.2414,7.1914-1.0287,10.8333-.56-1.2207,1.8323-3.3527.54-4.8779,1.409C1005.6646,623.6425,1004.975,623.3454,1004.54,623.8361Z" transform="translate(-831.5282 -408.3947)"/><path class="cls-9" d="M982.9025,587.1194q.4461-.0869.8926-.1731,2.2311,4.7679,4.4617,9.5346c-.6687.49-.8814-.1441-1.0625-.5137A86.4973,86.4973,0,0,1,982.9025,587.1194Z" transform="translate(-831.5282 -408.3947)"/><path class="cls-5" d="M966.9546,604.5153a24.7987,24.7987,0,0,1-8.0605-8.4279c.0615-.0687.1248-.1337.1908-.1961,2.8058,2.7033,5.8039,5.228,7.942,8.5513Z" transform="translate(-831.5282 -408.3947)"/><path class="cls-3" d="M972.5731,609.9656c2.6331,1.3714,4.6413,3.5029,6.7,5.5869a18.2082,18.2082,0,0,1-7.2919-5.5575Q972.2774,609.98,972.5731,609.9656Z" transform="translate(-831.5282 -408.3947)"/><path class="cls-5" d="M943.9635,576.5183a12.1526,12.1526,0,0,1-3.7173-7.1365c1.1077,2.4438,3.1934,4.3562,3.7831,7.08Z" transform="translate(-831.5282 -408.3947)"/><path class="cls-2" d="M988.4919,596.7109c.1857,1.8275,2.1554,3.1389,1.5071,5.2077-.55-1.0692-1.1642-2.1116-1.625-3.2179C988.1155,598.08,987.2514,597.2924,988.4919,596.7109Z" transform="translate(-831.5282 -408.3947)"/><path class="cls-5" d="M956.89,594.0757c-1.2875-.7758-2.051-1.9818-3.1152-3.6559a4.9061,4.9061,0,0,1,3.3462,3.41A2.6487,2.6487,0,0,1,956.89,594.0757Z" transform="translate(-831.5282 -408.3947)"/><path class="cls-3" d="M982.9869,617.9676a4.11,4.11,0,0,1-2.7591-1.6105c1.1991.0618,2.3447.2146,2.7568,1.6131Z" transform="translate(-831.5282 -408.3947)"/><path class="cls-5" d="M957.1209,593.83a2.8341,2.8341,0,0,1,1.9632,2.0625q-.0978.0925-.19.1954a2.8194,2.8194,0,0,1-2.0034-2.0124A2.6514,2.6514,0,0,0,957.1209,593.83Z" transform="translate(-831.5282 -408.3947)"/><path class="cls-5" d="M938.6836,564.2014c.3659.9245.9458,1.5486.5687,2.5479C938.2983,566.0785,938.4383,565.2767,938.6836,564.2014Z" transform="translate(-831.5282 -408.3947)"/><path class="cls-3" d="M982.9846,617.97c.4418.0744,1-.17,1.2462.4256a.4052.4052,0,0,1-.1877.3459c-.608.114-.8151-.3611-1.0562-.7741Z" transform="translate(-831.5282 -408.3947)"/><path class="cls-11" d="M1018.4854,606.9626a1.1262,1.1262,0,0,1,.5134,1.0022C1018.3557,607.8727,1017.7142,607.78,1018.4854,606.9626Z" transform="translate(-831.5282 -408.3947)"/><path class="cls-5" d="M967.5189,604.9421a.9542.9542,0,0,1,.9773,1.0275l-.0121.01a.8815.8815,0,0,1-1.0317-.971Z" transform="translate(-831.5282 -408.3947)"/><path class="cls-11" d="M1016.9838,604.9614a.9432.9432,0,0,1,.99,1.0125A.9045.9045,0,0,1,1016.9838,604.9614Z" transform="translate(-831.5282 -408.3947)"/><path class="cls-5" d="M939.8852,567.9738l-.08.1836-.1945-.2564c.0548-.0324.1258-.1028.1608-.088C939.8226,567.8347,939.8484,567.9172,939.8852,567.9738Z" transform="translate(-831.5282 -408.3947)"/><path class="cls-5" d="M944.466,577.51a1.0006,1.0006,0,0,1-.5019-.9919l.0652-.0565a1.0074,1.0074,0,0,1,.5124.9828Z" transform="translate(-831.5282 -408.3947)"/><path class="cls-5" d="M968.9707,607a.9883.9883,0,0,1-.4865-1.02l.012-.01a.9363.9363,0,0,1,.5336.9614Z" transform="translate(-831.5282 -408.3947)"/><path class="cls-5" d="M969.9582,607.51a1.0131,1.0131,0,0,1-.9872-.5109l.0588-.0684a1.0115,1.0115,0,0,1,.9914.5156Z" transform="translate(-831.5282 -408.3947)"/><path class="cls-5" d="M971.019,608.4382c.1274.1919.258.3819.3732.5809a1.3691,1.3691,0,0,1-.1827.1481q-.1295-.33-.2581-.6613Z" transform="translate(-831.5282 -408.3947)"/><path class="cls-10" d="M925.5861,534.9819q-.1471-.2538-.2941-.5078l.7676-.1879a.3811.3811,0,0,1-.0877.2967Z" transform="translate(-831.5282 -408.3947)"/><path class="cls-5" d="M970.51,607.949q.2541.2451.5085.49l-.0671.0671q-.2444-.2548-.487-.5112Z" transform="translate(-831.5282 -408.3947)"/><path class="cls-5" d="M972.5731,609.9656q-.2956.0145-.5915.0294C972.1553,609.5187,972.3609,609.6755,972.5731,609.9656Z" transform="translate(-831.5282 -408.3947)"/><path class="cls-5" d="M967.0269,604.4426q.2454.25.4913.5l-.0658.0661c-.166-.1646-.3309-.33-.4968-.4948Z" transform="translate(-831.5282 -408.3947)"/><path class="cls-5" d="M970.0212,607.4466q.244.2515.4885.5028l-.0453.0453q-.253-.2425-.5055-.4851Z" transform="translate(-831.5282 -408.3947)"/><path class="cls-12" d="M941.3947,459.0034a184.7751,184.7751,0,0,0,12.6267,18.3877q3.7056,4.701,7.4964,9.3342a6.5948,6.5948,0,0,1,1.31,2.3186c-.7347.3193-1.2555-.05-1.7588-.5422a94.1341,94.1341,0,0,1-20.0875-27.6435c-.2585-.5563-.7464-1.1435-.4886-1.8721Q940.9435,458.9953,941.3947,459.0034Z" transform="translate(-831.5282 -408.3947)"/><path class="cls-12" d="M933.4967,466.9493c1.9226,1.49,2.7844,3.7783,3.9228,5.7536,4.3527,7.5522,8.8917,14.9776,13.7607,22.2051.5228.776,1.26,1.5355.5346,2.801a52.1333,52.1333,0,0,1-9.3847-12.4863c-2.98-5.6333-5.9342-11.28-8.92-16.91-.2334-.44-.6216-.7972-.2872-1.3379l.19.0388Z" transform="translate(-831.5282 -408.3947)"/><path class="cls-5" d="M937.9539,453.5179a.175.175,0,0,1,.1761.2327c-.25,3.228-1.4106,4.3133-4.4128,3.7443-2.79-.5287-1.8639-3.2083-2.6752-4.8917,1.112.5163,1.0564,1.7147,1.6378,2.56a2.4124,2.4124,0,0,0,2.6412,1.3243c1.1184-.2053,1.79-.7614,1.7258-2.0026C937.0168,453.9005,937.39,453.5955,937.9539,453.5179Z" transform="translate(-831.5282 -408.3947)"/><path class="cls-5" d="M946.429,455.3528c.1194,1.6045,1.7083,2.8234.5549,4.302a2.0035,2.0035,0,0,1-2.4684.5972c-1.3707-.65-2.5958-1.4275-2.454-3.4271,1.1986,1.0584,2.0195,2.9208,3.5688,2.4223C947.638,458.6012,945.2392,456.7272,946.429,455.3528Z" transform="translate(-831.5282 -408.3947)"/><path class="cls-5" d="M923.4367,527.9255c.2191-.5339.443-1.0659.6566-1.602,1.2428-3.1191.5725-4.5888-2.5306-5.5552,2.4081-.4324,3.3477-.1341,3.8346,1.2175a5.6233,5.6233,0,0,1-1.8155,6.105Z" transform="translate(-831.5282 -408.3947)"/><path class="cls-5" d="M928.6084,461.6426c-.3823,2.467-2.0836,3.0806-3.4533,2.7619-2.5562-.5947-1.8961-3-2.0528-4.8548C924.7866,464.1933,925.4169,464.5,928.6084,461.6426Z" transform="translate(-831.5282 -408.3947)"/><path class="cls-9" d="M933.4967,466.9493l-.1834.0645-.19-.0388c-1.4168-1.5591-1.9966-3.5762-2.9494-5.389l.4908-.3958C931.7754,463.0279,933.5483,464.54,933.4967,466.9493Z" transform="translate(-831.5282 -408.3947)"/><path class="cls-5" d="M961.8321,465.5573c-3.1422.4409-3.9536-.2543-3.9756-3.1924A6.7823,6.7823,0,0,0,961.8321,465.5573Z" transform="translate(-831.5282 -408.3947)"/><path class="cls-2" d="M941.3947,459.0034q-.451-.0084-.9018-.0173c-1.11-1.0458-.8282-2.6291-1.4864-3.8479.3025-.02.6045-.0415.906-.0618Q940.6532,457.041,941.3947,459.0034Z" transform="translate(-831.5282 -408.3947)"/><path class="cls-5" d="M923.5818,528.0908c-1.6732,1.7707-3.1606.5948-4.67-.2871a18.0826,18.0826,0,0,0,4.5252.1226Z" transform="translate(-831.5282 -408.3947)"/><path class="cls-2" d="M930.1738,461.586a5.6063,5.6063,0,0,1-1.1648-3.0622l-.0061.0064a4.6252,4.6252,0,0,1,1.6615,2.66Q930.4193,461.3879,930.1738,461.586Z" transform="translate(-831.5282 -408.3947)"/><path class="cls-2" d="M929.009,458.5238l-.3679-.16.1865-.2394.1753.4054Z" transform="translate(-831.5282 -408.3947)"/><path class="cls-14" d="M937.5184,449.507c1.1593-1.6388,3.0721-.5391,4.4906-1.2354q.6213.0543,1.243.1091a27.3611,27.3611,0,0,0,6.5066-.7054c1.4621-.2913,3.1-.0818,4.2889-1.2981l1.4337-.3514a19.1307,19.1307,0,0,0,6.0609-1.1556c1.6549-.4822,3.69-.1238,4.9113-1.8133l.0121-.0077c.6928.4767,1.33-.0948,1.9971-.1056a19.1012,19.1012,0,0,0,8.573-1.1006l1.0011-.2514.962.115a1.8372,1.8372,0,0,0,2.4544-.2145,72.3277,72.3277,0,0,1,8.457-.5155c2.2983-.0511,3.4665.7776,3.9122,3.14,1.42,7.5274,2.2584,15.1305,3.0825,22.73,1.4339,13.2241,2.693,26.4671,4.0143,39.7032.074.7418.0472,1.4936.0673,2.2408-1.9812-2.9448-3.8619-5.9633-5.9615-8.821-7.784-10.5948-16.6927-20.27-25.0167-30.4238-2.2648-2.7627-4.4636-5.5794-6.7039-8.3622a13.9088,13.9088,0,0,0-3.5154-3.1413c-1.0479-.65-2.4383-1.19-3.2881-.4855-2.4539,2.0339-3.2213.0148-4.3522-1.4505a22.9078,22.9078,0,0,0-4.8469-4.9906c-1.6995-1.1913-3.7121-1.797-5.3725-.7058C939.8644,451.7671,938.7335,451.0381,937.5184,449.507Zm49.4952,17.0457c2.5911-3.1433,2.7246-10.7359.184-11.5928,1.7738,3.8921.3831,7.7064-.241,11.5383-1.9866,1.6061-1.7688,3.84-1.7512,6.0173A16.9025,16.9025,0,0,0,987.0136,466.5527Zm-2.1885,15.0383v-8.0857C984,476.6077,983.48,479.0627,984.8251,481.591ZM980.2582,450.16c.9845,1.08,1.5646,1.5788,2.6344.9655C982.2878,450.393,981.58,450.2631,980.2582,450.16Zm4.937,33.5528.1047-.3328-.1873.052Z" transform="translate(-831.5282 -408.3947)"/><path class="cls-15" d="M914.0041,469.5278q-2.92-6.5579-5.84-13.1157c-.2234-1.9689-1.01-3.8308-.975-5.8605.053-3.044,1.2244-4.3773,4.296-4.56,3.599-.214,7.0647.6435,10.5553,1.337,1.7706.3518,3.5167.9822,5.3739.7292.0678,2.0094-1.2745,3.7082-1.2452,5.7247.01.67-.6245.5537-1.1346.604-3.7048.3657-4.7127,1.3539-5.0786,5.0678-.6517,6.6148.799,12.9256,2.9893,19.0868,3.4744,9.7733,8.92,18.5858,13.7239,27.7071,2.8682,5.4463,5.9127,10.8,8.8557,16.2069.3034.5573,1.0146,1.2265.5488,1.7877-.593.7147-1.5826.4012-2.3216.0693a42,42,0,0,1-6.6839-4.3524,59.6381,59.6381,0,0,0-12.1628-6.2653c-.017-2.7445.7122-5.5321-.4751-8.2087q-.0883-.7242-.1765-1.4483a81.327,81.327,0,0,0-9.2618-33.0926A14.7594,14.7594,0,0,0,914.0041,469.5278Zm19.0516,35.9312c-.1119-.4538-.1676-.954-.7333-1.0842-.061-.014-.24.1834-.2485.292-.0491.6072.3787.7931.8647.91q1.8032,4.3728,3.6064,8.7455C936.272,510.9845,935.618,507.8162,933.0557,505.459Zm4.2012,9.81c-.0546.0427-.161.0962-.1547.1261a2.2177,2.2177,0,0,0,.1334.3573c.0543-.0431.16-.0966.1538-.1274A2.0863,2.0863,0,0,0,937.2569,515.2686Z" transform="translate(-831.5282 -408.3947)"/><path class="cls-6" d="M906.66,517.9481c-.9015-2.18-2.8977-3.3746-4.5331-4.8439a89.9122,89.9122,0,0,0-15.7839-11.3228c-4.4455-2.522-4.46-5.2791.0713-7.7655,4.5939-2.52,9.3151-1.9877,13.9138.1468,2.7354,1.27,5.0174,3.2572,7.4555,4.9915,3.9506,2.81,8.0356,5.3107,12.8214,6.5215a19.5426,19.5426,0,0,0,2.915.3925,20.9019,20.9019,0,0,1,1.0158,7.5222c-2.4686-.0156-4.9455-.4959-7.392.3308a11.4748,11.4748,0,0,0-6.3061,4.9953c-1.1485,1.9211-1.8217,1.5983-2.9082.1672A8.6524,8.6524,0,0,0,906.66,517.9481Z" transform="translate(-831.5282 -408.3947)"/><path class="cls-5" d="M924.5355,513.59a20.9019,20.9019,0,0,0-1.0158-7.5222l.9106-.5826c1.1873,2.6767.4581,5.4643.4751,8.2088l-.2115.0423Z" transform="translate(-831.5282 -408.3947)"/><path class="cls-12" d="M926.06,534.2862l-.7676.1879c-.6091-.0421-.7731-.4464-.79-.9705l.0079-.0078C925.1591,533.4992,925.852,533.4169,926.06,534.2862Z" transform="translate(-831.5282 -408.3947)"/><path class="cls-12" d="M924.502,533.5036l-.2081-.1187.2159.111Z" transform="translate(-831.5282 -408.3947)"/><path class="cls-6" d="M956.4405,443.95c-.1477-.2868-.492-.6519-.4137-.8488,1.22-3.0678,1.935-6.3537,3.9018-9.1035,1.3561-1.8959,3.3521-2.3066,5.4781-2.3918a2.2718,2.2718,0,0,1,2.1367,1.4463c.3472,3.4085-.8368,6.6519-1.0779,9.997l-.012.0077c-2.2484,0-4.3535.7634-6.5177,1.2153C958.747,444.52,957.522,444.9544,956.4405,443.95Z" transform="translate(-831.5282 -408.3947)"/><path class="cls-15" d="M943.9385,447.5178a7.8951,7.8951,0,0,1,3.5149-6.4368c1.3693-1.0446,2.9977-1.7635,4.5636-.7494a3.822,3.822,0,0,1,1.5616,4.7593c-.1056.31-.16.6372-.2385.9566Z" transform="translate(-831.5282 -408.3947)"/><path class="cls-15" d="M976.4283,440.0576l.1283.9676-.157.5208c-2.6338-.1517-5.1825.579-7.7852.7506a35.3783,35.3783,0,0,1,.4372-3.6923c.4024-1.8243,2.009-2.4174,3.5343-2.7072,1.4895-.2831,2.4466.77,3.0193,2.0922C975.9,438.67,976.1552,439.3676,976.4283,440.0576Z" transform="translate(-831.5282 -408.3947)"/><path class="cls-12" d="M976.4283,440.0576c-.2731-.69-.5283-1.3877-.8231-2.0683-.5727-1.3224-1.53-2.3753-3.0193-2.0922-1.5253.29-3.1319.8829-3.5343,2.7072a35.3256,35.3256,0,0,0-.437,3.6922q-.0759.3236-.1521.6471c-.6669.0108-1.3042.5823-1.997.1056.2411-3.3451,1.4251-6.5885,1.0779-9.997a8.0406,8.0406,0,0,0,5.564,2.0363A3.4661,3.4661,0,0,1,976.4283,440.0576Z" transform="translate(-831.5282 -408.3947)"/><path class="cls-5" d="M956.4405,443.95c1.0815,1.0044,2.3065.57,3.4953.3222,2.1642-.4519,4.2693-1.215,6.5177-1.2153-1.2216,1.69-3.2565,1.3311-4.9114,1.8133a19.1307,19.1307,0,0,1-6.0609,1.1556C955.615,445.2479,955.168,444.2016,956.4405,443.95Z" transform="translate(-831.5282 -408.3947)"/><path class="cls-5" d="M943.9385,447.5178l9.4016-1.47.7074.33c-1.1891,1.2164-2.8268,1.0069-4.2889,1.2982a27.3611,27.3611,0,0,1-6.5066.7054Q943.595,447.9492,943.9385,447.5178Z" transform="translate(-831.5282 -408.3947)"/><path class="cls-12" d="M976.4,441.546l.157-.5208q.756.0216,1.5126.0436-.0159.2617-.0328.5229l-1.0008.2513Z" transform="translate(-831.5282 -408.3947)"/><path class="cls-5" d="M981.4531,441.4921a1.8372,1.8372,0,0,1-2.4544.2145A4.2542,4.2542,0,0,1,981.4531,441.4921Z" transform="translate(-831.5282 -408.3947)"/><path class="cls-15" d="M986.9561,466.4978c.6246-3.8315,2.0153-7.6458.2415-11.5379,2.5406.8569,2.4071,8.45-.184,11.5928Z" transform="translate(-831.5282 -408.3947)"/><path class="cls-5" d="M976.4,441.546l.636.297a19.1012,19.1012,0,0,1-8.573,1.1006q.0761-.3236.152-.6471C971.2171,442.125,973.7658,441.3943,976.4,441.546Z" transform="translate(-831.5282 -408.3947)"/><path class="cls-15" d="M987.0136,466.5527a16.9025,16.9025,0,0,1-1.8082,5.9628c-.0176-2.1777-.2354-4.4112,1.751-6.0175Z" transform="translate(-831.5282 -408.3947)"/><path class="cls-15" d="M984.8251,481.591c-1.3449-2.5283-.8248-4.9833,0-8.0857Z" transform="translate(-831.5282 -408.3947)"/><path class="cls-15" d="M980.2582,450.16c1.3215.1028,2.03.2327,2.6344.9655C981.8228,451.7391,981.2427,451.2408,980.2582,450.16Z" transform="translate(-831.5282 -408.3947)"/><path class="cls-15" d="M985.1952,483.7131l-.0826-.2808.1873-.052Z" transform="translate(-831.5282 -408.3947)"/><path class="cls-5" d="M933.057,505.4578c2.561,2.3584,3.215,5.5267,3.488,8.8647q-1.8031-4.3727-3.6064-8.7455Z" transform="translate(-831.5282 -408.3947)"/><path class="cls-5" d="M932.9386,505.577c-.486-.1171-.9138-.303-.8647-.91.0088-.1086.1875-.306.2485-.292.5657.13.6214.63.7339,1.0836Z" transform="translate(-831.5282 -408.3947)"/><path class="cls-5" d="M937.2574,515.2685a2.1312,2.1312,0,0,1,.132.3561c.0062.0308-.1.0843-.1538.1274a2.2177,2.2177,0,0,1-.1334-.3573C937.0959,515.3648,937.2023,515.3113,937.2574,515.2685Z" transform="translate(-831.5282 -408.3947)"/></svg>